<svg data-name="レイヤー 2" xmlns="http://www.w3.org/2000/svg" viewBox="0 0 246.56 23.49"><path d="M5.38 11.15c0-.27.22-.46.45-.46.24 0 .46.17.46.46v2.98h2.03c.27 0 .43.21.43.42s-.15.42-.43.42H6.29v1.79c0 .29-.22.46-.45.46-.24 0-.46-.17-.46-.46v-1.79H.71c-.24 0-.71 0-.71-.46 0-.17.04-.32.13-.43l5.04-7.26c.1-.14.2-.21.38-.21.35 0 .48.29.48.42 0 .08-.01.17-.06.22l-4.81 6.83s0 .06.03.06h4.19v-2.98zm7.57-1.24c.46.49.53.57.53.83 0 .04-.03.21-.03.24l-.03 2.34.04 3.67-.04.42c-.07.18-.14.35-.36.35-.36 0-.45-.42-.52-.67-.08-.35-.08-.45-.06-.9l.14-2.16.03-.64v-1.34c0-.39-.04-1.25-.08-1.48l-.8 1.08c-.15.21-1.12 1.23-1.46 1.23-.03 0-.06 0-.11-.06.1-.18.32-.49.43-.66.85-1.18 2.48-4.02 2.48-5.07 0-.21-.06-.38-.15-.52-.17-.24-.18-.27-.18-.32 0-.11.15-.17.32-.17.13 0 .15.01.46.24.18.13.59.41.76.57.01.03.07.11.07.22 0 .14-.08.28-.21.43-.13.18-.2.27-.29.48l-.94 1.89zm3.88-1.75c-.04-.22-.25-1.26-.36-1.43-.14-.22-.41-.42-.52-.48-.21-.08-.24-.11-.24-.18 0-.2.22-.31.48-.31.64 0 1.44.45 1.44.85 0 .04-.03.28-.03.34 0 .1.03.35.04.46l.08.78.22 1.16c.14-.03.76-.21.87-.24l.67-.17c.18-.04.35-.08.52-.17.41-.21.43-.22.76-.22.48 0 .88.1.88.48 0 .22-.13.29-.49.35l-1 .15-1.08.22c-.15.03-.84.22-.97.25.04.25.08.49.14.67l.48 1.36.39.91c.84 1.96 2.33 3.32 2.58 3.32.14 0 .31-.6.35-.74l.36-1.33c.01-.06.06-.31.07-.36.03-.08.04-.1.15-.2.15-.04.14.38.13.57l-.06 1.08c-.06.97-.06 1.26.17 1.65.2.34.21.38.21.49 0 .18-.11.41-.42.41-.07 0-.69-.01-1.7-.87-.81-.7-1.62-1.82-1.64-1.85l-.71-1.22-.5-1.11-.49-1.37-.32-1.15-1.08.36c-.06.01-.29.13-.34.14-.24.1-.36.14-.48.14-1.01 0-1.33-.62-1.33-.77 0-.04.01-.11.03-.15.07-.01.15-.01.24.01.38.1.42.11.62.11.48 0 .7-.08.94-.15.41-.11.83-.22 1.22-.38l-.29-1.44zm1.83-2.02c.62 0 2.05.25 2.05 1.18 0 .21-.1.46-.29.46s-.28-.08-.73-.53c-.53-.52-.59-.57-1.07-.88-.03-.01-.14-.11-.18-.15.08-.06.1-.07.22-.07zm10.69.81l1.57-.22c.13-.01.66-.21.77-.21.24 0 .35.1.59.29.57.49.57.56.57.67l-.08.38c-.01.08-.1.52-.1.64l-.04 1.2-.04 1.58-.03 3.6c-.01 1.01-.01 1.43-.04 1.68-.03.24-.14.66-.55.66-.11 0-.22-.03-.28-.13-.11-.15-.21-.32-.28-.5-.15-.08-.28-.14-.64-.14-.21 0-.57.03-.74.04l-1.46.14-1.04.11-1.07.15h-.1c-.08.27-.14.42-.38.42-.34 0-.6-.7-.6-.88 0-.07.04-.38.04-.45.01-.21.01-.29.03-.76l.06-2.4-.07-3.6c-.03-1.39-.31-1.65-.57-1.91.06-.14.1-.28.34-.28.06 0 .17 0 .28.04.42.17.48.18.77.18.46 0 1.21-.08 1.29-.1l1.81-.24zm-.87 3c.08 0 1.15-.14 1.33-.17l1.34-.17.56-.03.04-1.26c0-.1.01-.74-.1-.8-.14-.07-.48-.06-.49-.06l-1.19.14-3.29.41-.41.07c.01.14.03.84.03.94v1.2l.22-.01c.13-.01.71-.08.83-.11l1.12-.15zm-.46 2.98l3.64-.34s.06-.03.07-.08l.03-1.96v-.22c-.15-.01-.17-.01-.31 0l-1.18.1-2.62.34-1.33.21c-.01.18.01 2.1.01 2.12l1.68-.15zm-1.56 3.24l1.09-.1 3.14-.34c.13-.01.36-.03.48-.03.27 0 .39.07.49.14l.07-2.4c0-.06 0-.08-.01-.14h-.1l-1.11.08-2.55.24-1.36.14-.27.04v2.21c0 .07 0 .08.01.14h.11zm15.79-6.26c.46.49.53.57.53.83 0 .04-.03.21-.03.24l-.03 2.34.04 3.67-.04.42c-.07.18-.14.35-.36.35-.36 0-.45-.42-.52-.67-.08-.35-.08-.45-.06-.9l.14-2.16.03-.64v-1.34c0-.39-.04-1.25-.08-1.48l-.8 1.08c-.15.21-1.12 1.23-1.46 1.23-.03 0-.06 0-.11-.06.1-.18.32-.49.43-.66.85-1.18 2.48-4.02 2.48-5.07 0-.21-.06-.38-.15-.52-.17-.24-.18-.27-.18-.32 0-.11.15-.17.32-.17.13 0 .15.01.46.24.18.13.59.41.76.57.01.03.07.11.07.22 0 .14-.08.28-.21.43-.13.18-.2.27-.29.48l-.94 1.89zm3.88-1.75c-.04-.22-.25-1.26-.36-1.43-.14-.22-.41-.42-.52-.48-.21-.08-.24-.11-.24-.18 0-.2.22-.31.48-.31.64 0 1.44.45 1.44.85 0 .04-.03.28-.03.34 0 .1.03.35.04.46l.08.78.22 1.16c.14-.03.76-.21.87-.24l.67-.17c.18-.04.35-.08.52-.17.41-.21.43-.22.76-.22.48 0 .88.1.88.48 0 .22-.13.29-.49.35l-.99.15-1.08.22c-.15.03-.84.22-.97.25.04.25.08.49.14.67l.48 1.36.39.91c.84 1.96 2.33 3.32 2.58 3.32.14 0 .31-.6.35-.74l.36-1.33c.01-.06.06-.31.07-.36.03-.08.04-.1.15-.2.15-.04.14.38.13.57L52 15.28c-.06.97-.06 1.26.17 1.65.2.34.21.38.21.49 0 .18-.11.41-.42.41-.07 0-.69-.01-1.69-.87-.81-.7-1.62-1.82-1.64-1.85l-.71-1.22-.5-1.11-.49-1.37-.32-1.15-1.08.36c-.06.01-.29.13-.34.14-.24.1-.36.14-.48.14-1.01 0-1.33-.62-1.33-.77 0-.04.01-.11.03-.15.07-.01.15-.01.24.01.38.1.42.11.62.11.48 0 .7-.08.94-.15.41-.11.83-.22 1.22-.38l-.29-1.44zm1.83-2.02c.62 0 2.04.25 2.04 1.18 0 .21-.1.46-.29.46s-.28-.08-.73-.53c-.53-.52-.59-.57-1.06-.88-.03-.01-.14-.11-.18-.15.08-.06.1-.07.22-.07zm15.19 6.46l-1.96 1.18 2.02 1.46 1.55 1.01c.07.04.48.31 1.15.64.35.18.43.22.43.29 0 .17-.64.2-.76.2l-1.06.03-.24-.08-.98-.83-1.57-1.43-1.22-1.04c-.29-.25-.97-.7-1.09-.76-.32-.14-.36-.15-.49-.28.06-.13.1-.27.28-.27.34 0 .9.32 1.68.8l1.22-1.01s.58-.53.59-.56c.15-.14.24-.32.24-.41 0-.07-.17-.36-.18-.43.03-.03.04-.03.06-.04l-1.02.07-1.19.08c-.11.01-.6.07-.71.08-.13 0-.14.03-.14.11 0 .17-.04.25-.11.31l-.91.85c-.07.07-.36.36-.43.41q-.1.08-.15.17c.25.35.28.43.27.55l-.32 2.35v.39c0 .07 0 .18.03.18.13 0 1.11-.5 1.86-1.08l.8-.6s.32-.22.34-.24c-.17.67-1.7 1.99-1.71 2l-.98.76c-.2.15-.22.18-.52.53-.13.14-.2.17-.31.17-.39 0-.48-.78-.48-1.09 0-.11 0-.17.1-.46.1-.31.11-.35.11-.41l.13-.99c.01-.07.01-.43.01-.5.01-.08.04-.48.04-.56 0-.06 0-.28-.13-.38l-.98.69-.32.21-.9.53c-.24.14-.77.36-1.02.46-.29.13-.39.11-.59.11l-.04-.08c.11-.07.62-.36.71-.43.56-.38 1.13-.78 1.65-1.22l.95-.8 1.11-1.09c.14-.14.38-.43.45-.63l-1.92.42c-.18.04-.95.27-1.12.27-.27 0-.41-.11-.76-.41-.34-.27-.55-.43-.55-.67 0-.06.03-.34.2-.34.11 0 .56.28.64.32.22.08.6.13.77.11l1.22-.1 2.27-.38.28-.07c.01-.15.01-.84.03-.98l-.29.04-1.32.24c-.13.03-.69.24-.8.24-.31 0-.98-.57-.98-.83 0-.08.07-.18.15-.18.07 0 .36.1.42.11.15.03.32.04.42.04.07 0 .22 0 .39-.03l1.91-.25.08-.04c-.01-.49-.01-.53.01-.91l-1.47.2c-.18.03-.99.25-1.16.25-.2 0-.25-.04-.73-.43-.14-.13-.31-.27-.31-.48s.17-.22.18-.22c.08 0 .48.18.55.21.14.06.25.07.57.06l.52-.03 1.43-.14.41-.07s.08-.99-.11-1.34c-.06-.1-.41-.43-.41-.53 0-.13.17-.24.36-.24.55 0 1.33.52 1.33.78 0 .1-.17.53-.18.62-.08.34-.06.45-.04.59.83-.04 1.4-.2 1.51-.22.14-.04.76-.25.88-.25.18 0 .64.17.76.22.08.04.2.11.2.31 0 .31-.11.32-.88.35-1.33.06-1.88.13-2.49.24-.04.38-.06.52-.06.92l1.13-.1 1.13-.25s1.01-.04 1.01.45c0 .22-.24.34-.36.34l-1.22.04-1.29.08c-.13.01-.34.06-.43.07-.03.41-.03.48-.03 1.05l3.08-.31c.28-.03.49-.07.64-.11.25-.08.34-.11.52-.11.32 0 .94.14 1.16.28.17.11.27.34.27.43 0 .06-.06.34-.46.34-.18 0-.48-.04-.56-.06-.15-.03-.21-.07-.76-.06l-.95.03h-.07c.07.04.39.21.46.25.34.17.57.28.57.48 0 .08-.03.14-.08.18l-.94.66zm6.02-2.67c0-.46.01-2.21-.39-2.34-.08-.03-.45-.11-.52-.14-.08-.04-.52-.34-.52-.66 0-.01 0-.31.17-.31.06 0 .28.14.32.15.15.07.35.1.49.1.1 0 .14 0 .55-.06l.77-.11 2.02-.39.76-.2c.07-.01.57-.14.63-.14.27 0 1 .18 1 .56 0 .28-.49.28-.6.28-.35 0-.81.03-1.22.07.49.45.53.5.53.73 0 .1-.03.53-.03.62l-.04 1.15-.04 1.65-.03 1.67v3.14c0 .43.03 1.15.03 1.6 0 .63-.39.85-.53.85-.28 0-.28-.24-.28-.6V14.1l-2.12.95-.81.36c-.11.04-.25.11-.43.22-.32.2-.35.22-.43.22-.17 0-.21-.06-.55-.46-.15-.2-.25-.35-.25-.55 0-.03 0-.27.17-.27.07 0 .11.03.28.11.07.03.17.06.29.06.31 0 .63-.15.67-.18.08-.04.08-.08.08-.48l.03-2.35V9.91zm.41-2.6c.42.48.45.52.46.63 0 .07.03.46.03.5 0 .1-.01.56 0 .66.1 0 .13 0 .41-.06l.8-.15c.11-.03.57-.11.67-.14 0 0 .24-.07.29-.08.01-.11.03-.22.03-.38 0-.21-.04-.78-.14-.98-.2-.38-.22-.43-.38-.43-.13 0-.69.13-.84.15l-1.33.28zm.94 2.33c-.18.03-.48.08-.5.14-.04.15-.01.38-.03.62l-.03.94v.15c.34-.01 1.81-.34 2.06-.34.17 0 .22-.03.22-.21v-.81c.03-.52.01-.57 0-.74-.11-.01-.15 0-.55.06l-.55.08-.63.11zm.77 4.24c.25-.08.7-.2.91-.35.03-.14.03-.18.03-.53v-.91s-.01-.2-.01-.27c-.11-.03-.14-.03-.38.01-1.36.2-1.51.22-1.88.34v2.12l1.33-.41zm5.41-5.5c.66-.18.73-.21 1.13-.41a.6.6 0 01.27-.06c.14 0 .17 0 .78.42.21.14.22.27.22.32 0 .14-.35.69-.39.8l-.76 1.76-.49 1.04c-.11.24-.22.41-.56.95.04.06.18.2.24.24l.71.69.43.36.88.71 1.02.76c.35.25.56.41.56.45 0 .01-.03.13-.03.14l-1.47.04c-.35.01-.39-.01-.62-.25l-.7-.74-.69-.77c-.18-.21-.43-.49-.56-.64-.15-.2-.18-.21-.27-.29-.06.06-.13.13-.22.25l-.55.52-.63.57-.92.67c-.25.18-.63.36-.73.36-.04 0-.08-.04-.08-.08 0-.08.17-.2.27-.28.42-.28 1.65-1.39 2.37-2.66-.1-.18-.13-.21-.38-.49-.27-.29-1.29-1.67-1.54-1.91-.28-.27-.28-.36-.28-.43 0-.13.08-.29.27-.29.21 0 .27.07.7.66.25.34 1.26 1.5 1.67 1.83.29-.38.92-1.88 1.18-2.54.24-.66.32-1.23.32-1.23 0-.08-.07-.11-.15-.11-.06 0-1.22.34-1.39.39-.24.07-1.3.52-1.54.52-.32 0-1.01-.67-1.01-.99 0-.07.03-.17.06-.29.2.04.22.07.48.24.03.01.42.21.66.21.04 0 .18-.01.34-.06l1.4-.38zm5.35 7.28c.17-.41.45-1.39.45-1.69 0-.08-.15-.46-.15-.53 0-.13.14-.18.25-.18.17 0 .98.35.98.73 0 .13-.03.17-.27.55-.13.2-.6 1.13-.71 1.32-.04.06-.69 1.06-.92 1.06-.06 0-.1-.04-.1-.1 0-.08.41-.97.48-1.15zm1.93-6.08l.06.03.07-.06.59-.87c.18-.28.45-.83.45-.95 0-.06-.14-.31-.14-.36 0-.13.2-.18.29-.18.35 0 .94.49.94.8 0 .18-.2.42-.24.48l-.6.74-2.2 2.62 1.25-.27c.08-.01.42-.11.5-.13-.03-.14-.31-.73-.31-.85 0-.06.03-.08.07-.08.24 0 1.36.88 1.36 1.55 0 .25-.15.5-.43.5s-.32-.13-.49-.57c-.27.06-.38.11-.64.24.24.31.27.34.28.41.03.08.04.11.03.36l-.04 1.19v2.9c0 .35-.15.7-.42.7-.21 0-.32-.22-.39-.39-.1-.27-.08-.34-.07-.69l.06-1.32.04-1.04c.01-.41.01-.71 0-1.08-.03-.52-.11-.63-.24-.8l-1.08.38c-.28.1-.31.1-.38.1-.28 0-.45-.66-.45-.7 0-.17.04-.2.42-.43.2-.11.94-.94 1.34-1.62-.17-.14-.77-.41-1.16-.48-.42-.08-.52-.11-.52-.45s.1-.38.34-.55c.2-.13 1.26-1.92 1.26-2.33a.44.44 0 00-.07-.22c-.08-.11-.1-.15-.1-.2 0-.11.15-.22.32-.22.31 0 .97.49.97.77 0 .13-.08.22-.24.43l-.87 1.18c-.11.14-.59.74-.66.88l1.11.57zm2.31 6.4c-.35 0-.41-.38-.48-.78-.08-.55-.35-1.12-.55-1.48 0-.01-.17-.32-.17-.35 0-.04.04-.08.1-.08.2 0 1.54.99 1.54 1.91 0 .39-.13.8-.45.8zm5.03-6.33l.91-.13c.14-.01.74-.21.87-.21.27 0 .62.36.84.57.2.2.28.29.28.43 0 .21-.17.27-.53.38-.21.07-.25.11-.74.45-.15.11-.48.35-.62.35-.07 0-.08-.06-.08-.1 0-.07.42-.99.42-1.2 0-.08-.03-.08-.25-.06l-1.04.11-1.11.14-.22.03c.56.31.66.43.66.62 0 .1-.04.53-.06.62-.01.29-.01.39-.01.5.38-.01.85-.07 1.05-.13.1-.01.57-.18.69-.18s.85.41.85.66c0 .08 0 .1-.08.38q-.06.2-.07.42l-.07 1.01c-.03.5-.18 1.98-.69 1.98-.17 0-.18-.03-.49-.46-.14-.2-.15-.2-.41-.43-.14-.13-.25-.22-.25-.31 0-.06.08-.07.13-.07.07 0 .38.01.45.01.31 0 .36 0 .39-.43l.06-1.15s.01-.42-.01-.62c-.03-.17-.07-.17-.34-.14l-.95.08-.28.06v.06l.01 4.59c0 .35-.15.64-.39.64-.22 0-.32-.25-.43-.62-.06-.17-.06-.21-.04-.57l.06-1.81v-1.51c.01-.15.01-.48-.01-.7h-.1l-1.05.13-.17.04v2.3c0 .67-.01 1.09-.35 1.09-.36 0-.48-.46-.48-.69l.04-1.43c.03-.9-.01-1.16-.11-1.53-.03-.08-.24-.41-.24-.48 0-.11.15-.24.31-.24.13 0 .21.04.41.14.28.14.34.17.53.17.42 0 1.02-.14 1.21-.18.04-.32 0-.64-.06-.97-.04-.22-.18-.38-.39-.64l-.03-.1h-.14l-1.05.21c-.31.06-.35.06-.62.03.01.13.03.22.03.49 0 .92-.38 1.29-.64 1.29-.25 0-.41-.22-.41-.59 0-.18.01-.22.15-.64.08-.22.17-.64.17-.88 0-.07-.03-.42-.03-.49s0-.25.17-.25c.2 0 .28.21.34.32.06.14.07.17.2.17.06 0 .36 0 1.09-.15-.03-.21-.03-.32-.14-.73-.15-.57-.17-.63-.39-.92-.13.03-.27.06-.42.06-.46 0-.95-.63-.95-.87 0-.17.13-.28.21-.28.07 0 .35.2.41.22.24.11.48.17.67.17.21 0 .94-.1 1.3-.18l.25-.06c.01-.1.1-1.12-.22-1.4-.28-.24-.32-.27-.32-.35 0-.15.18-.27.32-.27s.5.11.74.22c.32.14.41.27.41.52 0 .32-.03.84-.03 1.16h.15l1.02-.17c.15-.03.8-.2.94-.2.13 0 .46.07.66.17.14.07.22.21.22.32 0 .32-.36.32-.53.34l-.98.04h-.03c.07.13.1.2.1.29 0 .08-.03.15-.06.22l-.59 1.3zm-.59-1.72l-1.33.2c-.18.03-.46.1-.64.13.35.25.38.39.59 1.68.15-.03 1.06-.15 1.13-.18.07-.03.08-.06.18-.35.17-.52.41-1.22.34-1.46h-.27zm7.99 3.02c-.15.21-.17.22-.34.42-.03.03-.04.07-.07.13.08.11.17.21.28.32.08.1.13.15.13.31 0 .06-.03.41-.04.48l-.06 2.21v.66l-.04 1.89c0 .2-.01.56-.34.56-.35 0-.56-.5-.56-.97 0-.11.01-.22.07-.56.01-.03.04-.14.04-.17l.07-1.27v-1.55c.01-.25-.01-1.06-.11-1.3l-.81.7c-.11.1-.67.49-.78.57-.32.24-.53.39-.7.39-.1 0-.1-.06-.1-.07 0-.06.34-.36.42-.46.6-.66 1.29-1.25 2-2.27.55-.77.98-1.62.98-1.82 0-.01-.07-.22-.08-.25-.01-.04-.01-.1-.03-.22.13-.06.2-.07.28-.07.29 0 .91.52.91.78 0 .07-.08.17-.2.29-.04.06-.22.35-.27.41l-.66.87zm-.67-2.82c-1.01.77-1.98 1.09-2.05 1.09-.06 0-.1-.03-.1-.08 0-.08.07-.13.29-.27.36-.24 1.21-.95 1.78-1.57.22-.22.45-.57.5-.83-.01-.07-.1-.36-.1-.41 0-.1.11-.18.22-.18.31 0 .94.56.94.84 0 .15-.11.27-.21.35-.17.15-.48.43-.49.45l-.8.6zm4.79 6.56l-1.29-.99c-.11-.08-.6-.52-.7-.6-.08-.06-.22-.18-.22-.34 0-.1.06-.18.18-.18.11 0 .18.04.29.13l2.11 1.47.17.11.43-.62.55-.97c.04-.07.28-.6.35-.71.1-.18.1-.22.08-.35-.07-.01-.17-.03-.34.01l-1.21.25c-.15.03-.36.07-.64.15-.1.03-.49.21-.57.21-.22 0-.92-.55-.92-.97 0-.07.01-.21.15-.21.07 0 .32.18.38.21.14.08.36.1.53.1.34 0 .39 0 .53-.03l.95-.17c.2-.03.6-.14.7-.18.13-.04.62-.31.73-.31.18 0 1 .49 1 .78 0 .1 0 .14-.2.34-.18.18-.24.29-.28.36l-.77 1.42c-.2.35-.55.81-.83 1.16l.36.24 1.16.7 1.16.66 1.92.85c.08.04.25.11.25.18 0 .13-.28.17-.38.17-.38.06-.97.18-1.33.18-.08 0-.34 0-.46-.1l-1.21-.87-1.92-1.47c-.11.08-.56.5-.66.59-.48.38-.97.77-2.02 1.25-.49.21-1.44.49-1.55.49-.04 0-.06 0-.15-.04.03-.1.04-.1.2-.18.2-.1 1.06-.56 1.23-.66.94-.57 1.91-1.36 2.33-1.96l-.11-.11zm4.75-5.91c.01.1.03.25.14.34.11.1.25.21.25.42 0 .27-.21.34-.46.42-.48.14-.97.21-1.46.21-.9 0-1.3-.17-1.53-.42-.28-.31-.29-.9-.29-.97l.08-1.92c.01-.31.01-.34-.08-.34-.01 0-.45.08-.46.08l-.99.24c-.07.01-.24.07-.31.08-.1.04-.1.06-.11.28l-.06.88c-.01.29-.28 1.09-.53 1.46-.39.57-1.13 1.09-1.26 1.09-.06 0-.07-.01-.11-.07.03-.08.04-.11.15-.22.27-.25 1-1.22 1-2.87 0-.63-.1-.81-.22-.94-.15-.17-.18-.18-.18-.27 0-.18.2-.28.32-.28s.42.13.55.18c.18.08.28.13.41.13.2 0 1.33-.24 1.62-.36.1-.04.52-.31.62-.31.14 0 .78.46.78.71 0 .13-.24.59-.28.69-.03.11-.18.73-.18 1.5 0 .73.17.77.91.77 1.05 0 1.08-.13 1.23-1.01.03-.13.1-.73.13-.84.01-.07.03-.14.08-.14.03 0 .11.01.13.17l.13 1.3zm22.4 9.25l3.3-.43.23-.05V5.92c0-.81-.03-2.82-.38-3.4-.1-.15-.76-.71-.76-.86 0-.18.25-.46.69-.46.81 0 2.59 1.19 2.59 1.8 0 .2-.23 1.02-.25 1.19s-.08.63-.1 1.17l-.13 2.51-.1 7.08c0 .71-.03 1.47-.03 2.18 0 .3.03.33.15.33l4.24-.13 2.44-.03.18-.76.53-4.93c.1-1.02-.05-1.35-.15-1.55-.08-.13-.53-.69-.53-.81 0-.23.41-.43.74-.43.84 0 2.16 1.65 2.16 2.16 0 .13-.03.25-.25.63-.18.28-.28.46-.38 1.17l-.3 1.93-.43 3.28c-.18 1.42-.43 2.34-1.04 2.36-.48 0-.56-.36-.71-.96s-.15-.61-.36-.63l-1.9-.13h-2.23l-2.29.15-3.28.36-1.93.28c-.36.05-2.26.51-2.62.71-.15.08-.69.53-.94.74-.13.1-.3.23-.51.23-.46 0-.84-1.09-.84-1.37 0-.15.28-.86.3-.99 0-.05.13-.76.13-1.17v-2.56c0-.53-.13-2.36-.28-2.92-.13-.46-.23-.56-.66-1.07-.08-.1-.1-.2-.1-.25 0-.28.53-.51.81-.51.36 0 1.9.74 1.9 1.75 0 .25-.18 1.32-.18 1.55 0 .61-.08 3.66-.08 4.49 0 .28.03.36.08.53.41-.08.56-.1.91-.15l2.36-.38zm28.42-12.39q.1-.03.15-.05l-.03-2.23c-.03-1.37-.18-1.7-.48-2.31-.05-.1-.41-.53-.41-.63 0-.43.61-.43.76-.43.38 0 .46.05 1.19.53.41.25.96.69.96 1.04 0 .1-.18.56-.2.66-.13.41-.13.56-.13.71l-.13 2.18v.28l2.84-.3c.84-.1 2.62-.28 3.22-.38.05 0 1.04-.15 1.07-.15.38 0 2.26.38 2.26 1.35 0 .48-.43.61-.66.61l-2.84-.13-2.69.03-2.82.23-.38.05 1.5 1.57 4.77 4.49 1.73 1.42 1.12.76 1.88 1.09c.08.05.51.33.58.38v.15c-.38.2-2.31.33-2.84.33-.48 0-1.07-.03-1.9-.89l-1.4-1.47-2.77-3.2-2.72-3.17-.05 5.41c0 .18.03 1.09.03 1.29.56-.05 1.29-.1 2.08-.23.23-.03 1.14-.23 1.35-.23.33 0 1.35.2 1.35.96 0 .61-.48.61-.79.61-.33 0-1.73-.03-2.01 0-.66.05-1.8.13-1.98.15l.08 5.71c0 .69-.36 1.62-.86 1.62-.86 0-.96-1.68-.94-2.29l.13-2.16.08-2.23c.03-.13.03-.36 0-.46l-.41.05c-.43.05-2.72.46-2.77.46-.2 0-.33 0-1.09-.66-.23-.18-.43-.51-.43-.81 0-.28.2-.41.33-.41.1 0 .53.23.63.28.2.05.46.1.71.08l1.96-.1c.51-.03.71-.08 1.09-.13l.03-.74V7.93c-.33.61-.51.94-1.47 2.16l-.99 1.27-1.17 1.4-1.7 1.73-1.52 1.27c-1.04.86-2.21 1.65-2.79 1.65-.15 0-.33-.05-.33-.18 0-.1.03-.15.28-.33.1-.08.86-.81 1.29-1.22l1.57-1.55 1.22-1.22 1.65-1.98 1.24-1.75.71-1.02c.3-.53.36-.69.51-.99-.94.18-3.35.66-3.58.71-.25.05-1.42.38-1.65.38-.38 0-.56-.1-1.5-.79-.58-.43-1.04-.94-1.04-1.24 0-.05.18-.66.18-.66.33-.03.38 0 .86.41.18.15.84.46 1.75.46.36 0 .86-.03 1.19-.08l5.13-.71zm46.53 11.61c.2-.15.36-.25.58-.25.56 0 1.8.81 1.8 1.35 0 .18-.1.43-.23.53-.18.13-.48.33-.66.46l-1.22.99c-.71.56-2.16 1.35-3.02 1.7-.48.2-1.5.56-1.73.56-.1 0-.2-.05-.36-.15.1-.15.15-.18.53-.36.66-.3 4.67-3.07 4.67-4.01 0-.23-.1-.36-.33-.56l-.05-.25zm10.69-9.47c.13-.03.71-.13.84-.15.15-.03 1.04-.1 1.24-.15.13-.03.74-.25.86-.25.51 0 1.02.58 1.83 1.47.36.38.46.51.46.74s-.15.48-.48.51c-.51.05-.56.05-.76.15l-2.06.96h-.13q.05-.43.25-.74c.2-.3.56-1.24.56-1.35 0-.28-1.07-.23-1.09-.23l-3.83.41-7.74.99-2.95.46c0 1.12 0 1.17-.1 1.88-.13.81-.23 1.42-.81 1.42-.53 0-.94-.86-.94-1.22 0-.18.3-.86.36-1.02.1-.36.23-1.22.23-1.45 0-.2-.18-1.09-.18-1.27 0-.15.08-.3.18-.3.2 0 .76.61.91.81h.18l6.83-.94.36-.08c0-.25-.08-1.14-.23-1.37-.1-.15-.69-.69-.69-.84 0-.2.36-.3.69-.3.3 0 1.85.3 1.85.84 0 .13-.1.63-.13.74-.05.38-.05.56-.05.79l4.54-.51zm-10.36-1.29c-.25.05-.81.15-.96.28-.41.28-.66.46-.76.46-.38 0-1.09-.81-1.09-1.12 0-.08.2-1.55.2-1.85 0-.56-.08-.79-.33-1.09-.13-.15-.33-.43-.33-.56 0-.25.38-.48.61-.48.3 0 1.83.74 1.83 1.24 0 .15-.23.81-.23.96-.05.53-.05.58-.1 1.12l5.05-.81.51-.1c-.03-.61-.05-1.96-.15-2.49-.08-.43-.18-.51-.91-1.37.25-.3.38-.46.71-.46.53 0 2.08.48 2.08 1.19 0 .15-.18.81-.2.94-.08.48-.08 1.73-.08 2.03l3.86-.36 2.01-.13c.08-.41.18-1.19.18-1.4 0-.25-.03-.33-.53-1.02.05-.3.13-.56.63-.56.43 0 .61.18.99.58.36.36.69.69.69.94 0 .15-.3.76-.33.91-.1.28-.38 1.5-.43 1.75-.13.41-.38.91-.91.91s-.53-.74-.53-.91l-2.26.08-3.58.33-3.3.51-2.31.46zm2.54 8.23l5.64-.76c.36-.05 1.29-.23 1.93-.36.18-.03.96-.28 1.12-.28.63 0 1.7.46 1.7 1.04 0 .48-.58.48-.84.48h-.86c-.23 0-1.24.08-1.45.08h-.23l-1.9.18-2.18.28c.51.43.79.69.79 1.07 0 .13-.08.69-.08.81-.03.15-.05.36-.05 1.17v2.97c0 1.09-.63 1.85-1.19 1.85-.1 0-.23-.05-.3-.13l-1.09-1.29s-.86-.86-.99-.96c-.2-.18-.2-.2-.18-.36.3.05.79.18 1.29.23.2.03.66.1.84.1s.28-.03.28-.74c-.03-3.05-.05-3.68-.43-4.27-.2-.3-.25-.28-.58-.23l-2.56.38c-.36.05-2.16.46-2.23.46-.48 0-1.45-.66-1.88-1.35-.03-.2-.05-.66.36-.66.15 0 .81.3.94.36.23.08.58.18 1.4.18.13 0 .46 0 .84-.05l1.93-.2zm-2.34-3.35c.1 0 .51.15.61.18.23.08.43.08.56.08 1.32 0 5.15-.61 5.26-.63.28-.03 1.47-.36 1.73-.36.33 0 1.4.38 1.4.94 0 .46-.46.48-1.09.51-1.78.1-3.53.28-5.28.53-.28.05-1.55.38-1.83.38-.25 0-.33-.05-1.27-.71-.36-.23-.36-.38-.36-.56 0-.15.13-.36.28-.36zm8.35 5.28h.23l2.03.96c.05.03 1.6.99 2.23 1.68.46.51.76 1.14.76 1.68 0 .48-.41.76-.74.76-.03 0-.23 0-.36-.18l-1.98-2.41-1.62-1.7-.56-.56v-.23zm15.27.24l-.05-2.01c-.03-.56-.1-2.26-.63-2.92-.08-.1-.46-.56-.51-.66-.05-.08-.08-.18-.15-.48.3-.05.41-.05.51-.05.56 0 2.13.96 2.21 1.02.28.2.3.74.3.84 0 .13-.1.71-.13.81l-.08 2.23.05 3.78 4.27-.48.08-3.45.03-5.05-.08-4.04c0-.3-.03-1.24-.18-1.57-.15-.38-.63-.79-.74-.79-.08 0-.81.1-.94.13l-1.96.38c-.25.05-1.37.43-1.6.43-.53 0-1.75-1.22-1.75-1.52 0-.08.1-.38.38-.38.03 0 .61.13.63.13.08.03.46.1.81.1.28 0 1.07-.08 1.24-.1l4.04-.51 1.4-.15 2.08-.3.23-.08 2.11-.3c.18-.03.99-.2 1.14-.2.43 0 1.83.3 1.83 1.09 0 .56-.56.63-.74.63h-2.44l-2.26.2-1.88.2c.2.1.46.2.46.58 0 .25-.13 1.32-.15 1.55-.03.3-.05.76-.05 1.07l-.08 3.02c.28.1.61.23 1.12.23.66 0 2.08-.2 2.92-.43.2-.05 1.09-.36 1.29-.36.51 0 1.68.25 1.68.91s-.74.66-1.02.66c-.08 0-.1 0-.2.03l-2.89.41c-1.22.18-1.37.2-1.5.2-.33 0-.51-.08-1.42-.53l-.03 3.55v4.14l3.25-.1 2.11-.03c.25 0 .48-.03.96-.13.81-.18.91-.2 1.09-.2.36 0 1.32.28 1.85.51.48.23.84.48.84.99 0 .53-.46.61-.79.56l-2.06-.3-2.29-.1-3.61.03-2.23.1-2.41.18-1.7.25c-.18.03-.94.18-1.12.2-.08 0-.51.05-.58.08l-2.84.56c-.15.03-.3 0-.58-.25-1.12-.94-1.24-1.04-1.24-1.5 0-.23.08-.33.25-.56.56.33 1.04.61 2.39.61.51 0 .99-.08 1.35-.15v-2.69z" stroke-width="0" data-name="レイヤー 1"/></svg>