<svg data-name="レイヤー 2" xmlns="http://www.w3.org/2000/svg" viewBox="0 0 177.62 14.82"><path d="M4.61 6.54c0-.23.19-.4.38-.4.2 0 .4.14.4.4v2.55h1.74c.23 0 .37.18.37.36s-.13.36-.37.36H5.39v1.54c0 .25-.19.4-.38.4-.2 0-.4-.14-.4-.4V9.81h-4c-.2 0-.61 0-.61-.4 0-.14.04-.28.11-.37l4.32-6.21c.08-.12.17-.18.32-.18.3 0 .41.25.41.36 0 .07-.01.14-.05.19L1 9.04s0 .05.02.05h3.59V6.54zm6.49-1.07c.4.42.46.49.46.71 0 .04-.02.18-.02.2l-.02 2 .04 3.14-.04.36c-.06.16-.12.3-.31.3-.31 0-.38-.36-.44-.58-.07-.3-.07-.38-.05-.77l.12-1.85.02-.55V7.28c0-.34-.04-1.07-.07-1.27l-.68.92c-.13.18-.96 1.05-1.25 1.05-.02 0-.05 0-.1-.05.08-.16.28-.42.37-.56.73-1.01 2.12-3.44 2.12-4.34 0-.18-.05-.32-.13-.44-.14-.2-.16-.23-.16-.28 0-.1.13-.14.28-.14.11 0 .13.01.4.2.16.11.5.35.65.49.01.02.06.1.06.19 0 .12-.07.24-.18.37-.11.16-.17.23-.25.41l-.8 1.62zm3.32-1.5c-.04-.19-.22-1.08-.31-1.22-.12-.19-.35-.36-.44-.41-.18-.07-.2-.1-.2-.16 0-.17.19-.26.41-.26.55 0 1.24.38 1.24.73 0 .04-.02.24-.02.29 0 .08.02.3.04.4l.07.67.19 1c.12-.02.65-.18.74-.2l.58-.14c.16-.04.3-.07.44-.14.35-.18.37-.19.65-.19.41 0 .76.08.76.41 0 .19-.11.25-.42.3l-.85.13-.92.19c-.13.02-.72.19-.83.22.04.22.07.42.12.58l.41 1.16.34.78c.72 1.68 1.99 2.84 2.21 2.84.12 0 .26-.52.3-.64l.31-1.14.06-.31c.02-.07.04-.08.13-.17.13-.04.12.32.11.49l-.05.92c-.05.83-.05 1.08.14 1.42.17.29.18.32.18.42 0 .16-.1.35-.36.35-.06 0-.59-.01-1.45-.74-.7-.6-1.39-1.56-1.4-1.58l-.61-1.04-.43-.95-.42-1.17-.28-.98-.92.31s-.25.11-.29.12c-.2.08-.31.12-.41.12-.86 0-1.14-.53-1.14-.66 0-.04.01-.1.02-.13.06-.01.13-.01.2.01.32.08.36.1.53.1.41 0 .6-.07.8-.13.35-.1.71-.19 1.04-.32l-.25-1.24zm1.57-1.73c.53 0 1.75.22 1.75 1.01 0 .18-.08.4-.25.4s-.24-.07-.62-.46c-.46-.44-.5-.49-.91-.76-.02-.01-.12-.1-.16-.13.07-.05.08-.06.19-.06zm9.16.7l1.34-.19c.11-.01.56-.18.66-.18.2 0 .3.08.5.25.49.42.49.48.49.58l-.07.32c-.01.07-.08.44-.08.55l-.04 1.03-.04 1.36-.02 3.08c-.01.86-.01 1.22-.04 1.44-.02.2-.12.56-.47.56-.1 0-.19-.02-.24-.11-.1-.13-.18-.28-.24-.43-.13-.07-.24-.12-.55-.12-.18 0-.49.02-.64.04l-1.25.12-.89.1-.91.13h-.08c-.07.23-.12.36-.32.36-.29 0-.52-.6-.52-.76 0-.06.04-.32.04-.38.01-.18.01-.25.02-.65l.05-2.05-.06-3.08c-.02-1.19-.26-1.42-.49-1.63.05-.12.08-.24.29-.24.05 0 .14 0 .24.04.36.14.41.16.66.16.4 0 1.03-.07 1.1-.08l1.55-.2zm-.74 2.57c.07 0 .98-.12 1.14-.14l1.15-.14.48-.02.04-1.08c0-.08.01-.64-.08-.68-.12-.06-.41-.05-.42-.05l-1.02.12-2.82.35-.35.06c.01.12.02.72.02.8v1.03l.19-.01c.11-.01.61-.07.71-.1l.96-.13zm-.4 2.55l3.12-.29s.05-.02.06-.07l.02-1.68v-.19a1.13 1.13 0 00-.26 0l-1.01.08-2.24.29-1.14.18c-.01.16.01 1.8.01 1.81l1.44-.13zm-1.33 2.77l.94-.08 2.69-.29c.11-.01.31-.02.41-.02.23 0 .34.06.42.12l.06-2.05s0-.07-.01-.12h-.08l-.95.07-2.18.2-1.16.12-.23.04v1.89c0 .06 0 .07.01.12h.1zm13.53-5.36c.4.42.46.49.46.71 0 .04-.02.18-.02.2l-.02 2 .04 3.14-.04.36c-.06.16-.12.3-.31.3-.31 0-.38-.36-.44-.58-.07-.3-.07-.38-.05-.77l.12-1.85.02-.55V7.28c0-.34-.04-1.07-.07-1.27l-.68.92c-.13.18-.96 1.05-1.25 1.05-.02 0-.05 0-.1-.05.08-.16.28-.42.37-.56.73-1.01 2.12-3.44 2.12-4.34 0-.18-.05-.32-.13-.44-.14-.2-.16-.23-.16-.28 0-.1.13-.14.28-.14.11 0 .13.01.4.2.16.11.5.35.65.49.01.02.06.1.06.19 0 .12-.07.24-.18.37-.11.16-.17.23-.25.41l-.8 1.62zm3.32-1.5c-.04-.19-.22-1.08-.31-1.22-.12-.19-.35-.36-.44-.41-.18-.07-.2-.1-.2-.16 0-.17.19-.26.41-.26.55 0 1.24.38 1.24.73 0 .04-.02.24-.02.29 0 .08.02.3.04.4l.07.67.19 1c.12-.02.65-.18.74-.2l.58-.14c.16-.04.3-.07.44-.14.35-.18.37-.19.65-.19.41 0 .76.08.76.41 0 .19-.11.25-.42.3l-.85.13-.92.19c-.13.02-.72.19-.83.22.04.22.07.42.12.58l.41 1.16.34.78c.72 1.68 1.99 2.84 2.21 2.84.12 0 .26-.52.3-.64l.31-1.14.06-.31c.02-.07.04-.08.13-.17.13-.04.12.32.11.49l-.05.92c-.05.83-.05 1.08.14 1.42.17.29.18.32.18.42 0 .16-.1.35-.36.35-.06 0-.59-.01-1.45-.74-.7-.6-1.39-1.56-1.4-1.58l-.61-1.04-.43-.95-.42-1.17-.28-.98-.92.31s-.25.11-.29.12c-.2.08-.31.12-.41.12-.86 0-1.14-.53-1.14-.66 0-.04.01-.1.02-.13.06-.01.13-.01.2.01.32.08.36.1.53.1.41 0 .6-.07.8-.13.35-.1.71-.19 1.04-.32l-.25-1.24zm1.57-1.73c.53 0 1.75.22 1.75 1.01 0 .18-.08.4-.25.4s-.24-.07-.62-.46c-.46-.44-.5-.49-.91-.76-.02-.01-.12-.1-.16-.13.07-.05.08-.06.19-.06zm13.02 5.53l-1.68 1.01 1.73 1.25 1.33.86c.06.04.41.26.98.55.3.16.37.19.37.25 0 .14-.55.17-.65.17l-.91.02-.2-.07-.84-.71-1.34-1.22-1.04-.89c-.25-.22-.83-.6-.94-.65-.28-.12-.31-.13-.42-.24.05-.11.08-.23.24-.23.29 0 .77.28 1.44.68l1.04-.86s.49-.46.5-.48c.13-.12.2-.28.2-.35 0-.06-.14-.31-.16-.37.02-.02.04-.02.05-.04l-.88.06-1.02.07c-.1.01-.52.06-.61.07-.11 0-.12.02-.12.1 0 .14-.04.22-.1.26l-.78.73c-.06.06-.31.31-.37.35q-.08.07-.13.14c.22.3.24.37.23.47l-.28 2.02v.33c0 .06 0 .16.02.16.11 0 .95-.43 1.59-.92l.68-.52s.28-.19.29-.2c-.14.58-1.45 1.7-1.46 1.71l-.84.65c-.17.13-.19.16-.44.46-.11.12-.17.14-.26.14-.34 0-.41-.67-.41-.94 0-.1 0-.14.08-.4s.1-.3.1-.35l.11-.85c.01-.06.01-.37.01-.43.01-.07.04-.41.04-.48 0-.05 0-.24-.11-.32l-.84.59-.28.18-.77.46c-.2.12-.66.31-.88.4-.25.11-.34.1-.5.1l-.04-.07c.1-.06.53-.31.61-.37.48-.32.97-.67 1.42-1.04l.82-.68.95-.94c.12-.12.32-.37.38-.54l-1.64.36c-.16.04-.82.23-.96.23-.23 0-.35-.1-.65-.35-.29-.23-.47-.37-.47-.58 0-.05.02-.29.17-.29.1 0 .48.24.55.28.19.07.52.11.66.1l1.04-.08 1.94-.32.24-.06c.01-.13.01-.72.02-.84l-.25.04-1.13.2c-.11.02-.59.2-.68.2-.26 0-.84-.49-.84-.71 0-.07.06-.16.13-.16.06 0 .31.08.36.1.13.02.28.04.36.04.06 0 .19 0 .34-.02l1.63-.22.07-.04c-.01-.42-.01-.46.01-.78l-1.26.17c-.16.02-.85.22-1 .22-.17 0-.22-.04-.62-.37-.12-.11-.26-.23-.26-.41s.14-.19.16-.19c.07 0 .41.16.47.18.12.05.22.06.49.05l.44-.02 1.22-.12.35-.06s.07-.85-.1-1.15c-.05-.08-.35-.37-.35-.46 0-.11.14-.2.31-.2.47 0 1.14.44 1.14.67 0 .08-.14.46-.16.53-.07.29-.05.38-.04.5.71-.04 1.2-.17 1.29-.19.12-.04.65-.22.76-.22.16 0 .55.14.65.19.07.04.17.1.17.26 0 .26-.1.28-.76.3-1.14.05-1.61.11-2.13.2a5 5 0 00-.05.79l.97-.08.97-.22s.86-.04.86.38c0 .19-.2.29-.31.29l-1.04.04-1.1.07c-.11.01-.29.05-.37.06-.02.35-.02.41-.02.9l2.64-.26c.24-.02.42-.06.55-.1.22-.07.29-.1.44-.1.28 0 .8.12 1 .24.14.1.23.29.23.37 0 .05-.05.29-.4.29-.16 0-.41-.04-.48-.05-.13-.02-.18-.06-.65-.05l-.82.02h-.06c.06.04.33.18.4.22.29.14.49.24.49.41 0 .07-.02.12-.07.16l-.8.56zm5.17-2.28c0-.4.01-1.9-.34-2-.07-.02-.38-.1-.44-.12-.07-.04-.44-.29-.44-.56 0-.01 0-.26.14-.26.05 0 .24.12.28.13.13.06.3.08.42.08.08 0 .12 0 .47-.05l.66-.1 1.73-.34.65-.17c.06-.01.49-.12.54-.12.23 0 .85.16.85.48 0 .24-.42.24-.52.24-.3 0-.7.02-1.04.06.42.38.46.43.46.62 0 .08-.02.46-.02.53l-.04.98-.04 1.42-.02 1.43v2.69c0 .37.02.98.02 1.37 0 .54-.33.73-.46.73-.24 0-.24-.2-.24-.52V9.06l-1.81.82-.7.31c-.1.04-.22.1-.37.19-.28.17-.3.19-.37.19-.14 0-.18-.05-.47-.4-.13-.17-.22-.3-.22-.47 0-.02 0-.23.14-.23.06 0 .1.02.24.1.06.02.14.05.25.05.26 0 .54-.13.58-.16.07-.04.07-.07.07-.41l.02-2.01V5.48zm.35-2.23c.36.41.38.44.4.54 0 .06.02.4.02.43 0 .08-.01.48 0 .56.08 0 .11 0 .35-.05l.68-.13c.1-.02.49-.1.58-.12 0 0 .2-.06.25-.07.01-.1.02-.19.02-.32 0-.18-.04-.67-.12-.84-.17-.32-.19-.37-.32-.37-.11 0-.59.11-.72.13l-1.14.24zm.8 1.99c-.16.02-.41.07-.43.12-.04.13-.01.32-.02.53l-.02.8v.13c.29-.01 1.55-.29 1.76-.29.14 0 .19-.02.19-.18v-.7c.02-.44.01-.49 0-.64-.1-.01-.13 0-.47.05l-.47.07-.54.1zm.66 3.63c.22-.07.6-.17.78-.3.02-.12.02-.16.02-.46v-.78s-.01-.17-.01-.23c-.1-.02-.12-.02-.32.01-1.16.17-1.29.19-1.61.29v1.81l1.14-.35zm4.63-4.71c.56-.16.62-.18.97-.35.05-.02.13-.05.23-.05.12 0 .14 0 .67.36.18.12.19.23.19.28 0 .12-.3.59-.34.68L66.8 6.6l-.42.89c-.1.2-.19.35-.48.82.04.05.16.17.2.2l.61.59.37.31.76.61.88.65c.3.22.48.35.48.38 0 .01-.02.11-.02.12l-1.26.04c-.3.01-.34-.01-.53-.22l-.6-.64-.59-.66c-.16-.18-.37-.42-.48-.55-.13-.17-.16-.18-.23-.25-.05.05-.11.11-.19.22l-.47.44-.54.49-.79.58c-.22.16-.54.31-.62.31-.04 0-.07-.04-.07-.07 0-.07.14-.17.23-.24.36-.24 1.42-1.19 2.03-2.28-.08-.16-.11-.18-.32-.42-.23-.25-1.1-1.43-1.32-1.63-.24-.23-.24-.31-.24-.37 0-.11.07-.25.23-.25.18 0 .23.06.6.56.22.29 1.08 1.28 1.43 1.57.25-.32.79-1.61 1.01-2.17.2-.56.28-1.06.28-1.06 0-.07-.06-.1-.13-.1-.05 0-1.04.29-1.19.34-.2.06-1.12.44-1.32.44-.28 0-.86-.58-.86-.85 0-.06.02-.14.05-.25.17.04.19.06.41.2.02.01.36.18.56.18.04 0 .16-.01.29-.05l1.2-.32zm4.6 6.24c.14-.35.38-1.19.38-1.45 0-.07-.13-.4-.13-.46 0-.11.12-.16.22-.16.14 0 .84.3.84.62 0 .11-.02.14-.23.47-.11.17-.52.97-.61 1.13-.04.05-.59.91-.79.91-.05 0-.08-.04-.08-.08 0-.07.35-.83.41-.98zm1.66-5.21l.05.02.06-.05.5-.74c.16-.24.38-.71.38-.82 0-.05-.12-.26-.12-.31 0-.11.17-.16.25-.16.3 0 .8.42.8.68 0 .16-.17.36-.2.41l-.52.64-1.88 2.24 1.07-.23c.07-.01.36-.1.43-.11-.02-.12-.26-.62-.26-.73 0-.05.02-.07.06-.07.2 0 1.16.76 1.16 1.33 0 .22-.13.43-.37.43s-.28-.11-.42-.49c-.23.05-.32.1-.55.2.2.26.23.29.24.35.02.07.04.1.02.31l-.04 1.02v2.48c0 .3-.13.6-.36.6-.18 0-.28-.19-.33-.33-.08-.23-.07-.29-.06-.59l.05-1.13.04-.89c.01-.35.01-.61 0-.92-.02-.44-.1-.54-.2-.68l-.92.32c-.24.08-.26.08-.32.08-.24 0-.38-.56-.38-.6 0-.14.04-.17.36-.37.17-.1.8-.8 1.15-1.39-.14-.12-.66-.35-1-.41-.36-.07-.44-.1-.44-.38s.08-.32.29-.47c.17-.11 1.08-1.64 1.08-1.99a.33.33 0 00-.06-.19c-.07-.1-.08-.13-.08-.17 0-.1.13-.19.28-.19.26 0 .83.42.83.66 0 .11-.07.19-.2.37l-.74 1.01c-.1.12-.5.64-.56.75l.95.49zm1.98 5.48c-.3 0-.35-.32-.41-.67-.07-.47-.3-.96-.47-1.27 0-.01-.14-.28-.14-.3 0-.04.04-.07.08-.07.17 0 1.32.85 1.32 1.63 0 .34-.11.68-.38.68zm4.31-5.42l.78-.11c.12-.01.64-.18.74-.18.23 0 .53.31.72.49.17.17.24.25.24.37 0 .18-.14.23-.46.32-.18.06-.22.1-.64.38-.13.1-.41.3-.53.3-.06 0-.07-.05-.07-.08 0-.06.36-.85.36-1.03 0-.07-.02-.07-.22-.05l-.89.1-.95.12-.19.02c.48.26.56.37.56.53 0 .08-.04.46-.05.53-.01.25-.01.33-.01.43.32-.01.73-.06.9-.11.08-.01.49-.16.59-.16s.73.35.73.56c0 .07 0 .08-.07.32q-.05.17-.06.36l-.06.86c-.02.43-.16 1.69-.59 1.69-.14 0-.16-.02-.42-.4-.12-.17-.13-.17-.35-.37-.12-.11-.22-.19-.22-.26 0-.05.07-.06.11-.06.06 0 .32.01.38.01.26 0 .31 0 .34-.37l.05-.98s.01-.36-.01-.53c-.02-.14-.06-.14-.29-.12l-.82.07-.24.05v.05l.01 3.93c0 .3-.13.55-.33.55-.19 0-.28-.22-.37-.53-.05-.14-.05-.18-.04-.49l.05-1.55V8.63c.01-.13.01-.41-.01-.6h-.08l-.9.11-.14.04v1.97c0 .58-.01.94-.3.94-.31 0-.41-.4-.41-.59l.04-1.22c.02-.77-.01-1-.1-1.31-.02-.07-.2-.35-.2-.41 0-.1.13-.2.26-.2.11 0 .18.04.35.12.24.12.29.14.46.14.36 0 .88-.12 1.03-.16.04-.28 0-.55-.05-.83-.04-.19-.16-.32-.34-.55L76.55 6h-.12l-.9.18c-.26.05-.3.05-.53.02.01.11.02.19.02.42 0 .79-.32 1.1-.55 1.1-.22 0-.35-.19-.35-.5 0-.16.01-.19.13-.55.07-.19.14-.55.14-.76 0-.06-.02-.36-.02-.42s0-.22.14-.22c.17 0 .24.18.29.28.05.12.06.14.17.14.05 0 .31 0 .94-.13-.02-.18-.02-.28-.12-.62-.13-.49-.14-.54-.34-.79-.11.02-.23.05-.36.05-.4 0-.82-.54-.82-.74 0-.14.11-.24.18-.24.06 0 .3.17.35.19.2.1.41.14.58.14.18 0 .8-.08 1.12-.16l.22-.05c.01-.08.08-.96-.19-1.2-.24-.2-.28-.23-.28-.3 0-.13.16-.23.28-.23s.43.1.64.19c.28.12.35.23.35.44 0 .28-.02.72-.02 1h.13l.88-.14c.13-.02.68-.17.8-.17.11 0 .4.06.56.14.12.06.19.18.19.28 0 .28-.31.28-.46.29l-.84.04h-.02c.06.11.08.17.08.25 0 .07-.02.13-.05.19l-.5 1.12zm-.5-1.47l-1.14.17c-.16.02-.4.08-.55.11.3.22.32.34.5 1.44.13-.02.91-.13.97-.16.06-.02.07-.05.16-.3.14-.44.35-1.04.29-1.25h-.23zm6.83 2.59c-.13.18-.14.19-.29.36-.02.02-.04.06-.06.11.07.1.14.18.24.28.07.08.11.13.11.26 0 .05-.02.35-.04.41l-.05 1.89v.56l-.04 1.62c0 .17-.01.48-.29.48-.3 0-.48-.43-.48-.83 0-.1.01-.19.06-.48.01-.02.04-.12.04-.14l.06-1.09V8.48c.01-.22-.01-.91-.1-1.12l-.7.6c-.1.08-.58.42-.67.49-.28.2-.46.34-.6.34-.08 0-.08-.05-.08-.06 0-.05.29-.31.36-.4.52-.56 1.1-1.07 1.71-1.94.47-.66.84-1.39.84-1.56 0-.01-.06-.19-.07-.22-.01-.04-.01-.08-.02-.19a.52.52 0 01.24-.06c.25 0 .78.44.78.67 0 .06-.07.14-.17.25-.04.05-.19.3-.23.35l-.56.74zm-.58-2.41c-.86.66-1.69.94-1.75.94-.05 0-.08-.02-.08-.07 0-.07.06-.11.25-.23.31-.2 1.03-.82 1.52-1.34.19-.19.38-.49.43-.71-.01-.06-.08-.31-.08-.35 0-.08.1-.16.19-.16.26 0 .8.48.8.72 0 .13-.1.23-.18.3-.14.13-.41.37-.42.38l-.68.52zm4.1 5.61l-1.1-.85c-.1-.07-.52-.44-.6-.52-.07-.05-.19-.16-.19-.29 0-.08.05-.16.16-.16.1 0 .16.04.25.11l1.81 1.26.14.1.37-.53.47-.83c.04-.06.24-.52.3-.61.08-.16.08-.19.07-.3a.726.726 0 00-.29.01l-1.03.22c-.13.02-.31.06-.55.13-.08.02-.42.18-.49.18-.19 0-.79-.47-.79-.83 0-.06.01-.18.13-.18.06 0 .28.16.32.18.12.07.31.08.46.08.29 0 .34 0 .46-.02l.82-.14c.17-.02.52-.12.6-.16.11-.04.53-.26.62-.26.16 0 .85.42.85.67 0 .08 0 .12-.17.29-.16.16-.2.25-.24.31l-.66 1.21c-.17.3-.47.7-.71 1l.31.2 1 .6 1 .56 1.64.73c.07.04.22.1.22.16 0 .11-.24.14-.32.14-.32.05-.83.16-1.14.16-.07 0-.29 0-.4-.08l-1.03-.74-1.64-1.26c-.1.07-.48.43-.56.5-.41.32-.83.66-1.73 1.07-.42.18-1.24.42-1.33.42-.04 0-.05 0-.13-.04.02-.08.04-.08.17-.16.17-.08.91-.48 1.06-.56.8-.49 1.63-1.16 1.99-1.68l-.1-.1zm4.07-5.06c.01.08.02.22.12.29.1.08.22.18.22.36 0 .23-.18.29-.4.36-.41.12-.83.18-1.25.18-.77 0-1.12-.14-1.31-.36-.24-.26-.25-.77-.25-.83l.07-1.64c.01-.26.01-.29-.07-.29-.01 0-.38.07-.4.07l-.85.2c-.06.01-.2.06-.26.07-.08.04-.08.05-.1.24l-.05.76c-.01.25-.24.94-.46 1.25-.34.49-.97.94-1.08.94-.05 0-.06-.01-.1-.06.02-.07.04-.1.13-.19.23-.22.85-1.04.85-2.46 0-.54-.08-.7-.19-.8-.13-.14-.16-.16-.16-.23 0-.16.17-.24.28-.24s.36.11.47.16c.16.07.24.11.35.11.17 0 1.14-.2 1.39-.31.08-.04.44-.26.53-.26.12 0 .67.4.67.61 0 .11-.2.5-.24.59-.02.1-.16.62-.16 1.28 0 .62.14.66.78.66.9 0 .92-.11 1.05-.86.02-.11.08-.62.11-.72.01-.06.02-.12.07-.12.02 0 .1.01.11.14l.11 1.12zm11.99 6.7l2.07-.24v-.27l.03-5.95c0-1.38 0-2.26-.14-2.83-.11-.48-.43-.67-.66-.78.03-.13.13-.45.59-.45s1.26.51 1.49.69c.14.13.29.27.29.48 0 .06-.06.34-.06.4-.21 1.3-.18 1.46-.21 3.04-.05 1.89-.08 2.45-.08 3.14l-.02 2.45 2.56-.1h1.42l.08-.38.29-2.66c.02-.19.05-.46.05-.64 0-.94-.29-1.22-.46-1.39.05-.11.1-.24.37-.24.5 0 .88.29 1.07.43.5.42.59.53.59.75 0 .16-.24.86-.27 1.01-.02.06-.08.38-.1.45l-.19 1.18-.26 2.03c-.05.38-.11.7-.27 1.09-.18.45-.35.46-.51.46-.3 0-.48-.3-.5-.38-.03-.1-.11-.54-.13-.64l-1.31-.02-2.53.06-1.83.18-1.41.21c-.3.05-1.34.21-1.78.58-.51.42-.56.46-.75.46-.29 0-.35-.1-.51-.35-.26-.37-.29-.43-.29-.54 0-.1.21-.54.22-.66.02-.08.08-.58.08-.72V9.44c0-1.36-.02-1.66-.21-2.11-.18-.4-.24-.53-.48-.66.03-.11.1-.32.5-.32.24 0 .42.08.67.22.58.35.82.5.82.83 0 .05-.11 1.02-.13 1.22-.02.24-.06 2.1-.02 2.93l.42-.08 1.49-.24zm17.86-7.67V2.32c0-.93-.08-1.52-.7-1.92.11-.18.26-.4.58-.4.67 0 1.57.78 1.57 1.09 0 .1-.1.45-.11.53-.05.27-.05.37-.06.45l-.06 1.33 1.63-.18c1.26-.14 1.36-.14 1.76-.26.19-.05.53-.13.72-.13.27 0 1.71.34 1.71 1.01 0 .29-.18.42-.45.42-.14 0-.75-.03-.88-.03l-1.34-.03-1.3.06-1.86.11c1.49 1.68 2.18 2.24 4.72 4.35.18.14 1.15.82 2.19 1.38.13.08.3.16.37.24.05.03.05.08.05.13-.19.19-.67.24-.69.24l-1.26.08c-.75.05-.75.06-1.58-.85-1.17-1.25-2.59-2.8-3.87-4.42l.02 3.06v.72l.74-.1c.22-.03.4-.05.61-.11.05-.02.43-.13.5-.13.22 0 1.14.34 1.14.78 0 .18-.13.45-.38.45-.13 0-.69-.03-.8-.03l-1.12.06-.66.08.05 2.56c.02.93.03 1.95-.61 1.95-.24 0-.32-.13-.48-.42-.11-.21-.27-.54-.27-.93 0-.13.08-.7.08-.82.02-.14 0-.19.02-.46l.08-1.83-.94.18c-.11.02-.27.05-.45.1-.03.02-.45.13-.45.13-.29 0-1.06-.62-1.06-1.1 0-.16.1-.27.18-.37.08.11.22.32.86.32.13 0 .27-.02.69-.06l1.15-.13.02-.37V5.51c-1.1 1.62-2.32 3.19-3.99 4.47-.3.22-1.5 1.12-2.26 1.12-.08 0-.13-.02-.22-.05 0-.14.03-.18.35-.4 1.26-.91 2.19-1.95 2.72-2.56.67-.75 1.46-1.62 2.45-3.39l-1.5.34c-.14.03-.72.18-.83.21-.16.03-.83.18-.94.18-.56 0-1.57-1.07-1.57-1.44 0-.18.1-.34.19-.46.38.46 1.04.53 1.58.53.26 0 .58 0 1.46-.13l2.54-.37zm29.85 7.29c.42 0 1.22.62 1.22 1.02 0 .18-.05.19-.4.43-1.15.77-2.48 1.66-3.76 1.66-.22 0-.27-.1-.27-.13 0-.06.1-.11.32-.22.77-.38 1.44-.8 2.08-1.34.11-.1.59-.5.59-.85 0-.19-.08-.29-.18-.4.06-.08.14-.18.4-.18zm6.13-5.79c.83-.1.93-.1 1.26-.24.29-.11.35-.14.45-.14.29 0 .82.45.93.56.27.22.74.67.74.93 0 .1-.03.37-.42.42-.05 0-.35.05-.43.08l-.8.35s-.24.11-.27.13c-.1.05-.22.1-.3.1-.06 0-.13-.02-.18-.05-.03-.11-.03-.13.13-.38.29-.45.42-.64.42-.86 0-.13-.46-.08-.56-.06l-2.37.22-4.79.59-1.71.26c-.06.82-.14 1.97-.72 1.97-.35 0-.64-.58-.64-.91 0-.16.03-.22.24-.72.06-.16.18-.77.18-1.04 0-.08-.03-.4-.03-.46 0-.05 0-.21.14-.21s.3.18.59.5l4.23-.56.11-.03c-.02-1.01-.19-1.09-.51-1.25.02-.24.3-.34.53-.34.43 0 1.2.32 1.2.66 0 .03-.08.67-.08.8l2.67-.29zm-3.87-2.19c-.03-1.74-.05-1.9-.67-2.22.1-.29.37-.43.64-.43.16 0 1.31.22 1.31.72 0 0-.1.78-.1.93-.05.5-.05.54-.05.86l2.27-.19 1.15-.08c.06-.42.1-.7.1-.88 0-.42-.13-.53-.32-.72.03-.08.06-.24.42-.24.51 0 1.22.77 1.22 1.06 0 .14-.24.72-.27.85-.03.14-.19.82-.24.94-.13.37-.46.5-.62.5-.27 0-.4-.26-.45-.54-2.54.08-3.41.19-6.95.8-.26.05-.45.06-.59.16-.27.21-.4.29-.48.29s-.11-.03-.4-.27q-.42-.34-.42-.46c0-.08.1-.37.1-.43.06-.27.05-.51.05-.59 0-.85-.22-.99-.48-1.15.11-.35.48-.35.54-.35.26 0 1.23.5 1.23.8 0 0-.1.53-.13.64-.03.19-.06.38-.1.53l3.23-.5zm1.38 9.99c0 1.1 0 1.22-.18 1.5-.13.22-.32.38-.59.38-.16 0-.18-.02-.34-.27-.08-.13-.19-.26-.32-.35l-.64-.59c-.06-.05-.32-.24-.37-.29-.11-.11-.16-.19-.16-.26 0-.1.06-.13.14-.13.03 0 1.04.24 1.25.24.13 0 .13-.02.13-.29v-2.06c0-.45 0-.51-.34-.7l-1.73.26c-.24.03-1.44.29-1.5.29-.26 0-1.22-.61-1.22-1.01 0-.18.1-.27.21-.38.43.32 1.12.32 1.33.32.98 0 4.64-.51 5.79-.7.34-.05.61-.11.86-.19.35-.13.38-.14.51-.14.18 0 1.36.22 1.36.75 0 .43-.45.43-.94.43-1.46 0-2.45.1-3.5.24.24.26.27.27.27.42 0 .06-.03.7-.03.83v1.71zm-3.12-5.38c.87 0 3.2-.4 3.27-.42.69-.22.75-.24.93-.24.37 0 1.18.19 1.18.67 0 .38-.48.4-.59.4-1.23.03-1.47.06-3.62.38-.05.02-.72.16-.8.18-.05.02-.1.02-.11.02-.34 0-1.2-.46-1.2-.88 0-.14.06-.21.16-.29.21.1.35.18.78.18zm4.53 3.39c.27 0 1.28.3 2.13.67.27.13 1.34.61 1.34 1.6 0 .19-.06.66-.43.66s-.58-.26-1.31-1.07a9.412 9.412 0 00-1.82-1.54c-.18-.08-.18-.13-.18-.22.06-.05.14-.1.27-.1zm9.61-.23l-.03-1.22c-.02-.42-.1-1.12-.22-1.52-.22-.67-.5-.83-.72-.94.03-.19.06-.34.45-.34.56 0 1.81.51 1.81 1.15 0 .06-.11 1.02-.11 1.22l-.02 1.15v2l2.46-.27.02-2.06V6.68l-.02-2.5c0-.93 0-1.38-.4-1.34 0 0-.22 0-.42.03l-1.42.27c-.14.03-.8.21-.93.21-.19 0-1.31-.46-1.31-1.12 0-.13.05-.21.13-.3.22.11.45.22 1.18.22.3 0 .53-.03 1.01-.1l1.66-.21 1.58-.19 1.55-.19c.22-.03.5-.06.91-.18.03-.02.53-.16.56-.16.56 0 1.52.38 1.52.9 0 .38-.27.38-.83.38l-1.26.02-1.54.13-.85.1c.11.11.19.22.19.4 0 .1-.06.56-.06.66-.02.18-.06.99-.06 1.12l-.02 1.49c.18.13.19.13.4.13.88 0 1.94-.27 2.03-.3.11-.03.61-.21.72-.21s.58.08.78.19c.37.18.38.38.38.51 0 .43-.38.51-.66.51-.06 0-.1 0-.19.02l-1.79.26c-.08.02-.85.13-.85.13-.14 0-.22-.03-.85-.4l-.02 2.14v2.45l1.89-.06 1.1-.05c.46-.02.75-.06.98-.1l.54-.08c.56 0 1.76.54 1.76 1.06 0 .26-.27.42-.46.42-.1 0-.51-.06-.59-.08-.24-.03-.43-.03-.62-.05l-1.63-.08h-2.54l-2.54.19-2.13.3c-.21.03-.82.13-1.12.19-.11.03-.58.14-.67.14-.3 0-1.33-.7-1.33-1.22 0-.13.03-.19.13-.29.22.13.4.26 1.18.26.59 0 .94-.03 1.28-.08v-1.58z" stroke-width="0" data-name="レイヤー 1"/></svg>