<?xml version="1.0" encoding="UTF-8"?>
<svg id="_レイヤー_2" data-name="レイヤー 2" xmlns="http://www.w3.org/2000/svg" viewBox="0 0 119.52 124.24">
  <defs>
    <style>
      .cls-1 {
        fill: #141f2f;
        stroke-width: 0px;
      }
    </style>
  </defs>
  <g id="_レイヤー_1-2" data-name="レイヤー 1">
    <g>
      <path class="cls-1" d="m59.36,114.02c1.17.17,2.7.3,4.53.39.92.1,1.89-.03,2.93-.09,1.04-.08,2.14-.17,3.29-.26,4.54-.75,9.84-2.15,14.9-4.64,5.02-2.52,9.74-5.95,13.59-9.6.92-.95,1.82-1.88,2.7-2.78.89-.89,1.57-1.9,2.33-2.78,1.54-1.76,2.63-3.57,3.68-5.07.82-1.15,1.38-2.35,1.97-3.45.56-1.11,1.19-2.11,1.59-3.13.42-1.01.82-1.95,1.19-2.82.37-.88.76-1.67.97-2.46.21-.65.26-.76.17-.41-.1.34-.28,1.17-.79,2.29-.48,1.13-1.05,2.64-1.86,4.36-.46.84-.95,1.74-1.47,2.69-.26.48-.53.96-.8,1.47-.28.5-.64.97-.97,1.47-.58.9-1.19,1.83-1.82,2.81-.65.97-1.46,1.88-2.23,2.89-.39.5-.79,1-1.2,1.52-.42.5-.91.97-1.38,1.47-.47.49-.95,1-1.45,1.51-.49.51-.97,1.06-1.55,1.52.78-.51,1.41-1.18,2.11-1.77.69-.61,1.37-1.21,2.05-1.81,1.31-1.23,2.45-2.58,3.64-3.81,2.18-2.6,4.12-5.1,5.47-7.38.42-.87.89-1.72,1.27-2.62.35-.91.7-1.82,1.05-2.73.33-.92.76-1.82,1-2.77.26-.95.53-1.91.79-2.87,2.21-8.47,2.49-17.34.73-25.81-1.74-8.47-5.37-16.53-10.57-23.62-.85-1.36-2.3-2.84-3.8-4.59-.73-.9-1.65-1.69-2.54-2.54-.92-.83-1.8-1.76-2.79-2.54-2.02-1.53-3.95-3.19-5.93-4.35-.96-.63-1.87-1.22-2.7-1.76-.87-.48-1.66-.91-2.35-1.29,5.84,2.91,11.19,6.77,15.79,11.38,4.54,4.67,8.3,10.08,11.1,15.94.69,1.47,1.43,2.92,1.92,4.47l.82,2.29c.28.76.56,1.52.73,2.32l1.17,4.72.7,4.81c.66,6.44.32,12.97-1.04,19.29.24-.67.34-1.36.52-2.03.26-1.68.65-3.35.81-5.05l.36-5.11c-.02-1.71-.09-3.42-.13-5.13,0-.86-.11-1.71-.23-2.56l-.34-2.55c-1.04-6.78-3.27-13.4-6.58-19.46-.6-1.01-1.2-2.03-1.81-3.05-.59-1.04-1.36-1.97-2.03-3,.67.99,1.44,1.91,2.03,2.95l1.8,3.1c2.98,5.35,5.44,10.87,6.9,17.44.3,2.05.59,4.26.75,6.46.02,1.11.03,2.21.05,3.3,0,1.09.11,2.15,0,3.18-.12,1.68-.3,3.28-.51,4.85-.3,1.56-.73,3.08-1.07,4.62l-.27,1.5-.41,1.47-.82,2.93c-.11.58-.23,1.21-.47,1.82.01-.02.04-.06.05-.07.46-.52.93-1.79,1.63-3.6.31-.91.79-1.94,1.06-3.13.28-1.2.59-2.51.92-3.92,1.09-5.67,1.52-13.15.19-20.64-1.26-7.48-4.18-14.83-7.63-20.27-.2-.35-.39-.7-.6-1.03-.22-.32-.45-.64-.66-.95-.44-.62-.86-1.22-1.27-1.8-.82-1.16-1.58-2.23-2.39-3.09-1.58-1.75-2.75-3.18-3.64-3.88-1.37-1.17-2.73-2.29-4.14-3.31-1.49-.93-2.98-1.82-4.49-2.71-1.55-.83-3.18-1.54-4.79-2.37-.79-.44-1.67-.76-2.53-1.12-.87-.36-1.74-.74-2.63-1.15-1.16-.59-2.29-1-3.33-1.45-1.04-.43-2.03-.8-3.02-1-.24.09-1.25.01-2.25-.1-1.25-.3-2.49-.64-3.72-1-1.24-.28-2.47-.51-3.67-.75-2.38-.56-4.69-.61-6.68-.43-1.39-.04-4-.61-6.47-1.18-.62-.14-1.22-.28-1.78-.4-.56-.07-1.08-.14-1.53-.18-.9-.08-1.53-.07-1.66.1-.94,1.25-1.05,1.41-1.78,1.38-.74-.09-2.06-.19-5.37.56-.4.1-1.2.46-2.05.99-.85.52-1.78,1.08-2.56,1.31-2.7.61-4.25,1.53-5.88,2.47-1.66.88-3.2,2.16-5.79,3.88-3.63,2.87-5.9,4.49-7.91,6.29-1.02.87-2.04,1.71-2.95,2.9-.47.58-.96,1.2-1.46,1.9-.5.71-1.06,1.44-1.5,2.39-.12.22-.64,1.06-1.35,2.18-.35.56-.76,1.19-1.18,1.86-.36.7-.74,1.44-1.11,2.18-.73,1.47-1.54,2.85-1.92,3.99-.44,1.11-.73,1.84-.73,1.84-1.19,2.14-1.85,4.27-2.51,6.22-.16.49-.32.97-.48,1.44-.14.48-.23.96-.34,1.43-.22.94-.43,1.85-.64,2.75-.51,1.77-.66,3.54-1.08,5.29-.17.88-.46,1.75-.61,2.66-.16.9-.36,1.83-.6,2.78.34,4.46.79,9.53,1.5,14.71.27,1.28.54,2.56.82,3.84.14.64.26,1.28.42,1.92.2.62.4,1.24.59,1.85.4,1.23.8,2.44,1.23,3.61.52,1.13,1.06,2.23,1.6,3.29,1.01,2.15,2.18,3.81,3.02,5.44.82,1.65,1.8,2.98,2.6,4.4.42.7.8,1.41,1.24,2.11.47.67.94,1.36,1.42,2.07.5.71,1.01,1.45,1.55,2.23.56.77,1.25,1.49,1.94,2.31.85.88,1.64,1.6,2.32,2.26.72.6,1.35,1.12,1.83,1.67.48.55,1.55,1.18,2.72,1.85,1.22.61,2.58,1.2,3.58,1.91l-.82.19c.69.45,2.01,1.45,2.74,1.83.72.41.44.49.16.58-.55.17-1.13.33.07,1.24,1.52.89,3.04,1.89,4.68,2.66,1.66.75,3.35,1.5,5.08,2.2,1.83.33,3.64.63,5.43.91,1.79.26,3.61.26,5.38.36.24-.24.51-.47,1.02-.62,1.04.05,2.09-.13,3.13-.2.65-.56.48-1.21.91-1.59.14-1.67,4.17-3.11,3.19-4.69-.19-.23-1.61-.45-3.26-.73-.83-.15-1.71-.27-2.53-.48-.81-.26-1.55-.53-2.1-.82-.5-.32.83-.67,1.41-1.18-2.96-.46-2.99-1.11-1.72-1.46-.67-.15-1.34-.3-1.34-.3.2-.17.81-.68.81-.68-.44-.11-.88-.23-1.32-.34-.44-.13-.87-.33-1.3-.49-.86-.34-1.73-.68-2.61-1.02-.89-.29-1.71-.77-2.55-1.19l-2.52-1.23c-.82-.44-1.6-.95-2.41-1.4-.79-.47-1.63-.84-2.39-1.33-.76-.49-1.52-.96-2.3-1.39-.78-.43-1.56-.81-2.28-1.29-1.22-.82-3.54-1.86-4.91-2.85-.7-.47-1.87-1.9-2.27-2.44-1.17-.49-1.53.08-2.3.1-.78-1.1-1.86-2.42-2.77-4.01-.48-.77-.98-1.55-1.49-2.31-.49-.78-.88-1.6-1.32-2.34-.43-.74-.86-1.44-1.28-2.05-.37-.64-.69-1.22-1.02-1.67-.65-.9-1.24-1.35-1.68-1.06-.22-.49-.44-.93-.65-1.32-.18-.41-.34-.78-.51-1.13-.33-.69-.67-1.26-1.02-1.85-.33-.59-.73-1.17-1.05-1.9-.3-.74-.6-1.6-.91-2.71-1.66-5.83-2.41-13.71-1.25-21.29.43-4.18,1.72-8.05,3.17-11.84.54-1.42,1.26-2.72,1.84-4,3.41-6.82,8.11-12.4,13.41-16.71,5.32-4.32,11.24-7.42,17.44-9.39,6.21-1.97,12.72-2.84,19.41-2.62,6.69.22,13.59,1.56,20.5,4.37,6.97,2.83,13.43,7.36,18.6,13.09.7.67,1.26,1.46,1.86,2.22l1.78,2.29c1.11,1.57,2.07,3.25,3.11,4.87.84,1.73,1.73,3.43,2.51,5.18l.99,2.69c.3.9.73,1.77.92,2.7,2.15,7.29,2.62,14.91,1.67,22.04-.95,7.14-3.36,13.77-6.65,19.39-3.32,5.63-7.5,10.24-11.83,13.82-.54.45-1.07.89-1.6,1.33-.52.45-1.12.78-1.67,1.17-1.12.74-2.17,1.52-3.27,2.16-2.25,1.21-4.33,2.43-6.47,3.21-1.06.41-2.02.93-3.05,1.2-1.01.31-1.98.6-2.91.89-.47.14-.92.28-1.37.42-.46.09-.91.18-1.35.27-.88.18-1.71.34-2.51.5-.4.08-.78.16-1.16.24-.38.04-.75.07-1.11.11-.72.07-1.39.14-2.03.2-1.26.14-2.33.27-3.23.24l-4.15.96Z"/>
      <g>
        <path class="cls-1" d="m34.82,20.6c.19-.32.48-.5.87-.56,1.54-.13,3.02.08,4.45.64,1.43.53,2.66,1.36,3.7,2.5.24.24.37.52.4.83.05.32,0,.62-.16.91-.29.64-.52,1.31-.68,2.03-.16.72-.25,1.43-.28,2.15-.24,2.28-.41,4.57-.52,6.88-.08,2.31-.09,4.61-.04,6.92,1.22-.08,2.41-.12,3.58-.12,1.25-.03,2.48-.01,3.7.04.32-1.14.6-2.29.83-3.46.19-1.17.32-2.34.4-3.54-.24-.26-.48-.56-.72-.87-.21-.29-.38-.58-.52-.87.16-.16.36-.3.6-.44.24-.13.49-.21.76-.24.16-.03.3-.03.44,0,.13.03.28.07.44.12.98.42,1.92.94,2.82,1.55.9.58,1.75,1.25,2.54,1.99.08.05.12.12.12.2s-.03.16-.08.24c-.4.42-.74.87-1.03,1.35-.32.48-.6.98-.84,1.51-.48,1.35-.94,2.72-1.39,4.09-.42,1.4-.82,2.81-1.19,4.21-.13.5-.41.93-.83,1.27-.42.34-.89.52-1.39.52l-1.27-.2c-.19-.05-.34-.15-.48-.28-.16-.11-.27-.25-.32-.44-.08-.42-.13-.85-.16-1.27-.05-.42-.07-.83-.04-1.23-2.07-.11-4.13-.05-6.2.16-2.09.19-4.15.52-6.16.99-.95.24-1.88.57-2.78.99-.87.42-1.7.94-2.46,1.55-.32.26-.68.42-1.07.48-.42.05-.82-.04-1.19-.28-.37-.29-.76-.58-1.15-.87-.4-.32-.77-.65-1.11-.99-.08-.08-.17-.15-.28-.2-.08-.03-.17-.04-.28-.04-.11-.03-.2-.07-.28-.12-.08-.03-.16-.08-.24-.16-.21-.26-.42-.54-.64-.83-.21-.32-.4-.64-.56-.95-.03-.03-.04-.09-.04-.2,0-.05.03-.09.08-.12.34-.32.7-.6,1.07-.83.4-.24.81-.45,1.23-.64l-1.19-6.24c-.03-.08-.05-.16-.08-.24-.03-.05-.05-.11-.08-.16-.5-.5-.98-1.02-1.43-1.55s-.89-1.07-1.31-1.63c1.48-.19,2.94-.05,4.37.4,1.4.42,2.68,1.11,3.82,2.07l.72,6.68c1.14-.21,2.28-.38,3.42-.52,1.17-.21,2.33-.38,3.5-.52l-1.39-18.12c-.4-.56-.77-1.13-1.11-1.71-.37-.58-.69-1.18-.95-1.79-.13-.37-.11-.72.08-1.03Z"/>
        <path class="cls-1" d="m62.88,33.13c.26-.11.54-.16.84-.16l2.46.04c.61,0,1.17.13,1.67.4.53.27.97.64,1.31,1.11.26.42.48.86.64,1.31.16.48.26.94.32,1.39l-3.26-.4c-.45-.03-.88-.13-1.27-.32-.4-.19-.76-.44-1.07-.76l-2.31-2.23c.18-.16.41-.29.68-.4Zm7.55,8.66c-.08.61-.08,1.21,0,1.79-.19,1.32-.46,2.65-.84,3.97-.37,1.27-.85,2.52-1.43,3.74.11.42.13.86.08,1.31-.03.45-.15.86-.36,1.23-.34.16-.7.21-1.07.16-.37-.08-.69-.24-.95-.48l-1.59-1.91c-.21-.34-.37-.72-.48-1.11-.08-.37-.07-.77.04-1.19.16-.19.36-.3.6-.36.24-.05.46-.04.68.04l5.76-8.86c-.21.53-.36,1.09-.44,1.67Zm-.16-19c.72.8,1.24,1.7,1.59,2.7.34,1.01.46,2.05.36,3.14l-1.43-.4c-.42-.13-.8-.36-1.11-.68-.32-.34-.53-.73-.64-1.15l-1.23-4.57,2.46.95Zm4.53,5.45c.8-.21,1.6-.41,2.42-.6l-.83-4.05c-.05-.21-.13-.44-.24-.68-.11-.24-.24-.45-.4-.64l.84-.6,3.06,1.43c.29.13.52.33.68.6.18.29.25.61.2.95-.03.37-.04.77-.04,1.19,0,.4.01.78.04,1.15.85-.11,1.7-.21,2.54-.32.82-.11,1.64-.19,2.46-.24l.64-4.65-.88-1.47.24-.48c.16-.16.36-.26.6-.32.24-.03.44.03.6.16l2.86,2.62c.13.19.24.38.32.6.11.24.16.46.16.68,0,.24-.05.48-.16.72-.05.24-.13.48-.24.72l-.36,1.11,1.51-.12c.32-.03.64-.01.95.04.32.03.62.08.91.16l1.59.64.36.83c-.29.4-.64.69-1.03.87-.42.19-.88.28-1.35.28-.61,0-1.21.03-1.79.08-.64.05-1.25.12-1.83.2l-.48,1.75,1.03-.12c.48.13.91.36,1.31.68.34.32.62.72.84,1.19l.12.6c-1.09.05-2.19.13-3.3.24-1.06.11-2.13.25-3.22.44l-.08,1.63c.82-.11,1.63-.17,2.43-.2.82-.03,1.63-.04,2.42-.04.11-.19.28-.32.52-.4.24-.05.46-.03.68.08l4.73,2.94c-.26.42-.49.89-.68,1.39-.16.5-.25,1.01-.28,1.51-.03,1.32-.09,2.64-.2,3.93-.11,1.32-.24,2.64-.4,3.93-.13.69-.34,1.35-.64,1.99-.29.64-.66,1.21-1.11,1.71l-1.59,1.71c-.29-.24-.52-.53-.68-.87-.21-.34-.34-.72-.4-1.11l-3.86-3.46c.66.19,1.35.29,2.07.32.66.03,1.32-.04,1.99-.2.29-.45.52-.93.68-1.43.18-.48.3-.99.36-1.55.11-1.32.14-2.65.12-3.97-.05-1.32-.16-2.65-.32-3.97-.98-.03-1.99-.01-3.02.04-.98.05-1.96.15-2.94.28l-.16,6.12,1.39-.08v-5.21c0-.08-.01-.15-.04-.2-.03-.08-.07-.15-.12-.2l.4-.36c.66.11,1.31.31,1.95.6.61.32,1.17.73,1.67,1.23-.13.19-.25.4-.36.64-.11.21-.16.45-.16.72l-.44,4.21c0,.29-.04.57-.12.83-.13.24-.28.48-.44.72l-2.42-.68c-.82,0-1.64.08-2.46.24-.82.11-1.63.31-2.42.6l-.4.72-1.59-.72c-.19-.13-.32-.3-.4-.52-.08-.21-.08-.42,0-.64.08-.19.15-.37.2-.56.05-.16.08-.34.08-.56l-.4-4.77-.44-.44.91-.48c.16-.08.34-.12.56-.12s.4.05.56.16l.76.64.32,4.81,1.11-.16-.12-6.16c-.82.08-1.62.21-2.39.4-.8.16-1.58.37-2.35.64l-.16,9.46c.26.34.49.72.68,1.11.16.4.28.82.36,1.27-.82-.24-1.63-.54-2.43-.91-.77-.37-1.5-.82-2.19-1.35-.29-.24-.46-.53-.52-.87-.03-.37.07-.72.28-1.03.16-.13.29-.3.4-.52.11-.16.2-.32.28-.48l-.36-6.28-2.07-1.07c.16-.26.36-.49.6-.68.24-.19.5-.32.8-.4,1.48-.4,2.95-.74,4.41-1.03,1.48-.29,2.98-.56,4.49-.8v-1.63c-.61.11-1.21.23-1.79.36-.61.13-1.19.29-1.75.48l-.32.44c-.85.05-1.67-.08-2.47-.4-.77-.29-1.43-.74-1.99-1.35.72-.32,1.46-.62,2.23-.91.77-.26,1.54-.49,2.31-.68l-.36-1.71-2.03.56c-.61-.24-1.22-.54-1.83-.91-.58-.34-1.13-.76-1.63-1.23.8-.29,1.6-.54,2.42-.76Zm5.92,3.5c.72-.13,1.43-.25,2.15-.36.72-.08,1.43-.15,2.15-.2l.24-1.67c-.79.05-1.56.12-2.31.2-.77.11-1.54.23-2.31.36l.08,1.67Z"/>
        <path class="cls-1" d="m54.1,94.71c-1.35.58-2.72,1.09-4.09,1.51-.21.08-.42.12-.64.12-.24,0-.49-.04-.76-.12-2.12-.45-4.21-1.05-6.28-1.79-2.07-.74-4.08-1.6-6.04-2.58-.95-.5-1.95-.9-2.98-1.19-1.03-.32-2.09-.53-3.18-.64-.85.32-1.64.69-2.38,1.11-.74.42-1.47.9-2.19,1.43-.5-.24-1.02-.49-1.55-.76-.5-.29-.99-.6-1.47-.91-.19-.13-.33-.3-.44-.52-.11-.19-.16-.38-.16-.6l.52-.56c.42.11.85.17,1.27.2.42,0,.85-.03,1.27-.08.56-.26,1.13-.48,1.71-.64.58-.13,1.17-.28,1.75-.44.16-.58.24-1.18.24-1.79-.03-.61-.11-1.2-.24-1.79-.24-.24-.5-.42-.79-.56-.29-.16-.58-.29-.87-.4-.08-.16-.15-.3-.2-.44-.03-.16-.05-.32-.08-.48.08-.61.17-1.21.28-1.79.08-.61.19-1.2.32-1.79-.4.19-.78.4-1.15.64-.4.24-.76.5-1.07.79l-.12.36-.68-.04c-.34-.45-.64-.94-.87-1.47-.27-.53-.48-1.09-.64-1.67h.48c.74-.16,1.46-.38,2.15-.68.72-.26,1.39-.58,2.03-.95l.44-.48.87.08c.42.24.83.5,1.23.8.4.27.78.56,1.15.87v.91c-.53.61-1.02,1.25-1.47,1.91-.45.66-.83,1.38-1.15,2.15.37.16.73.33,1.07.52.37.21.73.44,1.07.68.29.24.52.52.68.83.16.32.24.66.24,1.03-.05.48-.17.93-.36,1.35-.16.5-.38.93-.68,1.27.77,0,1.52.07,2.27.2.74.11,1.48.29,2.23.56,1.75.58,3.55,1.03,5.41,1.35,1.85.34,3.72.52,5.6.52,2.07-.03,4.12.13,6.16.48,2.04.34,4.05.86,6.04,1.55-1.27.72-2.58,1.35-3.93,1.91Zm-28.62-29.37c.34.16.68.34.99.56.85.48,1.63,1.06,2.35,1.75.72.69,1.34,1.43,1.87,2.23-.21.37-.45.69-.72.95-.29.24-.61.44-.95.6l-1.23.2c-.16.19-.29.37-.4.56-.13.21-.24.41-.32.6-.08.19-.17.37-.28.56-.11.16-.25.31-.44.44l-.48.04c.37-.56.65-1.14.83-1.75.16-.61.25-1.24.28-1.91-.19-.48-.42-.95-.72-1.43-.27-.45-.57-.87-.91-1.27-.24-.34-.48-.7-.72-1.07-.24-.34-.44-.72-.6-1.11l.4-.24c.37.08.72.19,1.03.32Zm5.33,10.1c.26-.16.54-.29.83-.4,1.64-.45,3.33-.85,5.05-1.19,1.7-.32,3.4-.57,5.13-.76l-.12-2.23c-.9.16-1.8.28-2.7.36-.93.08-1.85.13-2.78.16l-.83.64c-.48,0-.97-.03-1.47-.08-.48-.08-.95-.2-1.43-.36.66-1.01,1.28-2.05,1.87-3.14.58-1.09,1.11-2.2,1.59-3.34l-.44-.95c.21-.08.42-.13.64-.16.21,0,.41.04.6.12l3.02,1.27c.21.13.34.32.4.56.08.24.08.48,0,.72-.11.29-.25.56-.44.8-.16.24-.34.48-.56.72l2.46-.4-.2-5.09c-.03-.56-.15-1.09-.36-1.59-.19-.53-.45-1.01-.8-1.43l.72-.48c.82.19,1.62.44,2.38.76.77.32,1.5.73,2.19,1.23.16.11.3.25.44.44.11.19.22.37.36.56-.27.8-.49,1.6-.68,2.42-.19.82-.32,1.64-.4,2.46l2.11-.4c.26-.05.52-.04.76.04.24.05.45.15.64.28.53.32,1.05.65,1.55.99.53.34,1.03.72,1.51,1.11l-6.72,1.15-.16,2.5,2.58-.2.76-.32c.87.13,1.71.34,2.5.64.82.32,1.62.73,2.38,1.23.16.13.28.29.36.48.08.19.11.4.08.64-.03.27-.07.53-.12.79-.05.27-.11.53-.16.8-.9-.4-1.83-.68-2.78-.83-.98-.19-1.95-.26-2.9-.24-2.07.05-4.11.25-6.12.6-2.04.34-4.03.85-5.96,1.51-.93-.16-1.85-.4-2.78-.72-.9-.32-1.79-.68-2.66-1.07.19-.24.41-.44.68-.6Zm4.57,3.58c1.56-.42,3.13-.77,4.69-1.03,1.59-.24,3.19-.41,4.81-.52l.83-.52c.98.29,1.91.68,2.78,1.15.9.48,1.71,1.05,2.42,1.71l-.24.56c-.66.72-1.19,1.54-1.59,2.46-.37.93-.61,1.87-.72,2.82,0,.21-.04.37-.12.48-.05.19-.17.33-.36.44l-1.35.87c-.16-.08-.32-.17-.48-.28-.16-.13-.29-.26-.4-.4-.9-.03-1.81-.01-2.74.04-.9.03-1.82.13-2.74.32v.95l-1.99-.72c-.29-.29-.53-.61-.72-.95-.19-.37-.3-.78-.36-1.23l-.48-4.09c-.27-.32-.56-.61-.87-.87-.34-.26-.7-.48-1.07-.64l.68-.56Zm4.85,5.25c.82-.13,1.64-.25,2.46-.36.82-.03,1.64-.03,2.46,0l.2-3.54c-.87-.05-1.75-.04-2.62.04-.85.11-1.7.29-2.54.56l.04,3.3Z"/>
        <path class="cls-1" d="m81.36,90.88c-2.7.05-5.38.41-8.03,1.07-.56.16-1.09.36-1.59.6-.53.24-1.02.52-1.47.83-.29.21-.61.32-.95.32s-.65-.11-.91-.32l-1.75-1.63c-.13-.16-.29-.28-.48-.36-.19-.05-.37-.08-.56-.08l.12-.91-.44-.64c.16-.29.26-.58.32-.87.05-.32.08-.62.08-.91l-.2-16.3c0-.85-.2-1.63-.6-2.35-.37-.74-.89-1.36-1.55-1.87,3.82-1.38,7.75-2.36,11.8-2.94,4.03-.61,8.05-.82,12.08-.64.32,0,.64-.03.95-.08.37-.05.69-.12.95-.2.93.34,1.83.81,2.7,1.39.85.56,1.6,1.22,2.27,1.99.18.19.3.4.36.64.03.24-.01.48-.12.72-.27.82-.46,1.67-.6,2.54-.16.85-.24,1.72-.24,2.62l.28,19.52c0,.27-.04.54-.12.83-.08.29-.2.56-.36.8-.13.24-.26.49-.4.76-.13.26-.25.54-.36.84-.08.18-.21.32-.4.4-.19.08-.38.09-.6.04-.37-.05-.7-.19-.99-.4-.29-.19-.56-.42-.79-.72-.19-.24-.33-.49-.44-.76-.08-.29-.12-.58-.12-.87-.03-.4-.03-.81,0-1.23.03-.42.08-.82.16-1.19-2.62-.53-5.3-.74-8.03-.64Zm-11.84-1.55c1.19-.34,2.41-.64,3.66-.87,1.24-.21,2.5-.36,3.78-.44l-.32-4.21c-.9.77-1.89,1.38-2.98,1.83s-2.23.77-3.42.95c1.11-.77,2.16-1.59,3.14-2.46,1.01-.87,1.93-1.83,2.78-2.86-.08.16-.19.28-.32.36-.13.08-.29.12-.48.12-.16.03-.32,0-.48-.08-.16-.08-.29-.18-.4-.32-.37-.61-.68-1.25-.92-1.91-.24-.66-.4-1.35-.48-2.07-.24,0-.45-.05-.64-.16s-.36-.24-.52-.4c1.54-.45,3.1-.8,4.69-1.03,1.56-.26,3.15-.41,4.77-.44.24-.18.52-.3.83-.36.29-.03.57.03.84.16l2.42,1.27c.13.08.21.19.24.32.03.11.01.23-.04.36-.24.45-.49.89-.76,1.31-.24.42-.49.85-.76,1.27-.08.13-.17.24-.28.32-.13.08-.28.11-.44.08-.72.03-1.42.05-2.11.08-.72.03-1.43.08-2.15.16l-.04.8c.4.19.8.36,1.19.52.37.13.76.28,1.15.44.5-.32.99-.65,1.47-.99.5-.32,1.02-.61,1.55-.87.18-.08.37-.15.56-.2.26-.03.49-.01.68.04l1.79.84c-.66.64-1.43,1.1-2.31,1.39-.87.32-1.76.44-2.66.36.64.29,1.26.6,1.87.91.61.34,1.19.72,1.75,1.11.34.24.62.54.84.91.18.37.32.77.4,1.19,0,.08-.04.16-.12.24-.08.05-.13.08-.16.08-.34.03-.69.03-1.03,0-.34-.03-.66-.08-.95-.16-1.06-.69-2.11-1.4-3.14-2.15-1.03-.74-2.07-1.48-3.1-2.23l.08,5.29c1.8-.16,3.59-.21,5.37-.16,1.8.11,3.56.31,5.29.6l-.87-21.5c-1.38,0-2.76.01-4.13.04-1.35.05-2.7.11-4.05.16l.08,2.31c.26-.03.53-.05.8-.08.26-.05.53-.09.8-.12.26-.03.54-.01.84.04.32.03.6.09.83.2.45.19.84.44,1.15.76.37.29.64.66.8,1.11-.85-.05-1.71-.05-2.58,0-.85.08-1.72.2-2.62.36v.95l3.22-.16c.32-.03.64-.03.95,0,.34.03.66.08.95.16.58.13,1.06.41,1.43.84.45.4.74.87.87,1.43-2.31-.29-4.61-.38-6.91-.28-2.33.13-4.65.42-6.96.87-.24.08-.5.12-.8.12-.26,0-.54-.04-.84-.12-.42-.11-.86-.25-1.31-.44-.42-.21-.82-.46-1.19-.76,1.14-.4,2.31-.69,3.5-.87,1.22-.21,2.45-.34,3.7-.4l-.08-.99c-.32.05-.62.09-.91.12-.32,0-.61-.03-.87-.08-.64-.05-1.25-.2-1.83-.44-.61-.24-1.18-.54-1.71-.91.88-.18,1.75-.36,2.62-.52.85-.19,1.72-.36,2.62-.52l-.2-2.31c-1.22.11-2.42.27-3.62.48-1.19.19-2.39.45-3.58.8l-.24,20.83Zm7.15-10.49c.74-.21,1.51-.34,2.31-.4.77-.05,1.54-.05,2.31,0l.16-1.31c-.8,0-1.59.05-2.38.16-.8.08-1.58.21-2.35.4l-.04,1.15Z"/>
      </g>
      <g>
        <path class="cls-1" d="m59.36,114.02c1.17.17,2.7.3,4.53.39.92.1,1.89-.03,2.93-.09,1.04-.08,2.14-.17,3.29-.26,4.54-.75,9.84-2.15,14.9-4.64,5.02-2.52,9.74-5.95,13.59-9.6.92-.95,1.82-1.88,2.7-2.78.89-.89,1.57-1.9,2.33-2.78,1.54-1.76,2.63-3.57,3.68-5.07.82-1.15,1.38-2.35,1.97-3.45.56-1.11,1.19-2.11,1.59-3.13.42-1.01.82-1.95,1.19-2.82.37-.88.76-1.67.97-2.46.21-.65.26-.76.17-.41-.1.34-.28,1.17-.79,2.29-.48,1.13-1.05,2.64-1.86,4.36-.46.84-.95,1.74-1.47,2.69-.26.48-.53.96-.8,1.47-.28.5-.64.97-.97,1.47-.58.9-1.19,1.83-1.82,2.81-.65.97-1.46,1.88-2.23,2.89-.39.5-.79,1-1.2,1.52-.42.5-.91.97-1.38,1.47-.47.49-.95,1-1.45,1.51-.49.51-.97,1.06-1.55,1.52.78-.51,1.41-1.18,2.11-1.77.69-.61,1.37-1.21,2.05-1.81,1.31-1.23,2.45-2.58,3.64-3.81,2.18-2.6,4.12-5.1,5.47-7.38.42-.87.89-1.72,1.27-2.62.35-.91.7-1.82,1.05-2.73.33-.92.76-1.82,1-2.77.26-.95.53-1.91.79-2.87,2.21-8.47,2.49-17.34.73-25.81-1.74-8.47-5.37-16.53-10.57-23.62-.85-1.36-2.3-2.84-3.8-4.59-.73-.9-1.65-1.69-2.54-2.54-.92-.83-1.8-1.76-2.79-2.54-2.02-1.53-3.95-3.19-5.93-4.35-.96-.63-1.87-1.22-2.7-1.76-.87-.48-1.66-.91-2.35-1.29,5.84,2.91,11.19,6.77,15.79,11.38,4.54,4.67,8.3,10.08,11.1,15.94.69,1.47,1.43,2.92,1.92,4.47l.82,2.29c.28.76.56,1.52.73,2.32l1.17,4.72.7,4.81c.66,6.44.32,12.97-1.04,19.29.24-.67.34-1.36.52-2.03.26-1.68.65-3.35.81-5.05l.36-5.11c-.02-1.71-.09-3.42-.13-5.13,0-.86-.11-1.71-.23-2.56l-.34-2.55c-1.04-6.78-3.27-13.4-6.58-19.46-.6-1.01-1.2-2.03-1.81-3.05-.59-1.04-1.36-1.97-2.03-3,.67.99,1.44,1.91,2.03,2.95l1.8,3.1c2.98,5.35,5.44,10.87,6.9,17.44.3,2.05.59,4.26.75,6.46.02,1.11.03,2.21.05,3.3,0,1.09.11,2.15,0,3.18-.12,1.68-.3,3.28-.51,4.85-.3,1.56-.73,3.08-1.07,4.62l-.27,1.5-.41,1.47-.82,2.93c-.11.58-.23,1.21-.47,1.82.01-.02.04-.06.05-.07.46-.52.93-1.79,1.63-3.6.31-.91.79-1.94,1.06-3.13.28-1.2.59-2.51.92-3.92,1.09-5.67,1.52-13.15.19-20.64-1.26-7.48-4.18-14.83-7.63-20.27-.2-.35-.39-.7-.6-1.03-.22-.32-.45-.64-.66-.95-.44-.62-.86-1.22-1.27-1.8-.82-1.16-1.58-2.23-2.39-3.09-1.58-1.75-2.75-3.18-3.64-3.88-1.37-1.17-2.73-2.29-4.14-3.31-1.49-.93-2.98-1.82-4.49-2.71-1.55-.83-3.18-1.54-4.79-2.37-.79-.44-1.67-.76-2.53-1.12-.87-.36-1.74-.74-2.63-1.15-1.16-.59-2.29-1-3.33-1.45-1.04-.43-2.03-.8-3.02-1-.24.09-1.25.01-2.25-.1-1.25-.3-2.49-.64-3.72-1-1.24-.28-2.47-.51-3.67-.75-2.38-.56-4.69-.61-6.68-.43-1.39-.04-4-.61-6.47-1.18-.62-.14-1.22-.28-1.78-.4-.56-.07-1.08-.14-1.53-.18-.9-.08-1.53-.07-1.66.1-.94,1.25-1.05,1.41-1.78,1.38-.74-.09-2.06-.19-5.37.56-.4.1-1.2.46-2.05.99-.85.52-1.78,1.08-2.56,1.31-2.7.61-4.25,1.53-5.88,2.47-1.66.88-3.2,2.16-5.79,3.88-3.63,2.87-5.9,4.49-7.91,6.29-1.02.87-2.04,1.71-2.95,2.9-.47.58-.96,1.2-1.46,1.9-.5.71-1.06,1.44-1.5,2.39-.12.22-.64,1.06-1.35,2.18-.35.56-.76,1.19-1.18,1.86-.36.7-.74,1.44-1.11,2.18-.73,1.47-1.54,2.85-1.92,3.99-.44,1.11-.73,1.84-.73,1.84-1.19,2.14-1.85,4.27-2.51,6.22-.16.49-.32.97-.48,1.44-.14.48-.23.96-.34,1.43-.22.94-.43,1.85-.64,2.75-.51,1.77-.66,3.54-1.08,5.29-.17.88-.46,1.75-.61,2.66-.16.9-.36,1.83-.6,2.78.34,4.46.79,9.53,1.5,14.71.27,1.28.54,2.56.82,3.84.14.64.26,1.28.42,1.92.2.62.4,1.24.59,1.85.4,1.23.8,2.44,1.23,3.61.52,1.13,1.06,2.23,1.6,3.29,1.01,2.15,2.18,3.81,3.02,5.44.82,1.65,1.8,2.98,2.6,4.4.42.7.8,1.41,1.24,2.11.47.67.94,1.36,1.42,2.07.5.71,1.01,1.45,1.55,2.23.56.77,1.25,1.49,1.94,2.31.85.88,1.64,1.6,2.32,2.26.72.6,1.35,1.12,1.83,1.67.48.55,1.55,1.18,2.72,1.85,1.22.61,2.58,1.2,3.58,1.91l-.82.19c.69.45,2.01,1.45,2.74,1.83.72.41.44.49.16.58-.55.17-1.13.33.07,1.24,1.52.89,3.04,1.89,4.68,2.66,1.66.75,3.35,1.5,5.08,2.2,1.83.33,3.64.63,5.43.91,1.79.26,3.61.26,5.38.36.24-.24.51-.47,1.02-.62,1.04.05,2.09-.13,3.13-.2.65-.56.48-1.21.91-1.59.14-1.67,4.17-3.11,3.19-4.69-.19-.23-1.61-.45-3.26-.73-.83-.15-1.71-.27-2.53-.48-.81-.26-1.55-.53-2.1-.82-.5-.32.83-.67,1.41-1.18-2.96-.46-2.99-1.11-1.72-1.46-.67-.15-1.34-.3-1.34-.3.2-.17.81-.68.81-.68-.44-.11-.88-.23-1.32-.34-.44-.13-.87-.33-1.3-.49-.86-.34-1.73-.68-2.61-1.02-.89-.29-1.71-.77-2.55-1.19l-2.52-1.23c-.82-.44-1.6-.95-2.41-1.4-.79-.47-1.63-.84-2.39-1.33-.76-.49-1.52-.96-2.3-1.39-.78-.43-1.56-.81-2.28-1.29-1.22-.82-3.54-1.86-4.91-2.85-.7-.47-1.87-1.9-2.27-2.44-1.17-.49-1.53.08-2.3.1-.78-1.1-1.86-2.42-2.77-4.01-.48-.77-.98-1.55-1.49-2.31-.49-.78-.88-1.6-1.32-2.34-.43-.74-.86-1.44-1.28-2.05-.37-.64-.69-1.22-1.02-1.67-.65-.9-1.24-1.35-1.68-1.06-.22-.49-.44-.93-.65-1.32-.18-.41-.34-.78-.51-1.13-.33-.69-.67-1.26-1.02-1.85-.33-.59-.73-1.17-1.05-1.9-.3-.74-.6-1.6-.91-2.71-1.66-5.83-2.41-13.71-1.25-21.29.43-4.18,1.72-8.05,3.17-11.84.54-1.42,1.26-2.72,1.84-4,3.41-6.82,8.11-12.4,13.41-16.71,5.32-4.32,11.24-7.42,17.44-9.39,6.21-1.97,12.72-2.84,19.41-2.62,6.69.22,13.59,1.56,20.5,4.37,6.97,2.83,13.43,7.36,18.6,13.09.7.67,1.26,1.46,1.86,2.22l1.78,2.29c1.11,1.57,2.07,3.25,3.11,4.87.84,1.73,1.73,3.43,2.51,5.18l.99,2.69c.3.9.73,1.77.92,2.7,2.15,7.29,2.62,14.91,1.67,22.04-.95,7.14-3.36,13.77-6.65,19.39-3.32,5.63-7.5,10.24-11.83,13.82-.54.45-1.07.89-1.6,1.33-.52.45-1.12.78-1.67,1.17-1.12.74-2.17,1.52-3.27,2.16-2.25,1.21-4.33,2.43-6.47,3.21-1.06.41-2.02.93-3.05,1.2-1.01.31-1.98.6-2.91.89-.47.14-.92.28-1.37.42-.46.09-.91.18-1.35.27-.88.18-1.71.34-2.51.5-.4.08-.78.16-1.16.24-.38.04-.75.07-1.11.11-.72.07-1.39.14-2.03.2-1.26.14-2.33.27-3.23.24l-4.15.96Z"/>
        <g>
          <path class="cls-1" d="m34.82,20.6c.19-.32.48-.5.88-.56,1.54-.13,3.02.08,4.45.64,1.43.53,2.66,1.36,3.7,2.5.24.24.37.52.4.83.05.32,0,.62-.16.91-.29.64-.52,1.31-.68,2.03-.16.72-.25,1.43-.28,2.15-.24,2.28-.41,4.57-.52,6.88-.08,2.31-.09,4.61-.04,6.92,1.22-.08,2.41-.12,3.58-.12,1.25-.03,2.48-.01,3.7.04.32-1.14.6-2.29.83-3.46.19-1.17.32-2.34.4-3.54-.24-.26-.48-.56-.72-.87-.21-.29-.38-.58-.52-.87.16-.16.36-.3.6-.44.24-.13.49-.21.76-.24.16-.03.3-.03.44,0,.13.03.28.07.44.12.98.42,1.92.94,2.82,1.55.9.58,1.75,1.25,2.54,1.99.08.05.12.12.12.2s-.03.16-.08.24c-.4.42-.74.87-1.03,1.35-.32.48-.6.98-.84,1.51-.48,1.35-.94,2.72-1.39,4.09-.42,1.4-.82,2.81-1.19,4.21-.13.5-.41.93-.84,1.27s-.89.52-1.39.52l-1.27-.2c-.19-.05-.34-.15-.48-.28-.16-.11-.27-.25-.32-.44-.08-.42-.13-.85-.16-1.27-.05-.42-.07-.83-.04-1.23-2.07-.11-4.13-.05-6.2.16-2.09.19-4.15.52-6.16.99-.95.24-1.88.57-2.78.99-.88.42-1.7.94-2.46,1.55-.32.26-.68.42-1.07.48-.42.05-.82-.04-1.19-.28-.37-.29-.76-.58-1.15-.87-.4-.32-.77-.65-1.11-.99-.08-.08-.17-.15-.28-.2-.08-.03-.17-.04-.28-.04-.11-.03-.2-.07-.28-.12-.08-.03-.16-.08-.24-.16-.21-.26-.42-.54-.64-.83-.21-.32-.4-.64-.56-.95-.03-.03-.04-.09-.04-.2,0-.05.03-.09.08-.12.34-.32.7-.6,1.07-.83.4-.24.81-.45,1.23-.64l-1.19-6.24c-.03-.08-.05-.16-.08-.24-.03-.05-.05-.11-.08-.16-.5-.5-.98-1.02-1.43-1.55s-.89-1.07-1.31-1.63c1.48-.19,2.94-.05,4.37.4,1.4.42,2.68,1.11,3.82,2.07l.72,6.68c1.14-.21,2.28-.38,3.42-.52,1.17-.21,2.33-.38,3.5-.52l-1.39-18.12c-.4-.56-.77-1.13-1.11-1.71-.37-.58-.69-1.18-.95-1.79-.13-.37-.11-.72.08-1.03Z"/>
          <path class="cls-1" d="m62.88,33.13c.26-.11.54-.16.84-.16l2.46.04c.61,0,1.17.13,1.67.4.53.27.97.64,1.31,1.11.26.42.48.86.64,1.31.16.48.26.94.32,1.39l-3.26-.4c-.45-.03-.88-.13-1.27-.32-.4-.19-.76-.44-1.07-.76l-2.31-2.23c.18-.16.41-.29.68-.4Zm7.55,8.66c-.08.61-.08,1.21,0,1.79-.19,1.32-.46,2.65-.84,3.97-.37,1.27-.85,2.52-1.43,3.74.11.42.13.86.08,1.31-.03.45-.15.86-.36,1.23-.34.16-.7.21-1.07.16-.37-.08-.69-.24-.95-.48l-1.59-1.91c-.21-.34-.37-.72-.48-1.11-.08-.37-.07-.77.04-1.19.16-.19.36-.3.6-.36.24-.05.46-.04.68.04l5.76-8.86c-.21.53-.36,1.09-.44,1.67Zm-.16-19c.72.8,1.24,1.7,1.59,2.7.34,1.01.46,2.05.36,3.14l-1.43-.4c-.42-.13-.8-.36-1.11-.68-.32-.34-.53-.73-.64-1.15l-1.23-4.57,2.46.95Zm4.53,5.45c.8-.21,1.6-.41,2.42-.6l-.83-4.05c-.05-.21-.13-.44-.24-.68-.11-.24-.24-.45-.4-.64l.84-.6,3.06,1.43c.29.13.52.33.68.6.18.29.25.61.2.95-.03.37-.04.77-.04,1.19,0,.4.01.78.04,1.15.85-.11,1.7-.21,2.54-.32.82-.11,1.64-.19,2.46-.24l.64-4.65-.88-1.47.24-.48c.16-.16.36-.26.6-.32.24-.03.44.03.6.16l2.86,2.62c.13.19.24.38.32.6.11.24.16.46.16.68,0,.24-.05.48-.16.72-.05.24-.13.48-.24.72l-.36,1.11,1.51-.12c.32-.03.64-.01.95.04.32.03.62.08.91.16l1.59.64.36.83c-.29.4-.64.69-1.03.87-.42.19-.88.28-1.35.28-.61,0-1.21.03-1.79.08-.64.05-1.25.12-1.83.2l-.48,1.75,1.03-.12c.48.13.91.36,1.31.68.34.32.62.72.84,1.19l.12.6c-1.09.05-2.19.13-3.3.24-1.06.11-2.13.25-3.22.44l-.08,1.63c.82-.11,1.63-.17,2.43-.2.82-.03,1.63-.04,2.42-.04.11-.19.28-.32.52-.4.24-.05.46-.03.68.08l4.73,2.94c-.26.42-.49.89-.68,1.39-.16.5-.25,1.01-.28,1.51-.03,1.32-.09,2.64-.2,3.93-.11,1.32-.24,2.64-.4,3.93-.13.69-.34,1.35-.64,1.99-.29.64-.66,1.21-1.11,1.71l-1.59,1.71c-.29-.24-.52-.53-.68-.87-.21-.34-.34-.72-.4-1.11l-3.86-3.46c.66.19,1.35.29,2.07.32.66.03,1.32-.04,1.99-.2.29-.45.52-.93.68-1.43.18-.48.3-.99.36-1.55.11-1.32.14-2.65.12-3.97-.05-1.32-.16-2.65-.32-3.97-.98-.03-1.99-.01-3.02.04-.98.05-1.96.15-2.94.28l-.16,6.12,1.39-.08v-5.21c0-.08-.01-.15-.04-.2-.03-.08-.07-.15-.12-.2l.4-.36c.66.11,1.31.31,1.95.6.61.32,1.17.73,1.67,1.23-.13.19-.25.4-.36.64-.11.21-.16.45-.16.72l-.44,4.21c0,.29-.04.57-.12.83-.13.24-.28.48-.44.72l-2.42-.68c-.82,0-1.64.08-2.46.24-.82.11-1.63.31-2.42.6l-.4.72-1.59-.72c-.19-.13-.32-.3-.4-.52-.08-.21-.08-.42,0-.64.08-.19.15-.37.2-.56.05-.16.08-.34.08-.56l-.4-4.77-.44-.44.91-.48c.16-.08.34-.12.56-.12s.4.05.56.16l.76.64.32,4.81,1.11-.16-.12-6.16c-.82.08-1.62.21-2.39.4-.8.16-1.58.37-2.35.64l-.16,9.46c.26.34.49.72.68,1.11.16.4.28.82.36,1.27-.82-.24-1.63-.54-2.43-.91-.77-.37-1.5-.82-2.19-1.35-.29-.24-.46-.53-.52-.87-.03-.37.07-.72.28-1.03.16-.13.29-.3.4-.52.11-.16.2-.32.28-.48l-.36-6.28-2.07-1.07c.16-.26.36-.49.6-.68.24-.19.5-.32.8-.4,1.48-.4,2.95-.74,4.41-1.03,1.48-.29,2.98-.56,4.49-.8v-1.63c-.61.11-1.21.23-1.79.36-.61.13-1.19.29-1.75.48l-.32.44c-.85.05-1.67-.08-2.47-.4-.77-.29-1.43-.74-1.99-1.35.72-.32,1.46-.62,2.23-.91.77-.26,1.54-.49,2.31-.68l-.36-1.71-2.03.56c-.61-.24-1.22-.54-1.83-.91-.58-.34-1.13-.76-1.63-1.23.8-.29,1.6-.54,2.42-.76Zm5.92,3.5c.72-.13,1.43-.25,2.15-.36.72-.08,1.43-.15,2.15-.2l.24-1.67c-.79.05-1.56.12-2.31.2-.77.11-1.54.23-2.31.36l.08,1.67Z"/>
          <path class="cls-1" d="m54.09,94.71c-1.35.58-2.72,1.09-4.09,1.51-.21.08-.42.12-.64.12-.24,0-.49-.04-.76-.12-2.12-.45-4.21-1.05-6.28-1.79-2.07-.74-4.08-1.6-6.04-2.58-.95-.5-1.95-.9-2.98-1.19-1.03-.32-2.09-.53-3.18-.64-.85.32-1.64.69-2.39,1.11-.74.42-1.47.9-2.19,1.43-.5-.24-1.02-.49-1.55-.76-.5-.29-.99-.6-1.47-.91-.18-.13-.33-.3-.44-.52-.11-.19-.16-.38-.16-.6l.52-.56c.42.11.85.17,1.27.2.42,0,.85-.03,1.27-.08.56-.26,1.13-.48,1.71-.64.58-.13,1.17-.28,1.75-.44.16-.58.24-1.18.24-1.79-.03-.61-.11-1.2-.24-1.79-.24-.24-.5-.42-.79-.56-.29-.16-.58-.29-.88-.4-.08-.16-.15-.3-.2-.44-.03-.16-.05-.32-.08-.48.08-.61.17-1.21.28-1.79.08-.61.19-1.2.32-1.79-.4.19-.78.4-1.15.64-.4.24-.76.5-1.07.79l-.12.36-.68-.04c-.34-.45-.64-.94-.87-1.47-.27-.53-.48-1.09-.64-1.67h.48c.74-.16,1.46-.38,2.15-.68.72-.26,1.39-.58,2.03-.95l.44-.48.87.08c.42.24.84.5,1.23.8.4.27.78.56,1.15.87v.91c-.53.61-1.02,1.25-1.47,1.91-.45.66-.83,1.38-1.15,2.15.37.16.73.33,1.07.52.37.21.73.44,1.07.68.29.24.52.52.68.83.16.32.24.66.24,1.03-.05.48-.17.93-.36,1.35-.16.5-.38.93-.68,1.27.77,0,1.52.07,2.27.2.74.11,1.48.29,2.23.56,1.75.58,3.55,1.03,5.41,1.35,1.85.34,3.72.52,5.6.52,2.07-.03,4.12.13,6.16.48,2.04.34,4.05.86,6.04,1.55-1.27.72-2.58,1.35-3.93,1.91Zm-28.62-29.37c.34.16.68.34.99.56.85.48,1.63,1.06,2.35,1.75.72.69,1.34,1.43,1.87,2.23-.21.37-.45.69-.72.95-.29.24-.61.44-.95.6l-1.23.2c-.16.19-.29.37-.4.56-.13.21-.24.41-.32.6-.08.19-.17.37-.28.56-.11.16-.25.31-.44.44l-.48.04c.37-.56.65-1.14.84-1.75.16-.61.25-1.24.28-1.91-.19-.48-.42-.95-.72-1.43-.27-.45-.57-.87-.91-1.27-.24-.34-.48-.7-.72-1.07-.24-.34-.44-.72-.6-1.11l.4-.24c.37.08.72.19,1.03.32Zm5.33,10.1c.26-.16.54-.29.84-.4,1.64-.45,3.33-.85,5.05-1.19,1.7-.32,3.41-.57,5.13-.76l-.12-2.23c-.9.16-1.8.28-2.7.36-.93.08-1.85.13-2.78.16l-.84.64c-.48,0-.97-.03-1.47-.08-.48-.08-.95-.2-1.43-.36.66-1.01,1.29-2.05,1.87-3.14.58-1.09,1.11-2.2,1.59-3.34l-.44-.95c.21-.08.42-.13.64-.16.21,0,.41.04.6.12l3.02,1.27c.21.13.34.32.4.56.08.24.08.48,0,.72-.11.29-.25.56-.44.8-.16.24-.34.48-.56.72l2.46-.4-.2-5.09c-.03-.56-.15-1.09-.36-1.59-.19-.53-.45-1.01-.8-1.43l.72-.48c.82.19,1.62.44,2.38.76.77.32,1.5.73,2.19,1.23.16.11.3.25.44.44.11.19.22.37.36.56-.27.8-.49,1.6-.68,2.42-.18.82-.32,1.64-.4,2.46l2.11-.4c.26-.05.52-.04.76.04.24.05.45.15.64.28.53.32,1.05.65,1.55.99.53.34,1.03.72,1.51,1.11l-6.72,1.15-.16,2.5,2.58-.2.76-.32c.87.13,1.71.34,2.5.64.82.32,1.61.73,2.38,1.23.16.13.28.29.36.48.08.19.11.4.08.64-.03.27-.07.53-.12.79-.05.27-.11.53-.16.8-.9-.4-1.83-.68-2.78-.83-.98-.19-1.95-.26-2.9-.24-2.07.05-4.11.25-6.12.6-2.04.34-4.03.85-5.96,1.51-.93-.16-1.85-.4-2.78-.72-.9-.32-1.79-.68-2.66-1.07.18-.24.41-.44.68-.6Zm4.57,3.58c1.56-.42,3.13-.77,4.69-1.03,1.59-.24,3.19-.41,4.81-.52l.83-.52c.98.29,1.91.68,2.78,1.15.9.48,1.71,1.05,2.42,1.71l-.24.56c-.66.72-1.19,1.54-1.59,2.46-.37.93-.61,1.87-.72,2.82,0,.21-.04.37-.12.48-.05.19-.17.33-.36.44l-1.35.87c-.16-.08-.32-.17-.48-.28-.16-.13-.29-.26-.4-.4-.9-.03-1.81-.01-2.74.04-.9.03-1.82.13-2.74.32v.95l-1.99-.72c-.29-.29-.53-.61-.72-.95-.19-.37-.3-.78-.36-1.23l-.48-4.09c-.27-.32-.56-.61-.88-.87-.34-.26-.7-.48-1.07-.64l.68-.56Zm4.85,5.25c.82-.13,1.64-.25,2.46-.36.82-.03,1.64-.03,2.46,0l.2-3.54c-.87-.05-1.75-.04-2.62.04-.85.11-1.7.29-2.54.56l.04,3.3Z"/>
          <path class="cls-1" d="m81.36,90.88c-2.7.05-5.38.41-8.03,1.07-.56.16-1.09.36-1.59.6-.53.24-1.02.52-1.47.83-.29.21-.61.32-.95.32s-.65-.11-.91-.32l-1.75-1.63c-.13-.16-.29-.28-.48-.36-.19-.05-.37-.08-.56-.08l.12-.91-.44-.64c.16-.29.26-.58.32-.87.05-.32.08-.62.08-.91l-.2-16.3c0-.85-.2-1.63-.6-2.35-.37-.74-.89-1.36-1.55-1.87,3.82-1.38,7.75-2.36,11.8-2.94,4.03-.61,8.05-.82,12.08-.64.32,0,.64-.03.95-.08.37-.05.69-.12.95-.2.93.34,1.83.81,2.7,1.39.85.56,1.6,1.22,2.27,1.99.18.19.3.4.36.64.03.24-.01.48-.12.72-.27.82-.46,1.67-.6,2.54-.16.85-.24,1.72-.24,2.62l.28,19.52c0,.27-.04.54-.12.83-.08.29-.2.56-.36.8-.13.24-.26.49-.4.76-.13.26-.25.54-.36.84-.08.18-.21.32-.4.4-.19.08-.38.09-.6.04-.37-.05-.7-.19-.99-.4-.29-.19-.56-.42-.79-.72-.19-.24-.33-.49-.44-.76-.08-.29-.12-.58-.12-.87-.03-.4-.03-.81,0-1.23.03-.42.08-.82.16-1.19-2.62-.53-5.3-.74-8.03-.64Zm-11.84-1.55c1.19-.34,2.41-.64,3.66-.87,1.24-.21,2.5-.36,3.78-.44l-.32-4.21c-.9.77-1.89,1.38-2.98,1.83-1.09.45-2.23.77-3.42.95,1.11-.77,2.16-1.59,3.14-2.46,1.01-.87,1.93-1.83,2.78-2.86-.08.16-.19.28-.32.36-.13.08-.29.12-.48.12-.16.03-.32,0-.48-.08-.16-.08-.29-.18-.4-.32-.37-.61-.68-1.25-.92-1.91-.24-.66-.4-1.35-.48-2.07-.24,0-.45-.05-.64-.16s-.36-.24-.52-.4c1.54-.45,3.1-.8,4.69-1.03,1.56-.26,3.15-.41,4.77-.44.24-.18.52-.3.83-.36.29-.03.57.03.84.16l2.42,1.27c.13.08.21.19.24.32.03.11.01.23-.04.36-.24.45-.49.89-.76,1.31-.24.42-.49.85-.76,1.27-.08.13-.17.24-.28.32-.13.08-.28.11-.44.08-.72.03-1.42.05-2.11.08-.72.03-1.43.08-2.15.16l-.04.8c.4.19.8.36,1.19.52.37.13.76.28,1.15.44.5-.32.99-.65,1.47-.99.5-.32,1.02-.61,1.55-.87.18-.08.37-.15.56-.2.26-.03.49-.01.68.04l1.79.84c-.66.64-1.43,1.1-2.31,1.39-.87.32-1.76.44-2.66.36.64.29,1.26.6,1.87.91.61.34,1.19.72,1.75,1.11.34.24.62.54.84.91.18.37.32.77.4,1.19,0,.08-.04.16-.12.24-.08.05-.13.08-.16.08-.34.03-.69.03-1.03,0-.34-.03-.66-.08-.95-.16-1.06-.69-2.11-1.4-3.14-2.15-1.03-.74-2.07-1.48-3.1-2.23l.08,5.29c1.8-.16,3.59-.21,5.37-.16,1.8.11,3.56.31,5.29.6l-.87-21.5c-1.38,0-2.76.01-4.13.04-1.35.05-2.7.11-4.05.16l.08,2.31c.26-.03.53-.05.8-.08.26-.05.53-.09.8-.12.26-.03.54-.01.84.04.32.03.6.09.83.2.45.19.84.44,1.15.76.37.29.64.66.8,1.11-.85-.05-1.71-.05-2.58,0-.85.08-1.72.2-2.62.36v.95l3.22-.16c.32-.03.64-.03.95,0,.34.03.66.08.95.16.58.13,1.06.41,1.43.84.45.4.74.87.87,1.43-2.31-.29-4.61-.38-6.91-.28-2.33.13-4.65.42-6.96.87-.24.08-.5.12-.8.12-.26,0-.54-.04-.84-.12-.42-.11-.86-.25-1.31-.44-.42-.21-.82-.46-1.19-.76,1.14-.4,2.31-.69,3.5-.87,1.22-.21,2.45-.34,3.7-.4l-.08-.99c-.32.05-.62.09-.91.12-.32,0-.61-.03-.87-.08-.64-.05-1.25-.2-1.83-.44-.61-.24-1.18-.54-1.71-.91.88-.18,1.75-.36,2.62-.52.85-.19,1.72-.36,2.62-.52l-.2-2.31c-1.22.11-2.42.27-3.62.48-1.19.19-2.39.45-3.58.8l-.24,20.83Zm7.15-10.49c.74-.21,1.51-.34,2.31-.4.77-.05,1.54-.05,2.31,0l.16-1.31c-.8,0-1.59.05-2.38.16-.8.08-1.58.21-2.35.4l-.04,1.15Z"/>
        </g>
      </g>
    </g>
  </g>
</svg>