<?xml version="1.0" encoding="UTF-8"?>
<svg id="_レイヤー_2" data-name="レイヤー 2" xmlns="http://www.w3.org/2000/svg" viewBox="0 0 107.6 111.84">
  <defs>
    <style>
      .cls-1 {
        fill: #040000;
      }

      .cls-1, .cls-2 {
        stroke-width: 0px;
      }

      .cls-2 {
        fill: #fff;
      }
    </style>
  </defs>
  <g id="_レイヤー_1-2" data-name="レイヤー 1">
    <g>
      <path class="cls-2" d="m53.44,102.64c1.05.15,2.43.27,4.08.35.83.09,1.7-.02,2.63-.08.94-.07,1.93-.15,2.96-.24,4.09-.67,8.86-1.93,13.41-4.17,4.52-2.27,8.77-5.36,12.23-8.64.83-.86,1.64-1.7,2.43-2.51.8-.8,1.41-1.71,2.09-2.5,1.38-1.58,2.37-3.21,3.31-4.56.74-1.04,1.24-2.12,1.77-3.11.5-1,1.07-1.9,1.43-2.81.38-.91.74-1.76,1.07-2.54.33-.79.68-1.51.88-2.21.19-.58.24-.68.15-.37-.09.31-.25,1.05-.71,2.06-.44,1.01-.95,2.37-1.68,3.92-.41.75-.85,1.56-1.32,2.42-.23.43-.48.87-.72,1.32-.25.45-.58.87-.88,1.32-.52.81-1.07,1.65-1.64,2.53-.58.87-1.31,1.69-2,2.6-.35.45-.71.9-1.08,1.37-.38.45-.82.87-1.24,1.32-.43.44-.86.9-1.3,1.36-.44.46-.87.95-1.4,1.37.7-.46,1.27-1.06,1.9-1.59.62-.55,1.23-1.09,1.84-1.63,1.18-1.11,2.21-2.32,3.28-3.43,1.96-2.34,3.71-4.6,4.93-6.64.38-.78.8-1.55,1.14-2.35.31-.82.63-1.64.94-2.46.29-.83.68-1.64.9-2.49.24-.86.47-1.72.71-2.58,1.99-7.62,2.24-15.61.66-23.24-1.57-7.63-4.83-14.88-9.51-21.27-.77-1.22-2.07-2.56-3.42-4.13-.65-.81-1.48-1.52-2.29-2.29-.83-.75-1.62-1.58-2.51-2.29-1.82-1.38-3.55-2.87-5.33-3.91-.86-.56-1.68-1.1-2.43-1.59-.78-.43-1.49-.82-2.11-1.16,5.26,2.62,10.08,6.09,14.22,10.25,4.09,4.21,7.47,9.07,9.99,14.35.62,1.32,1.29,2.63,1.73,4.03l.74,2.06c.25.69.51,1.37.66,2.09l1.05,4.25.63,4.33c.59,5.8.29,11.68-.94,17.37.22-.6.31-1.22.46-1.83.24-1.51.59-3.02.72-4.54l.33-4.6c-.01-1.54-.08-3.08-.12-4.62,0-.77-.1-1.54-.21-2.3l-.3-2.3c-.94-6.1-2.94-12.06-5.93-17.52-.54-.91-1.08-1.82-1.63-2.75-.53-.94-1.22-1.78-1.82-2.7.61.89,1.3,1.72,1.83,2.66l1.62,2.79c2.69,4.82,4.89,9.79,6.21,15.7.27,1.85.53,3.83.68,5.81.01,1,.03,1.99.04,2.97,0,.98.1,1.94,0,2.86-.1,1.51-.27,2.96-.46,4.37-.27,1.41-.65,2.77-.96,4.16l-.24,1.35-.37,1.32-.74,2.64c-.1.53-.21,1.09-.42,1.64.01-.02.03-.05.04-.06.41-.46.83-1.61,1.47-3.24.28-.82.71-1.75.95-2.82.25-1.08.53-2.26.83-3.53.99-5.1,1.37-11.84.17-18.58-1.13-6.74-3.77-13.35-6.87-18.25-.18-.31-.35-.63-.54-.93-.2-.29-.4-.57-.6-.85-.4-.56-.78-1.1-1.15-1.62-.74-1.04-1.42-2.01-2.15-2.78-1.42-1.58-2.47-2.87-3.28-3.5-1.23-1.05-2.46-2.06-3.73-2.98-1.34-.84-2.69-1.64-4.04-2.44-1.39-.75-2.86-1.39-4.32-2.14-.72-.39-1.5-.68-2.28-1.01-.78-.33-1.57-.67-2.36-1.03-1.05-.53-2.06-.9-3-1.3-.94-.39-1.83-.72-2.71-.9-.21.08-1.13,0-2.03-.09-1.13-.27-2.24-.58-3.34-.9-1.11-.25-2.23-.45-3.3-.67-2.15-.5-4.23-.55-6.02-.38-1.25-.03-3.6-.55-5.82-1.06-.56-.13-1.1-.25-1.6-.36-.5-.07-.97-.12-1.38-.16-.81-.07-1.38-.07-1.5.09-.85,1.12-.95,1.27-1.61,1.24-.66-.08-1.85-.17-4.83.51-.36.09-1.08.41-1.84.89-.76.47-1.6.97-2.3,1.18-2.43.55-3.83,1.38-5.3,2.22-1.49.79-2.88,1.94-5.22,3.5-3.27,2.59-5.32,4.04-7.12,5.66-.92.79-1.84,1.54-2.66,2.61-.43.52-.86,1.08-1.32,1.71-.45.63-.95,1.3-1.35,2.15-.11.2-.58.95-1.22,1.96-.32.5-.68,1.07-1.06,1.68-.32.63-.66,1.3-1,1.96-.65,1.33-1.38,2.57-1.73,3.6-.4,1-.66,1.65-.66,1.65-1.07,1.93-1.66,3.84-2.26,5.6-.15.44-.29.87-.43,1.29-.12.43-.2.86-.31,1.29-.2.85-.39,1.67-.57,2.47-.46,1.59-.59,3.19-.97,4.76-.15.79-.42,1.58-.55,2.39-.15.81-.33,1.64-.54,2.5.31,4.01.71,8.57,1.35,13.24.24,1.15.49,2.31.73,3.46.13.58.24,1.16.38,1.72.18.56.36,1.11.53,1.67.36,1.1.72,2.2,1.1,3.25.47,1.02.95,2.01,1.44,2.96.91,1.94,1.96,3.43,2.72,4.9.74,1.49,1.62,2.68,2.34,3.96.38.63.72,1.27,1.11,1.9.42.61.84,1.22,1.28,1.86.45.64.91,1.31,1.4,2.01.5.7,1.12,1.34,1.75,2.08.77.79,1.47,1.44,2.09,2.03.65.54,1.22,1.01,1.65,1.5.44.49,1.4,1.06,2.45,1.67,1.1.55,2.32,1.08,3.22,1.72l-.74.18c.62.41,1.81,1.3,2.47,1.64.65.36.4.44.15.52-.5.15-1.01.3.06,1.12,1.37.8,2.73,1.71,4.22,2.4,1.49.67,3.02,1.35,4.58,1.98,1.65.3,3.28.57,4.89.82,1.61.23,3.25.23,4.84.33.21-.22.46-.43.92-.56.94.05,1.88-.12,2.81-.18.59-.5.43-1.09.82-1.43.13-1.51,3.75-2.8,2.87-4.22-.17-.21-1.45-.41-2.94-.66-.74-.13-1.54-.24-2.28-.43-.73-.23-1.39-.48-1.89-.73-.45-.29.74-.61,1.27-1.07-2.66-.41-2.7-1-1.55-1.32-.6-.14-1.2-.27-1.2-.27.18-.15.73-.61.73-.61-.39-.1-.79-.21-1.19-.31-.4-.12-.78-.29-1.17-.44-.78-.3-1.56-.61-2.35-.92-.8-.26-1.54-.7-2.3-1.07l-2.27-1.11c-.74-.4-1.44-.86-2.17-1.26-.71-.43-1.47-.75-2.15-1.2-.68-.44-1.37-.86-2.07-1.25-.7-.38-1.41-.73-2.05-1.16-1.1-.74-3.18-1.68-4.42-2.56-.63-.42-1.68-1.71-2.04-2.2-1.05-.44-1.38.07-2.07.09-.7-.99-1.68-2.18-2.49-3.61-.43-.69-.89-1.39-1.34-2.08-.44-.7-.79-1.44-1.19-2.1-.39-.67-.78-1.3-1.15-1.85-.34-.57-.62-1.1-.92-1.5-.58-.81-1.11-1.22-1.52-.95-.2-.44-.4-.84-.59-1.19-.16-.37-.3-.7-.46-1.01-.3-.62-.6-1.14-.92-1.66-.3-.53-.66-1.05-.95-1.71-.27-.66-.54-1.44-.82-2.44-1.49-5.25-2.17-12.34-1.12-19.17.39-3.76,1.55-7.24,2.85-10.66.49-1.28,1.13-2.45,1.65-3.6,3.07-6.14,7.3-11.16,12.07-15.05,4.79-3.89,10.12-6.68,15.7-8.45,5.59-1.78,11.45-2.55,17.48-2.36,6.03.2,12.23,1.41,18.45,3.94,6.27,2.55,12.09,6.62,16.74,11.79.63.61,1.14,1.31,1.67,1.99l1.6,2.06c1,1.42,1.86,2.93,2.8,4.38.76,1.55,1.56,3.09,2.26,4.66l.89,2.42c.27.81.66,1.59.83,2.43,1.94,6.56,2.36,13.42,1.5,19.84-.86,6.42-3.02,12.39-5.99,17.46-2.99,5.07-6.75,9.22-10.65,12.44-.49.4-.97.8-1.44,1.2-.47.4-1.01.71-1.5,1.06-1.01.66-1.96,1.37-2.95,1.95-2.03,1.09-3.9,2.18-5.82,2.89-.95.37-1.82.83-2.74,1.08-.91.28-1.78.54-2.62.8-.42.13-.83.25-1.23.38-.41.08-.82.16-1.21.24-.79.16-1.54.31-2.26.45-.36.07-.7.14-1.04.21-.34.03-.68.07-1,.1-.65.07-1.26.13-1.82.18-1.13.13-2.1.24-2.91.21l-3.74.86Z"/>
      <g>
        <path class="cls-1" d="m31.34,18.54c.17-.29.43-.45.79-.5,1.38-.12,2.72.07,4.01.57,1.29.48,2.4,1.23,3.33,2.25.21.21.33.46.36.75.05.29,0,.56-.14.82-.26.57-.47,1.18-.61,1.82-.14.64-.23,1.29-.25,1.93-.21,2.05-.37,4.11-.47,6.19-.07,2.08-.08,4.15-.04,6.23,1.1-.07,2.17-.11,3.22-.11,1.12-.02,2.23-.01,3.33.04.29-1.02.54-2.06.75-3.11.17-1.05.29-2.11.36-3.18-.21-.24-.43-.5-.64-.79-.19-.26-.35-.52-.46-.79.14-.14.32-.27.54-.39.21-.12.44-.19.68-.21.14-.02.27-.02.39,0,.12.02.25.06.39.11.88.38,1.73.85,2.54,1.39.81.53,1.57,1.12,2.29,1.79.07.05.11.11.11.18s-.02.14-.07.21c-.36.38-.67.79-.93,1.22-.29.43-.54.88-.75,1.36-.43,1.22-.85,2.45-1.25,3.69-.38,1.26-.74,2.53-1.07,3.79-.12.45-.37.84-.75,1.15-.38.31-.8.46-1.25.46l-1.15-.18c-.17-.05-.31-.13-.43-.25-.14-.09-.24-.23-.29-.39-.07-.38-.12-.76-.14-1.15-.05-.38-.06-.75-.04-1.11-1.86-.09-3.72-.05-5.58.14-1.88.17-3.73.46-5.55.89-.86.21-1.69.51-2.5.89-.79.38-1.53.85-2.22,1.4-.29.24-.61.38-.97.43-.38.05-.74-.04-1.07-.25-.33-.26-.68-.52-1.04-.79-.36-.29-.69-.58-1-.89-.07-.07-.16-.13-.25-.18-.07-.02-.16-.04-.25-.04-.1-.02-.18-.06-.25-.11-.07-.02-.14-.07-.21-.14-.19-.24-.38-.49-.57-.75-.19-.29-.36-.57-.5-.86-.02-.02-.04-.08-.04-.18,0-.05.02-.08.07-.11.31-.29.63-.54.97-.75.36-.21.73-.4,1.11-.57l-1.07-5.62c-.02-.07-.05-.14-.07-.21-.02-.05-.05-.1-.07-.14-.45-.45-.88-.92-1.29-1.39s-.8-.97-1.18-1.47c1.34-.17,2.65-.05,3.94.36,1.26.38,2.41,1,3.43,1.86l.64,6.01c1.03-.19,2.05-.35,3.08-.47,1.05-.19,2.1-.35,3.15-.46l-1.25-16.32c-.36-.5-.69-1.01-1-1.54-.33-.52-.62-1.06-.86-1.61-.12-.33-.1-.64.07-.93Z"/>
        <path class="cls-1" d="m56.6,29.82c.24-.09.49-.14.75-.14l2.22.04c.55,0,1.05.12,1.5.36.48.24.87.57,1.18,1,.24.38.43.78.57,1.18.14.43.24.85.29,1.25l-2.93-.36c-.41-.02-.79-.12-1.15-.29-.36-.17-.68-.39-.97-.68l-2.08-2c.17-.14.37-.26.61-.36Zm6.8,7.8c-.07.55-.07,1.09,0,1.61-.17,1.19-.42,2.39-.75,3.58-.33,1.15-.76,2.27-1.29,3.36.1.38.12.78.07,1.18-.02.41-.13.78-.32,1.11-.31.14-.63.19-.97.14-.33-.07-.62-.21-.86-.43l-1.43-1.72c-.19-.31-.33-.64-.43-1-.07-.33-.06-.69.03-1.07.14-.17.32-.27.54-.32.21-.05.42-.04.61.04l5.19-7.98c-.19.48-.32.98-.39,1.5Zm-.14-17.1c.64.72,1.12,1.53,1.43,2.43.31.91.42,1.85.32,2.83l-1.29-.36c-.38-.12-.72-.32-1-.61-.29-.31-.48-.66-.57-1.04l-1.11-4.12,2.22.86Zm4.08,4.9c.72-.19,1.44-.37,2.18-.54l-.75-3.65c-.05-.19-.12-.39-.21-.61-.1-.21-.21-.4-.36-.57l.75-.54,2.76,1.29c.26.12.46.3.61.54.17.26.23.55.18.86-.02.33-.04.69-.04,1.07,0,.36.01.7.04,1.04.76-.09,1.53-.19,2.29-.29.74-.1,1.48-.17,2.22-.21l.57-4.19-.79-1.32.21-.43c.14-.14.32-.24.54-.29.21-.02.39.02.54.14l2.58,2.36c.12.17.21.35.29.54.1.21.14.42.14.61,0,.21-.05.43-.14.64-.05.21-.12.43-.21.64l-.32,1,1.36-.11c.29-.02.57-.01.86.04.29.02.56.07.82.14l1.43.57.32.75c-.26.36-.57.62-.93.79-.38.17-.79.25-1.22.25-.55,0-1.09.02-1.61.07-.57.05-1.12.11-1.65.18l-.43,1.57.93-.11c.43.12.82.32,1.18.61.31.29.56.64.75,1.07l.11.54c-.98.05-1.97.12-2.97.21-.95.1-1.92.23-2.9.39l-.07,1.47c.74-.09,1.47-.15,2.18-.18.74-.02,1.47-.04,2.18-.04.1-.17.25-.29.46-.36.21-.05.42-.02.61.07l4.26,2.65c-.24.38-.44.8-.61,1.25-.14.45-.23.91-.25,1.36-.02,1.19-.08,2.37-.18,3.54-.1,1.19-.21,2.37-.36,3.54-.12.62-.31,1.22-.57,1.79-.26.57-.6,1.09-1,1.54l-1.43,1.54c-.26-.21-.47-.48-.61-.79-.19-.31-.31-.64-.36-1l-3.47-3.11c.6.17,1.22.26,1.86.29.6.02,1.19-.04,1.79-.18.26-.41.47-.83.61-1.29.17-.43.27-.89.32-1.4.1-1.19.13-2.38.11-3.58-.05-1.19-.14-2.38-.29-3.58-.88-.02-1.79-.01-2.72.04-.88.05-1.77.13-2.65.25l-.14,5.51,1.25-.07v-4.69c0-.07-.01-.13-.04-.18-.02-.07-.06-.13-.11-.18l.36-.32c.6.1,1.18.27,1.75.54.55.29,1.05.66,1.5,1.11-.12.17-.23.36-.32.57-.1.19-.14.41-.14.64l-.39,3.79c0,.26-.03.51-.11.75-.12.21-.25.43-.39.64l-2.18-.61c-.74,0-1.48.07-2.22.21-.74.1-1.47.27-2.18.54l-.36.64-1.43-.64c-.17-.12-.29-.27-.36-.47-.07-.19-.07-.38,0-.57.07-.17.13-.33.18-.5.05-.14.07-.31.07-.5l-.36-4.29-.39-.39.82-.43c.14-.07.31-.11.5-.11s.36.05.5.14l.68.57.29,4.33,1-.14-.11-5.55c-.74.07-1.46.19-2.15.36-.72.14-1.42.33-2.11.57l-.14,8.52c.24.31.44.64.61,1,.14.36.25.74.32,1.15-.74-.21-1.47-.49-2.18-.82-.69-.33-1.35-.74-1.97-1.22-.26-.21-.42-.48-.46-.79-.02-.33.06-.64.25-.93.14-.12.26-.27.36-.47.1-.14.18-.29.25-.43l-.32-5.65-1.86-.97c.14-.24.32-.44.54-.61.21-.17.45-.29.72-.36,1.34-.36,2.66-.67,3.97-.93,1.34-.26,2.68-.5,4.04-.72v-1.47c-.55.1-1.09.2-1.61.32-.55.12-1.07.26-1.57.43l-.29.39c-.76.05-1.5-.07-2.22-.36-.69-.26-1.29-.67-1.79-1.22.64-.29,1.31-.56,2-.82.69-.24,1.38-.44,2.08-.61l-.32-1.54-1.82.5c-.55-.21-1.1-.49-1.65-.82-.53-.31-1.01-.68-1.47-1.11.72-.26,1.44-.49,2.18-.68Zm5.33,3.15c.64-.12,1.29-.23,1.93-.32.64-.07,1.29-.13,1.93-.18l.21-1.5c-.71.05-1.41.11-2.08.18-.69.1-1.38.2-2.08.32l.07,1.5Z"/>
        <path class="cls-1" d="m48.7,85.26c-1.22.52-2.45.98-3.69,1.36-.19.07-.38.11-.57.11-.21,0-.44-.04-.68-.11-1.91-.41-3.79-.94-5.65-1.61-1.86-.67-3.67-1.44-5.44-2.33-.86-.45-1.75-.81-2.68-1.07-.93-.29-1.88-.48-2.86-.57-.76.29-1.48.62-2.15,1-.67.38-1.32.81-1.97,1.29-.45-.21-.92-.44-1.4-.68-.45-.26-.89-.54-1.32-.82-.17-.12-.3-.27-.39-.46-.1-.17-.14-.35-.14-.54l.46-.5c.38.1.76.16,1.15.18.38,0,.76-.02,1.15-.07.5-.24,1.01-.43,1.54-.57.52-.12,1.05-.25,1.57-.39.14-.52.21-1.06.21-1.61-.02-.55-.1-1.08-.21-1.61-.21-.21-.45-.38-.72-.5-.26-.14-.53-.26-.79-.36-.07-.14-.13-.27-.18-.39-.02-.14-.05-.29-.07-.43.07-.55.15-1.09.25-1.61.07-.55.17-1.08.29-1.61-.36.17-.7.36-1.04.57-.36.21-.68.45-.97.72l-.11.32-.61-.04c-.31-.41-.57-.85-.79-1.32-.24-.48-.43-.98-.57-1.5h.43c.67-.14,1.31-.35,1.93-.61.64-.24,1.25-.52,1.82-.86l.39-.43.79.07c.38.21.75.45,1.11.72.36.24.7.5,1.04.79v.82c-.48.55-.92,1.12-1.32,1.72-.41.6-.75,1.24-1.04,1.93.33.14.66.3.97.46.33.19.66.39.97.61.26.21.46.47.61.75.14.29.21.6.21.93-.05.43-.16.84-.32,1.22-.14.45-.35.84-.61,1.15.69,0,1.37.06,2.04.18.67.1,1.34.26,2,.5,1.57.53,3.2.93,4.87,1.22,1.67.31,3.35.47,5.05.47,1.86-.02,3.71.12,5.55.43,1.84.31,3.65.78,5.44,1.39-1.14.64-2.33,1.22-3.54,1.72Zm-25.76-26.44c.31.14.61.31.89.5.76.43,1.47.95,2.11,1.57.64.62,1.2,1.29,1.68,2-.19.33-.41.62-.64.86-.26.21-.55.39-.86.54l-1.11.18c-.14.17-.26.33-.36.5-.12.19-.21.37-.29.54-.07.17-.16.33-.25.5-.1.14-.23.27-.39.39l-.43.04c.33-.5.58-1.03.75-1.57.14-.55.23-1.12.25-1.72-.17-.43-.38-.86-.64-1.29-.24-.4-.51-.79-.82-1.14-.21-.31-.43-.63-.64-.97-.21-.31-.39-.64-.54-1l.36-.21c.33.07.64.17.93.29Zm4.79,9.09c.24-.14.49-.26.75-.36,1.48-.4,2.99-.76,4.54-1.07,1.53-.29,3.06-.51,4.62-.68l-.11-2c-.81.14-1.62.25-2.43.32-.83.07-1.67.12-2.5.14l-.75.57c-.43,0-.87-.02-1.32-.07-.43-.07-.86-.18-1.29-.32.6-.91,1.16-1.85,1.68-2.83.52-.98,1-1.98,1.43-3.01l-.39-.86c.19-.07.38-.12.57-.14.19,0,.37.04.54.11l2.72,1.14c.19.12.31.29.36.5.07.21.07.43,0,.64-.1.26-.23.5-.39.72-.14.21-.31.43-.5.64l2.22-.36-.18-4.58c-.02-.5-.13-.98-.32-1.43-.17-.48-.41-.91-.72-1.29l.64-.43c.74.17,1.45.39,2.15.68.69.29,1.35.66,1.97,1.11.14.1.27.23.39.39.1.17.2.33.32.5-.24.72-.44,1.44-.61,2.18-.17.74-.29,1.48-.36,2.22l1.9-.36c.24-.05.47-.04.68.04.21.05.4.13.57.25.48.29.94.58,1.4.89.48.31.93.64,1.36,1l-6.05,1.04-.14,2.25,2.33-.18.68-.29c.79.12,1.54.31,2.25.57.74.29,1.45.66,2.15,1.11.14.12.25.26.32.43.07.17.09.36.07.57-.02.24-.06.48-.11.72-.05.24-.1.48-.14.72-.81-.36-1.65-.61-2.5-.75-.88-.17-1.75-.24-2.61-.21-1.86.05-3.7.23-5.51.54-1.84.31-3.63.76-5.37,1.36-.84-.14-1.67-.36-2.5-.64-.81-.29-1.61-.61-2.4-.97.17-.21.37-.39.61-.54Zm4.11,3.22c1.41-.38,2.81-.69,4.22-.93,1.43-.21,2.87-.37,4.33-.47l.75-.47c.88.26,1.72.61,2.5,1.04.81.43,1.54.94,2.18,1.54l-.21.5c-.6.64-1.07,1.38-1.43,2.22-.33.83-.55,1.68-.64,2.54,0,.19-.04.33-.11.43-.05.17-.16.3-.32.39l-1.22.79c-.14-.07-.29-.16-.43-.25-.14-.12-.26-.24-.36-.36-.81-.02-1.63-.01-2.47.04-.81.02-1.63.12-2.47.29v.86l-1.79-.64c-.26-.26-.48-.55-.64-.86-.17-.33-.27-.7-.32-1.11l-.43-3.69c-.24-.29-.5-.55-.79-.79-.31-.24-.63-.43-.97-.57l.61-.5Zm4.36,4.72c.74-.12,1.48-.23,2.22-.32.74-.02,1.48-.02,2.22,0l.18-3.18c-.79-.05-1.57-.04-2.36.04-.76.1-1.53.26-2.29.5l.04,2.97Z"/>
        <path class="cls-1" d="m73.24,81.81c-2.43.05-4.84.37-7.23.97-.5.14-.98.32-1.43.54-.48.21-.92.47-1.32.75-.26.19-.55.29-.86.29s-.59-.09-.82-.29l-1.57-1.47c-.12-.14-.26-.25-.43-.32-.17-.05-.33-.07-.5-.07l.11-.82-.39-.57c.14-.26.24-.52.29-.79.05-.29.07-.56.07-.82l-.18-14.67c0-.76-.18-1.47-.54-2.11-.33-.67-.8-1.23-1.4-1.68,3.43-1.24,6.98-2.12,10.63-2.65,3.63-.55,7.25-.74,10.88-.57.29,0,.57-.02.86-.07.33-.05.62-.11.86-.18.83.31,1.65.73,2.43,1.25.76.5,1.44,1.1,2.04,1.79.17.17.27.36.32.57.02.21-.01.43-.11.64-.24.74-.42,1.5-.54,2.29-.14.76-.21,1.55-.21,2.36l.25,17.57c0,.24-.04.49-.11.75-.07.26-.18.5-.32.72-.12.21-.24.44-.36.68-.12.24-.23.49-.32.75-.07.17-.19.29-.36.36-.17.07-.35.08-.54.04-.33-.05-.63-.17-.89-.36-.26-.17-.5-.38-.71-.64-.17-.21-.3-.44-.39-.68-.07-.26-.11-.52-.11-.79-.02-.36-.02-.73,0-1.11.02-.38.07-.74.14-1.07-2.36-.48-4.77-.67-7.23-.57Zm-10.66-1.4c1.07-.31,2.17-.57,3.29-.79,1.12-.19,2.25-.32,3.4-.39l-.29-3.79c-.81.69-1.7,1.24-2.68,1.65s-2,.69-3.08.86c1-.69,1.94-1.43,2.83-2.22.91-.79,1.74-1.65,2.5-2.58-.07.14-.17.25-.29.32-.12.07-.26.11-.43.11-.14.02-.29,0-.43-.07-.14-.07-.26-.17-.36-.29-.33-.55-.61-1.12-.82-1.72-.21-.6-.36-1.22-.43-1.86-.21,0-.41-.05-.57-.14s-.32-.21-.46-.36c1.38-.41,2.79-.72,4.22-.93,1.41-.24,2.84-.37,4.29-.39.21-.17.46-.27.75-.32.26-.02.51.02.75.14l2.18,1.15c.12.07.19.17.21.29.02.1.01.2-.04.32-.21.41-.44.8-.68,1.18-.21.38-.44.76-.68,1.15-.07.12-.16.21-.25.29-.12.07-.25.1-.39.07-.64.02-1.28.05-1.9.07-.64.02-1.29.07-1.93.14l-.04.72c.36.17.72.32,1.07.47.33.12.68.25,1.04.39.45-.29.89-.58,1.32-.89.45-.29.92-.55,1.4-.79.17-.07.33-.13.5-.18.24-.02.44-.01.61.04l1.61.75c-.6.57-1.29.99-2.08,1.25-.79.29-1.59.39-2.4.32.57.26,1.13.54,1.68.82.55.31,1.07.64,1.57,1,.31.21.56.49.75.82.17.33.29.69.36,1.07,0,.07-.04.14-.11.21-.07.05-.12.07-.14.07-.31.02-.62.02-.93,0-.31-.02-.6-.07-.86-.14-.96-.62-1.9-1.26-2.83-1.93-.93-.67-1.86-1.34-2.79-2l.07,4.76c1.62-.14,3.23-.19,4.83-.14,1.62.1,3.21.27,4.76.54l-.79-19.36c-1.24,0-2.48.01-3.72.04-1.22.05-2.43.1-3.65.14l.07,2.08c.24-.02.48-.05.72-.07.24-.05.48-.08.72-.11.24-.02.49-.01.75.04.29.02.54.08.75.18.41.17.75.39,1.04.68.33.26.57.6.72,1-.76-.05-1.54-.05-2.33,0-.76.07-1.55.18-2.36.32v.86l2.9-.14c.29-.02.57-.02.86,0,.31.02.6.07.86.14.53.12.95.37,1.29.75.41.36.67.79.79,1.29-2.08-.26-4.15-.35-6.22-.25-2.1.12-4.19.38-6.26.79-.21.07-.45.11-.72.11-.24,0-.49-.04-.75-.11-.38-.09-.78-.23-1.18-.39-.38-.19-.74-.42-1.07-.68,1.02-.36,2.08-.62,3.15-.79,1.1-.19,2.21-.31,3.33-.36l-.07-.89c-.29.05-.56.08-.82.11-.29,0-.55-.02-.79-.07-.57-.05-1.12-.18-1.65-.39-.55-.21-1.06-.49-1.54-.82.79-.17,1.57-.32,2.36-.46.76-.17,1.55-.32,2.36-.47l-.18-2.08c-1.1.1-2.18.24-3.26.43-1.07.17-2.15.41-3.22.72l-.21,18.75Zm6.44-9.45c.67-.19,1.36-.31,2.08-.36.69-.05,1.38-.05,2.08,0l.14-1.18c-.72,0-1.43.05-2.15.14-.72.07-1.42.19-2.11.36l-.04,1.04Z"/>
      </g>
      <g>
        <path class="cls-2" d="m53.44,102.64c1.05.15,2.43.27,4.08.35.83.09,1.7-.02,2.63-.08.94-.07,1.93-.15,2.96-.24,4.09-.67,8.86-1.93,13.41-4.17,4.52-2.27,8.77-5.36,12.23-8.64.83-.86,1.64-1.7,2.43-2.51.8-.8,1.41-1.71,2.09-2.5,1.38-1.58,2.37-3.21,3.31-4.56.74-1.04,1.24-2.12,1.77-3.11.5-1,1.07-1.9,1.43-2.81.38-.91.74-1.76,1.07-2.54.33-.79.68-1.51.88-2.21.19-.58.24-.68.15-.37-.09.31-.25,1.05-.71,2.06-.44,1.01-.95,2.37-1.68,3.92-.41.75-.85,1.56-1.32,2.42-.23.43-.48.87-.72,1.32-.25.45-.58.87-.88,1.32-.52.81-1.07,1.65-1.64,2.53-.58.87-1.31,1.69-2,2.6-.35.45-.71.9-1.08,1.37-.38.45-.82.87-1.24,1.32-.43.44-.86.9-1.3,1.36-.44.46-.87.95-1.4,1.37.7-.46,1.27-1.06,1.9-1.59.62-.55,1.23-1.09,1.84-1.63,1.18-1.11,2.21-2.32,3.28-3.43,1.96-2.34,3.71-4.6,4.93-6.64.38-.78.8-1.55,1.14-2.35.31-.82.63-1.64.94-2.46.29-.83.68-1.64.9-2.49.24-.86.47-1.72.71-2.58,1.99-7.62,2.24-15.61.66-23.24-1.57-7.63-4.83-14.88-9.51-21.27-.77-1.22-2.07-2.56-3.42-4.13-.65-.81-1.48-1.52-2.29-2.29-.83-.75-1.62-1.58-2.51-2.29-1.82-1.38-3.55-2.87-5.33-3.91-.86-.56-1.68-1.1-2.43-1.59-.78-.43-1.49-.82-2.11-1.16,5.26,2.62,10.08,6.09,14.22,10.25,4.09,4.21,7.47,9.07,9.99,14.35.62,1.32,1.29,2.63,1.73,4.03l.74,2.06c.25.69.51,1.37.66,2.09l1.05,4.25.63,4.33c.59,5.8.29,11.68-.94,17.37.22-.6.31-1.22.46-1.83.24-1.51.59-3.02.72-4.54l.33-4.6c-.01-1.54-.08-3.08-.12-4.62,0-.77-.1-1.54-.21-2.3l-.3-2.3c-.94-6.1-2.94-12.06-5.93-17.52-.54-.91-1.08-1.82-1.63-2.75-.53-.94-1.22-1.78-1.82-2.7.61.89,1.3,1.72,1.83,2.66l1.62,2.79c2.69,4.82,4.89,9.79,6.21,15.7.27,1.85.53,3.83.68,5.81.01,1,.03,1.99.04,2.97,0,.98.1,1.94,0,2.86-.1,1.51-.27,2.96-.46,4.37-.27,1.41-.65,2.77-.96,4.16l-.24,1.35-.37,1.32-.74,2.64c-.1.53-.21,1.09-.42,1.64.01-.02.03-.05.04-.06.41-.46.83-1.61,1.47-3.24.28-.82.71-1.75.95-2.82.25-1.08.53-2.26.83-3.53.99-5.1,1.37-11.84.17-18.58-1.13-6.74-3.77-13.35-6.87-18.25-.18-.31-.35-.63-.54-.93-.2-.29-.4-.57-.6-.85-.4-.56-.78-1.1-1.15-1.62-.74-1.04-1.42-2.01-2.15-2.78-1.42-1.58-2.47-2.87-3.28-3.5-1.23-1.05-2.46-2.06-3.73-2.98-1.34-.84-2.69-1.64-4.04-2.44-1.39-.75-2.86-1.39-4.32-2.14-.72-.39-1.5-.68-2.28-1.01-.78-.33-1.57-.67-2.36-1.03-1.05-.53-2.06-.9-3-1.3-.94-.39-1.83-.72-2.71-.9-.21.08-1.13,0-2.03-.09-1.13-.27-2.24-.58-3.34-.9-1.11-.25-2.23-.45-3.3-.67-2.15-.5-4.23-.55-6.02-.38-1.25-.03-3.6-.55-5.82-1.06-.56-.13-1.1-.25-1.6-.36-.5-.07-.97-.12-1.38-.16-.81-.07-1.38-.07-1.5.09-.85,1.12-.95,1.27-1.61,1.24-.66-.08-1.85-.17-4.83.51-.36.09-1.08.41-1.84.89-.76.47-1.6.97-2.3,1.18-2.43.55-3.83,1.38-5.3,2.22-1.49.79-2.88,1.94-5.22,3.5-3.27,2.59-5.32,4.04-7.12,5.66-.92.79-1.84,1.54-2.66,2.61-.43.52-.86,1.08-1.32,1.71-.45.63-.95,1.3-1.35,2.15-.11.2-.58.95-1.22,1.96-.32.5-.68,1.07-1.06,1.68-.32.63-.66,1.3-1,1.96-.65,1.33-1.38,2.57-1.73,3.6-.4,1-.66,1.65-.66,1.65-1.07,1.93-1.66,3.84-2.26,5.6-.15.44-.29.87-.43,1.29-.12.43-.2.86-.31,1.29-.2.85-.39,1.67-.57,2.47-.46,1.59-.59,3.19-.97,4.76-.15.79-.42,1.58-.55,2.39-.15.81-.33,1.64-.54,2.5.31,4.01.71,8.57,1.35,13.24.24,1.15.49,2.31.73,3.46.13.58.24,1.16.38,1.72.18.56.36,1.11.53,1.67.36,1.1.72,2.2,1.1,3.25.47,1.02.95,2.01,1.44,2.96.91,1.94,1.96,3.43,2.72,4.9.74,1.49,1.62,2.68,2.34,3.96.38.63.72,1.27,1.11,1.9.42.61.84,1.22,1.28,1.86.45.64.91,1.31,1.4,2.01.5.7,1.12,1.34,1.75,2.08.77.79,1.47,1.44,2.09,2.03.65.54,1.22,1.01,1.65,1.5.44.49,1.4,1.06,2.45,1.67,1.1.55,2.32,1.08,3.22,1.72l-.74.18c.62.41,1.81,1.3,2.47,1.64.65.36.4.44.15.52-.5.15-1.01.3.06,1.12,1.37.8,2.73,1.71,4.22,2.4,1.49.67,3.02,1.35,4.58,1.98,1.65.3,3.28.57,4.89.82,1.61.23,3.25.23,4.84.33.21-.22.46-.43.92-.56.94.05,1.88-.12,2.81-.18.59-.5.43-1.09.82-1.43.13-1.51,3.75-2.8,2.87-4.22-.17-.21-1.45-.41-2.94-.66-.74-.13-1.54-.24-2.28-.43-.73-.23-1.39-.48-1.89-.73-.45-.29.74-.61,1.27-1.07-2.66-.41-2.7-1-1.55-1.32-.6-.14-1.2-.27-1.2-.27.18-.15.73-.61.73-.61-.39-.1-.79-.21-1.19-.31-.4-.12-.78-.29-1.17-.44-.78-.3-1.56-.61-2.35-.92-.8-.26-1.54-.7-2.3-1.07l-2.27-1.11c-.74-.4-1.44-.86-2.17-1.26-.71-.43-1.47-.75-2.15-1.2-.68-.44-1.37-.86-2.07-1.25-.7-.38-1.41-.73-2.05-1.16-1.1-.74-3.18-1.68-4.42-2.56-.63-.42-1.68-1.71-2.04-2.2-1.05-.44-1.38.07-2.07.09-.7-.99-1.68-2.18-2.49-3.61-.43-.69-.89-1.39-1.34-2.08-.44-.7-.79-1.44-1.19-2.1-.39-.67-.78-1.3-1.15-1.85-.34-.57-.62-1.1-.92-1.5-.58-.81-1.11-1.22-1.52-.95-.2-.44-.4-.84-.59-1.19-.16-.37-.3-.7-.46-1.01-.3-.62-.6-1.14-.92-1.66-.3-.53-.66-1.05-.95-1.71-.27-.66-.54-1.44-.82-2.44-1.49-5.25-2.17-12.34-1.12-19.17.39-3.76,1.55-7.24,2.85-10.66.49-1.28,1.13-2.45,1.65-3.6,3.07-6.14,7.3-11.16,12.07-15.05,4.79-3.89,10.12-6.68,15.7-8.45,5.59-1.78,11.45-2.55,17.48-2.36,6.03.2,12.23,1.41,18.45,3.94,6.27,2.55,12.09,6.62,16.74,11.79.63.61,1.14,1.31,1.67,1.99l1.6,2.06c1,1.42,1.86,2.93,2.8,4.38.76,1.55,1.56,3.09,2.26,4.66l.89,2.42c.27.81.66,1.59.83,2.43,1.94,6.56,2.36,13.42,1.5,19.84-.86,6.42-3.02,12.39-5.99,17.46-2.99,5.07-6.75,9.22-10.65,12.44-.49.4-.97.8-1.44,1.2-.47.4-1.01.71-1.5,1.06-1.01.66-1.96,1.37-2.95,1.95-2.03,1.09-3.9,2.18-5.82,2.89-.95.37-1.82.83-2.74,1.08-.91.28-1.78.54-2.62.8-.42.13-.83.25-1.23.38-.41.08-.82.16-1.21.24-.79.16-1.54.31-2.26.45-.36.07-.7.14-1.04.21-.34.03-.68.07-1,.1-.65.07-1.26.13-1.82.18-1.13.13-2.1.24-2.91.21l-3.74.86Z"/>
        <g>
          <path class="cls-2" d="m31.34,18.54c.17-.29.43-.45.79-.5,1.38-.12,2.72.07,4.01.57,1.29.48,2.4,1.23,3.33,2.25.21.21.33.46.36.75.05.29,0,.56-.14.82-.26.57-.47,1.18-.61,1.82-.14.64-.23,1.29-.25,1.93-.21,2.05-.37,4.11-.47,6.19-.07,2.08-.08,4.15-.03,6.23,1.1-.07,2.17-.11,3.22-.11,1.12-.02,2.23-.01,3.33.04.29-1.02.54-2.06.75-3.11.17-1.05.29-2.11.36-3.18-.21-.24-.43-.5-.64-.79-.19-.26-.35-.52-.46-.79.14-.14.32-.27.54-.39.21-.12.44-.19.68-.21.14-.02.27-.02.39,0,.12.02.25.06.39.11.88.38,1.73.85,2.54,1.39.81.53,1.57,1.12,2.29,1.79.07.05.11.11.11.18s-.02.14-.07.21c-.36.38-.67.79-.93,1.22-.29.43-.54.88-.75,1.36-.43,1.22-.85,2.45-1.25,3.69-.38,1.26-.74,2.53-1.07,3.79-.12.45-.37.84-.75,1.15s-.8.46-1.25.46l-1.15-.18c-.17-.05-.31-.13-.43-.25-.14-.09-.24-.23-.29-.39-.07-.38-.12-.76-.14-1.15-.05-.38-.06-.75-.04-1.11-1.86-.09-3.72-.05-5.58.14-1.88.17-3.73.46-5.55.89-.86.21-1.69.51-2.5.89-.79.38-1.53.85-2.22,1.4-.29.24-.61.38-.97.43-.38.05-.74-.04-1.07-.25-.33-.26-.68-.52-1.04-.79-.36-.29-.69-.58-1-.89-.07-.07-.15-.13-.25-.18-.07-.02-.16-.04-.25-.04-.1-.02-.18-.06-.25-.11-.07-.02-.14-.07-.21-.14-.19-.24-.38-.49-.57-.75-.19-.29-.36-.57-.5-.86-.02-.02-.04-.08-.04-.18,0-.05.02-.08.07-.11.31-.29.63-.54.97-.75.36-.21.73-.4,1.11-.57l-1.07-5.62c-.02-.07-.05-.14-.07-.21-.02-.05-.05-.1-.07-.14-.45-.45-.88-.92-1.29-1.39s-.8-.97-1.18-1.47c1.34-.17,2.65-.05,3.94.36,1.26.38,2.41,1,3.43,1.86l.64,6.01c1.02-.19,2.05-.35,3.08-.47,1.05-.19,2.1-.35,3.15-.46l-1.25-16.32c-.36-.5-.69-1.01-1-1.54-.33-.52-.62-1.06-.86-1.61-.12-.33-.1-.64.07-.93Z"/>
          <path class="cls-2" d="m56.6,29.82c.24-.09.49-.14.75-.14l2.22.04c.55,0,1.05.12,1.5.36.48.24.87.57,1.18,1,.24.38.43.78.57,1.18.14.43.24.85.29,1.25l-2.93-.36c-.41-.02-.79-.12-1.15-.29-.36-.17-.68-.39-.97-.68l-2.08-2c.17-.14.37-.26.61-.36Zm6.8,7.8c-.07.55-.07,1.09,0,1.61-.17,1.19-.42,2.39-.75,3.58-.33,1.15-.76,2.27-1.29,3.36.1.38.12.78.07,1.18-.02.41-.13.78-.32,1.11-.31.14-.63.19-.97.14-.33-.07-.62-.21-.86-.43l-1.43-1.72c-.19-.31-.33-.64-.43-1-.07-.33-.06-.69.03-1.07.14-.17.32-.27.54-.32.21-.05.42-.04.61.04l5.19-7.98c-.19.48-.32.98-.39,1.5Zm-.14-17.1c.64.72,1.12,1.53,1.43,2.43.31.91.42,1.85.32,2.83l-1.29-.36c-.38-.12-.72-.32-1-.61-.29-.31-.48-.66-.57-1.04l-1.11-4.12,2.22.86Zm4.08,4.9c.72-.19,1.44-.37,2.18-.54l-.75-3.65c-.05-.19-.12-.39-.21-.61-.1-.21-.21-.4-.36-.57l.75-.54,2.76,1.29c.26.12.46.3.61.54.17.26.23.55.18.86-.02.33-.04.69-.04,1.07,0,.36.01.7.04,1.04.76-.09,1.53-.19,2.29-.29.74-.1,1.48-.17,2.22-.21l.57-4.19-.79-1.32.21-.43c.14-.14.32-.24.54-.29.21-.02.39.02.54.14l2.58,2.36c.12.17.21.35.29.54.1.21.14.42.14.61,0,.21-.05.43-.14.64-.05.21-.12.43-.21.64l-.32,1,1.36-.11c.29-.02.57-.01.86.04.29.02.56.07.82.14l1.43.57.32.75c-.26.36-.57.62-.93.79-.38.17-.79.25-1.22.25-.55,0-1.09.02-1.61.07-.57.05-1.12.11-1.65.18l-.43,1.57.93-.11c.43.12.82.32,1.18.61.31.29.56.64.75,1.07l.11.54c-.98.05-1.97.12-2.97.21-.95.1-1.92.23-2.9.39l-.07,1.47c.74-.09,1.47-.15,2.18-.18.74-.02,1.47-.04,2.18-.04.1-.17.25-.29.46-.36.21-.05.42-.02.61.07l4.26,2.65c-.24.38-.44.8-.61,1.25-.14.45-.23.91-.25,1.36-.02,1.19-.08,2.37-.18,3.54-.1,1.19-.21,2.37-.36,3.54-.12.62-.31,1.22-.57,1.79-.26.57-.6,1.09-1,1.54l-1.43,1.54c-.26-.21-.47-.48-.61-.79-.19-.31-.31-.64-.36-1l-3.47-3.11c.6.17,1.22.26,1.86.29.6.02,1.19-.04,1.79-.18.26-.41.47-.83.61-1.29.17-.43.27-.89.32-1.4.1-1.19.13-2.38.11-3.58-.05-1.19-.14-2.38-.29-3.58-.88-.02-1.79-.01-2.72.04-.88.05-1.77.13-2.65.25l-.14,5.51,1.25-.07v-4.69c0-.07-.01-.13-.04-.18-.02-.07-.06-.13-.11-.18l.36-.32c.6.1,1.18.27,1.75.54.55.29,1.05.66,1.5,1.11-.12.17-.23.36-.32.57-.1.19-.14.41-.14.64l-.39,3.79c0,.26-.03.51-.11.75-.12.21-.25.43-.39.64l-2.18-.61c-.74,0-1.48.07-2.22.21-.74.1-1.47.27-2.18.54l-.36.64-1.43-.64c-.17-.12-.29-.27-.36-.47-.07-.19-.07-.38,0-.57.07-.17.13-.33.18-.5.05-.14.07-.31.07-.5l-.36-4.29-.39-.39.82-.43c.14-.07.31-.11.5-.11s.36.05.5.14l.68.57.29,4.33,1-.14-.11-5.55c-.74.07-1.46.19-2.15.36-.72.14-1.42.33-2.11.57l-.14,8.52c.24.31.44.64.61,1,.14.36.25.74.32,1.15-.74-.21-1.47-.49-2.18-.82-.69-.33-1.35-.74-1.97-1.22-.26-.21-.42-.48-.46-.79-.02-.33.06-.64.25-.93.14-.12.26-.27.36-.47.1-.14.18-.29.25-.43l-.32-5.65-1.86-.97c.14-.24.32-.44.54-.61.21-.17.45-.29.72-.36,1.34-.36,2.66-.67,3.97-.93,1.34-.26,2.68-.5,4.04-.72v-1.47c-.55.1-1.09.2-1.61.32-.55.12-1.07.26-1.57.43l-.29.39c-.76.05-1.5-.07-2.22-.36-.69-.26-1.29-.67-1.79-1.22.64-.29,1.31-.56,2-.82.69-.24,1.38-.44,2.08-.61l-.32-1.54-1.82.5c-.55-.21-1.1-.49-1.65-.82-.53-.31-1.01-.68-1.47-1.11.72-.26,1.44-.49,2.18-.68Zm5.33,3.15c.64-.12,1.29-.23,1.93-.32.64-.07,1.29-.13,1.93-.18l.21-1.5c-.71.05-1.41.11-2.08.18-.69.1-1.38.2-2.08.32l.07,1.5Z"/>
          <path class="cls-2" d="m48.7,85.26c-1.22.52-2.44.98-3.68,1.36-.19.07-.38.11-.57.11-.21,0-.44-.04-.68-.11-1.91-.41-3.79-.94-5.65-1.61-1.86-.67-3.67-1.44-5.44-2.33-.86-.45-1.75-.81-2.68-1.07-.93-.29-1.88-.48-2.86-.57-.76.29-1.48.62-2.15,1-.67.38-1.32.81-1.97,1.29-.45-.21-.92-.44-1.4-.68-.45-.26-.89-.54-1.32-.82-.17-.12-.3-.27-.39-.46-.1-.17-.14-.35-.14-.54l.46-.5c.38.1.76.16,1.14.18.38,0,.76-.02,1.15-.07.5-.24,1.01-.43,1.54-.57.52-.12,1.05-.25,1.57-.39.14-.52.21-1.06.21-1.61-.02-.55-.1-1.08-.21-1.61-.21-.21-.45-.38-.71-.5-.26-.14-.53-.26-.79-.36-.07-.14-.13-.27-.18-.39-.02-.14-.05-.29-.07-.43.07-.55.15-1.09.25-1.61.07-.55.17-1.08.29-1.61-.36.17-.7.36-1.04.57-.36.21-.68.45-.97.72l-.11.32-.61-.04c-.31-.41-.57-.85-.79-1.32-.24-.48-.43-.98-.57-1.5h.43c.67-.14,1.31-.35,1.93-.61.64-.24,1.25-.52,1.82-.86l.39-.43.79.07c.38.21.75.45,1.11.72.36.24.7.5,1.04.79v.82c-.48.55-.92,1.12-1.32,1.72-.41.6-.75,1.24-1.04,1.93.33.14.66.3.97.46.33.19.66.39.97.61.26.21.46.47.61.75.14.29.21.6.21.93-.05.43-.15.84-.32,1.22-.14.45-.35.84-.61,1.15.69,0,1.37.06,2.04.18.67.1,1.34.26,2,.5,1.57.53,3.2.93,4.87,1.22,1.67.31,3.35.47,5.05.47,1.86-.02,3.71.12,5.55.43,1.84.31,3.65.78,5.44,1.39-1.14.64-2.33,1.22-3.54,1.72Zm-25.76-26.44c.31.14.61.31.89.5.76.43,1.47.95,2.11,1.57.64.62,1.2,1.29,1.68,2-.19.33-.41.62-.64.86-.26.21-.55.39-.86.54l-1.11.18c-.14.17-.26.33-.36.5-.12.19-.21.37-.29.54-.07.17-.16.33-.25.5-.1.14-.23.27-.39.39l-.43.04c.33-.5.58-1.03.75-1.57.14-.55.23-1.12.25-1.72-.17-.43-.38-.86-.64-1.29-.24-.4-.51-.79-.82-1.14-.21-.31-.43-.63-.64-.97-.21-.31-.39-.64-.54-1l.36-.21c.33.07.64.17.93.29Zm4.79,9.09c.24-.14.49-.26.75-.36,1.48-.4,2.99-.76,4.54-1.07,1.53-.29,3.07-.51,4.62-.68l-.11-2c-.81.14-1.62.25-2.43.32-.83.07-1.67.12-2.5.14l-.75.57c-.43,0-.87-.02-1.32-.07-.43-.07-.86-.18-1.29-.32.6-.91,1.16-1.85,1.68-2.83.52-.98,1-1.98,1.43-3.01l-.39-.86c.19-.07.38-.12.57-.14.19,0,.37.04.54.11l2.72,1.14c.19.12.31.29.36.5.07.21.07.43,0,.64-.1.26-.23.5-.39.72-.14.21-.31.43-.5.64l2.22-.36-.18-4.58c-.02-.5-.13-.98-.32-1.43-.17-.48-.41-.91-.72-1.29l.64-.43c.74.17,1.45.39,2.15.68.69.29,1.35.66,1.97,1.11.14.1.27.23.39.39.1.17.2.33.32.5-.24.72-.44,1.44-.61,2.18-.17.74-.29,1.48-.36,2.22l1.9-.36c.24-.05.47-.04.68.04.21.05.4.13.57.25.48.29.94.58,1.4.89.48.31.93.64,1.36,1l-6.05,1.04-.14,2.25,2.33-.18.68-.29c.79.12,1.54.31,2.25.57.74.29,1.45.66,2.15,1.11.14.12.25.26.32.43.07.17.1.36.07.57-.02.24-.06.48-.11.72-.05.24-.1.48-.14.72-.81-.36-1.65-.61-2.5-.75-.88-.17-1.75-.24-2.61-.21-1.86.05-3.7.23-5.51.54-1.84.31-3.63.76-5.37,1.36-.84-.14-1.67-.36-2.5-.64-.81-.29-1.61-.61-2.4-.97.17-.21.37-.39.61-.54Zm4.11,3.22c1.41-.38,2.81-.69,4.22-.93,1.43-.21,2.87-.37,4.33-.47l.75-.47c.88.26,1.72.61,2.51,1.04.81.43,1.54.94,2.18,1.54l-.21.5c-.6.64-1.07,1.38-1.43,2.22-.33.83-.55,1.68-.64,2.54,0,.19-.04.33-.11.43-.05.17-.16.3-.32.39l-1.22.79c-.14-.07-.29-.16-.43-.25-.14-.12-.26-.24-.36-.36-.81-.02-1.63-.01-2.47.04-.81.02-1.63.12-2.47.29v.86l-1.79-.64c-.26-.26-.48-.55-.64-.86-.17-.33-.27-.7-.32-1.11l-.43-3.69c-.24-.29-.5-.55-.79-.79-.31-.24-.63-.43-.97-.57l.61-.5Zm4.37,4.72c.74-.12,1.48-.23,2.22-.32.74-.02,1.48-.02,2.22,0l.18-3.18c-.79-.05-1.57-.04-2.36.04-.76.1-1.53.26-2.29.5l.04,2.97Z"/>
          <path class="cls-2" d="m73.24,81.81c-2.43.05-4.84.37-7.23.97-.5.14-.98.32-1.43.54-.48.21-.92.47-1.32.75-.26.19-.55.29-.86.29s-.59-.09-.82-.29l-1.57-1.47c-.12-.14-.26-.25-.43-.32-.17-.05-.33-.07-.5-.07l.11-.82-.39-.57c.14-.26.24-.52.29-.79.05-.29.07-.56.07-.82l-.18-14.67c0-.76-.18-1.47-.54-2.11-.33-.67-.8-1.23-1.4-1.68,3.43-1.24,6.98-2.12,10.63-2.65,3.63-.55,7.25-.74,10.88-.57.29,0,.57-.02.86-.07.33-.05.62-.11.86-.18.83.31,1.65.73,2.43,1.25.76.5,1.44,1.1,2.04,1.79.17.17.27.36.32.57.02.21-.01.43-.11.64-.24.74-.42,1.5-.54,2.29-.14.76-.21,1.55-.21,2.36l.25,17.57c0,.24-.04.49-.11.75-.07.26-.18.5-.32.72-.12.21-.24.44-.36.68-.12.24-.23.49-.32.75-.07.17-.19.29-.36.36-.17.07-.35.08-.54.04-.33-.05-.63-.17-.89-.36-.26-.17-.5-.38-.71-.64-.17-.21-.3-.44-.39-.68-.07-.26-.11-.52-.11-.79-.02-.36-.02-.73,0-1.11.02-.38.07-.74.14-1.07-2.36-.48-4.77-.67-7.23-.57Zm-10.66-1.4c1.07-.31,2.17-.57,3.29-.79,1.12-.19,2.25-.32,3.4-.39l-.29-3.79c-.81.69-1.7,1.24-2.68,1.65s-2,.69-3.08.86c1-.69,1.94-1.43,2.83-2.22.91-.79,1.74-1.65,2.5-2.58-.07.14-.17.25-.29.32-.12.07-.26.11-.43.11-.14.02-.29,0-.43-.07-.14-.07-.26-.17-.36-.29-.33-.55-.61-1.12-.82-1.72-.21-.6-.36-1.22-.43-1.86-.21,0-.41-.05-.57-.14s-.32-.21-.46-.36c1.38-.41,2.79-.72,4.22-.93,1.41-.24,2.84-.37,4.29-.39.21-.17.46-.27.75-.32.26-.02.51.02.75.14l2.18,1.15c.12.07.19.17.21.29.02.1.01.2-.04.32-.21.41-.44.8-.68,1.18-.21.38-.44.76-.68,1.15-.07.12-.16.21-.25.29-.12.07-.25.1-.39.07-.64.02-1.28.05-1.9.07-.64.02-1.29.07-1.93.14l-.04.72c.36.17.72.32,1.07.47.33.12.68.25,1.04.39.45-.29.89-.58,1.32-.89.45-.29.92-.55,1.4-.79.17-.07.33-.13.5-.18.24-.02.44-.01.61.04l1.61.75c-.6.57-1.29.99-2.08,1.25-.79.29-1.59.39-2.4.32.57.26,1.13.54,1.68.82.55.31,1.07.64,1.57,1,.31.21.56.49.75.82.17.33.29.69.36,1.07,0,.07-.04.14-.11.21-.07.05-.12.07-.14.07-.31.02-.62.02-.93,0-.31-.02-.6-.07-.86-.14-.96-.62-1.9-1.26-2.83-1.93-.93-.67-1.86-1.34-2.79-2l.07,4.76c1.62-.14,3.23-.19,4.83-.14,1.62.1,3.21.27,4.76.54l-.79-19.36c-1.24,0-2.48.01-3.72.04-1.22.05-2.43.1-3.65.14l.07,2.08c.24-.02.48-.05.72-.07.24-.05.48-.08.72-.11.24-.02.49-.01.75.04.29.02.54.08.75.18.41.17.75.39,1.04.68.33.26.57.6.72,1-.76-.05-1.54-.05-2.33,0-.76.07-1.55.18-2.36.32v.86l2.9-.14c.29-.02.57-.02.86,0,.31.02.6.07.86.14.53.12.95.37,1.29.75.41.36.67.79.79,1.29-2.08-.26-4.15-.35-6.22-.25-2.1.12-4.19.38-6.26.79-.21.07-.45.11-.72.11-.24,0-.49-.04-.75-.11-.38-.09-.78-.23-1.18-.39-.38-.19-.74-.42-1.07-.68,1.02-.36,2.08-.62,3.15-.79,1.1-.19,2.21-.31,3.33-.36l-.07-.89c-.29.05-.56.08-.82.11-.29,0-.55-.02-.79-.07-.57-.05-1.12-.18-1.65-.39-.55-.21-1.06-.49-1.54-.82.79-.17,1.57-.32,2.36-.46.76-.17,1.55-.32,2.36-.47l-.18-2.08c-1.1.1-2.18.24-3.26.43-1.07.17-2.15.41-3.22.72l-.21,18.75Zm6.44-9.45c.67-.19,1.36-.31,2.08-.36.69-.05,1.38-.05,2.08,0l.14-1.18c-.72,0-1.43.05-2.15.14-.72.07-1.42.19-2.11.36l-.04,1.04Z"/>
        </g>
      </g>
    </g>
  </g>
</svg>