<?xml version="1.0" encoding="UTF-8"?>
<svg id="_レイヤー_2" data-name="レイヤー 2" xmlns="http://www.w3.org/2000/svg" viewBox="0 0 1245.48 148.57">
  <defs>
    <style>
      .cls-1 {
        fill: #fff;
        stroke-width: 0px;
      }

      .cls-2 {
        fill: none;
        stroke: #fff;
        stroke-miterlimit: 10;
        stroke-width: 1.5px;
      }
    </style>
  </defs>
  <g id="_レイヤー_1-2" data-name="レイヤー 1">
    <g>
      <g>
        <path class="cls-2" d="m72.58,77.14H2.54c-1.02,0-1.79-.77-1.79-1.79s.77-1.87,1.79-1.87h24.91c-1.28-.85-1.79-2.47-1.19-3.91-.34-.85-1.53-3.4-1.79-4-.17-.34-.26-.85-.08-1.28h-3.74c-.68,3.57-5.95,3.06-5.95-.59v-13.18c0-3.06,3.91-4.08,5.53-1.61h37.32c1.62-2.47,5.61-1.45,5.61,1.61v12.07c0,3.06-4,4.17-5.61,1.7h-5.53c2.12,2.04,1.02,5.61-1.96,5.95-.77,1.19-1.79,2.38-2.55,3.32h22.02c.17-1.7,1.53-2.98,3.23-2.98,1.79,0,3.31,1.45,3.31,3.23,0,1.96-1.61,3.32-3.48,3.32Zm-1.02-33.58H3.39c-1.02,0-1.79-.77-1.79-1.79s.77-1.79,1.79-1.79h65.03c.17-1.7,1.53-2.98,3.23-2.98,1.79,0,3.31,1.45,3.31,3.23s-1.53,3.32-3.4,3.32Zm-6.29-10.71c0,3.06-4.08,4-5.44,1.36H17.67c-.85,3.23-5.61,2.55-5.61-.77V12.45c0-2.89,3.74-3.91,5.27-1.61h10.97V3.95c0-1.53,1.19-2.81,2.72-2.81s2.81,1.27,2.81,2.81v6.89h9.86V3.95c0-1.53,1.19-2.81,2.72-2.81s2.72,1.27,2.72,2.81v6.89h10.88c1.53-2.3,5.27-1.28,5.27,1.61v20.4Zm-47.52-12.16h10.54v-6.55h-10.54v6.55Zm0,10.2h10.54v-6.89h-10.54v6.89Zm2.98,30.09h36.38v-8.67H20.73v8.67Zm6.97,3.31c3.4,2.13,4.76,4.68,4.93,6.29.08,1.28-.51,2.3-1.45,2.98h13.09l2.04-7.99c.17-.51.51-.94.85-1.28h-19.47Zm6.12-43.61h9.86v-6.55h-9.86v6.55Zm0,10.2h9.86v-6.89h-9.86v6.89Zm15.3-10.2h10.46v-6.55h-10.46v6.55Zm0,10.2h10.46v-6.89h-10.46v6.89Z"/>
        <path class="cls-2" d="m114.4,65.33c-3.06.59-7.74-.51-12.07-7.82-2.04,3.66-3.91,6.89-5.53,9.27-.43.94-1.45,1.53-2.47,1.53-2.47,0-3.83-3.06-2.04-4.85,6.8-9.52,13.09-21.08,17-30.86-8.59,1.61-14.37,3.06-18.02-5.44-1.02-2.47,2.04-3.49,3.15-1.28.85,2.21,4.17,2.89,16.58,1.79,1.45-5.02,2.04-8.93,1.1-11.56-.42-1.27-1.1-2.04-2.21-2.46-2.04-.68-1.53-3.15.51-3.15,3.49.08,5.19,1.79,5.95,3.23,1.62,2.98,1.27,7.74-.34,13.43,1.36-.26,2.89-.26,4.51-.51,1.87-.25,3.4.25,4.51,1.36,2.46,2.47,3.15,7.82,2.04,18.11-.85,8.59-5.7,17.94-12.67,19.21Zm6.38-34.51c-.94-.68-4.85.51-6.21.76-2.64,7.4-6.46,15.3-10.29,22.36,2.29,3.23,5.36,6.29,8.84,5.61,4.76-.94,8.59-8.5,9.35-14.54,1.02-8.42-.25-12.84-1.7-14.2Zm18.7,23.97c-2.38,0-2.55-3.06-.09-3.32,5.1-.42,8.25-1.7,8.84-3.66.94-3.06-3.4-8.76-11.82-15.64-1.79-1.45-.17-3.91,1.87-2.72,11.65,6.72,17.51,13.52,16.15,18.96-.77,2.89-4.08,6.38-14.96,6.38Z"/>
        <path class="cls-2" d="m201.1,23.33c-4.08,13.77-13.69,24.14-20.66,31.11-1.53,2.04-4.93.85-4.93-1.79,0-1.28.77-2.21,1.79-2.64,11.14-11.48,16.49-20.74,18.79-26.44-8.5,0-13.69-1.7-17.51-5.36-1.79-1.7.59-3.83,2.38-2.38,3.57,2.89,8.25,3.06,16.75,2.38.08-.94.17-1.79.08-2.55-1.45-1.62-2.72-3.57-3.4-5.53-.42-1.36.51-2.64,2.13-2.13,1.96.68,4.08,2.47,5.02,5.78.94,1.96,3.23,3.31,5.53,3.83,3.06.77,2.47,4.42.25,5.02-1.1.34-4.76.68-6.21.68Zm27.71,43.95c-1.44,0-2.38-.68-2.81-1.96-2.04-1.96-6.04-5.02-9.69-6.8-.17,5.27-1.27,8.93-3.31,10.97-2.72,2.64-6.38,2.3-10.03,1.28-3.4-.94-7.74-4.25-8.33-8.25-.68-4.33,2.72-7.31,8.93-9.44,2.3-.77,5.44-1.1,7.48-.85-.43-12.16-.34-19.04,3.91-24.82,1.45-2.04,4.17-4,5.53-4.59-2.04-.6-4.25-.68-5.95-.51-2.29.17-2.72-2.81-.51-3.4,5.53-1.61,15.56-.59,16.49,5.02.43,2.72-2.38,3.49-4,2.81-3.32-1.45-6.72-.34-8.67,2.72-3.66,5.87-2.29,11.99-1.62,23.89,6.38,2.04,12.24,6.29,14.62,8.84,1.79,1.87.85,5.1-2.04,5.1Zm-28.65-4.93c.51,3.83,5.7,7.4,8.5,4.59,1.7-1.61,2.3-5.27,2.3-10.37-3.74-.85-11.39,1.02-10.8,5.78Z"/>
        <path class="cls-2" d="m258.73,55.13c-1.53,7.06-4.59,14.28-6.89,18.28-1.1,1.87-3.15.94-2.72-.76,1.79-6.72,3.4-16.15,3.83-20.83.34-3.4,4.76-4.85,6.8-1.87,1.19,1.79.85,4.08-1.02,5.19Zm17.68-10.2c-1.87-.42-2.81-2.21-2.3-4l-.25-.77c-1.02.42-4.08,1.36-4.93,1.62l.08,35.11c0,1.53-1.36,2.81-2.89,2.81s-2.81-1.27-2.81-2.81v-34.17c-3.15.68-5.78,1.27-7.4,1.53-1.27,1.79-3.4,2.47-5.19,1.02-2.55-2.04-1.45-6.46,3.15-6.29,1.36.08,3.91-.09,6.97-.26-.08-.34-.08-.68.08-1.02,3.15-5.44,8.93-18.19,10.2-21.93.77-1.7,1.96-2.89,4-2.64,2.04.25,3.4,2.04,3.15,4.08-.17,1.53-1.19,2.63-2.55,3.06-2.55,5.1-7.14,12.41-11.99,18.28,2.81-.17,5.95-.42,9.01-.77-.51-1.02-1.36-2.55-1.79-3.23-.77-1.28.25-2.72,1.62-2.13,4.93,2.38,8.42,7.06,7.65,10.12-.42,1.7-2.12,2.81-3.83,2.38Zm-9.78-35.11c-.94,1.62-6.89,11.05-8.25,12.07,2.38,1.79,3.57,3.83,3.66,5.19.17,1.79-.94,3.32-2.64,3.57-2.12.34-3.83-1.44-3.66-3.48-1.27-1.96-3.23-4.51-4.34-5.95-1.02-1.36.17-2.64,1.45-2.21,1.27.43,2.55,1.02,3.57,1.62,1.87-4.76,4.34-11.31,5.53-15.47.94-3.23,4.93-3.57,6.72-1.19,1.62,2.12.51,5.19-2.04,5.87Zm10.97,51.77c-1.79-.42-2.81-2.12-2.29-3.91-.77-1.79-2.72-5.36-3.91-7.06-.94-1.36.17-2.72,1.62-2.12,5.1,2.12,9.35,7.31,8.42,10.71-.42,1.7-2.12,2.81-3.83,2.38Zm49.9,8.76c-.68-.34-1.36-.77-2.04-1.19-.08,3.49-3.57,4.08-5.53,2.55-6.29-5.1-11.56-15.3-15.47-28.39v32.47c0,2.12-1.7,3.57-3.57,3.57-2.72,0-4.34-2.89-3.06-5.19h-2.98c-.77,0-1.36-.59-1.36-1.36s.59-1.45,1.36-1.45h3.91v-37.66h-18.36c-1.02,0-1.79-.77-1.79-1.79s.77-1.79,1.79-1.79h28.99v-8.93h-20.32c-1.02,0-1.7-.77-1.7-1.79s.68-1.79,1.7-1.79h20.32v-8.42h-21.93c-1.02,0-1.79-.77-1.79-1.79s.77-1.87,1.79-1.87h22.19c1.36-2.72,5.44-1.79,5.44,1.27v23.29h6.38c.17-1.62,1.61-2.89,3.23-2.89,1.79,0,3.23,1.44,3.23,3.23s-1.45,3.23-3.23,3.23h-20.06c.85,3.83,2.89,9.61,5.7,14.79,2.04-2.64,4.68-6.12,6.72-9.18,1.96-2.98,6.8-1.53,6.8,2.21,0,2.38-1.87,3.83-4.17,3.74,0,0-5.7,4.08-8.33,5.36,3.74,6.29,9.35,12.92,17.43,17.34.68.34.94,1.19.59,1.87-.34.68-1.19.85-1.87.51Zm-41.82-2.29c-.34,2.04-2.29,3.15-4.25,2.72-3.23-.77-3.74-5.19-.94-6.55,3.4-1.7,10.03-5.27,14.2-7.82,1.27-.77,3.06.77,1.53,2.38-4,4.25-7.57,7.06-10.54,9.27Zm4.85-16.83c-2.12.08-3.57-2.04-3.06-4-.68-1.28-2.21-3.91-3.06-5.36-1.02-1.7.59-2.64,1.7-2.13,4.85,2.3,7.48,5.27,7.57,8.25,0,1.7-1.36,3.23-3.15,3.23Z"/>
        <path class="cls-2" d="m383.68,68.64c-3.57,1.79-13.6,2.38-21.93,1.7-7.14-.6-12.41-3.74-14.2-8.76-1.62-4.33,0-9.1,4.34-13.43,2.98-2.98,6.63-5.61,10.29-7.91-.25-1.62-.25-3.32-.34-5.61-.43-12.92-1.45-20.66-5.95-23.72-1.7-1.19-.68-3.57,1.45-3.15,10.29,2.3,10.2,15.39,9.1,29.92,5.19-2.98,9.69-4.93,11.65-5.87,1.96-1.53,5.02-.34,5.02,2.38,0,1.28-.59,2.21-1.79,2.81-1.7.94-3.4,1.45-4.85,2.04-5.7,2.46-15.39,7.4-21.51,12.41-3.4,2.81-4.59,5.44-3.66,8.08,1.1,3.32,5.53,5.44,10.97,5.44,6.46,0,13.35-.68,18.45-1.62,1.96-1.27,4.76-.17,4.76,2.47,0,1.28-.6,2.21-1.79,2.81Z"/>
        <path class="cls-2" d="m437.31,61.67c-6.12,6.21-16.58,12.75-26.01,16.41-1.7.68-2.81-1.28-1.27-2.38,9.1-6.46,18.79-14.37,23.89-20.23,2.3-2.64,6.55-1.45,6.89,2.04.17,2.04-1.1,3.91-3.49,4.17Zm42.08-10.63h-67.92c-1.02,0-1.79-.77-1.79-1.79s.77-1.96,1.79-1.96h20.23v-21.85h-17.34c-1.02,0-1.79-.77-1.79-1.79s.77-1.96,1.79-1.96h17.26V5.23c0-1.7,1.44-3.06,3.15-3.06s2.98,1.36,2.98,3.06v16.66h15.81V5.23c0-1.7,1.36-3.06,3.06-3.06s3.06,1.36,3.06,3.06v16.66h12.16c.08-1.79,1.53-3.23,3.32-3.23s3.4,1.53,3.4,3.4c0,2.04-1.53,3.4-3.48,3.4h-15.39v22.02h16.41c.08-1.79,1.61-3.23,3.4-3.23s3.4,1.53,3.4,3.4-1.36,3.4-3.49,3.4Zm-41.65-3.57h15.9v-22.02h-15.9v22.02Zm36.72,30.26c-2.47.51-4.76-1.53-4.59-3.91-4.25-5.44-10.63-11.39-16.07-16.49-1.36-1.28-.34-3.06,1.45-2.3,10.8,4.51,18.79,11.22,21.68,17,1.1,2.21.25,5.1-2.47,5.7Z"/>
        <path class="cls-2" d="m513.73,67.54c.25,2.38-1.79,3.15-3.15,1.1-8.42-12.75-5.7-26.86-3.91-37.49.94-5.53,1.79-10.29.68-12.75-.85-1.96,1.19-3.57,2.81-1.96,4.59,4.59,3.15,10.2,1.28,17.34-1.87,6.89-3.83,14.37-1.11,22.53.68-2.98,1.36-5.95,2.47-8.76.85-2.3,4.08-1.45,3.32,1.1-1.87,6.12-3.06,12.41-2.38,18.87Zm38.59-3.91c-10.37.25-20.4-1.7-25.16-7.57-2.47-2.98-2.89-6.8-1.62-11.22,2.72-9.1,7.4-14.37,11.73-17.34-3.66-.68-7.23-1.79-9.86-3.74-1.87-1.36-.51-3.74,1.62-2.98,5.19,1.96,14.71,2.38,17.94,2.64,1.79-.76,3.83.51,3.83,2.47s-1.36,2.55-3.06,2.81c-7.06.43-14.71,4.93-18.53,16.75-.85,2.64-.59,4.85.68,6.63,2.98,3.91,11.39,6.12,21.42,6.12,1.96-.94,4.08.51,4.08,2.64,0,1.7-1.36,2.81-3.06,2.81Z"/>
        <path class="cls-2" d="m651.01,61.5c-.85-.08-1.62-.25-2.38-.42,1.1,2.38-.59,4.59-3.57,3.74-5.61-1.53-10.03-4-13.43-6.55v18.36c0,3.57-5.35,3.91-5.78.34h-25.5c0,1.7-1.1,3.06-2.89,3.06-1.62,0-2.89-1.28-2.89-2.89v-18.28c-7.23,5.36-13.86,8.59-18.36,9.78-1.7.43-2.46-1.7-.94-2.55,7.57-4.17,15.98-10.2,23.12-17.43h-21.51c-1.02,0-1.87-.85-1.87-1.87s.77-1.79,1.79-1.79h24.48c1.79-2.04,3.49-4.17,4.93-6.38h-11.05c-1.1,3.15-5.78,2.38-5.78-.94v-16.32c0-2.98,3.91-4.08,5.44-1.62h36.21c1.53-2.46,5.44-1.36,5.44,1.62v15.73c0,3.06-4,4.08-5.53,1.53h-18.45c1.02,1.96.17,4.42-2.21,4.85l-1.27,1.53h34.17c.08-1.7,1.53-2.98,3.23-2.98,1.79,0,3.23,1.36,3.23,3.15,0,1.62-1.61,3.4-3.31,3.4h-19.13c4.85,5.1,11.56,8.33,21.17,9.78,1.02.17,2.04.34,3.06.42.77.08,1.19.77,1.11,1.53s-.76,1.27-1.53,1.19Zm-6.38-48.62h-20.23v2.46c0,1.53-1.28,2.89-2.81,2.89-1.87,0-2.81-1.45-2.81-2.89v-2.46h-14.28v2.29c0,1.53-1.28,2.81-2.81,2.81s-2.89-1.27-2.89-2.81v-2.29h-20.4c-1.02,0-1.79-.77-1.79-1.79s.77-1.87,1.79-1.87h20.4v-4.93c0-1.53,1.36-2.89,2.89-2.89,1.78,0,2.81,1.36,2.81,2.89v5.02h14.28v-4.68c0-1.53,1.28-2.81,2.81-2.81s2.81,1.27,2.81,2.81v4.68h17.26c.17-1.62,1.62-2.81,3.23-2.81,1.79,0,3.23,1.44,3.23,3.23,0,1.53-1.28,3.15-3.49,3.15Zm-49.3,14.62h35.19v-4.42h-35.19v4.42Zm0,7.82h35.19v-4.59h-35.19v4.59Zm5.02,28.31h25.5v-6.72h-25.5v6.72Zm0,10.12h25.5v-6.8h-25.5v6.8Zm26.18-20.15c-1.36-1.62-2.64-3.57-3.4-5.02h-17c-1.7,1.87-3.57,3.49-5.19,5.02h25.59Z"/>
        <path class="cls-2" d="m676.5,72.89c-2.72-.08-2.72-3.49,0-3.49,9.69,0,24.23-4.59,28.65-11.56,1.7-2.64,1.62-5.44.08-8.59-1.19-2.47-2.81-3.83-4.76-4.25-5.78-1.36-14.45,5.61-18.45,8.84-2.72,2.21-3.57,2.89-4.85,1.96-2.29-1.62-2.8-9.1-2.46-23.8.17-8.42,7.4-11.39,12.16-13.26,1.62-.59,4.42-1.62,4.42-2.38,0-.68-.51-2.04-6.71-6.63-1.79-1.36-.51-3.74,1.53-3.06,4,1.36,8.08,3.83,10.29,6.55,3.74,4.42.51,6.21-5.36,8.25-6.21,2.13-10.97,4.34-10.97,11.05,0,5.44-.17,11.22.08,16.66,9.01-6.12,21.85-13.52,29.67-3.23,4.08,5.36,3.06,10.12,1.53,13.01-4.33,8.42-19.3,14.28-34.85,13.94Z"/>
        <path class="cls-2" d="m796.44,26.82c-6.8-.77-13.18-.51-18.96.25-.25,3.66-.42,8.08-.17,13.09.59,1.1,1.1,2.47,1.36,4.08,1.36,9.52-1.79,22.36-22.87,26.01-2.64.43-3.32-2.89-.68-3.49,9.78-2.38,14.45-6.72,16.75-11.82-2.47,0-5.36-2.12-8.67-6.38-2.64-3.32-3.06-6.72-1.36-9.44,2.29-3.49,6.8-4.42,10.71-3.06-.08-2.98-.17-5.87-.17-8.16-3.66.6-6.97,1.45-9.78,2.13-7.23,1.79-12.58,3.06-15.98.85-1.62-1.11-2.72-2.89-3.23-5.36-.34-1.96,1.45-2.89,2.89-1.62,4.76,4.08,9.44,2.89,17.85.85,2.38-.6,5.27-1.19,8.33-1.79.25-5.7,1.28-10.63-2.63-11.99-2.13-.68-1.7-3.4.59-3.4,2.72.08,4.67.85,5.95,2.21,2.29,2.47,1.96,6.38,1.53,12.24,5.44-.94,11.73-1.45,19.21-1.19,1.7.08,2.97,1.27,2.97,3.06-.08,2.04-1.7,3.15-3.66,2.89Zm-30.86,13.6c-1.02,1.28-.34,2.98.34,4.08,1.96,3.15,4.08,4.51,4.76,4.25,1.28-.34,1.87-2.04,1.87-7.14-1.36-2.72-5.19-3.48-6.97-1.19Z"/>
        <path class="cls-2" d="m891.47,66.35c-.85-.26-2.04-.68-2.89-1.02.93,3.06-1.53,5.27-4.25,4-11.56-5.44-20.66-14.79-26.44-25.84v33.75c0,1.7-1.28,3.06-2.98,3.06s-3.06-1.36-3.06-3.06v-30.86c-7.74,10.88-19.3,20.32-31.11,25.42-1.62.68-2.89-1.28-1.45-2.3,11.22-7.91,22.7-19.38,29.33-29.84h-29.75c-1.02,0-1.79-.77-1.79-1.79s.77-1.96,1.79-1.96h32.9v-15.22h-24.74c-1.02,0-1.96-.94-1.96-1.96s.93-1.96,1.96-1.96h24.57V4.21c0-1.7,1.62-3.06,3.32-3.06s3.06,1.36,3.06,3.06v12.67h17.51c.26-1.62,1.62-2.98,3.32-2.98,1.87,0,3.4,1.53,3.4,3.4s-1.53,3.4-3.4,3.4h-20.83v15.3h26.52c0-1.96,1.62-3.49,3.57-3.49s3.57,1.62,3.57,3.57-1.7,3.57-3.66,3.57h-28.65c6.12,9.78,17.43,19.04,32.98,24.14.68.25,1.1,1.02.85,1.7s-1.02,1.1-1.7.85Z"/>
        <path class="cls-2" d="m976.9,65.92c-1.19-.17-2.29-.34-3.4-.59.93,3.31-2.04,5.44-4.93,4.25-14.2-5.87-21.93-16.24-25.59-22.44v28.48c0,1.62-1.36,2.98-2.98,2.98s-2.98-1.36-2.98-2.98v-27.46c-7.99,12.16-22.27,21-30.43,24.23-1.87.77-3.06-1.36-1.36-2.46,8.08-5.1,19.13-14.54,28.05-27.46h-28.39c-1.02,0-1.79-.76-1.79-1.79s.76-1.87,1.79-1.87h32.05v-21.76h-26.52c-1.02,0-1.87-.85-1.87-1.87s.85-1.79,1.87-1.79h26.44V4.46c0-1.61,1.53-3.06,3.15-3.06s3.06,1.45,3.06,3.06v8.93h20.06c.17-1.79,1.62-3.15,3.4-3.15s3.32,1.53,3.32,3.4c0,2.04-1.62,3.4-3.4,3.4h-23.46v21.76h6.8c-.25-.42-.25-.94.09-1.44,1.19-1.79,7.48-11.99,9.01-14.88,1.62-2.89,5.36-2.98,6.8-.51,1.36,2.29-.08,5.27-2.63,5.61-2.38,2.72-8.33,8.76-10.88,11.22h17.85c.17-1.79,1.53-3.06,3.31-3.06s3.4,1.45,3.4,3.32-1.44,3.4-3.49,3.4h-29.33c3.06,4.59,13.35,17.6,33.41,20.74.76.08,1.19.85,1.1,1.62s-.76,1.19-1.53,1.1Zm-53.55-28.73c-2.38.17-4.17-1.96-3.66-4.25-1.11-2.38-3.74-7.4-5.36-9.95-.94-1.53.59-2.81,1.96-1.96,6.38,4.08,9.86,8.84,10.2,12.41.17,1.87-1.19,3.57-3.15,3.74Z"/>
        <path class="cls-2" d="m1044.65,30.73c-6.8,5.7-19.98,14.37-25.42,18.02.34,3.83.08,7.48-.17,9.44.59,1.79-.6,3.66-2.55,3.66-1.45,0-2.55-1.1-2.8-2.47.25-2.47.51-4.93.51-7.4-1.28.94-2.64,1.7-4.08,2.64-1.87,1.19-4.85,3.4-4.34,5.53.6,2.55,5.78,5.02,10.2,5.44,6.29.68,14.88-.6,19.38-1.53,1.79-.77,3.83.6,3.83,2.55,0,1.45-1.02,2.55-2.38,2.81-6.12,1.1-14.88,2.12-21.76,1.19-4.67-.68-11.99-3.48-13.26-8.76-.93-3.66,1.19-7.14,6.21-10.8l5.95-4.34c-.34-2.72-.94-5.61-2.72-6.55-1.96-.94-4-.51-5.27.85l-2.72,5.02c-.42,1.11-1.28,1.7-2.47,1.7-2.55,0-3.66-3.23-1.7-4.76.59-.94,1.1-1.7,1.87-2.64,4.42-7.23,6.97-12.92,8.33-17.34-4-.6-6.46-2.64-9.78-6.72-1.79-1.53.76-4.17,2.72-2.21,1.62,1.62,4.85,3.74,8.33,3.83.25-1.1.51-4,.17-5.1-.42-.51-.59-1.02-.59-1.62,0-2.3,2.63-3.23,4.33-1.7,1.28,1.27,1.7,3.06,1.45,4.85-.08,1.7,1.53,2.64,2.8,2.55,3.23-.25,4.25,4.51.43,5.44-1.62.43-3.32.6-5.02.68-1.28,3.83-3.06,8.25-5.7,13.35,5.44-.6,8.42,2.12,9.86,7.23,5.02-3.66,16.07-11.73,21.51-16.32,1.36-2.98,5.87-2.21,5.87,1.19,0,1.02-.34,1.79-1.02,2.29Z"/>
        <path class="cls-2" d="m1106.78,21.55c-1.87.51-3.83-.77-4.17-2.72-2.29-2.64-10.63-9.52-14.28-11.39-6.8,9.27-17.26,17.85-24.48,21.25-1.45.68-2.72-1.27-1.45-2.29,6.97-5.95,16.75-15.56,21.68-23.97,1.11-1.79,3.57-2.21,5.27-.94,1.19.94,1.79,2.47,1.36,4,9.86,3.23,16.66,7.74,18.11,11.31.85,1.96.25,4.08-2.04,4.76Zm-2.72,28.65c0,3.06-4.08,3.83-5.36,1.1h-21.59c-1.62,10.54-5.7,17.26-12.41,21.59-1.45.94-2.89-.94-1.79-2.21,7.31-8.33,9.01-17.34,9.01-31.71v-6.97c0-3.15,4.25-4.34,5.87-1.53h21.34c1.7-1.96,4.93-.77,4.93,1.87v17.85Zm.59,24.99c0,1.79-1.45,2.81-2.89,2.81-1.28,0-2.72-1.19-2.72-2.98h-17.94c0,1.7-1.02,3.23-2.89,3.23-1.53,0-2.81-1.36-2.81-2.89v-15.3c0-2.81,3.57-3.83,5.1-1.62h18.87c1.62-2.3,5.27-1.27,5.27,1.62v15.13Zm-7.06-50.41h-19.55c-1.02,0-1.79-.77-1.79-1.79s.76-1.7,1.79-1.7h16.58c.17-1.53,1.45-2.72,3.06-2.72,1.7,0,3.15,1.45,3.15,3.15,0,1.78-1.53,3.06-3.23,3.06Zm.85,23.21v-5.7h-20.74c0,1.79,0,3.74-.17,5.7h20.91Zm-20.74-8.84h20.74v-5.36h-20.74v5.36Zm3.4,32.64h17.85v-10.12h-17.85v10.12Zm37.57-13.77c0,1.61-1.36,2.89-2.98,2.89s-2.89-1.28-2.89-2.89V11.52c0-1.62,1.27-2.89,2.89-2.89s2.98,1.27,2.98,2.89v46.5Zm16.24,15.64c0,2.04-1.7,3.91-3.83,3.91-2.81,0-4.59-3.06-3.32-5.44h-3.32c-.76,0-1.36-.6-1.36-1.36s.6-1.36,1.36-1.36h4.51V5.82c0-1.62,1.27-2.98,2.89-2.98s3.06,1.36,3.06,2.98v67.84Z"/>
        <path class="cls-2" d="m1177.16,69.32c-5.7-.42-7.65-3.49-7.99-6.21-.42-2.89.76-6.46,5.53-8.25,3.74-1.36,8.92,1.02,12.58,7.74,2.8-1.45,4.33-3.32,5.44-5.44,4.33-8.42-1.19-17.17-10.46-17.43-4-.08-7.74.94-10.71,3.91-1.79,2.21-6.12,7.82-8.5,10.71-1.7,2.12-5.01,1.19-5.01-1.62,0-1.28.51-2.13,1.53-2.55,3.66-4.34,18.45-22.27,24.14-28.31.93-1.02,1.61-1.96,1.27-2.3-1.53-.68-4.76,1.62-5.95,2.55-2.21,1.79-4.84,3.66-7.82,3.23-2.04-.34-3.91-1.79-5.53-4.25-1.53-2.21,1.28-4.17,2.89-2.13,1.62,2.13,5.02.68,9.78-1.7,4.17-2.04,9.35-4.08,11.82-.34,1.36,1.96.51,4.76-1.96,7.4-3.15,3.32-6.97,7.65-10.63,11.99,6.63-1.79,13.86-.77,18.45,4.93,4,4.93,4.51,12.75,1.36,18.62-3.66,6.8-10.97,10.12-20.23,9.44Zm-2.12-10.46c-1.28.43-2.21,1.79-1.96,2.81.59,2.63,3.57,3.15,8.93,2.46-2.64-4.68-5.27-5.78-6.97-5.27Z"/>
        <path class="cls-2" d="m1234.36,73.66c-5.7,0-10.29-4.59-10.29-10.29s4.59-10.29,10.29-10.29,10.37,4.59,10.37,10.29-4.59,10.29-10.37,10.29Zm0-17.77c-4.08,0-7.48,3.32-7.48,7.48s3.4,7.57,7.48,7.57,7.57-3.4,7.57-7.57-3.4-7.48-7.57-7.48Z"/>
      </g>
      <g>
        <path class="cls-1" d="m328.75,141.54c-4.61-.74-7.68-4.87-7.81-11-.13-6.29,2.78-10.58,7.42-11.71,2.71-.65,5.03.06,6.97,1.19.35.23.58-.16.48-.39-.1-.35.1-.65.39-.74.39-.1.65.03.77.39l1.58,4.42c.16.42-.1.74-.35.84-.26.1-.58.03-.81-.32-1.48-2.48-4.2-4.71-7.91-4.32-3.97.39-6.52,5.26-5.91,11.46.48,5.03,2.81,8.23,6.58,8.71,3.1.42,6.39-1.65,7.68-4.81.16-.42.52-.52.87-.35.29.16.39.45.26.81-1.55,4.1-5.94,6.55-10.23,5.84Z"/>
        <path class="cls-1" d="m352.14,128.44c-.55-.29-1-.55-1.74-.06-.58.42-1.87,1.71-2.65,3v7.29c0,.81.45,1.19,2.55,1.19.35,0,.61.29.61.65,0,.39-.19.58-.61.58h-6.58c-.35,0-.58-.29-.58-.65s.29-.58.65-.58c1.39,0,1.94-.32,1.94-1.19v-9c0-1.45-.03-1.45-1.87-1.45-.81,0-.94-1-.19-1.23l3.29-1c.42-.13.81.16.81.58v2.68c1.23-1.39,3.13-3.36,5.1-3.36.94,0,1.68.65,1.68,1.42,0,1.55-1.36,1.65-2.39,1.13Z"/>
        <path class="cls-1" d="m364.63,141.54c-6.2,0-6.68-6.03-6.68-7.84,0-3.16,1.71-7.78,5.91-7.78h.65c3.58,0,5.84,3.52,5.84,6.71,0,.35-.26.65-.65.65h-9.39c-.1,3.26,1.19,6.94,5.13,6.94,1.68,0,3.32-1.19,3.97-2.19.23-.29.61-.42.9-.19.26.16.35.55.19.84-.84,1.42-3.1,2.87-5.87,2.87Zm3.39-9.49c0-2.84-1.52-5.03-4.13-4.87-2.39.16-3.32,2.84-3.49,4.87h7.62Z"/>
        <path class="cls-1" d="m388.06,140.6c-1.13.77-2.26.9-3.07.45-.61-.35-.94-.94-1.03-1.81-1.32,1.06-3.23,2.13-4.87,2.13-1.45,0-4-.74-4-3.45,0-3.97,7-5.62,8.81-6v-1.71c0-1.29-.81-3.07-2.68-3.07-1.71,0-2.74.84-2.74,1.65,0,1.26-.77,1.81-1.58,1.81-.52,0-1.42-.42-1.32-1.58.16-1.97,3.45-3.1,5.55-3.1h.45c2.07,0,4.42,1.39,4.42,4.07v8c0,1.65.55,2.07,1.45,1.55.32-.16.61-.1.87.23.16.26.03.61-.26.84Zm-4.16-7.42c-2.48.61-6.49,2.23-6.49,4.68,0,1.71,1.39,1.87,2.19,1.94,1.32.13,2.74-.61,4.29-2.13v-4.49Z"/>
        <path class="cls-1" d="m395.96,141.38c-1.19-.39-2-1.36-2-3v-10.84h-1.55c-.77,0-1-1.06-.13-1.23,1.19-.26,2.55-1.58,2.55-4.29,0-.42.19-.61.61-.61s.61.19.61.61v4.29h4.07c.42,0,.61.19.61.61s-.19.61-.61.61h-4.07v9.81c0,1.87.26,2.32,1.19,2.61,1.13.32,2.65-.52,3.07-1.03.23-.29.61-.39.87-.16.35.23.29.52.13.87-.77,1.1-3.52,2.32-5.36,1.74Z"/>
        <path class="cls-1" d="m410.74,141.05h-5.13c-.35-.1-.55-.32-.55-.68.03-.35.26-.55.61-.55,1.03,0,1.39-.29,1.39-1.23v-9.04c0-1.74.03-1.81-1.39-1.81-.81,0-.94-.97-.16-1.19l2.84-.87c.42-.13.77.13.77.61v12.42c0,.68.32,1.1,1.61,1.1.42,0,.61.19.61.61s-.19.61-.61.61Zm-2.71-19.17c-.87,0-1.58-.68-1.58-1.55s.71-1.58,1.58-1.58,1.58.71,1.58,1.58-.71,1.55-1.58,1.55Z"/>
        <path class="cls-1" d="m429.91,141.05h-5.78c-.42,0-.61-.19-.61-.61s.19-.61.61-.61c1.68,0,1.81-.16,1.81-1.52v-6.97c0-2.84-.77-3.91-2.71-3.91-1.39,0-3.32,1.48-4,2.42v8.97c0,.87.23,1,1.61,1,.42,0,.61.19.61.61s-.19.61-.61.61h-5.1c-.35,0-.61-.29-.61-.65.03-.39.26-.58.65-.58,1,0,1.36-.35,1.36-1.1v-8.88c0-1.55.03-1.84-1.36-1.84-.87,0-.97-.97-.19-1.19l2.84-.87c.48-.16.81.13.81.61v1.48c1.68-1.58,4.45-3,6.94-1.58,1.26.71,1.87,2.1,1.87,3.65v8.49c0,1,.35,1.23,1.77,1.23.42,0,.61.19.61.58.03.35-.16.65-.52.65Z"/>
        <path class="cls-1" d="m448.24,128.69c-1.23.23-1.81-1.23-2.19-.94l-.16.13c-.1.1-.23.19-.45.35.74.9,1.23,2,1.23,3.26,0,3.1-2.97,5.26-5.74,5.26-.74,0-1.42-.16-2.16-.42-.9.35-1.13,1.13-1.13,1.61,0,.9,1.52,1.23,3.97,1.45,2.87.26,6.42,1.23,6.42,4,0,3.23-2.68,5.16-7.62,5.16-3.61,0-6.29-1.74-6.29-4.26,0-1.39,1.68-2.94,3.23-3.55-3.03-.87-2.19-3.9.1-5.1-1.32-.94-2.23-2.32-2.23-4.26,0-3.32,3.1-5.23,5.16-5.39,1.52-.13,3.03.45,4.16,1.36.52-.42,1.71-1.42,2.74-1.58.77-.1,1.42.23,1.68.65.61,1-.03,2.13-.71,2.26Zm-8.07,12.52c-1.16.16-4.03,1.39-4.03,3,0,2.07,2.36,3,4.1,3,3.49,0,5.71-1.48,5.71-3.55,0-1.65-3.84-2.29-5.78-2.45Zm.65-13.97c-1.39,0-3.29,1.29-3.29,4.16,0,2.19.97,4.13,3.39,4.13,2.07,0,3.45-1.58,3.45-4.03,0-2.13-1.19-4.26-3.55-4.26Z"/>
        <path class="cls-1" d="m474.32,140.6c-1.13.77-2.26.9-3.07.45-.61-.35-.94-.94-1.03-1.81-1.32,1.06-3.23,2.13-4.87,2.13-1.45,0-4-.74-4-3.45,0-3.97,7-5.62,8.81-6v-1.71c0-1.29-.81-3.07-2.68-3.07-1.71,0-2.74.84-2.74,1.65,0,1.26-.77,1.81-1.58,1.81-.52,0-1.42-.42-1.32-1.58.16-1.97,3.45-3.1,5.55-3.1h.45c2.07,0,4.42,1.39,4.42,4.07v8c0,1.65.55,2.07,1.45,1.55.32-.16.61-.1.87.23.16.26.03.61-.26.84Zm-4.16-7.42c-2.48.61-6.49,2.23-6.49,4.68,0,1.71,1.39,1.87,2.19,1.94,1.32.13,2.74-.61,4.29-2.13v-4.49Z"/>
        <path class="cls-1" d="m504.78,124.01c.26.74-.77,1.23-1.13.52-1.45-2.84-2.97-4.07-5.42-4.07h-4.03c-2.32,0-2.32.06-2.32,1.65v7.13h3.55c1.65,0,2.58-.81,2.58-3,0-.42.19-.61.61-.61s.61.19.61.61v7.29c0,.42-.19.61-.61.61s-.61-.19-.61-.61c0-2.19-.81-3.07-2.52-3.07h-3.61v7.78c0,1.39,1.61,1.65,2.9,1.65.42,0,.61.19.61.61s-.19.61-.61.61h-7.71c-.42,0-.61-.19-.61-.61s.19-.61.61-.61c1.84,0,2.61-.52,2.61-1.65v-16.14c0-1.13-.65-1.65-2.61-1.65-.42,0-.61-.19-.61-.61s.19-.61.61-.61h15.52c.29,0,.52.13.61.39l1.58,4.39Z"/>
        <path class="cls-1" d="m523.59,141.05h-3.16c-.42,0-.61-.19-.61-.61v-1.16c-1.68,1.39-3.39,2.26-5.03,2.26-1.94,0-4.32-1.1-4.32-4.91v-7.49c0-1.45-.03-1.36-1.42-1.36-.81,0-.97-1-.16-1.19l2.9-.71c.48-.13.77.16.77.58v9.65c0,3.32,1.42,3.94,2.71,3.94,1.84,0,3.42-1.42,4.55-2.45v-8.52c0-1.42-.32-1.29-2-1.29-.84,0-.94-1.06-.13-1.23l3.45-.71c.48-.1.74.19.74.61v12.46c0,.77.58.9,1.71.9.35,0,.65.26.65.61s-.29.61-.65.61Z"/>
        <path class="cls-1" d="m532.01,141.38c-1.19-.39-2-1.36-2-3v-10.84h-1.55c-.77,0-1-1.06-.13-1.23,1.19-.26,2.55-1.58,2.55-4.29,0-.42.19-.61.61-.61s.61.19.61.61v4.29h4.07c.42,0,.61.19.61.61s-.19.61-.61.61h-4.07v9.81c0,1.87.26,2.32,1.19,2.61,1.13.32,2.65-.52,3.07-1.03.23-.29.61-.39.87-.16.35.23.29.52.13.87-.77,1.1-3.52,2.32-5.36,1.74Z"/>
        <path class="cls-1" d="m555.99,141.05h-3.16c-.42,0-.61-.19-.61-.61v-1.16c-1.68,1.39-3.39,2.26-5.03,2.26-1.94,0-4.32-1.1-4.32-4.91v-7.49c0-1.45-.03-1.36-1.42-1.36-.81,0-.97-1-.16-1.19l2.9-.71c.48-.13.77.16.77.58v9.65c0,3.32,1.42,3.94,2.71,3.94,1.84,0,3.42-1.42,4.55-2.45v-8.52c0-1.42-.32-1.29-2-1.29-.84,0-.94-1.06-.13-1.23l3.45-.71c.48-.1.74.19.74.61v12.46c0,.77.58.9,1.71.9.35,0,.65.26.65.61s-.29.61-.65.61Z"/>
        <path class="cls-1" d="m569.38,128.44c-.55-.29-1-.55-1.74-.06-.58.42-1.87,1.71-2.65,3v7.29c0,.81.45,1.19,2.55,1.19.35,0,.61.29.61.65,0,.39-.19.58-.61.58h-6.58c-.35,0-.58-.29-.58-.65s.29-.58.65-.58c1.39,0,1.94-.32,1.94-1.19v-9c0-1.45-.03-1.45-1.87-1.45-.81,0-.94-1-.19-1.23l3.29-1c.42-.13.81.16.81.58v2.68c1.23-1.39,3.13-3.36,5.1-3.36.94,0,1.68.65,1.68,1.42,0,1.55-1.36,1.65-2.39,1.13Z"/>
        <path class="cls-1" d="m581.87,141.54c-6.2,0-6.68-6.03-6.68-7.84,0-3.16,1.71-7.78,5.91-7.78h.65c3.58,0,5.84,3.52,5.84,6.71,0,.35-.26.65-.65.65h-9.39c-.1,3.26,1.19,6.94,5.13,6.94,1.68,0,3.32-1.19,3.97-2.19.23-.29.61-.42.9-.19.26.16.35.55.19.84-.84,1.42-3.1,2.87-5.87,2.87Zm3.39-9.49c0-2.84-1.52-5.03-4.13-4.87-2.39.16-3.32,2.84-3.49,4.87h7.62Z"/>
        <path class="cls-1" d="m607.46,140.64c-.1.29-.29.42-.58.42h-14.1c-.42,0-.61-.19-.61-.61s.19-.61.61-.61c1.77,0,2.26-.39,2.26-1.65v-16.04c0-1.13-.52-1.68-2.32-1.68-.42,0-.61-.19-.61-.61s.19-.61.61-.61h7.16c.42,0,.61.19.61.61s-.19.61-.61.61c-2.1,0-2.45.52-2.45,1.65v16.04c0,1.42.23,1.68,2.29,1.68h2.71c2.45,0,4.03-1.42,5.58-4.39.35-.68,1.39-.29,1.13.48l-1.68,4.71Z"/>
        <path class="cls-1" d="m618.4,141.05h-5.13c-.35-.1-.55-.32-.55-.68.03-.35.26-.55.61-.55,1.03,0,1.39-.29,1.39-1.23v-9.04c0-1.74.03-1.81-1.39-1.81-.81,0-.94-.97-.16-1.19l2.84-.87c.42-.13.77.13.77.61v12.42c0,.68.32,1.1,1.61,1.1.42,0,.61.19.61.61s-.19.61-.61.61Zm-2.71-19.17c-.87,0-1.58-.68-1.58-1.55s.71-1.58,1.58-1.58,1.58.71,1.58,1.58-.71,1.55-1.58,1.55Z"/>
        <path class="cls-1" d="m637.05,127.53c-.81,0-1.68.42-2.32,2.19l-4.29,11.65c-.13.32-.32.48-.58.45-.23,0-.42-.13-.55-.42l-5.29-12.46c-.39-.94-.74-1.42-1.9-1.42-.42,0-.61-.19-.61-.58,0-.35.23-.65.58-.65h5.07c.42,0,.61.19.61.61s-.19.61-.58.61c-1.13,0-1.29.42-1.1.9l4.13,10,3.32-9.26c.45-1.26.29-1.65-1-1.65-.42,0-.61-.19-.61-.61s.19-.61.61-.61h4.55c.35,0,.68.29.58.68-.03.29-.26.55-.61.55Z"/>
        <path class="cls-1" d="m647.64,141.54c-6.2,0-6.68-6.03-6.68-7.84,0-3.16,1.71-7.78,5.91-7.78h.65c3.58,0,5.84,3.52,5.84,6.71,0,.35-.26.65-.65.65h-9.39c-.1,3.26,1.19,6.94,5.13,6.94,1.68,0,3.32-1.19,3.97-2.19.23-.29.61-.42.9-.19.26.16.36.55.19.84-.84,1.42-3.1,2.87-5.87,2.87Zm3.39-9.49c0-2.84-1.52-5.03-4.13-4.87-2.39.16-3.32,2.84-3.49,4.87h7.62Z"/>
        <path class="cls-1" d="m687.01,127.6c-1.29,0-1.81.87-2.32,2.26l-4.07,11.1c-.13.32-.32.52-.61.55-.26,0-.45-.19-.58-.55l-3.42-9.39-3.52,9.49c-.13.32-.32.48-.61.48s-.45-.16-.58-.48l-4.49-12.07c-.32-.9-.68-1.39-1.71-1.39-.42,0-.61-.19-.61-.61s.19-.65.58-.65h5.16c.39,0,.61.32.61.68-.03.39-.26.58-.65.58-1.13,0-1.61.16-1.29,1.1l3.36,9.33,3.1-8.29-.32-.74c-.39-.9-.65-1.39-1.68-1.39-.42,0-.61-.19-.61-.61-.03-.35.23-.65.58-.65h5c.39,0,.64.32.61.68,0,.39-.23.58-.65.58-1.19,0-1.58.16-1.26,1.1l3.32,9.33,3.16-8.62c.65-1.74,0-1.81-1.19-1.81-.42,0-.65-.19-.65-.61s.23-.65.65-.65h4.74c.36,0,.58.42.55.71-.03.35-.26.55-.61.55Z"/>
        <path class="cls-1" d="m696.24,141.05h-5.13c-.35-.1-.55-.32-.55-.68.03-.35.26-.55.61-.55,1.03,0,1.39-.29,1.39-1.23v-9.04c0-1.74.03-1.81-1.39-1.81-.81,0-.94-.97-.16-1.19l2.84-.87c.42-.13.77.13.77.61v12.42c0,.68.32,1.1,1.61,1.1.42,0,.61.19.61.61s-.19.61-.61.61Zm-2.71-19.17c-.87,0-1.58-.68-1.58-1.55s.71-1.58,1.58-1.58,1.58.71,1.58,1.58-.71,1.55-1.58,1.55Z"/>
        <path class="cls-1" d="m704.46,141.38c-1.19-.39-2-1.36-2-3v-10.84h-1.55c-.77,0-1-1.06-.13-1.23,1.19-.26,2.55-1.58,2.55-4.29,0-.42.19-.61.61-.61s.61.19.61.61v4.29h4.07c.42,0,.61.19.61.61s-.19.61-.61.61h-4.07v9.81c0,1.87.26,2.32,1.19,2.61,1.13.32,2.65-.52,3.07-1.03.23-.29.61-.39.87-.16.35.23.29.52.13.87-.77,1.1-3.52,2.32-5.36,1.74Z"/>
        <path class="cls-1" d="m728.6,141.05h-5.65c-.42,0-.61-.19-.61-.61s.19-.61.61-.61c1.32,0,1.58-.26,1.58-1.52v-6.75c0-2.36-.68-3.94-2.74-3.94-1.45,0-3.2,1.71-4.13,3v8.07c0,.81.48,1.13,1.81,1.13.42,0,.61.19.61.61s-.19.61-.61.61h-5.36c-.36,0-.58-.29-.58-.65,0-.39.19-.58.61-.58,1,0,1.45-.23,1.45-1.03v-16.33c0-1.84.03-1.84-1.39-1.84-.81,0-.9-.97-.16-1.19l2.84-.87c.42-.13.77.1.77.61v9.49c1.74-1.81,4.68-3.52,7.07-1.97,1.16.77,1.84,2.1,1.84,3.65v8.23c0,1.03.52,1.26,1.94,1.26.42,0,.61.19.61.55.03.35-.16.68-.52.68Z"/>
        <path class="cls-1" d="m759.23,141.05h-3.61c-.29,0-.45-.1-.55-.32l-5.71-10.26h-3.16v7.71c0,1.19.55,1.65,2.36,1.65.35,0,.65.26.65.61s-.29.61-.65.61h-7c-.42,0-.61-.19-.61-.61s.19-.61.61-.61c1.71,0,2.42-.39,2.42-1.65v-16.1c0-1-.39-1.65-2.36-1.65-.42,0-.61-.19-.61-.61s.19-.61.61-.61h10c2.61,0,6.26,1.61,6.26,5.16s-2.87,5.62-6.07,5.97l2.49,4.45c1.26,2.26,2.65,4.49,3,4.68.65.35,1.19.35,1.87.35.29,0,.58.23.61.52.03.35-.19.71-.55.71Zm-7.71-20.59h-3.03c-2.29,0-2.29.16-2.29,1.61v7.13h4.36c2.52,0,4.78-1.61,4.78-4.84,0-2.42-2.29-3.91-3.81-3.91Z"/>
        <path class="cls-1" d="m769.39,141.05h-5.13c-.36-.1-.55-.32-.55-.68.03-.35.26-.55.61-.55,1.03,0,1.39-.29,1.39-1.23v-9.04c0-1.74.03-1.81-1.39-1.81-.81,0-.94-.97-.16-1.19l2.84-.87c.42-.13.77.13.77.61v12.42c0,.68.32,1.1,1.61,1.1.42,0,.61.19.61.61s-.19.61-.61.61Zm-2.71-19.17c-.87,0-1.58-.68-1.58-1.55s.71-1.58,1.58-1.58,1.58.71,1.58,1.58-.71,1.55-1.58,1.55Z"/>
        <path class="cls-1" d="m780.56,141.54c-3.97,0-6.58-2.87-6.58-7.49,0-4.84,3.07-8.2,6.84-8.2s4.97,2.1,5,2.87c.06,1.48-1.16,1.87-1.78,1.74-.94-.19-1.19-1-1.36-1.61-.23-.74-.39-1.32-1.55-1.68-.39-.13-1.42-.16-2.45.65-.94.77-2.13,2.32-2.23,6-.1,4.29,2.13,5.91,4.23,6.16,1.81.23,3.39-.48,4.84-2.13.23-.26.61-.32.87-.1.26.23.36.61.13.9-1.55,1.94-3.68,2.87-5.97,2.87Z"/>
        <path class="cls-1" d="m805.86,141.05h-5.65c-.42,0-.61-.19-.61-.61s.19-.61.61-.61c1.32,0,1.58-.26,1.58-1.52v-6.75c0-2.36-.68-3.94-2.74-3.94-1.45,0-3.19,1.71-4.13,3v8.07c0,.81.48,1.13,1.81,1.13.42,0,.61.19.61.61s-.19.61-.61.61h-5.36c-.35,0-.58-.29-.58-.65,0-.39.19-.58.61-.58,1,0,1.45-.23,1.45-1.03v-16.33c0-1.84.03-1.84-1.39-1.84-.81,0-.9-.97-.16-1.19l2.84-.87c.42-.13.77.1.77.61v9.49c1.74-1.81,4.68-3.52,7.07-1.97,1.16.77,1.84,2.1,1.84,3.65v8.23c0,1.03.52,1.26,1.94,1.26.42,0,.61.19.61.55.03.35-.16.68-.52.68Z"/>
        <path class="cls-1" d="m836.74,132.63c-1.13,0-1.65.77-1.65,1.77v5.45c0,.68-.84.87-1.13.32-.13-.13-.36-.26-.71-.03-2,1.39-5.16,2.03-8.07,1-3.39-1.23-6.45-4.26-6.45-11.49,0-6.07,3.32-9.81,7.29-10.84,2.2-.55,4.23-.13,6.07,1.03.26.16.84.06.74-.23-.1-.35.03-.58.45-.68.35-.1.61.03.74.39l1.61,4.55c.29.84-.74,1.29-1.13.52-1.42-2.81-4.55-5.23-7.91-4.39-3.23.81-5.2,4.84-5.2,10.36,0,6.97,3.26,9.52,5.68,9.94,2.42.42,5.07-.65,5.74-2.42.1-.13.16-.65.16-1v-2.58c0-1.13-.94-1.68-2.78-1.68-.42,0-.61-.19-.61-.61s.19-.61.61-.61h6.52c.42,0,.61.19.61.61s-.19.61-.61.61Z"/>
        <path class="cls-1" d="m850.29,128.44c-.55-.29-1-.55-1.74-.06-.58.42-1.87,1.71-2.65,3v7.29c0,.81.45,1.19,2.55,1.19.36,0,.61.29.61.65,0,.39-.19.58-.61.58h-6.58c-.36,0-.58-.29-.58-.65s.29-.58.65-.58c1.39,0,1.94-.32,1.94-1.19v-9c0-1.45-.03-1.45-1.87-1.45-.81,0-.94-1-.19-1.23l3.29-1c.42-.13.81.16.81.58v2.68c1.23-1.39,3.13-3.36,5.1-3.36.94,0,1.68.65,1.68,1.42,0,1.55-1.36,1.65-2.39,1.13Z"/>
        <path class="cls-1" d="m862.78,141.54c-6.2,0-6.68-6.03-6.68-7.84,0-3.16,1.71-7.78,5.91-7.78h.65c3.58,0,5.84,3.52,5.84,6.71,0,.35-.26.65-.65.65h-9.39c-.1,3.26,1.19,6.94,5.13,6.94,1.68,0,3.32-1.19,3.97-2.19.23-.29.61-.42.9-.19.26.16.35.55.19.84-.84,1.42-3.1,2.87-5.87,2.87Zm3.39-9.49c0-2.84-1.52-5.03-4.13-4.87-2.39.16-3.32,2.84-3.49,4.87h7.62Z"/>
        <path class="cls-1" d="m879.79,141.54c-6.2,0-6.68-6.03-6.68-7.84,0-3.16,1.71-7.78,5.91-7.78h.65c3.58,0,5.84,3.52,5.84,6.71,0,.35-.26.65-.65.65h-9.39c-.1,3.26,1.19,6.94,5.13,6.94,1.68,0,3.32-1.19,3.97-2.19.23-.29.61-.42.9-.19.26.16.36.55.19.84-.84,1.42-3.1,2.87-5.87,2.87Zm3.39-9.49c0-2.84-1.52-5.03-4.13-4.87-2.39.16-3.32,2.84-3.49,4.87h7.62Z"/>
        <path class="cls-1" d="m904.8,141.05h-5.78c-.42,0-.61-.19-.61-.61s.19-.61.61-.61c1.68,0,1.81-.16,1.81-1.52v-6.97c0-2.84-.77-3.91-2.71-3.91-1.39,0-3.32,1.48-4,2.42v8.97c0,.87.23,1,1.61,1,.42,0,.61.19.61.61s-.19.61-.61.61h-5.1c-.35,0-.61-.29-.61-.65.03-.39.26-.58.65-.58,1,0,1.36-.35,1.36-1.1v-8.88c0-1.55.03-1.84-1.36-1.84-.87,0-.97-.97-.19-1.19l2.84-.87c.48-.16.81.13.81.61v1.48c1.68-1.58,4.45-3,6.94-1.58,1.26.71,1.87,2.1,1.87,3.65v8.49c0,1,.36,1.23,1.78,1.23.42,0,.61.19.61.58.03.35-.16.65-.52.65Z"/>
        <path class="cls-1" d="m915.86,141.54c-6.2,0-6.68-6.03-6.68-7.84,0-3.16,1.71-7.78,5.91-7.78h.65c3.58,0,5.84,3.52,5.84,6.71,0,.35-.26.65-.65.65h-9.39c-.1,3.26,1.19,6.94,5.13,6.94,1.68,0,3.32-1.19,3.97-2.19.23-.29.61-.42.9-.19.26.16.36.55.19.84-.84,1.42-3.1,2.87-5.87,2.87Zm3.39-9.49c0-2.84-1.52-5.03-4.13-4.87-2.39.16-3.32,2.84-3.49,4.87h7.62Z"/>
        <path class="cls-1" d="m934.9,128.44c-.55-.29-1-.55-1.74-.06-.58.42-1.87,1.71-2.65,3v7.29c0,.81.45,1.19,2.55,1.19.36,0,.61.29.61.65,0,.39-.19.58-.61.58h-6.58c-.36,0-.58-.29-.58-.65s.29-.58.65-.58c1.39,0,1.94-.32,1.94-1.19v-9c0-1.45-.03-1.45-1.87-1.45-.81,0-.94-1-.19-1.23l3.29-1c.42-.13.81.16.81.58v2.68c1.23-1.39,3.13-3.36,5.1-3.36.94,0,1.68.65,1.68,1.42,0,1.55-1.36,1.65-2.39,1.13Z"/>
        <path class="cls-1" d="m954.27,127.53c-.55,0-.97.13-1.23.42-.23.26-.52.84-.87,1.74-1.55,4.03-4.39,11.81-6.36,15.94-.77,1.65-2.03,2.55-4.1,2.55-.61,0-1.13-.16-1.52-.48-.36-.29-.55-.65-.55-1.03,0-.81.42-1.23,1.23-1.23.26,0,.58.16,1.19.52s1,.52,1.23.52c.71,0,2.45-3.55,3.49-6.58l-5.03-10.94c-.26-.58-.48-.94-.61-1.06-.23-.23-.61-.35-1.1-.35-.39,0-.58-.19-.58-.58,0-.42.19-.65.58-.65h5.33c.42,0,.61.23.61.65,0,.39-.19.58-.61.58-1,0-1.52.19-1.52.58,0,.16.03.32.13.48l3.91,8.68,2.97-8.04c.16-.42.29-.71.29-.94,0-.52-.58-.77-1.74-.77-.42,0-.61-.19-.61-.58,0-.42.19-.65.61-.65h4.87c.39,0,.58.23.58.65,0,.39-.19.58-.58.58Z"/>
      </g>
    </g>
  </g>
</svg>