<?xml version="1.0" encoding="UTF-8"?>
<svg id="_レイヤー_2" data-name="レイヤー 2" xmlns="http://www.w3.org/2000/svg" viewBox="0 0 285.28 315.18">
  <defs>
    <style>
      .cls-1 {
        fill: #fff;
        stroke-width: 0px;
      }

      .cls-2 {
        fill: none;
        stroke: #fff;
        stroke-miterlimit: 10;
        stroke-width: 1px;
      }
    </style>
  </defs>
  <g id="_レイヤー_1-2" data-name="レイヤー 1">
    <g>
      <g>
        <path class="cls-2" d="m48.58,51.01H2.02c-.68,0-1.19-.51-1.19-1.19s.51-1.24,1.19-1.24h16.56c-.85-.57-1.19-1.64-.79-2.6-.23-.57-1.02-2.26-1.19-2.66-.11-.23-.17-.57-.06-.85h-2.49c-.45,2.37-3.96,2.03-3.96-.4v-8.76c0-2.03,2.6-2.71,3.67-1.07h24.81c1.07-1.64,3.73-.96,3.73,1.07v8.02c0,2.03-2.66,2.77-3.73,1.13h-3.67c1.41,1.36.68,3.73-1.3,3.96-.51.79-1.19,1.58-1.7,2.2h14.63c.11-1.13,1.02-1.98,2.15-1.98,1.19,0,2.2.96,2.2,2.15,0,1.3-1.07,2.2-2.32,2.2Zm-.68-22.32H2.59c-.68,0-1.19-.51-1.19-1.19s.51-1.19,1.19-1.19h43.23c.11-1.13,1.02-1.98,2.15-1.98,1.19,0,2.2.96,2.2,2.15s-1.02,2.2-2.26,2.2Zm-4.18-7.12c0,2.03-2.71,2.66-3.62.9H12.08c-.56,2.15-3.73,1.69-3.73-.51v-13.96c0-1.92,2.49-2.6,3.5-1.07h7.29V2.36c0-1.02.79-1.87,1.81-1.87s1.86.85,1.86,1.87v4.58h6.55V2.36c0-1.02.79-1.87,1.81-1.87s1.81.85,1.81,1.87v4.58h7.23c1.02-1.53,3.5-.85,3.5,1.07v13.56ZM12.14,13.49h7.01v-4.35h-7.01v4.35Zm0,6.78h7.01v-4.58h-7.01v4.58Zm1.98,20h24.18v-5.76H14.12v5.76Zm4.63,2.2c2.26,1.41,3.16,3.11,3.28,4.18.06.85-.34,1.53-.96,1.98h8.7l1.36-5.31c.11-.34.34-.62.56-.85h-12.94Zm4.07-28.99h6.55v-4.35h-6.55v4.35Zm0,6.78h6.55v-4.58h-6.55v4.58Zm10.17-6.78h6.95v-4.35h-6.95v4.35Zm0,6.78h6.95v-4.58h-6.95v4.58Z"/>
        <path class="cls-2" d="m76.39,43.16c-2.03.4-5.14-.34-8.02-5.2-1.36,2.43-2.6,4.58-3.67,6.16-.28.62-.96,1.02-1.64,1.02-1.64,0-2.54-2.03-1.36-3.22,4.52-6.33,8.7-14.01,11.3-20.51-5.71,1.07-9.55,2.03-11.98-3.62-.68-1.64,1.36-2.32,2.09-.85.57,1.47,2.77,1.92,11.02,1.19.96-3.33,1.36-5.93.73-7.68-.28-.85-.73-1.36-1.47-1.64-1.36-.45-1.02-2.09.34-2.09,2.32.06,3.45,1.19,3.96,2.15,1.07,1.98.85,5.14-.23,8.93.9-.17,1.92-.17,2.99-.34,1.24-.17,2.26.17,2.99.9,1.64,1.64,2.09,5.2,1.36,12.04-.56,5.71-3.79,11.92-8.42,12.77Zm4.24-22.94c-.62-.45-3.22.34-4.12.51-1.75,4.92-4.29,10.17-6.84,14.86,1.53,2.15,3.56,4.18,5.88,3.73,3.16-.62,5.71-5.65,6.22-9.66.68-5.59-.17-8.53-1.13-9.44Zm12.43,15.93c-1.58,0-1.69-2.03-.06-2.2,3.39-.28,5.48-1.13,5.88-2.43.62-2.03-2.26-5.82-7.85-10.4-1.19-.96-.11-2.6,1.24-1.81,7.74,4.46,11.64,8.98,10.74,12.6-.51,1.92-2.71,4.24-9.94,4.24Z"/>
        <path class="cls-2" d="m134.02,15.25c-2.71,9.15-9.1,16.05-13.73,20.68-1.02,1.36-3.28.57-3.28-1.19,0-.85.51-1.47,1.19-1.75,7.4-7.63,10.96-13.79,12.49-17.57-5.65,0-9.1-1.13-11.64-3.56-1.19-1.13.4-2.54,1.58-1.58,2.37,1.92,5.48,2.03,11.13,1.58.06-.62.11-1.19.06-1.7-.96-1.07-1.81-2.37-2.26-3.67-.28-.9.34-1.75,1.41-1.41,1.3.45,2.71,1.64,3.33,3.84.62,1.3,2.15,2.2,3.67,2.54,2.03.51,1.64,2.94.17,3.33-.73.23-3.16.45-4.12.45Zm18.42,29.21c-.96,0-1.58-.45-1.86-1.3-1.36-1.3-4.01-3.33-6.44-4.52-.11,3.5-.85,5.93-2.2,7.29-1.81,1.75-4.24,1.53-6.67.85-2.26-.62-5.14-2.83-5.54-5.48-.45-2.88,1.81-4.86,5.93-6.27,1.53-.51,3.62-.73,4.97-.56-.28-8.08-.23-12.66,2.6-16.5.96-1.36,2.77-2.66,3.67-3.05-1.36-.4-2.83-.45-3.96-.34-1.53.11-1.81-1.86-.34-2.26,3.67-1.07,10.34-.4,10.96,3.33.28,1.81-1.58,2.32-2.66,1.86-2.2-.96-4.46-.23-5.76,1.81-2.43,3.9-1.53,7.97-1.07,15.88,4.24,1.36,8.14,4.18,9.72,5.88,1.19,1.24.56,3.39-1.36,3.39Zm-19.04-3.28c.34,2.54,3.79,4.92,5.65,3.05,1.13-1.07,1.53-3.5,1.53-6.89-2.49-.57-7.57.68-7.18,3.84Z"/>
        <path class="cls-2" d="m172.33,36.38c-1.02,4.69-3.05,9.49-4.58,12.15-.73,1.24-2.09.62-1.81-.51,1.19-4.46,2.26-10.74,2.54-13.84.23-2.26,3.16-3.22,4.52-1.24.79,1.19.56,2.71-.68,3.45Zm11.75-6.78c-1.24-.28-1.86-1.47-1.53-2.66l-.17-.51c-.68.28-2.71.9-3.28,1.07l.06,23.34c0,1.02-.9,1.86-1.92,1.86s-1.86-.85-1.86-1.86v-22.71c-2.09.45-3.84.85-4.92,1.02-.85,1.19-2.26,1.64-3.45.68-1.7-1.36-.96-4.29,2.09-4.18.9.06,2.6-.06,4.63-.17-.06-.23-.06-.45.06-.68,2.09-3.62,5.93-12.09,6.78-14.58.51-1.13,1.3-1.92,2.66-1.75,1.36.17,2.26,1.36,2.09,2.71-.11,1.02-.79,1.75-1.7,2.03-1.69,3.39-4.75,8.25-7.97,12.15,1.87-.11,3.96-.28,5.99-.51-.34-.68-.9-1.7-1.19-2.15-.51-.85.17-1.81,1.07-1.41,3.28,1.58,5.59,4.69,5.08,6.72-.28,1.13-1.41,1.86-2.54,1.58Zm-6.5-23.34c-.62,1.07-4.58,7.35-5.48,8.02,1.58,1.19,2.37,2.54,2.43,3.45.11,1.19-.62,2.2-1.75,2.37-1.41.23-2.54-.96-2.43-2.32-.85-1.3-2.15-2.99-2.88-3.96-.68-.9.11-1.75.96-1.47.85.28,1.7.68,2.37,1.07,1.24-3.16,2.88-7.51,3.67-10.28.62-2.15,3.28-2.37,4.46-.79,1.07,1.41.34,3.45-1.36,3.9Zm7.29,34.41c-1.19-.28-1.86-1.41-1.53-2.6-.51-1.19-1.81-3.56-2.6-4.69-.62-.9.11-1.81,1.07-1.41,3.39,1.41,6.21,4.86,5.59,7.12-.28,1.13-1.41,1.87-2.54,1.58Zm33.17,5.82c-.45-.23-.9-.51-1.36-.79-.06,2.32-2.37,2.71-3.67,1.7-4.18-3.39-7.68-10.17-10.28-18.87v21.58c0,1.41-1.13,2.37-2.37,2.37-1.81,0-2.88-1.92-2.03-3.45h-1.98c-.51,0-.9-.4-.9-.9s.4-.96.9-.96h2.6v-25.03h-12.2c-.68,0-1.19-.51-1.19-1.19s.51-1.19,1.19-1.19h19.27v-5.93h-13.5c-.68,0-1.13-.51-1.13-1.19s.45-1.19,1.13-1.19h13.5v-5.59h-14.58c-.68,0-1.19-.51-1.19-1.19s.51-1.24,1.19-1.24h14.75c.9-1.81,3.62-1.19,3.62.85v15.48h4.24c.11-1.07,1.07-1.92,2.15-1.92,1.19,0,2.15.96,2.15,2.15s-.96,2.15-2.15,2.15h-13.33c.56,2.54,1.92,6.39,3.79,9.83,1.36-1.75,3.11-4.07,4.46-6.1,1.3-1.98,4.52-1.02,4.52,1.47,0,1.58-1.24,2.54-2.77,2.49,0,0-3.79,2.71-5.54,3.56,2.49,4.18,6.22,8.59,11.58,11.53.45.23.62.79.4,1.24-.23.45-.79.56-1.24.34Zm-27.8-1.53c-.23,1.36-1.53,2.09-2.83,1.81-2.15-.51-2.49-3.45-.62-4.35,2.26-1.13,6.67-3.5,9.44-5.2.85-.51,2.03.51,1.02,1.58-2.66,2.83-5.03,4.69-7.01,6.16Zm3.22-11.19c-1.41.06-2.37-1.36-2.03-2.66-.45-.85-1.47-2.6-2.03-3.56-.68-1.13.4-1.75,1.13-1.41,3.22,1.53,4.97,3.5,5.03,5.48,0,1.13-.9,2.15-2.09,2.15Z"/>
        <path class="cls-2" d="m255.4,45.36c-2.37,1.19-9.04,1.58-14.58,1.13-4.75-.4-8.25-2.49-9.44-5.82-1.07-2.88,0-6.05,2.88-8.93,1.98-1.98,4.41-3.73,6.84-5.25-.17-1.07-.17-2.2-.23-3.73-.28-8.59-.96-13.73-3.96-15.76-1.13-.79-.45-2.37.96-2.09,6.84,1.53,6.78,10.23,6.05,19.89,3.45-1.98,6.44-3.28,7.74-3.9,1.3-1.02,3.33-.23,3.33,1.58,0,.85-.4,1.47-1.19,1.86-1.13.62-2.26.96-3.22,1.36-3.79,1.64-10.23,4.92-14.3,8.25-2.26,1.86-3.05,3.62-2.43,5.37.73,2.2,3.67,3.62,7.29,3.62,4.29,0,8.87-.45,12.26-1.07,1.3-.85,3.16-.11,3.16,1.64,0,.85-.4,1.47-1.19,1.87Z"/>
        <path class="cls-2" d="m19.82,127.15c-4.07,4.12-11.02,8.48-17.29,10.91-1.13.45-1.86-.85-.85-1.58,6.05-4.29,12.49-9.55,15.88-13.45,1.53-1.75,4.35-.96,4.58,1.36.11,1.36-.73,2.6-2.32,2.77Zm27.97-7.06H2.65c-.68,0-1.19-.51-1.19-1.19s.51-1.3,1.19-1.3h13.45v-14.52H4.57c-.68,0-1.19-.51-1.19-1.19s.51-1.3,1.19-1.3h11.47v-10.96c0-1.13.96-2.03,2.09-2.03s1.98.9,1.98,2.03v11.07h10.51v-11.07c0-1.13.9-2.03,2.03-2.03s2.03.9,2.03,2.03v11.07h8.08c.06-1.19,1.02-2.15,2.2-2.15s2.26,1.02,2.26,2.26c0,1.36-1.02,2.26-2.32,2.26h-10.23v14.63h10.91c.06-1.19,1.07-2.15,2.26-2.15s2.26,1.02,2.26,2.26-.9,2.26-2.32,2.26Zm-27.69-2.37h10.57v-14.63h-10.57v14.63Zm24.41,20.12c-1.64.34-3.16-1.02-3.05-2.6-2.82-3.62-7.06-7.57-10.68-10.96-.9-.85-.23-2.03.96-1.53,7.18,3,12.49,7.46,14.41,11.3.73,1.47.17,3.39-1.64,3.79Z"/>
        <path class="cls-2" d="m70.62,131.05c.17,1.58-1.19,2.09-2.09.74-5.59-8.48-3.79-17.86-2.6-24.92.62-3.67,1.19-6.84.45-8.48-.56-1.3.79-2.37,1.86-1.3,3.05,3.05,2.09,6.78.85,11.53-1.24,4.58-2.54,9.55-.73,14.97.45-1.98.9-3.96,1.64-5.82.57-1.53,2.71-.96,2.2.73-1.24,4.07-2.03,8.25-1.58,12.54Zm25.65-2.6c-6.89.17-13.56-1.13-16.73-5.03-1.64-1.98-1.92-4.52-1.07-7.46,1.81-6.05,4.92-9.55,7.8-11.53-2.43-.45-4.8-1.19-6.55-2.49-1.24-.9-.34-2.49,1.07-1.98,3.45,1.3,9.77,1.58,11.92,1.75,1.19-.51,2.54.34,2.54,1.64s-.9,1.7-2.03,1.87c-4.69.28-9.78,3.28-12.32,11.13-.56,1.75-.4,3.22.45,4.41,1.98,2.6,7.57,4.07,14.24,4.07,1.3-.62,2.71.34,2.71,1.75,0,1.13-.9,1.86-2.03,1.86Z"/>
        <path class="cls-2" d="m161.88,127.04c-.57-.06-1.07-.17-1.58-.28.73,1.58-.4,3.05-2.37,2.49-3.73-1.02-6.67-2.66-8.93-4.35v12.2c0,2.37-3.56,2.6-3.84.23h-16.95c0,1.13-.73,2.03-1.92,2.03-1.07,0-1.92-.85-1.92-1.92v-12.15c-4.8,3.56-9.21,5.71-12.2,6.5-1.13.28-1.64-1.13-.62-1.7,5.03-2.77,10.62-6.78,15.37-11.58h-14.29c-.68,0-1.24-.57-1.24-1.24s.51-1.19,1.19-1.19h16.27c1.19-1.36,2.32-2.77,3.28-4.24h-7.35c-.73,2.09-3.84,1.58-3.84-.62v-10.85c0-1.98,2.6-2.71,3.62-1.07h24.07c1.02-1.64,3.62-.9,3.62,1.07v10.45c0,2.03-2.66,2.71-3.67,1.02h-12.26c.68,1.3.11,2.94-1.47,3.22l-.85,1.02h22.71c.06-1.13,1.02-1.98,2.15-1.98,1.19,0,2.15.9,2.15,2.09,0,1.07-1.07,2.26-2.2,2.26h-12.71c3.22,3.39,7.68,5.54,14.07,6.5.68.11,1.36.23,2.03.28.51.06.79.51.73,1.02-.06.51-.51.85-1.02.79Zm-4.24-32.32h-13.45v1.64c0,1.02-.85,1.92-1.86,1.92-1.24,0-1.87-.96-1.87-1.92v-1.64h-9.49v1.53c0,1.02-.85,1.86-1.86,1.86s-1.92-.85-1.92-1.86v-1.53h-13.56c-.68,0-1.19-.51-1.19-1.19s.51-1.24,1.19-1.24h13.56v-3.28c0-1.02.9-1.92,1.92-1.92,1.19,0,1.86.9,1.86,1.92v3.33h9.49v-3.11c0-1.02.85-1.87,1.87-1.87s1.86.85,1.86,1.87v3.11h11.47c.11-1.07,1.07-1.87,2.15-1.87,1.19,0,2.15.96,2.15,2.15,0,1.02-.85,2.09-2.32,2.09Zm-32.77,9.72h23.39v-2.94h-23.39v2.94Zm0,5.2h23.39v-3.05h-23.39v3.05Zm3.33,18.82h16.95v-4.46h-16.95v4.46Zm0,6.72h16.95v-4.52h-16.95v4.52Zm17.4-13.39c-.9-1.07-1.75-2.37-2.26-3.33h-11.3c-1.13,1.24-2.37,2.32-3.45,3.33h17.01Z"/>
        <path class="cls-2" d="m178.83,134.61c-1.81-.06-1.81-2.32,0-2.32,6.44,0,16.1-3.05,19.04-7.68,1.13-1.75,1.07-3.62.06-5.71-.79-1.64-1.86-2.54-3.16-2.83-3.84-.9-9.61,3.73-12.26,5.88-1.81,1.47-2.37,1.92-3.22,1.3-1.53-1.07-1.87-6.05-1.64-15.82.11-5.59,4.92-7.57,8.08-8.81,1.07-.4,2.94-1.07,2.94-1.58,0-.45-.34-1.36-4.46-4.41-1.19-.9-.34-2.49,1.02-2.03,2.66.9,5.37,2.54,6.84,4.35,2.49,2.94.34,4.12-3.56,5.48-4.12,1.41-7.29,2.88-7.29,7.34,0,3.62-.11,7.46.06,11.08,5.99-4.07,14.52-8.98,19.72-2.15,2.71,3.56,2.03,6.72,1.02,8.65-2.88,5.59-12.83,9.49-23.17,9.27Z"/>
        <path class="cls-2" d="m258.56,103.98c-4.52-.51-8.76-.34-12.6.17-.17,2.43-.28,5.37-.11,8.7.4.73.73,1.64.9,2.71.9,6.33-1.19,14.86-15.2,17.29-1.75.28-2.2-1.92-.45-2.32,6.5-1.58,9.61-4.46,11.13-7.85-1.64,0-3.56-1.41-5.76-4.24-1.75-2.2-2.03-4.46-.9-6.27,1.53-2.32,4.52-2.94,7.12-2.03-.06-1.98-.11-3.9-.11-5.42-2.43.4-4.63.96-6.5,1.41-4.8,1.19-8.36,2.03-10.62.57-1.07-.73-1.81-1.92-2.15-3.56-.23-1.3.96-1.92,1.92-1.07,3.16,2.71,6.27,1.92,11.87.56,1.58-.4,3.5-.79,5.54-1.19.17-3.79.85-7.06-1.75-7.97-1.41-.45-1.13-2.26.4-2.26,1.81.06,3.11.56,3.96,1.47,1.53,1.64,1.3,4.24,1.02,8.14,3.62-.62,7.8-.96,12.77-.79,1.13.06,1.98.85,1.98,2.03-.06,1.36-1.13,2.09-2.43,1.92Zm-20.51,9.04c-.68.85-.23,1.98.23,2.71,1.3,2.09,2.71,2.99,3.16,2.83.85-.23,1.24-1.36,1.24-4.75-.9-1.81-3.45-2.32-4.63-.79Z"/>
        <path class="cls-2" d="m49.94,216.68c-.56-.17-1.36-.45-1.92-.68.62,2.03-1.02,3.5-2.83,2.66-7.68-3.62-13.73-9.83-17.57-17.18v22.43c0,1.13-.85,2.03-1.98,2.03s-2.03-.9-2.03-2.03v-20.51c-5.14,7.23-12.83,13.5-20.68,16.89-1.07.45-1.92-.85-.96-1.53,7.46-5.25,15.09-12.88,19.49-19.83H1.69c-.68,0-1.19-.51-1.19-1.19s.51-1.3,1.19-1.3h21.87v-10.11H7.11c-.68,0-1.3-.62-1.3-1.3s.62-1.3,1.3-1.3h16.33v-8.36c0-1.13,1.07-2.03,2.2-2.03s2.03.9,2.03,2.03v8.42h11.64c.17-1.07,1.07-1.98,2.2-1.98,1.24,0,2.26,1.02,2.26,2.26s-1.02,2.26-2.26,2.26h-13.84v10.17h17.63c0-1.3,1.07-2.32,2.37-2.32s2.37,1.07,2.37,2.37-1.13,2.37-2.43,2.37h-19.04c4.07,6.5,11.58,12.66,21.92,16.05.45.17.73.68.57,1.13s-.68.73-1.13.56Z"/>
        <path class="cls-2" d="m106.73,216.4c-.79-.11-1.53-.23-2.26-.4.62,2.2-1.36,3.62-3.28,2.83-9.44-3.9-14.58-10.79-17.01-14.92v18.93c0,1.07-.9,1.98-1.98,1.98s-1.98-.9-1.98-1.98v-18.25c-5.31,8.08-14.8,13.96-20.23,16.1-1.24.51-2.03-.9-.9-1.64,5.37-3.39,12.71-9.66,18.65-18.25h-18.87c-.68,0-1.19-.51-1.19-1.19s.51-1.24,1.19-1.24h21.3v-14.46h-17.63c-.68,0-1.24-.57-1.24-1.24s.56-1.19,1.24-1.19h17.57v-5.93c0-1.07,1.02-2.03,2.09-2.03s2.03.96,2.03,2.03v5.93h13.33c.11-1.19,1.07-2.09,2.26-2.09s2.2,1.02,2.2,2.26c0,1.36-1.07,2.26-2.26,2.26h-15.59v14.46h4.52c-.17-.28-.17-.62.06-.96.79-1.19,4.97-7.97,5.99-9.89,1.07-1.92,3.56-1.98,4.52-.34.9,1.53-.06,3.5-1.75,3.73-1.58,1.81-5.54,5.82-7.23,7.46h11.87c.11-1.19,1.02-2.03,2.2-2.03s2.26.96,2.26,2.2-.96,2.26-2.32,2.26h-19.49c2.03,3.05,8.87,11.7,22.21,13.79.51.06.79.56.73,1.07s-.51.79-1.02.73Zm-35.6-19.1c-1.58.11-2.77-1.3-2.43-2.83-.73-1.58-2.49-4.92-3.56-6.61-.62-1.02.4-1.86,1.3-1.3,4.24,2.71,6.55,5.88,6.78,8.25.11,1.24-.79,2.37-2.09,2.49Z"/>
        <path class="cls-2" d="m151.76,193c-4.52,3.79-13.28,9.55-16.89,11.98.23,2.54.06,4.97-.11,6.27.4,1.19-.4,2.43-1.7,2.43-.96,0-1.7-.73-1.86-1.64.17-1.64.34-3.28.34-4.92-.85.62-1.75,1.13-2.71,1.75-1.24.79-3.22,2.26-2.88,3.67.4,1.69,3.84,3.33,6.78,3.62,4.18.45,9.89-.4,12.88-1.02,1.19-.51,2.54.4,2.54,1.7,0,.96-.68,1.7-1.58,1.86-4.07.74-9.89,1.41-14.46.79-3.11-.45-7.97-2.32-8.81-5.82-.62-2.43.79-4.75,4.12-7.18l3.95-2.88c-.23-1.81-.62-3.73-1.81-4.35-1.3-.62-2.66-.34-3.5.56l-1.81,3.33c-.28.73-.85,1.13-1.64,1.13-1.7,0-2.43-2.15-1.13-3.16.4-.62.73-1.13,1.24-1.75,2.94-4.8,4.63-8.59,5.54-11.53-2.66-.4-4.29-1.75-6.5-4.46-1.19-1.02.51-2.77,1.81-1.47,1.07,1.07,3.22,2.49,5.54,2.54.17-.74.34-2.66.11-3.39-.28-.34-.4-.68-.4-1.07,0-1.53,1.75-2.15,2.88-1.13.85.85,1.13,2.03.96,3.22-.06,1.13,1.02,1.75,1.86,1.7,2.15-.17,2.83,3,.28,3.62-1.07.28-2.2.4-3.33.45-.85,2.54-2.03,5.48-3.79,8.87,3.62-.4,5.59,1.41,6.55,4.8,3.33-2.43,10.68-7.8,14.29-10.85.9-1.98,3.9-1.47,3.9.79,0,.68-.23,1.19-.68,1.53Z"/>
        <path class="cls-2" d="m193.07,186.9c-1.24.34-2.54-.51-2.77-1.81-1.53-1.75-7.06-6.33-9.49-7.57-4.52,6.16-11.47,11.87-16.27,14.13-.96.45-1.81-.85-.96-1.53,4.63-3.96,11.13-10.34,14.41-15.93.74-1.19,2.37-1.47,3.5-.62.79.62,1.19,1.64.9,2.66,6.55,2.15,11.08,5.14,12.04,7.51.57,1.3.17,2.71-1.36,3.17Zm-1.81,19.04c0,2.03-2.71,2.54-3.56.73h-14.35c-1.07,7.01-3.79,11.47-8.25,14.35-.96.62-1.92-.62-1.19-1.47,4.86-5.54,5.99-11.53,5.99-21.08v-4.63c0-2.09,2.82-2.88,3.9-1.02h14.18c1.13-1.3,3.28-.51,3.28,1.24v11.87Zm.4,16.61c0,1.19-.96,1.86-1.92,1.86-.85,0-1.81-.79-1.81-1.98h-11.92c0,1.13-.68,2.15-1.92,2.15-1.02,0-1.86-.9-1.86-1.92v-10.17c0-1.87,2.37-2.54,3.39-1.07h12.54c1.07-1.53,3.5-.85,3.5,1.07v10.06Zm-4.69-33.51h-13c-.68,0-1.19-.51-1.19-1.19s.51-1.13,1.19-1.13h11.02c.11-1.02.96-1.81,2.03-1.81,1.13,0,2.09.96,2.09,2.09,0,1.19-1.02,2.03-2.15,2.03Zm.57,15.43v-3.79h-13.79c0,1.19,0,2.49-.11,3.79h13.9Zm-13.79-5.88h13.79v-3.56h-13.79v3.56Zm2.26,21.7h11.87v-6.72h-11.87v6.72Zm24.97-9.15c0,1.07-.9,1.92-1.98,1.92s-1.92-.85-1.92-1.92v-30.91c0-1.07.85-1.92,1.92-1.92s1.98.85,1.98,1.92v30.91Zm10.79,10.4c0,1.36-1.13,2.6-2.54,2.6-1.87,0-3.05-2.03-2.2-3.62h-2.2c-.51,0-.9-.4-.9-.9s.4-.9.9-.9h2.99v-42.26c0-1.07.85-1.98,1.92-1.98s2.03.9,2.03,1.98v45.09Z"/>
        <path class="cls-2" d="m239.86,218.66c-3.79-.28-5.08-2.32-5.31-4.12-.28-1.92.51-4.29,3.67-5.48,2.49-.9,5.93.68,8.36,5.14,1.87-.96,2.88-2.2,3.62-3.62,2.88-5.59-.79-11.41-6.95-11.58-2.66-.06-5.14.62-7.12,2.6-1.19,1.47-4.07,5.2-5.65,7.12-1.13,1.41-3.33.79-3.33-1.07,0-.85.34-1.41,1.02-1.7,2.43-2.88,12.26-14.8,16.05-18.82.62-.68,1.07-1.3.85-1.53-1.02-.45-3.16,1.07-3.96,1.7-1.47,1.19-3.22,2.43-5.2,2.15-1.36-.23-2.6-1.19-3.67-2.83-1.02-1.47.85-2.77,1.92-1.41,1.07,1.41,3.33.45,6.5-1.13,2.77-1.36,6.22-2.71,7.85-.23.9,1.3.34,3.16-1.3,4.92-2.09,2.2-4.63,5.08-7.06,7.97,4.41-1.19,9.21-.51,12.26,3.28,2.66,3.28,3,8.48.9,12.37-2.43,4.52-7.29,6.72-13.45,6.27Zm-1.41-6.95c-.85.28-1.47,1.19-1.3,1.86.4,1.75,2.37,2.09,5.93,1.64-1.75-3.11-3.5-3.84-4.63-3.5Z"/>
        <path class="cls-2" d="m277.89,221.54c-3.79,0-6.84-3.05-6.84-6.84s3.05-6.84,6.84-6.84,6.89,3.05,6.89,6.84-3.05,6.84-6.89,6.84Zm0-11.81c-2.71,0-4.97,2.2-4.97,4.97s2.26,5.03,4.97,5.03,5.03-2.26,5.03-5.03-2.26-4.97-5.03-4.97Z"/>
      </g>
      <g>
        <path class="cls-1" d="m7.97,281.47c-2.58-.41-4.29-2.72-4.36-6.14-.07-3.51,1.55-5.91,4.14-6.54,1.51-.36,2.81.04,3.89.67.2.13.32-.09.27-.22-.05-.2.05-.36.22-.41.22-.05.36.02.43.22l.88,2.47c.09.23-.05.41-.2.47-.14.05-.32.02-.45-.18-.83-1.39-2.34-2.63-4.41-2.41-2.21.22-3.64,2.93-3.29,6.39.27,2.81,1.57,4.59,3.67,4.86,1.73.23,3.57-.92,4.29-2.68.09-.23.29-.29.49-.2.16.09.22.25.14.45-.86,2.29-3.31,3.66-5.71,3.26Z"/>
        <path class="cls-1" d="m21.38,274.16c-.31-.16-.56-.31-.97-.04-.32.23-1.04.95-1.48,1.67v4.07c0,.45.25.67,1.42.67.2,0,.34.16.34.36,0,.22-.11.32-.34.32h-3.67c-.2,0-.32-.16-.32-.36s.16-.32.36-.32c.77,0,1.08-.18,1.08-.67v-5.02c0-.81-.02-.81-1.04-.81-.45,0-.52-.56-.11-.68l1.84-.56c.23-.07.45.09.45.32v1.49c.68-.77,1.75-1.87,2.84-1.87.52,0,.94.36.94.79,0,.86-.76.92-1.33.63Z"/>
        <path class="cls-1" d="m28.71,281.47c-3.46,0-3.73-3.37-3.73-4.38,0-1.76.95-4.34,3.29-4.34h.36c2,0,3.26,1.96,3.26,3.75,0,.2-.14.36-.36.36h-5.24c-.05,1.82.67,3.87,2.86,3.87.94,0,1.86-.67,2.21-1.22.13-.16.34-.23.5-.11.14.09.2.31.11.47-.47.79-1.73,1.6-3.28,1.6Zm1.89-5.29c0-1.58-.85-2.81-2.3-2.72-1.33.09-1.85,1.58-1.94,2.72h4.25Z"/>
        <path class="cls-1" d="m42.14,280.94c-.63.43-1.26.5-1.71.25-.34-.2-.52-.52-.58-1.01-.74.59-1.8,1.19-2.72,1.19-.81,0-2.23-.41-2.23-1.93,0-2.21,3.91-3.13,4.92-3.35v-.95c0-.72-.45-1.71-1.49-1.71-.95,0-1.53.47-1.53.92,0,.7-.43,1.01-.88,1.01-.29,0-.79-.23-.74-.88.09-1.1,1.93-1.73,3.1-1.73h.25c1.15,0,2.47.77,2.47,2.27v4.46c0,.92.31,1.15.81.86.18-.09.34-.05.49.13.09.14.02.34-.14.47Zm-2.32-4.14c-1.39.34-3.62,1.24-3.62,2.61,0,.95.77,1.04,1.22,1.08.74.07,1.53-.34,2.39-1.19v-2.5Z"/>
        <path class="cls-1" d="m46.9,281.38c-.67-.22-1.12-.76-1.12-1.67v-6.05h-.86c-.43,0-.56-.59-.07-.68.67-.14,1.42-.88,1.42-2.39,0-.23.11-.34.34-.34s.34.11.34.34v2.39h2.27c.23,0,.34.11.34.34s-.11.34-.34.34h-2.27v5.47c0,1.04.14,1.3.67,1.46.63.18,1.48-.29,1.71-.58.13-.16.34-.22.49-.09.2.13.16.29.07.49-.43.61-1.96,1.3-2.99.97Z"/>
        <path class="cls-1" d="m55.51,281.2h-2.86c-.2-.05-.31-.18-.31-.38.02-.2.14-.31.34-.31.58,0,.77-.16.77-.68v-5.04c0-.97.02-1.01-.77-1.01-.45,0-.52-.54-.09-.67l1.58-.49c.23-.07.43.07.43.34v6.93c0,.38.18.61.9.61.23,0,.34.11.34.34s-.11.34-.34.34Zm-1.51-10.7c-.49,0-.88-.38-.88-.86s.4-.88.88-.88.88.4.88.88-.4.86-.88.86Z"/>
        <path class="cls-1" d="m66.56,281.2h-3.22c-.23,0-.34-.11-.34-.34s.11-.34.34-.34c.94,0,1.01-.09,1.01-.85v-3.89c0-1.58-.43-2.18-1.51-2.18-.77,0-1.85.83-2.23,1.35v5.01c0,.49.13.56.9.56.23,0,.34.11.34.34s-.11.34-.34.34h-2.84c-.2,0-.34-.16-.34-.36.02-.22.14-.32.36-.32.56,0,.76-.2.76-.61v-4.95c0-.86.02-1.03-.76-1.03-.49,0-.54-.54-.11-.67l1.58-.49c.27-.09.45.07.45.34v.83c.94-.88,2.49-1.67,3.87-.88.7.4,1.04,1.17,1.04,2.04v4.74c0,.56.2.68.99.68.23,0,.34.11.34.32.02.2-.09.36-.29.36Z"/>
        <path class="cls-1" d="m77.15,274.3c-.68.13-1.01-.68-1.22-.52l-.09.07c-.05.05-.13.11-.25.2.41.5.68,1.12.68,1.82,0,1.73-1.66,2.93-3.2,2.93-.41,0-.79-.09-1.21-.23-.5.2-.63.63-.63.9,0,.5.85.68,2.21.81,1.6.14,3.58.68,3.58,2.23,0,1.8-1.49,2.88-4.25,2.88-2.02,0-3.51-.97-3.51-2.38,0-.77.94-1.64,1.8-1.98-1.69-.49-1.22-2.18.05-2.84-.74-.52-1.24-1.3-1.24-2.38,0-1.85,1.73-2.92,2.88-3.01.85-.07,1.69.25,2.32.76.29-.23.95-.79,1.53-.88.43-.05.79.13.94.36.34.56-.02,1.19-.4,1.26Zm-4.5,6.99c-.65.09-2.25.77-2.25,1.67,0,1.15,1.31,1.67,2.29,1.67,1.95,0,3.19-.83,3.19-1.98,0-.92-2.14-1.28-3.22-1.37Zm.36-7.8c-.77,0-1.84.72-1.84,2.32,0,1.22.54,2.3,1.89,2.3,1.15,0,1.93-.88,1.93-2.25,0-1.19-.67-2.38-1.98-2.38Z"/>
        <path class="cls-1" d="m92.41,280.94c-.63.43-1.26.5-1.71.25-.34-.2-.52-.52-.58-1.01-.74.59-1.8,1.19-2.72,1.19-.81,0-2.23-.41-2.23-1.93,0-2.21,3.91-3.13,4.92-3.35v-.95c0-.72-.45-1.71-1.49-1.71-.95,0-1.53.47-1.53.92,0,.7-.43,1.01-.88,1.01-.29,0-.79-.23-.74-.88.09-1.1,1.93-1.73,3.1-1.73h.25c1.15,0,2.47.77,2.47,2.27v4.46c0,.92.31,1.15.81.86.18-.09.34-.05.49.13.09.14.02.34-.14.47Zm-2.32-4.14c-1.39.34-3.62,1.24-3.62,2.61,0,.95.77,1.04,1.22,1.08.74.07,1.53-.34,2.39-1.19v-2.5Z"/>
        <path class="cls-1" d="m110.12,271.69c.14.41-.43.68-.63.29-.81-1.58-1.66-2.27-3.03-2.27h-2.25c-1.3,0-1.3.04-1.3.92v3.98h1.98c.92,0,1.44-.45,1.44-1.67,0-.23.11-.34.34-.34s.34.11.34.34v4.07c0,.23-.11.34-.34.34s-.34-.11-.34-.34c0-1.22-.45-1.71-1.4-1.71h-2.02v4.34c0,.77.9.92,1.62.92.23,0,.34.11.34.34s-.11.34-.34.34h-4.3c-.23,0-.34-.11-.34-.34s.11-.34.34-.34c1.03,0,1.46-.29,1.46-.92v-9c0-.63-.36-.92-1.46-.92-.23,0-.34-.11-.34-.34s.11-.34.34-.34h8.66c.16,0,.29.07.34.22l.88,2.45Z"/>
        <path class="cls-1" d="m120.97,281.2h-1.76c-.23,0-.34-.11-.34-.34v-.65c-.94.77-1.89,1.26-2.81,1.26-1.08,0-2.41-.61-2.41-2.74v-4.18c0-.81-.02-.76-.79-.76-.45,0-.54-.56-.09-.67l1.62-.4c.27-.07.43.09.43.32v5.38c0,1.85.79,2.2,1.51,2.2,1.03,0,1.91-.79,2.54-1.37v-4.75c0-.79-.18-.72-1.12-.72-.47,0-.52-.59-.07-.68l1.93-.4c.27-.05.41.11.41.34v6.95c0,.43.32.5.95.5.2,0,.36.14.36.34s-.16.34-.36.34Z"/>
        <path class="cls-1" d="m126.03,281.38c-.67-.22-1.12-.76-1.12-1.67v-6.05h-.86c-.43,0-.56-.59-.07-.68.67-.14,1.42-.88,1.42-2.39,0-.23.11-.34.34-.34s.34.11.34.34v2.39h2.27c.23,0,.34.11.34.34s-.11.34-.34.34h-2.27v5.47c0,1.04.14,1.3.67,1.46.63.18,1.48-.29,1.71-.58.13-.16.34-.22.49-.09.2.13.16.29.07.49-.43.61-1.96,1.3-2.99.97Z"/>
        <path class="cls-1" d="m139.77,281.2h-1.76c-.23,0-.34-.11-.34-.34v-.65c-.94.77-1.89,1.26-2.81,1.26-1.08,0-2.41-.61-2.41-2.74v-4.18c0-.81-.02-.76-.79-.76-.45,0-.54-.56-.09-.67l1.62-.4c.27-.07.43.09.43.32v5.38c0,1.85.79,2.2,1.51,2.2,1.03,0,1.91-.79,2.54-1.37v-4.75c0-.79-.18-.72-1.12-.72-.47,0-.52-.59-.07-.68l1.93-.4c.27-.05.41.11.41.34v6.95c0,.43.32.5.95.5.2,0,.36.14.36.34s-.16.34-.36.34Z"/>
        <path class="cls-1" d="m147.6,274.16c-.31-.16-.56-.31-.97-.04-.32.23-1.04.95-1.48,1.67v4.07c0,.45.25.67,1.42.67.2,0,.34.16.34.36,0,.22-.11.32-.34.32h-3.67c-.2,0-.32-.16-.32-.36s.16-.32.36-.32c.77,0,1.08-.18,1.08-.67v-5.02c0-.81-.02-.81-1.04-.81-.45,0-.52-.56-.11-.68l1.84-.56c.23-.07.45.09.45.32v1.49c.68-.77,1.75-1.87,2.84-1.87.52,0,.94.36.94.79,0,.86-.76.92-1.33.63Z"/>
        <path class="cls-1" d="m154.92,281.47c-3.46,0-3.73-3.37-3.73-4.38,0-1.76.95-4.34,3.29-4.34h.36c2,0,3.26,1.96,3.26,3.75,0,.2-.14.36-.36.36h-5.24c-.05,1.82.67,3.87,2.86,3.87.94,0,1.85-.67,2.21-1.22.13-.16.34-.23.5-.11.14.09.2.31.11.47-.47.79-1.73,1.6-3.28,1.6Zm1.89-5.29c0-1.58-.85-2.81-2.3-2.72-1.33.09-1.85,1.58-1.94,2.72h4.25Z"/>
        <path class="cls-1" d="m169.56,280.96c-.05.16-.16.23-.32.23h-7.87c-.23,0-.34-.11-.34-.34s.11-.34.34-.34c.99,0,1.26-.22,1.26-.92v-8.95c0-.63-.29-.94-1.3-.94-.23,0-.34-.11-.34-.34s.11-.34.34-.34h4c.23,0,.34.11.34.34s-.11.34-.34.34c-1.17,0-1.37.29-1.37.92v8.95c0,.79.13.94,1.28.94h1.51c1.37,0,2.25-.79,3.11-2.45.2-.38.77-.16.63.27l-.94,2.63Z"/>
        <path class="cls-1" d="m176.02,281.2h-2.86c-.2-.05-.31-.18-.31-.38.02-.2.14-.31.34-.31.58,0,.77-.16.77-.68v-5.04c0-.97.02-1.01-.77-1.01-.45,0-.52-.54-.09-.67l1.58-.49c.23-.07.43.07.43.34v6.93c0,.38.18.61.9.61.23,0,.34.11.34.34s-.11.34-.34.34Zm-1.51-10.7c-.49,0-.88-.38-.88-.86s.4-.88.88-.88.88.4.88.88-.4.86-.88.86Z"/>
        <path class="cls-1" d="m186.78,273.65c-.45,0-.94.23-1.3,1.22l-2.39,6.5c-.07.18-.18.27-.32.25-.13,0-.23-.07-.31-.23l-2.95-6.95c-.22-.52-.41-.79-1.06-.79-.23,0-.34-.11-.34-.32,0-.2.13-.36.32-.36h2.83c.23,0,.34.11.34.34s-.11.34-.32.34c-.63,0-.72.23-.61.5l2.3,5.58,1.85-5.17c.25-.7.16-.92-.56-.92-.23,0-.34-.11-.34-.34s.11-.34.34-.34h2.54c.2,0,.38.16.32.38-.02.16-.14.31-.34.31Z"/>
        <path class="cls-1" d="m193.05,281.47c-3.46,0-3.73-3.37-3.73-4.38,0-1.76.95-4.34,3.29-4.34h.36c2,0,3.26,1.96,3.26,3.75,0,.2-.14.36-.36.36h-5.24c-.05,1.82.67,3.87,2.86,3.87.94,0,1.86-.67,2.21-1.22.13-.16.34-.23.5-.11.14.09.2.31.11.47-.47.79-1.73,1.6-3.28,1.6Zm1.89-5.29c0-1.58-.85-2.81-2.3-2.72-1.33.09-1.85,1.58-1.94,2.72h4.25Z"/>
        <path class="cls-1" d="m15.19,303.69c-.72,0-1.01.49-1.3,1.26l-2.27,6.19c-.07.18-.18.29-.34.31-.14,0-.25-.11-.32-.31l-1.91-5.24-1.96,5.29c-.07.18-.18.27-.34.27s-.25-.09-.32-.27l-2.5-6.73c-.18-.5-.38-.77-.95-.77-.23,0-.34-.11-.34-.34s.11-.36.32-.36h2.88c.22,0,.34.18.34.38-.02.22-.14.32-.36.32-.63,0-.9.09-.72.61l1.87,5.2,1.73-4.63-.18-.41c-.22-.5-.36-.77-.94-.77-.23,0-.34-.11-.34-.34-.02-.2.13-.36.32-.36h2.79c.22,0,.36.18.34.38,0,.22-.13.32-.36.32-.67,0-.88.09-.7.61l1.85,5.2,1.76-4.81c.36-.97,0-1.01-.67-1.01-.23,0-.36-.11-.36-.34s.13-.36.36-.36h2.65c.2,0,.32.23.31.4-.02.2-.14.31-.34.31Z"/>
        <path class="cls-1" d="m20.7,311.2h-2.86c-.2-.05-.31-.18-.31-.38.02-.2.14-.31.34-.31.58,0,.77-.16.77-.68v-5.04c0-.97.02-1.01-.77-1.01-.45,0-.52-.54-.09-.67l1.58-.49c.23-.07.43.07.43.34v6.93c0,.38.18.61.9.61.23,0,.34.11.34.34s-.11.34-.34.34Zm-1.51-10.7c-.49,0-.88-.38-.88-.86s.4-.88.88-.88.88.4.88.88-.4.86-.88.86Z"/>
        <path class="cls-1" d="m25.65,311.38c-.67-.22-1.12-.76-1.12-1.67v-6.05h-.86c-.43,0-.56-.59-.07-.68.67-.14,1.42-.88,1.42-2.39,0-.23.11-.34.34-.34s.34.11.34.34v2.39h2.27c.23,0,.34.11.34.34s-.11.34-.34.34h-2.27v5.47c0,1.04.14,1.3.67,1.46.63.18,1.48-.29,1.71-.58.13-.16.34-.22.49-.09.2.13.16.29.07.49-.43.61-1.96,1.3-2.99.97Z"/>
        <path class="cls-1" d="m39.47,311.2h-3.15c-.23,0-.34-.11-.34-.34s.11-.34.34-.34c.74,0,.88-.14.88-.85v-3.76c0-1.31-.38-2.2-1.53-2.2-.81,0-1.78.95-2.3,1.67v4.5c0,.45.27.63,1.01.63.23,0,.34.11.34.34s-.11.34-.34.34h-2.99c-.2,0-.32-.16-.32-.36,0-.22.11-.32.34-.32.56,0,.81-.13.81-.58v-9.11c0-1.03.02-1.03-.77-1.03-.45,0-.5-.54-.09-.67l1.58-.49c.23-.07.43.05.43.34v5.29c.97-1.01,2.61-1.96,3.94-1.1.65.43,1.03,1.17,1.03,2.04v4.59c0,.58.29.7,1.08.7.23,0,.34.11.34.31.02.2-.09.38-.29.38Z"/>
        <path class="cls-1" d="m57.27,311.2h-2.02c-.16,0-.25-.05-.31-.18l-3.19-5.73h-1.76v4.3c0,.67.31.92,1.31.92.2,0,.36.14.36.34s-.16.34-.36.34h-3.91c-.23,0-.34-.11-.34-.34s.11-.34.34-.34c.95,0,1.35-.22,1.35-.92v-8.98c0-.56-.22-.92-1.31-.92-.23,0-.34-.11-.34-.34s.11-.34.34-.34h5.58c1.46,0,3.49.9,3.49,2.88s-1.6,3.13-3.38,3.33l1.39,2.48c.7,1.26,1.48,2.5,1.67,2.61.36.2.67.2,1.04.2.16,0,.32.13.34.29.02.2-.11.4-.31.4Zm-4.3-11.49h-1.69c-1.28,0-1.28.09-1.28.9v3.98h2.43c1.4,0,2.67-.9,2.67-2.7,0-1.35-1.28-2.18-2.12-2.18Z"/>
        <path class="cls-1" d="m63.3,311.2h-2.86c-.2-.05-.31-.18-.31-.38.02-.2.14-.31.34-.31.58,0,.77-.16.77-.68v-5.04c0-.97.02-1.01-.77-1.01-.45,0-.52-.54-.09-.67l1.58-.49c.23-.07.43.07.43.34v6.93c0,.38.18.61.9.61.23,0,.34.11.34.34s-.11.34-.34.34Zm-1.51-10.7c-.49,0-.88-.38-.88-.86s.4-.88.88-.88.88.4.88.88-.4.86-.88.86Z"/>
        <path class="cls-1" d="m69.89,311.47c-2.21,0-3.67-1.6-3.67-4.18,0-2.7,1.71-4.57,3.82-4.57s2.77,1.17,2.79,1.6c.04.83-.65,1.04-.99.97-.52-.11-.67-.56-.76-.9-.13-.41-.22-.74-.86-.94-.22-.07-.79-.09-1.37.36-.52.43-1.19,1.3-1.24,3.35-.05,2.39,1.19,3.29,2.36,3.44,1.01.13,1.89-.27,2.7-1.19.13-.14.34-.18.49-.05.14.13.2.34.07.5-.86,1.08-2.05,1.6-3.33,1.6Z"/>
        <path class="cls-1" d="m84.36,311.2h-3.15c-.23,0-.34-.11-.34-.34s.11-.34.34-.34c.74,0,.88-.14.88-.85v-3.76c0-1.31-.38-2.2-1.53-2.2-.81,0-1.78.95-2.3,1.67v4.5c0,.45.27.63,1.01.63.23,0,.34.11.34.34s-.11.34-.34.34h-2.99c-.2,0-.32-.16-.32-.36,0-.22.11-.32.34-.32.56,0,.81-.13.81-.58v-9.11c0-1.03.02-1.03-.77-1.03-.45,0-.5-.54-.09-.67l1.58-.49c.23-.07.43.05.43.34v5.29c.97-1.01,2.61-1.96,3.94-1.1.65.43,1.03,1.17,1.03,2.04v4.59c0,.58.29.7,1.08.7.23,0,.34.11.34.31.02.2-.09.38-.29.38Z"/>
        <path class="cls-1" d="m102.31,306.5c-.63,0-.92.43-.92.99v3.04c0,.38-.47.49-.63.18-.07-.07-.2-.14-.4-.02-1.12.77-2.88,1.13-4.5.56-1.89-.68-3.6-2.38-3.6-6.41,0-3.39,1.85-5.47,4.07-6.05,1.22-.31,2.36-.07,3.38.58.14.09.47.04.41-.13-.05-.2.02-.32.25-.38.2-.05.34.02.41.22l.9,2.54c.16.47-.41.72-.63.29-.79-1.57-2.54-2.92-4.41-2.45-1.8.45-2.9,2.7-2.9,5.78,0,3.89,1.82,5.31,3.17,5.55,1.35.23,2.83-.36,3.21-1.35.05-.07.09-.36.09-.56v-1.44c0-.63-.52-.94-1.55-.94-.23,0-.34-.11-.34-.34s.11-.34.34-.34h3.64c.23,0,.34.11.34.34s-.11.34-.34.34Z"/>
        <path class="cls-1" d="m110.23,304.16c-.31-.16-.56-.31-.97-.04-.32.23-1.04.95-1.48,1.67v4.07c0,.45.25.67,1.42.67.2,0,.34.16.34.36,0,.22-.11.32-.34.32h-3.67c-.2,0-.32-.16-.32-.36s.16-.32.36-.32c.77,0,1.08-.18,1.08-.67v-5.02c0-.81-.02-.81-1.04-.81-.45,0-.52-.56-.11-.68l1.84-.56c.23-.07.45.09.45.32v1.49c.68-.77,1.75-1.87,2.84-1.87.52,0,.94.36.94.79,0,.86-.76.92-1.33.63Z"/>
        <path class="cls-1" d="m117.55,311.47c-3.46,0-3.73-3.37-3.73-4.38,0-1.76.95-4.34,3.29-4.34h.36c2,0,3.26,1.96,3.26,3.75,0,.2-.14.36-.36.36h-5.24c-.05,1.82.67,3.87,2.86,3.87.94,0,1.85-.67,2.21-1.22.13-.16.34-.23.5-.11.14.09.2.31.11.47-.47.79-1.73,1.6-3.28,1.6Zm1.89-5.29c0-1.58-.85-2.81-2.3-2.72-1.33.09-1.85,1.58-1.94,2.72h4.25Z"/>
        <path class="cls-1" d="m127.4,311.47c-3.46,0-3.73-3.37-3.73-4.38,0-1.76.95-4.34,3.29-4.34h.36c2,0,3.26,1.96,3.26,3.75,0,.2-.14.36-.36.36h-5.24c-.05,1.82.67,3.87,2.86,3.87.94,0,1.85-.67,2.21-1.22.13-.16.34-.23.5-.11.14.09.2.31.11.47-.47.79-1.73,1.6-3.28,1.6Zm1.89-5.29c0-1.58-.85-2.81-2.3-2.72-1.33.09-1.85,1.58-1.94,2.72h4.25Z"/>
        <path class="cls-1" d="m141.71,311.2h-3.22c-.23,0-.34-.11-.34-.34s.11-.34.34-.34c.94,0,1.01-.09,1.01-.85v-3.89c0-1.58-.43-2.18-1.51-2.18-.77,0-1.85.83-2.23,1.35v5.01c0,.49.13.56.9.56.23,0,.34.11.34.34s-.11.34-.34.34h-2.84c-.2,0-.34-.16-.34-.36.02-.22.14-.32.36-.32.56,0,.76-.2.76-.61v-4.95c0-.86.02-1.03-.76-1.03-.49,0-.54-.54-.11-.67l1.58-.49c.27-.09.45.07.45.34v.83c.94-.88,2.49-1.67,3.87-.88.7.4,1.04,1.17,1.04,2.04v4.74c0,.56.2.68.99.68.23,0,.34.11.34.32.02.2-.09.36-.29.36Z"/>
        <path class="cls-1" d="m148.24,311.47c-3.46,0-3.73-3.37-3.73-4.38,0-1.76.95-4.34,3.29-4.34h.36c2,0,3.26,1.96,3.26,3.75,0,.2-.14.36-.36.36h-5.24c-.05,1.82.67,3.87,2.86,3.87.94,0,1.85-.67,2.21-1.22.13-.16.34-.23.5-.11.14.09.2.31.11.47-.47.79-1.73,1.6-3.28,1.6Zm1.89-5.29c0-1.58-.85-2.81-2.3-2.72-1.33.09-1.85,1.58-1.94,2.72h4.25Z"/>
        <path class="cls-1" d="m159.22,304.16c-.31-.16-.56-.31-.97-.04-.32.23-1.04.95-1.48,1.67v4.07c0,.45.25.67,1.42.67.2,0,.34.16.34.36,0,.22-.11.32-.34.32h-3.67c-.2,0-.32-.16-.32-.36s.16-.32.36-.32c.77,0,1.08-.18,1.08-.67v-5.02c0-.81-.02-.81-1.04-.81-.45,0-.52-.56-.11-.68l1.84-.56c.23-.07.45.09.45.32v1.49c.68-.77,1.75-1.87,2.84-1.87.52,0,.94.36.94.79,0,.86-.76.92-1.33.63Z"/>
        <path class="cls-1" d="m170.38,303.65c-.31,0-.54.07-.68.23-.13.14-.29.47-.49.97-.86,2.25-2.45,6.59-3.55,8.89-.43.92-1.13,1.42-2.29,1.42-.34,0-.63-.09-.85-.27-.2-.16-.31-.36-.31-.58,0-.45.23-.68.68-.68.14,0,.32.09.67.29.34.2.56.29.68.29.4,0,1.37-1.98,1.94-3.67l-2.81-6.1c-.14-.32-.27-.52-.34-.59-.13-.13-.34-.2-.61-.2-.22,0-.32-.11-.32-.32,0-.23.11-.36.32-.36h2.97c.23,0,.34.13.34.36,0,.22-.11.32-.34.32-.56,0-.85.11-.85.32,0,.09.02.18.07.27l2.18,4.84,1.66-4.48c.09-.23.16-.4.16-.52,0-.29-.32-.43-.97-.43-.23,0-.34-.11-.34-.32,0-.23.11-.36.34-.36h2.72c.22,0,.32.13.32.36,0,.22-.11.32-.32.32Z"/>
      </g>
    </g>
  </g>
</svg>