<?xml version="1.0" encoding="UTF-8"?>
<svg id="_レイヤー_2" data-name="レイヤー 2" xmlns="http://www.w3.org/2000/svg" viewBox="0 0 163.4 18.84">
  <defs>
    <style>
      .cls-1 {
        stroke-width: 0px;
      }
    </style>
  </defs>
  <g id="_レイヤー_1-2" data-name="レイヤー 1">
    <g>
      <path class="cls-1" d="m3.54,3.78c0-.86-.2-1.7-.94-2.2.18-.44.6-.44.72-.44.26,0,.7.16,1.02.4.72.54.72.66.72.84,0,.16-.1.88-.12,1.02-.02.2-.02.36-.04.54l-.02,1.68c.28-.1.5-.16.7-.26.5-.24.56-.28.72-.28.1,0,1.2.26,1.2.82,0,.32-.24.46-.42.5-.1.04-.54.08-.62.1l-1.16.26-.46.1c-.02.58-.02.68,0,1.26,1.64.84,2.06,1.18,2.06,1.98,0,.74-.4.9-.62.9-.3,0-.4-.22-.58-.54-.44-.82-.48-.88-.86-1.3v7.42c0,.94,0,1.82-.66,1.82-.58,0-.9-1.28-.9-1.76,0-.18.12-1.02.14-1.18.02-.24.02-.32.02-.5l.06-1.62.02-2.6c-.42.74-.98,1.8-1.96,2.88-.4.44-.84.88-1.44.94,0,0-.02-.1-.02-.14s.16-.3.2-.38c.9-1.7,2.62-4.48,3.02-6.82-.3.08-1.7.48-1.84.48-.34,0-1.48-.62-1.48-1.32,0-.12.04-.2.22-.36.18.16.36.32,1.14.32.18,0,.28,0,.44-.04l.94-.14.82-.18-.02-2.2Zm5.8,6.52c-.76.18-.84.2-.96.2-.46,0-1.5-.84-1.5-1.36,0-.2.06-.34.18-.52.16.16.22.24.66.34.32.08.52.12.8.12.32,0,1.22-.08,1.44-.12l1.74-.34v-2.34l-1.14.16c-.08.02-.46.1-.54.1-.14,0-.38-.1-.68-.48-.26.4-.6.98-1.42,1.62-.18.16-.86.62-1.02.62-.12,0-.14-.14-.14-.22,0-.06.2-.38.26-.44.02-.06.92-1.4,1.26-2.12.22-.5.56-1.46.56-1.88,0-.56-.1-.7-.26-.92.14-.16.22-.24.46-.24.58,0,1.34,1.04,1.34,1.3s-.48,1.2-.6,1.46c.18.1.22.12.42.12.04,0,.44-.02.8-.08l.68-.1v-2.12c0-.6-.18-1.56-.88-1.98.06-.24.26-.36.66-.36.62,0,1.84.78,1.84,1.26,0,.1-.08.5-.1.6-.02.2-.04.36-.04.5l-.02,1.12-.06.7,1.08-.2c.16-.04.38-.08.54-.16.38-.18.44-.2.54-.2.34,0,1.4.26,1.4.86,0,.44-.38.48-1.22.56l-1.32.12-1.08.16v2.32l1.66-.32c.22-.04.54-.1,1-.26.26-.1.52-.2.64-.2.14,0,1.82.22,1.82,1.02,0,.52-.44.52-.94.52-.22,0-.26,0-.38.02l-1.02.04-1.8.2-.92.16c.26.34.3.48.98,1.34,1.32,1.64,2.18,2.56,3.42,3.62.26.22.92.76,1.14.9.26.14.42.26.42.38,0,.24-.68.32-.86.32l-1.22.02c-.66.02-.98-.04-1.5-.92l-.64-1.08-.74-1.12-1.08-1.84v5.88c0,.74-.16,1.66-.72,1.66-.64,0-.88-1.44-.88-1.62,0-.08.1-.64.1-.76.06-.48.08-.88.08-.98l.1-1.3v-2.08c-.9,1.2-2,2.58-3.22,3.38-1.28.86-2.22,1.14-2.36,1.14-.08,0-.16-.02-.3-.1.06-.14.16-.22,1.12-.94,1.04-.8,3.34-3.44,4.36-5.58l-1.94.44Z"/>
      <path class="cls-1" d="m27.9,13.9l1.44-.38c.14-.04.74-.2.84-.2.18,0,.28.14.28.26,0,.3-.08.46-4.84,2.46-.28.12-1.58.62-1.8.72-.36.18-1.32.64-1.52.64-.44,0-1.88-.96-1.88-1.98,0-.22.08-.28.24-.42.28.24.58.5,1.32.5.44,0,1.34-.18,1.82-.32l1.4-.42v-1.64c0-.8-.06-1.2-.36-1.2-.28,0-1.44.46-1.7.46-.5,0-1.52-.84-1.52-1.56,0-.16.04-.24.18-.34.46.24.74.38,1.34.38.4,0,1.82-.14,3.54-.86.9-.36,1-.4,1.3-.4.72,0,1.34.46,1.34.84,0,.24-.18.5-.44.58-.08.02-.46.08-.54.08l-1.88.42c.16.24.28.42.28.62,0,.14-.12.8-.12.92-.06.42-.06.72-.1,1.26l1.38-.42Zm5.24-9.02c.18-.04.24-.06.64-.2.5-.2.76-.28,1.04-.28.46,0,1.14.18,1.46.32.14.06.62.26.62.74,0,.52-.5.56-1.02.58l-2.06.08-2.64.36.46,1.84.8,2.28.68,1.5c.66,1.46,2.26,3.56,2.74,3.56.2,0,.32-.32.44-.64l.54-1.46c.04-.08.22-.58.24-.62.04-.04.08-.08.12-.08.1,0,.26.08.26.44,0,.1-.04.54-.04.62l-.02,1.62c0,.56.04,1.08.18,1.54.04.14.28.72.28.86,0,.28-.22.64-.64.64-1.06,0-2.86-1.6-3.78-3.06l-1.12-1.8-.72-1.5-.7-1.78-.7-2.14-.4-1.52-3.24.6-1.8.44c-.16.04-1.48.46-1.76.46-.66,0-2.2-1-2.2-1.68,0-.22.1-.32.22-.42.48.22.88.42,2.02.42.22,0,.58-.02,1.12-.1l2.4-.4,2.94-.54-.4-1.46c-.12-.4-.56-1.74-.78-2.08-.14-.22-.46-.54-.8-.68-.06-.04-.38-.14-.44-.18.06-.46.52-.64.86-.64.84,0,2.06.66,2.22.86.2.26.18.42.22,1.08,0,.2,0,.24.1.7l.4,1.98.02.16,2.24-.42Zm-.46-4.14c.78,0,3.4.62,3.4,2.18,0,.6-.38.88-.66.88-.38,0-.46-.1-1.16-1-.34-.44-.72-.88-1.68-1.58-.26-.18-.3-.22-.32-.36.12-.06.2-.12.42-.12Z"/>
      <path class="cls-1" d="m48.86,7.5c.52-.08,1-.24,1.32-.36.08-.04.42-.18.6-.18.26,0,1.38.24,1.38.86,0,.14-.1.52-.68.58-.1.02-1.64.2-1.64.2l-1.38.22c-.32.06-1.68.34-1.96.34-.14,0-.38,0-.88-.42-.5-.4-.52-.58-.58-.88-.94.92-3.76,3.38-4.92,3.38-.08,0-.16-.02-.16-.16,0-.22.22-.38.62-.68,1.88-1.4,4.62-4.5,6.2-7.04.84-1.34,1.1-1.88,1.1-2.54,0-.1-.1-.42-.16-.62.12-.16.18-.2.38-.2.36,0,.6.16,1.22.72.28.24.46.4.46.72,0,.06-.02.1-.04.14-.04.04-.18.24-.2.28l1.3,1.22,2.1,1.94,1.82,1.46,1.82,1.18,1.82.92c.14.06.44.18.44.36,0,.3-1,.46-1.26.5l-1.16.14c-.26.04-.6.04-.7.04-.18,0-.36,0-.76-.4l-.88-.92-1.28-1.3-1.74-1.94-1.08-1.22-1.02-1.08c-1.02,1.62-1.84,2.88-3.52,4.74.06.02.36.2.44.22.26.06.52.08.74.08.1,0,.44,0,.76-.06l1.48-.24Zm-1.54,6.84l-.72.98-.94,1.22,1.1-.2,3.1-.64,2.06-.46c-.28-.44-.42-.64-.96-1.24-.36-.38-.4-.42-.4-.54,0-.14.1-.2.2-.2.4,0,1.72.74,2.64,1.5,1.24,1.06,1.44,1.76,1.44,2.58,0,.26,0,1.1-.68,1.1-.36,0-.42-.12-.9-1.12-.38-.76-.62-1.08-.82-1.36l-2.48.86-3.08,1c-.8.26-1.02.36-1.3.54-.2.12-.54.34-.68.34-.58,0-1.22-1.3-1.22-1.58,0-.26.22-.4.5-.58.08-.06.56-.62.6-.68l.86-1.32c.3-.46,1.1-1.96,1.22-2.34l-1.44.3c-.14.02-.78.24-.92.28-.26.08-.44.12-.62.12-.28,0-.36-.06-.8-.42-.72-.56-.94-.74-.94-1.16,0-.12.04-.18.22-.3.52.22.7.28,1.2.28.68,0,2.22-.16,4.72-.52,1.06-.14,3.38-.48,4.2-.74.42-.12.76-.22.88-.22.28,0,1.88.32,1.88,1.06,0,.6-.58.6-.98.6-.3,0-1.6-.02-1.86-.02-.66.02-1.5.14-3.7.42.04.1.06.18.06.26,0,.14-.02.24-.08.32l-1.36,1.88Z"/>
      <path class="cls-1" d="m63.32,7.02c-.16.06-.82.38-.96.42-.24.1-.38.12-.48.12-.68,0-1.84-.82-1.84-1.5,0-.1.16-.18.2-.22.22.12.42.2,1.28.2.28,0,.66-.04,1.06-.12l1.74-.36c.2-.06.84-.26,1.12-.4.44-.24.48-.28.62-.28.24,0,1.68.5,1.68,1.18,0,.12,0,.28-.38.62-.44.4-.5.46-.62.62l-1.4,1.86c.6.12,1.34.26,1.92.44,1.22.36,1.26,1.5,1.26,1.64,0,.04,0,.64-.46.64-.26,0-.32-.04-.84-.56-.76-.76-1.4-1.02-2.02-1.28v3.78l.04,3.28c0,.7-.26,1.32-.66,1.32-.46,0-.98-.96-.98-1.82,0-.18.08-1.02.08-1.18.02-.1.02-.58.02-.88l.02-2.2c0-.96.02-1.12.02-1.46-1.16,1.02-3.22,2.28-4.02,2.28-.2,0-.28-.1-.34-.28q.14-.14.42-.3c.86-.48,3.88-2.86,5.5-6.06-.12,0-.16,0-.46.08l-1.52.42Zm-.92-6.36c.52,0,1.6.48,1.92.62.58.28,1.74.8,1.74,2.06,0,.4-.3.64-.6.64-.42,0-.58-.22-1.58-1.34-.68-.78-.78-.84-1.08-1.12-.14-.14-.6-.58-.64-.66.06-.18.1-.2.24-.2Zm9.48,3.52c0-1.02-.34-1.66-1.06-2.14.18-.52.68-.52.74-.52.44,0,1.32.56,1.72.84.28.2.42.34.42.62,0,.1-.06.6-.08.7-.02.24-.02.32-.06,1.1l-.14,2.66-.02.62c.48-.04.7-.08,1.46-.3.48-.14.66-.18.9-.18.6,0,1.32.5,1.36.52.12.1.2.22.2.46,0,.4-.24.52-.76.52-1.02,0-1.14,0-1.26.02l-1.52.16-.38.06v5.82l1.44-.22c.16-.02,1.78-.28,1.84-.28.3,0,1.8.6,1.8,1.26,0,.18-.1.5-.42.5-.14,0-.72-.08-.86-.1-.34-.04-1.12-.08-1.28-.08h-1.2l-1.6.12-1.68.2-1.24.24c-.08,0-.56.1-.78.16-.6.16-.66.18-.8.18-.7,0-1.52-1.08-1.52-1.42,0-.08.02-.16.12-.3.52.2.8.28,1.32.28.76,0,2.04-.18,3.38-.36v-5.78c-.66.1-.94.14-1.26.2-.08.02-.78.16-.82.16-.24,0-.32-.06-1.08-.6-.14-.1-.52-.38-.52-.86,0-.08.06-.2.08-.26.62.28,1.4.28,1.62.28.82,0,1.28-.06,1.96-.16l-.02-4.12Z"/>
      <path class="cls-1" d="m92.24,14.42l2.58-.3v-.34l.04-7.44c0-1.72,0-2.82-.18-3.54-.14-.6-.54-.84-.82-.98.04-.16.16-.56.74-.56s1.58.64,1.86.86c.18.16.36.34.36.6,0,.08-.08.42-.08.5-.26,1.62-.22,1.82-.26,3.8-.06,2.36-.1,3.06-.1,3.92l-.02,3.06,3.2-.12h1.78l.1-.48.36-3.32c.02-.24.06-.58.06-.8,0-1.18-.36-1.52-.58-1.74.06-.14.12-.3.46-.3.62,0,1.1.36,1.34.54.62.52.74.66.74.94,0,.2-.3,1.08-.34,1.26-.02.08-.1.48-.12.56l-.24,1.48-.32,2.54c-.06.48-.14.88-.34,1.36-.22.56-.44.58-.64.58-.38,0-.6-.38-.62-.48-.04-.12-.14-.68-.16-.8l-1.64-.02-3.16.08-2.28.22-1.76.26c-.38.06-1.68.26-2.22.72-.64.52-.7.58-.94.58-.36,0-.44-.12-.64-.44-.32-.46-.36-.54-.36-.68,0-.12.26-.68.28-.82.02-.1.1-.72.1-.9v-2.04c0-1.7-.02-2.08-.26-2.64-.22-.5-.3-.66-.6-.82.04-.14.12-.4.62-.4.3,0,.52.1.84.28.72.44,1.02.62,1.02,1.04,0,.06-.14,1.28-.16,1.52-.02.3-.08,2.62-.02,3.66l.52-.1,1.86-.3Z"/>
      <path class="cls-1" d="m107.68,6.74c.76,0,1.66.1,2.18.78.18.24.3.54.3.8,0,.34-.26.7-.6.7q-.2,0-.8-.52c-.84-.72-1.72-1.14-1.94-1.24-.24-.12-.3-.14-.3-.28,0-.08.04-.12.12-.16.36-.08.72-.08,1.04-.08Zm2.6,7.98c-.14.5-.2.64-.62,1.9-.36,1.08-.4,1.22-.72,1.22-.7,0-1.72-1.42-1.72-1.94,0-.38.1-.44.24-.52.08.1.22.26.58.26s.5-.14.88-.96c.58-1.26,1.26-3.02,1.84-4.54.1-.26.18-.42.36-.42.2,0,.2.22.2.26,0,.88-.28,2.16-.34,2.34l-.7,2.4Zm-.08-12.18c1.04.4,1.18,1.22,1.18,1.48,0,.4-.3.74-.64.74-.22,0-.3-.08-.92-.74-.48-.52-1.1-.92-1.8-1.38-.12-.08-.16-.14-.16-.22s.06-.12.16-.14c.38-.04,1.42-.04,2.18.26Zm8.3.74l.64-.08c0-.32.02-.9.02-.98,0-.78-.3-.98-.62-1.18.1-.24.18-.44.56-.44.68,0,1.76.8,1.76,1.12,0,0-.06.36-.08.38,0,0-.1.64-.16.96.3-.04.66-.1.94-.2.18-.04.46-.14.62-.14.22,0,1.12.22,1.4.42.12.08.32.34.32.58s-.2.54-.78.54c-.12,0-.6-.06-.7-.06l-1.24.04-.78.06c-.06.32-.26,1.34-.32,1.72.46-.04.62-.08.86-.14.1-.02.48-.16.58-.16.16,0,1.5.28,1.5.94,0,.02,0,.5-.68.5-.1,0-.56-.04-.66-.04l-1.46.06-2.06.12c.44.36.44.42.44.64,0,.14-.02.42-.06.86l2.6-.3c.2-.02.5-.06.72-.14.26-.08.72-.2.8-.2.38,0,1.48,1.04,1.48,1.42,0,.14-.22.76-.24.9-.06.28-.08.52-.1.66l-.1,2.4-.12,2.24c-.08,1.54-.56,2.84-1.16,2.84-.28,0-.36-.08-1.08-.84-.18-.2-.68-.54-1.04-.8-.2-.14-.38-.28-.38-.44s.16-.18.28-.18c.04,0,.98.1,1.18.1.44,0,.68,0,.74-.88l.12-1.56.12-2.62c0-.06.06-1.36,0-1.56-.06-.14-.12-.16-.68-.12l-1.46.08-1.72.16-.1,2.5-.06,1.4,1.26-.2c.06-.98.08-1.18.08-1.44,0-.7-.22-.86-.4-1.02.08-.24.16-.4.5-.4.42,0,1.38.52,1.38.88,0,.18-.14.94-.16,1.08l-.14,1.8c-.02.34-.12,1.32-.64,1.32-.62,0-.64-.8-.66-1.14l-1.5.3c-.38.08-1.36.3-1.66.46-.14.06-.68.46-.82.46-.3,0-1.08-.68-1.08-1.02,0-.1.16-.56.18-.66.04-.22.06-.38.06-.5v-.8c0-.7-.12-.88-.42-1.08.08-.3.16-.46.64-.46.3,0,1.18.48,1.18.84,0,.12-.08.56-.08.64l-.04,1.04-.02.32,1.06-.2c0-.08.06-.52.06-.54l.06-3.18-.04-.22c-.06,0-.18,0-.28.02l-2.08.26c-.72.1-.8.1-1.16.1l.08,3.96v2.06c0,.84,0,1.8-.6,1.8-.76,0-.88-1.62-.88-1.62,0-.14.08-.7.08-.8l.02-1.72-.04-2.36c-.04-1.96-.3-2.14-.64-2.36.06-.42.44-.48.58-.48.24,0,.56.14.72.22.32.16.34.18.44.18.06,0,.36-.06.42-.06l1.68-.22,1.66-.2c-.02-.16-.06-.96-.08-1.08-.04-.18-.14-.34-.3-.32l-1.52.18c-.26.04-1.68.34-1.7.34-.42,0-1.24-.7-1.24-1.14,0-.28.1-.36.2-.46.36.24.46.28,1.08.28.44,0,.78-.04,1.62-.16-.02-.7-.04-.9-.16-1.7l-.76.1c-.22.02-1.38.28-1.42.28-.34,0-.76-.42-1.14-.82-.1-.1-.14-.36-.14-.46,0-.26.12-.36.28-.48.28.38.96.38,1.24.38.48,0,1.1-.08,1.82-.18-.1-.86-.2-1.76-.92-2.16.04-.22.12-.54.76-.54.26,0,1.64.36,1.64.98,0,.14-.08.74-.1.88v.7l2.2-.26Zm-2.16,1.44c.02.72.02.82.08,1.68l1.14-.12,1.22-.16c.08-.38.14-.68.22-1.68-.16,0-.86.08-1.02.08l-1.64.2Z"/>
      <path class="cls-1" d="m130.04,11.1c-.12.16-.22.38-.22.4,0,.04.22.16.36.24l1.1.62c.54.3.7.4.7.72,0,.26-.06.32-.62.64l-1.34.76-.94.54c.14,0,.62-.04.94-.04.72,0,1.34.08,2.3.26.3.06,1.6.26,1.86.32l3.08.68c.54.12,2.42.52,3.84.58l1.72.08,1.82.12.32.06c-.02.4-.02.48-1.18.96-.42.16-2,.8-3.36.8-.26,0-.38-.04-.72-.18-.1-.04-.36-.14-.6-.22l-1.4-.48-1.72-.58-1.82-.56-1.82-.5c-1.38-.38-2.56-.4-3.04-.4-.8,0-1.18.06-1.6.16-.1.02-.52.14-.6.14-.12,0-.16-.04-.5-.44-.12-.14-.24-.3-.24-.46,0-.22.06-.24.56-.4.2-.06.9-.3,1.3-.6l1.06-.8c.3-.22.46-.38.46-.52,0-.26-1.04-1.12-1.04-1.32,0-.12.18-.46.24-.6l.38-.78.28-.58c-.2.08-1.06.42-1.24.5-.12.06-.66.32-.76.32-.3,0-1.18-.56-1.18-1.08,0-.2.06-.3.12-.4.24.18.34.22.58.22.6,0,1.94-.36,2.88-1,.2-.12.48-.3.58-.3.28,0,1.2.64,1.2,1.02,0,.14-.04.18-.4.48-.1.1-.2.22-.32.34l-1.02,1.28Zm.02-8.26c.96.42,1.48.74,1.48,1.5,0,.18,0,.82-.66.82-.58,0-1.82-1.18-2.44-1.8-.3-.3-.8-.78-.8-1.06,0-.18.14-.22.2-.22.26-.04,1.84.6,2.22.76Zm7.28,1.3c-.02-2.34-.02-2.88-.9-3.36.04-.18.08-.36.56-.36.44,0,.64.12,1.28.48.58.34.62.48.62.68,0,.06-.12,1.32-.12,1.36l-.08.94c.44-.04.9-.1,1.48-.34.24-.1.32-.14.48-.14.24,0,1.5.24,1.5.86,0,.14-.1.38-.42.5-.16.06-.82.1-.94.12l-2.12.26-.02,1.58v.58l1.64-.2c.54-.06.8-.12.96-.16.3-.08.64-.18.76-.18.36,0,1.76.36,1.76,1.12,0,.26-.1.44-.76.44-.26,0-1.34-.06-1.56-.06l-1.64.06-2.5.28-2.08.36c-.22.06-1.38.38-1.48.38-.48,0-1.42-.68-1.42-1.18,0-.06.02-.16.16-.34.24.16.36.22,1,.22.32,0,1.24-.08,1.62-.14l2.2-.38v-.78l.02-1.44-1.74.26c-.08.02-.42.08-.48.08-.24,0-.42-.16-.54-.26-.56.8-2.1,2.28-2.8,2.28-.04,0-.16,0-.16-.14,0-.12.38-.5.46-.58.66-.88,1.88-2.72,1.88-3.7,0-.52-.12-.66-.3-.84.12-.16.22-.28.48-.28.6,0,1.42.92,1.42,1.28,0,.26-.28.68-.44.94.22.02.3.06.56.02l1.66-.22Zm-1.34,10.74c-.14.5-.36.74-.7.74-.32,0-.54-.18-.64-.48-.06-.16-.18-.82-.24-1.26l-.28-1.88c-.14-.94-.28-1.08-.74-1.38.06-.48.58-.5.72-.5.22,0,.48.04.64.1.32.14.36.14.52.14.06,0,.34,0,.58-.04l3.72-.48c.44-.06.68-.14.8-.18.06-.02.54-.16.58-.16.22,0,1.64.68,1.64,1.26,0,.22-.14.5-.2.64-.04.1-.22.48-.26.56l-.48,1.36c-.34.98-.48,1.4-1.12,1.4-.14,0-.14-.02-.46-.14-.04-.02-.22-.1-.46-.08l-3.1.28-.52.1Zm-.5-3.36l.28,2.12.06.02.8-.12,2.04-.18,1.6-.14.34-1.48c.06-.22.08-.38.08-.54,0-.2-.02-.3-.8-.22l-1.42.14-2.98.4Z"/>
      <path class="cls-1" d="m163,7.3l.04,5.86-.04,3.42c0,.38-.02,1.86-.86,1.86-.58,0-.62-.66-.64-.94l-1.64-.04-4.52-.02-5.44.22-.52.02c-.06.42-.12.88-.62.88-.7,0-.86-1.06-.86-1.22l.08-1.9.12-5.22.06-4.1-.06-2.3c-.02-.9-.16-1.2-.3-1.36-.24-.3-.26-.32-.26-.42,0-.24.26-.42.48-.42.12,0,.24.04.6.18.42.16.64.18.92.18.26,0,6.4-.36,7.62-.42,2.02-.08,2.78-.14,3.38-.2.22-.02,1.22-.18,1.44-.18.44,0,1.42.62,1.42,1.22,0,.1-.12.54-.14.62l-.2,1.74-.06,2.54Zm-3.54,6.8l1.3.66c.06.02.36.14.42.16.08.04.14.08.26.22l.02-.8.04-11.54-5.4.14-.92.04c.4.06,1,.16,1,.72,0,.14-.06.32-.12.54.46-.06.8-.1,1.06-.16.1-.02.6-.2.72-.2.18,0,1.12.36,1.12.84,0,.28-.22.48-.46.48l-1.6.06s-.88.12-.96.12c0,.24-.02.6-.02.7l2.28-.14c.58-.04.68-.04.98-.12.4-.12.44-.12.56-.12.26,0,1.16.42,1.16.8,0,.3-.28.56-.58.56l-2.56.02-1.82.12-2.94.34c-.24.02-.48.06-.7.12-.56.16-.62.18-.7.18-.24,0-.7-.32-.88-.48-.58-.52-.62-.62-.62-.8,0-.28.22-.34.3-.34.1,0,.5.2.6.22.34.12.76.2,1.04.16l2.54-.36c.02-.42.02-.48.02-.72l-.92.14c-.12.02-.64.12-.74.12-.22,0-.34-.08-1.12-.66-.18-.2-.24-.54-.24-.6,0,0,.04-.34.26-.34.12,0,.54.24.64.28.16.06.62.12.98.08l1.12-.14c0-.56,0-.62-.06-.74-.04-.08-.34-.36-.34-.44,0-.1.08-.14.18-.18l-3.4.2c-.06,0-.38.06-.44.06-.56.06-.62.06-.8.1l-.02.6-.2,11.74v.56c.42-.02,4.38-.14,4.86-.14-.44-.14-.64-.58-.64-.88,0-.2.12-1.16.12-1.34,0-.56,0-.6.04-1.06-1.1,1.2-3.5,2.24-3.84,2.24-.24,0-.28-.22-.28-.3,0-.14.06-.16.54-.48,1.16-.78,3.1-2.38,3.64-3.18-.16.02-.42.06-.44.08-.16.2-.28.34-.58.34-.38,0-.56-.5-.64-.8l-.26-1.08c-.06-.28-.18-.7-.32-.82-.18-.2-.26-.26-.26-.42,0-.24.3-.4.56-.4.22,0,.5.1.84.24l3.64-.46c.3-.04.7-.1.96-.16.44-.1.5-.1.58-.1.38,0,1.12.58,1.12.96,0,.16-.02.2-.26.52-.18.26-.24.46-.4.92-.02.1-.14.48-.18.54.26-.04.48-.04.72.1.22.12.94.78.94,1.22s-.34.46-.8.48c-.34.02-1.08.3-1.78.54.4.3.56.38,1.34.82l.74.42Zm-6.1-4.88c.12.64.14.72.18,1.06.24-.02,1.2-.18,1.4-.2l2.16-.22c.06-.18.28-.96.24-1.12-.16,0-.18,0-.36.02l-1.78.22-1.84.24Zm2.18,3.32c-.1-.12-.16-.28-.16-.38,0-.16.16-.34.36-.34.14,0,.22.04.3.08.22.14.54.38.76.52.88-.52,1.16-.88,1.38-1.26-.02-.06-.14-.3-.14-.36-.18.08-.36.1-.62.1-.06,0-.64-.02-.66-.02l-1,.12c-.08.4-.16.48-.88,1.04.22.22.32.32.32.62,0,.14-.08.88-.08.9v1.68c0,.74-.24.8-.5.9l2.16-.06h4.62l.02-.82c-.04.12-.06.18-.36.24-.12.02-1.6.16-1.72.16-.32,0-.42-.1-.98-.54l-1.12-.9-1.7-1.68Z"/>
    </g>
  </g>
</svg>