<?xml version="1.0" encoding="UTF-8"?>
<svg id="_レイヤー_2" data-name="レイヤー 2" xmlns="http://www.w3.org/2000/svg" viewBox="0 0 314.57 177.39">
  <defs>
    <style>
      .cls-1 {
        fill: #fff;
      }

      .cls-1, .cls-2 {
        stroke-width: 0px;
      }

      .cls-2 {
        fill: #70644e;
      }
    </style>
  </defs>
  <g id="_レイヤー_1-2" data-name="レイヤー 1">
    <g>
      <g>
        <rect class="cls-2" x="145.02" y="-68.04" width="24.53" height="314.57" transform="translate(68.04 246.53) rotate(-90)"/>
        <rect class="cls-2" x="96.36" y="18.21" width="24.53" height="217.26" transform="translate(-18.21 235.47) rotate(-90)"/>
        <rect class="cls-2" x="111.56" y="41.3" width="24.53" height="247.65" transform="translate(-41.3 288.95) rotate(-90)"/>
        <g>
          <path class="cls-1" d="m14.9,92.51c-.12.15-.24.2-.57.12-.9.99-2.58,2.2-4.27,2.94l-.17-.21c1.45-.94,2.97-2.44,3.7-3.57l1.3.72Zm7.28-8.92s.9.69,1.47,1.18c-.04.17-.21.24-.42.24h-12.98l-.13-.43h6.19v-2.08l1.54.16c-.03.21-.18.36-.54.41v1.51h4.06l.81-.99Zm-4.85,6.8v4.43c0,.78-.23,1.3-1.71,1.44-.03-.3-.13-.54-.36-.69-.24-.17-.7-.29-1.48-.38v-.24s1.8.13,2.16.13c.31,0,.39-.09.39-.3v-4.41h-2.77v.54c0,.09-.43.33-.84.33h-.15v-5.05l1.08.48h6.31l.54-.63,1.26.96c-.1.12-.38.24-.66.3v3.48c-.02.1-.51.33-.85.33h-.15v-.73h-2.76Zm2.76-.43v-2.85h-6.53v2.85h6.53Zm-1.14,2.01c4.88,1.68,4.52,4.12,3.3,3.52-.61-1.06-2.28-2.52-3.45-3.37l.15-.15Z"/>
          <path class="cls-1" d="m30.25,83.99s.51.39.94.78c.33-.58.63-1.18.87-1.75l1.35.64c-.11.18-.25.24-.63.17-.58,1.14-1.38,2.35-2.37,3.52h.9l.67-.85s.78.6,1.24,1.06c-.04.17-.18.24-.39.24h-2.82c-.54.58-1.12,1.17-1.75,1.71h2.37l.55-.58,1.17.91c-.09.1-.34.24-.63.3v5.44c-.01.09-.49.32-.79.32h-.15v-1.03h-3.25v.94c0,.09-.3.33-.76.33h-.15v-5.36c-.55.38-1.14.72-1.75,1.03l-.15-.21c.66-.4,1.3-.87,1.9-1.38v-1.11l.85.36c.57-.52,1.09-1.09,1.57-1.66h-4.03l-.12-.45h2.94v-2.08h-2.35l-.12-.45h2.47v-2.2l1.5.17c-.03.21-.18.36-.55.4v1.63h.84l.63-.82Zm-2.53,5.96l-.18.15v1.81h3.25v-1.96h-3.07Zm3.07,4.45v-2.04h-3.25v2.04h3.25Zm-1.36-7.06c.55-.67,1.03-1.38,1.47-2.08h-2.11v2.08h.64Zm9.5-3.15c-.12.14-.33.17-.69.17-.52,1-1.53,2.86-2.2,3.84,1.77,1.24,2.43,2.59,2.43,3.79,0,1.47-.58,2.17-2.17,2.26,0-.33-.08-.64-.2-.76-.13-.11-.51-.2-.91-.23v-.24h1.41c.18,0,.27-.01.42-.09.3-.17.45-.51.45-1.12,0-1.14-.48-2.37-1.8-3.6.43-.97,1.09-2.85,1.51-4.11h-2.61v11.78c0,.09-.31.36-.81.36h-.14v-13.16l1.12.58h2.4l.63-.61,1.15,1.14Z"/>
          <path class="cls-1" d="m46.7,86.01c-.09.17-.22.25-.57.21-.31.67-.75,1.45-1.29,2.22l.69.27c-.06.13-.2.22-.46.25v6.95c-.01.08-.4.31-.76.31h-.18v-6.82c-.52.66-1.12,1.27-1.77,1.8l-.15-.15c-.21,1.74-.73,3.54-1.99,4.94l-.21-.13c1.27-2.31,1.36-5.14,1.36-7.75v-4.18l1.15.49h4.2v-1.93l1.5.16c-.03.21-.18.36-.55.41v1.36h3.97l.73-.93s.82.66,1.32,1.12c-.03.17-.18.24-.39.24h-10.95v3.25c0,.88-.01,1.86-.13,2.88,1.35-1.54,2.49-3.91,2.98-5.57l1.51.58Zm5.86,1.29s.75.64,1.18,1.09c-.04.16-.17.24-.38.24h-1.9v6.16c0,.81-.17,1.3-1.54,1.45-.04-.31-.13-.55-.34-.7-.24-.18-.64-.3-1.32-.39v-.24s1.6.12,1.9.12c.28,0,.36-.08.36-.31v-6.08h-4.32l-.12-.42h4.44v-2.7l1.48.16c-.04.2-.18.33-.54.39v2.14h.43l.66-.91Zm-5.78,2.28c3.13,1.59,2.1,3.91,1.09,3-.03-.96-.67-2.14-1.27-2.89l.18-.1Z"/>
          <path class="cls-1" d="m67.4,91.25c-.12.15-.25.18-.57.08-.7.49-1.81,1.18-2.88,1.72,1.29.94,2.94,1.57,4.81,1.92l-.02.16c-.4.06-.73.38-.87.81-3.3-.9-5.53-2.64-6.58-5.78h-2.17v4.14c1.06-.24,2.25-.52,3.45-.81l.06.24c-1.41.55-3.31,1.27-5.93,2.16-.08.18-.2.3-.33.36l-.69-1.21c.54-.09,1.41-.27,2.46-.51v-4.36h-3.07l-.11-.45h3.18v-6.77l1.3.55h5.65l.71-.87s.81.63,1.32,1.06c-.04.17-.2.24-.4.24h-7.58v1.62h5.36l.66-.82s.75.58,1.23,1.02c-.04.15-.19.22-.39.22h-6.86v1.66h5.36l.66-.81s.75.57,1.23,1c-.04.16-.19.24-.39.24h-6.86v1.65h7.54l.72-.85s.81.6,1.32,1.06c-.03.17-.16.24-.37.24h-6.73c.48,1.08,1.17,1.95,2.05,2.67.91-.78,1.95-1.8,2.5-2.46l1.24.88Z"/>
          <path class="cls-1" d="m83.36,83.9c-.11.1-.34.24-.66.3v10.64c0,.78-.2,1.29-1.74,1.44-.06-.3-.17-.54-.42-.66-.28-.16-.75-.3-1.6-.4v-.22s1.96.13,2.35.13c.34,0,.45-.12.45-.39v-10.73h-9.82v11.87c0,.13-.36.39-.78.39h-.18v-13.2l1.05.5h9.57l.52-.61,1.24.96Zm-8.98,9.11v.96c0,.12-.39.31-.7.31h-.18v-5.12l1.36.13c-.03.18-.15.32-.48.36v2.92h1.87v-4.66h-3.73l-.1-.45h5c.43-.93.91-2.22,1.2-3.15l1.51.45c-.08.18-.25.31-.57.28-.42.7-1.08,1.65-1.75,2.41h1.68l.67-.82s.78.58,1.24,1.03c-.04.17-.19.24-.39.24h-3.84v4.66h1.98v-3.42l1.36.13c-.03.18-.17.32-.48.36v4.06c0,.1-.39.31-.72.31h-.16v-1.02h-4.78Zm-.21-8.63c2.68,1.54,1.71,3.52.81,2.68-.04-.82-.55-1.92-1-2.59l.19-.09Z"/>
          <path class="cls-1" d="m89.86,92.51c-.12.15-.24.2-.57.12-.9.99-2.58,2.2-4.27,2.94l-.17-.21c1.45-.94,2.97-2.44,3.7-3.57l1.3.72Zm7.28-8.92s.9.69,1.47,1.18c-.04.17-.21.24-.42.24h-12.98l-.13-.43h6.19v-2.08l1.54.16c-.03.21-.18.36-.54.41v1.51h4.06l.81-.99Zm-4.85,6.8v4.43c0,.78-.23,1.3-1.71,1.44-.03-.3-.13-.54-.36-.69-.24-.17-.7-.29-1.48-.38v-.24s1.8.13,2.16.13c.31,0,.39-.09.39-.3v-4.41h-2.77v.54c0,.09-.43.33-.84.33h-.15v-5.05l1.08.48h6.31l.54-.63,1.26.96c-.1.12-.38.24-.66.3v3.48c-.02.1-.51.33-.85.33h-.15v-.73h-2.76Zm2.76-.43v-2.85h-6.53v2.85h6.53Zm-1.14,2.01c4.88,1.68,4.52,4.12,3.3,3.52-.61-1.06-2.28-2.52-3.45-3.37l.15-.15Z"/>
          <path class="cls-1" d="m112.25,83.78s.87.67,1.41,1.15c-.04.17-.2.24-.4.24h-6.16l.67.07c-.03.2-.15.33-.46.39v1.75h3.39l.49-.6,1.27.94c-.09.12-.33.25-.64.3v5.09c0,.75-.18,1.26-1.63,1.38-.06-.29-.15-.52-.34-.67-.24-.16-.66-.31-1.38-.39v-.23s1.62.11,1.99.11c.3,0,.39-.09.39-.3v-5.18h-3.54v7.87c0,.15-.46.42-.82.42h-.19v-8.29h-3.49v6.4c0,.1-.39.33-.81.33h-.17v-7.66l1.06.48h3.4v-2.22h-6.17l-.12-.45h6.29v-2.23l1.54.17c-.03.21-.18.36-.52.42v1.65h4.17l.78-.94Z"/>
          <path class="cls-1" d="m119.54,89.62c-.32.78-1,2.47-1.17,3.04-.15.46-.25.81-.25,1.08,0,.43.3.91.3,1.27,0,.28-.15.45-.43.45-.27,0-.51-.24-.7-.55-.41-.61-.87-1.96-.87-3.36,0-1.78.48-3.06.72-3.96.18-.72.36-1.24.38-1.74.01-.54-.34-1.03-.84-1.57l.24-.19c.3.13.51.25.76.45.31.25.97.94.97,1.57,0,.34-.21.62-.57,1.51-.39.84-.96,2.19-.96,3.67,0,.79.12,1.09.24,1.29.09.18.2.21.33.01.33-.52,1.17-2.4,1.5-3.16l.36.18Zm1.5,1.29c.09.36.22.93.43,1.3.51.88,1.3,1.41,3.15,1.41,1.62,0,2.19-.27,2.55-.27.4,0,.79.14.79.48,0,.6-1.39.78-3.01.78-2.34,0-3.61-.78-4.06-2.31-.14-.45-.2-.93-.2-1.33l.34-.06Zm.17-4.69c1.2-.66,2.53-.93,3.58-.93s1.6.1,2.08.31c.31.13.45.34.45.52,0,.19-.09.33-.4.37-.36.04-.73.08-1.23.29-.66.3-1.72.9-2.46,1.36l-.25-.27c.67-.48,1.74-1.26,2.05-1.53.18-.17.17-.27-.82-.27-.61,0-1.59.09-2.85.49l-.15-.36Z"/>
          <path class="cls-1" d="m136.72,86.68c.54.13,1,.31,1.3.64.13.17.17.32.12.52,2.29.27,3.57,1.95,3.57,3.63,0,2.83-2.98,4.13-6.89,4.22l-.06-.33c3.66-.48,5.92-1.83,5.92-4.17,0-1.44-1-2.68-2.7-2.91-.54,1.17-1.63,2.74-2.88,4.02.2.43.38.76.38,1.08,0,.28-.2.4-.45.4-.27,0-.51-.3-.69-.75-1.08.93-2.17,1.42-3.07,1.42-.67,0-1.05-.37-1.05-1.17,0-1.96,1.96-3.75,3.69-4.64.07-.7.18-1.45.28-2.14-.45.04-.93.07-1.36.07-.97,0-1.51-.28-2.16-1.27l.24-.24c.79.64,1.27.76,2.02.76.46,0,.93-.03,1.38-.09.1-.66.18-1.2.18-1.45s-.06-.31-.27-.4c-.27-.09-.57-.14-.88-.17v-.31c.27-.06.58-.14.76-.14.85,0,1.62.51,1.62.79,0,.31-.27.36-.4.88-.06.18-.11.4-.17.66,2.07-.4,3.12-1.11,3.39-1.11.51,0,.79.16.79.42,0,.2-.08.31-.34.43-.63.27-2.4.79-4.02,1.05-.12.6-.24,1.27-.31,1.9.73-.29,1.68-.49,2.67-.51.04-.37-.2-.57-.75-.87l.15-.25Zm-2.61,5.62c-.18-.75-.27-1.66-.27-2.46,0-.18,0-.36.02-.55-1.71,1.06-2.83,2.65-2.83,3.69,0,.4.15.57.51.57.75,0,1.75-.55,2.58-1.24Zm.72-.7c.96-1.02,1.93-2.37,2.35-3.34-.93.03-1.72.24-2.59.64-.01.27-.03.52-.03.76,0,.82.12,1.44.27,1.93Z"/>
          <path class="cls-1" d="m146.35,84.02c.2.43.39.88.78.88.6,0,2.49-.48,3.16-.67.33-.1.37-.25.58-.25.45,0,1.27.63,1.27,1.03,0,.29-.34.3-.87.76-.76.63-2.76,2.56-3.43,3.31-.11.09-.05.21.07.15.69-.25,1.57-.52,2.58-.52,1.95,0,3.61,1.27,3.57,3.36-.03,1.87-1.71,3.42-4.54,3.42-1.68,0-2.82-.67-2.82-1.75,0-.79.71-1.41,1.68-1.41,1.08,0,2.2.69,2.44,2.16,1.5-.42,2.25-1.47,2.28-2.64.04-1.32-.96-2.64-2.8-2.64-2.16,0-3.67,1.35-4.93,2.97-.22.29-.34.38-.57.36-.18,0-.41-.23-.39-.6.01-.27.15-.48.49-.82,2.35-2.46,5.06-5.04,5.69-6.04.13-.22.04-.28-.13-.25-.48.1-1.78.57-2.43.82-.29.12-.49.34-.73.34-.57,0-1.12-.64-1.24-1.08-.06-.24-.04-.55.01-.84l.27-.04Zm3.6,10.61c-.2-1.15-.93-1.75-1.78-1.75-.52,0-.93.32-.93.79,0,.52.64.99,2.1.99.21,0,.42-.01.61-.03Z"/>
          <path class="cls-1" d="m163.6,83.88c.34-.12.64-.24.94-.24.72,0,1.6.57,1.6.97,0,.25-.28.34-.3.87-.03.46-.05,1.06-.08,1.77,1.15-.23,2.08-.39,2.41-.39.61,0,1.15.22,1.15.69,0,.3-.23.38-.64.38-.58,0-1.12-.09-2.17,0-.24.03-.49.06-.78.1-.04,1.06-.13,2.35-.3,3.03-.15.69-.48,1.11-1.02,1.11-.21,0-.33-.04-.49-.33-.23-.45-.88-.7-1.48-.96l.11-.33c.66.2,1.39.39,1.65.39.22,0,.37-.06.48-.36.12-.48.21-1.57.24-2.41-1.47.27-3.19.67-4.25.96-.02,1.3-.04,2.71-.03,3.4.06,1.6.37,1.8,2.4,1.8,1.84,0,2.97-.38,3.45-.38s.9.18.9.54c0,.3-.18.42-.63.52-.6.13-1.92.24-3.48.24-2.16,0-3.33-.46-3.4-2.16-.04-.82-.03-2.29-.04-3.72-1.8.55-2.41.96-2.82.96s-.99-.52-1.21-1.08c-.09-.18-.08-.46-.08-.75l.22-.09c.24.41.61.84.97.84s1.92-.41,2.91-.66c.02-1.03.02-1.96-.03-2.4-.03-.43-.12-.52-.36-.61-.22-.09-.58-.1-.87-.13v-.31c.27-.09.6-.19.99-.19.55,0,1.51.49,1.51.88,0,.27-.24.33-.29.91-.04.36-.06.96-.09,1.65.99-.24,2.88-.69,4.24-.97.01-.91.01-2.1-.03-2.7-.01-.24-.13-.36-.39-.42-.24-.06-.54-.09-.9-.12v-.3Z"/>
          <path class="cls-1" d="m172.91,87.03c0-.81-.1-1.18-1.17-1.93l.13-.24c.36.06.66.12.94.24.54.25,1.32.93,1.32,1.54,0,.66-.51,1.6-.51,3.15,0,1.9.87,2.88,1.5,3.21.22.12.39.09.52-.1.46-.7.97-1.81,1.41-2.74l.39.18c-.34.99-.82,2.25-.91,2.71-.13.67.11.75.11,1.06,0,.4-.41.64-1.02.39-1.17-.51-2.73-1.81-2.77-4.68-.03-1.08.06-2.11.06-2.79Zm6.98-.37l.13-.36c1.41.25,2.14.78,2.82,1.48.85.88,1.3,2.37,1.3,3.37,0,.58-.2.84-.6.84-.24,0-.42-.18-.48-.52-.1-.66-.22-1.93-.85-3-.53-.88-1.33-1.44-2.32-1.81Z"/>
          <path class="cls-1" d="m198.83,86.23c-.04.21-.17.36-.55.42v8.95c0,.12-.42.34-.81.34h-.2v-1.56h-9.48v1.44c0,.13-.42.38-.79.38h-.19v-10.07l1.53.17c-.03.21-.15.36-.54.4v7.24h4.2v-11.06l1.54.18c-.03.21-.17.34-.52.41v10.47h4.27v-7.87l1.56.17Z"/>
          <path class="cls-1" d="m200.75,85.87c3.18.39,2.58,2.53,1.51,1.93-.24-.64-1-1.39-1.63-1.8l.12-.13Zm4.35-.73c-.64,1.89-1.89,5.45-2.1,6.17-.12.48-.22.94-.22,1.32.01.66.45,1.35.39,2.56-.03.64-.32,1.03-.82,1.03-.29,0-.43-.27-.48-.73.19-1.53.12-2.7-.21-2.91-.2-.15-.4-.2-.73-.22v-.33h.66c.18,0,.24-.01.38-.3q.25-.54,2.86-6.67l.29.08Zm-3-2.5c3.28.48,2.68,2.7,1.57,2.1-.24-.69-1.03-1.51-1.69-1.95l.12-.15Zm11.72,5.51s.64.64,1,1.09c-.04.17-.18.22-.39.22h-1.39v3.07c-.01.1-.49.28-.81.28h-.13v-.82h-2.64v2.77c0,.76-.17,1.33-1.59,1.47-.01-.3-.12-.57-.31-.7-.25-.17-.66-.3-1.38-.39v-.22s1.65.12,1.98.12c.28,0,.36-.09.36-.31v-2.73h-3.61l-.13-.43h3.75v-2.1h-4.34l-.12-.42h4.46v-1.99h-2.77c-.36.36-.73.67-1.09.94l-.2-.17c1.11-1.23,2.34-3.27,3.09-5.35l1.5.48c-.06.18-.25.31-.58.3-.13.27-.29.52-.42.78h2.41l.61-.63,1.12,1.05c-.1.09-.28.1-.57.13-.46.55-1.14,1.44-1.8,2.02h2.13l.54-.61,1.21.94c-.1.12-.36.24-.66.3v1.8h.21l.57-.9Zm-4.38-1.53c.36-.6.75-1.48,1-2.13h-2.68c-.49.78-1.05,1.5-1.62,2.13h3.3Zm.01,2.43h2.64v-1.99h-2.64v1.99Zm2.64.42h-2.64v2.1h2.64v-2.1Z"/>
          <path class="cls-1" d="m228,94.08s.88.67,1.41,1.17c-.04.17-.17.24-.39.24h-13.23l-.12-.43h6.34v-6.88h-5.32l-.13-.45h5.45v-5.2l1.54.18c-.03.21-.17.36-.52.42v4.6h3.37l.75-.94s.9.66,1.41,1.15c-.03.17-.18.24-.4.24h-5.12v6.88h4.2l.78-.97Z"/>
          <path class="cls-1" d="m235.44,91.97c-.1.15-.22.22-.57.15-.84,1.2-2.38,2.65-4.15,3.51l-.15-.18c1.47-1.06,2.83-2.82,3.48-4.15l1.39.67Zm7.49-3.13s.81.6,1.33,1.06c-.03.17-.18.24-.39.24h-5.87v4.66c0,.78-.2,1.29-1.59,1.42-.03-.28-.12-.54-.33-.67-.22-.17-.61-.29-1.33-.36v-.22s1.6.1,1.92.1c.27,0,.34-.09.34-.29v-4.64h-6.05l-.13-.45h11.36l.75-.85Zm1.44-3.7c-.09.12-.27.15-.57.17-.4.49-1.11,1.2-1.68,1.6l-.19-.12c.21-.43.49-1.12.69-1.66h-9.81c0,.96-.41,1.59-.82,1.89-.36.27-.93.3-1.09-.04-.15-.3.06-.63.36-.81.63-.36,1.17-1.29,1.08-2.32h.27c.09.29.15.57.18.84h4.24v-2.2l1.54.17c-.03.21-.18.36-.54.4v1.63h4.57l.63-.64,1.15,1.11Zm-3.76,1.18s.81.58,1.29,1.02c-.04.16-.18.24-.39.24h-8.08l-.12-.45h6.62l.67-.81Zm-.7,5.14c4.87,1.81,4.33,4.76,3.06,3.97-.42-1.3-1.98-2.92-3.24-3.84l.18-.13Z"/>
          <path class="cls-1" d="m251.84,94.79c3.67-.64,5.44-2.53,5.44-5.24s-1.98-4.38-4.45-4.38c-.18,0-.36.01-.54.03.34.48.64,1,.64,1.59,0,.72-.17,1.56-.46,2.41-.63,1.8-2.37,4.71-3.9,4.71-1,0-2.05-1.59-2.05-3.43,0-1.51.72-3.07,1.99-4.21,1.23-1.09,2.77-1.6,4.38-1.6,3.09,0,5.47,2.02,5.47,5.12,0,2.49-1.56,5.03-6.46,5.35l-.06-.34Zm-.11-9.5c-1.05.21-2.07.73-2.83,1.48-.96.93-1.54,2.14-1.54,3.46,0,1.44.66,2.53,1.27,2.53.99,0,2.37-2.37,2.98-3.79.28-.72.54-1.63.54-2.31,0-.54-.17-.93-.42-1.38Z"/>
          <path class="cls-1" d="m260.28,95.01c.43-1.11.79-2.73.96-4.26l1.35.31c-.04.18-.21.31-.52.33-.34,1.38-.87,2.8-1.54,3.75l-.24-.13Zm3.88-7.58c2.58,1.56,1.65,3.45.79,2.65-.03-.33-.12-.72-.25-1.09-.33.08-.67.17-1.06.25v6.68c0,.07-.31.31-.78.31h-.13v-6.8c-.49.1-1.05.21-1.65.33-.07.2-.22.27-.36.3l-.36-1.11c.33,0,.81-.03,1.41-.06.88-1.36,1.86-3.21,2.43-4.55l1.41.6c-.09.16-.27.27-.58.22-.67,1.08-1.74,2.55-2.82,3.7.72-.04,1.54-.11,2.38-.18-.18-.43-.41-.85-.6-1.18l.18-.07Zm.01-4.39c-.06.18-.22.28-.54.27-.46.76-1.05,1.56-1.63,2.16,1.18.94.6,2.04-.15,1.51-.13-.69-.81-1.57-1.38-2.08l.15-.12c.43.13.78.3,1.06.46.36-.76.73-1.78,1.02-2.74l1.47.54Zm.11,7.57c2.28,1.75,1.27,3.58.48,2.76.01-.87-.34-1.98-.67-2.68l.2-.07Zm2.58,1.15c.18,1.39-.21,2.52-.6,3-.25.31-.79.46-.99.19-.18-.25-.03-.58.21-.82.45-.42,1-1.47,1.11-2.4l.27.03Zm2.43-8.5c-.08.15-.24.27-.55.22-.76,1.38-1.8,2.5-2.89,3.21l-.2-.18c.85-.85,1.72-2.29,2.23-3.84l1.41.58Zm1.26,3.58c3.34,1.48,2.56,3.75,1.56,2.98-.06-.38-.24-.79-.46-1.2-1.12.22-2.58.54-4.48.87-.09.18-.24.27-.39.3l-.4-1.24c.33,0,.82-.01,1.41-.03.43-1.05.9-2.38,1.17-3.39l1.47.33c-.04.18-.21.31-.54.33-.39.79-1,1.83-1.63,2.7.93-.03,2.07-.09,3.24-.15-.33-.52-.72-1.02-1.09-1.39l.17-.11Zm1.36,8.08c.28.1.34.22.34.4,0,.37-.39.57-2.22.57h-1.23c-.99,0-1.15-.22-1.15-.85v-3.87l1.32.16c-.03.18-.18.32-.43.36v3.13c0,.18.04.23.46.23h2.04c.13-.02.18-.04.24-.18.09-.23.25-1,.38-1.8h.21l.04,1.84Zm-3.39-4.84c3.15.99,2.5,3.13,1.54,2.47-.18-.81-1-1.8-1.71-2.32l.17-.15Zm5.51-4.18c-.38.07-.69.36-.81.85-1.26-.82-2.31-2.22-2.91-4l.23-.12c.72,1.42,2.19,2.58,3.52,3.1l-.03.17Zm-2.22,5.32c3.24,1.87,2.34,4.21,1.35,3.34-.11-1.05-.87-2.4-1.53-3.22l.18-.12Z"/>
          <path class="cls-1" d="m283.02,86.49c1.36,2.64,3.87,4.96,6.2,6.04l-.03.15c-.42.04-.81.34-.99.82-2.28-1.39-4.33-3.9-5.53-7.01v6.14h1.36l.7-.94s.79.66,1.3,1.14c-.04.17-.19.24-.4.24h-2.97v2.8c0,.15-.42.38-.81.38h-.19v-3.18h-3.16l-.12-.43h3.28v-5.27c-1.35,2.56-3.49,4.76-6.26,6.28l-.15-.22c2.47-1.71,4.51-4.33,5.62-6.92h-5.32l-.13-.45h6.25v-3.54l1.56.18c-.04.22-.17.37-.55.43v2.92h4.14l.78-.97s.87.67,1.39,1.18c-.03.16-.18.24-.39.24h-5.57Z"/>
          <path class="cls-1" d="m303.47,86.23c-.04.21-.17.36-.55.42v8.95c0,.12-.42.34-.81.34h-.2v-1.56h-9.48v1.44c0,.13-.42.38-.79.38h-.19v-10.07l1.53.17c-.03.21-.15.36-.54.4v7.24h4.2v-11.06l1.54.18c-.03.21-.17.34-.52.41v10.47h4.27v-7.87l1.56.17Z"/>
          <path class="cls-1" d="m305.15,92.48c1.8.57,2.74,1.33,3.24,2.05.27.39.36.67.36,1,0,.43-.25.67-.61.67-.32,0-.51-.18-.72-.63-.48-.99-1.09-1.9-2.43-2.85l.17-.25Z"/>
          <path class="cls-1" d="m22.35,131.58s.88.66,1.42,1.17c-.04.17-.18.24-.39.24h-13.25l-.12-.45h2.31v-7.6l1.56.17c-.04.21-.18.36-.54.43v7h3.13v-10.74h-5.75l-.13-.43h10.46l.76-.96s.88.66,1.44,1.15c-.04.16-.19.24-.4.24h-5.35v4.76h2.88l.76-.94s.85.66,1.38,1.15c-.04.15-.18.22-.39.22h-4.63v5.54h4.08l.78-.96Z"/>
          <path class="cls-1" d="m30.28,120.43l1.12.85c-.09.1-.3.22-.55.27v4.72c-.01.09-.5.31-.81.31h-.13v-.82h-3.09v7.55c0,.13-.34.39-.79.39h-.18v-13.23l1.03.49h2.89l.51-.54Zm-3.46.99v1.71h3.09v-1.71h-3.09Zm3.09,3.93v-1.78h-3.09v1.78h3.09Zm8.6-4.05c-.11.12-.36.25-.66.31v10.61c0,.79-.18,1.32-1.75,1.5-.04-.33-.17-.58-.42-.73-.29-.18-.73-.31-1.57-.42v-.24s1.96.15,2.34.15c.33,0,.43-.1.43-.37v-6.34h-3.22v.43c0,.09-.4.31-.81.31h-.15v-5.99l1.02.45h3.01l.51-.63,1.27.96Zm-4.86.12v1.71h3.22v-1.71h-3.22Zm3.22,3.93v-1.78h-3.22v1.78h3.22Z"/>
          <path class="cls-1" d="m44.12,121.33c.25-.11.57-.2.97-.2.61,0,1.72.52,1.72.9,0,.33-.3.49-.46.87-.15.36-.37.93-.66,1.59.4-.08.9-.13,1.24-.13,1.12,0,1.77.61,1.77,2.38s-.54,3.91-1.42,5.02c-.43.57-1.05.94-1.81.94-.49,0-.6-.21-.79-.64-.11-.22-.21-.41-1.05-1.12l.18-.24c.78.5,1.45.9,1.8.9.46,0,.81-.17,1.2-.78.5-.76,1.05-2.59,1.05-4.3,0-1.09-.25-1.56-1.09-1.56-.34,0-.84.09-1.35.22-.43,1-.94,2.14-1.42,3.15-.82,1.66-1.57,3.13-2.22,4.08-.22.36-.39.46-.61.46-.21,0-.45-.21-.45-.55,0-.25.04-.43.24-.69.82-1.06,1.48-2.08,2.34-3.7.36-.72.76-1.6,1.12-2.47-.55.18-1.06.36-1.36.48-.64.25-.85.42-1.23.42s-.94-.57-1.06-1.05c-.06-.24-.04-.58.03-.87l.3-.04c.17.4.27.88.7.88.48,0,1.83-.36,2.94-.6.45-1.15.78-2.13.78-2.41,0-.18-.04-.3-.24-.39-.22-.12-.78-.2-1.14-.22v-.31Zm5.75,3.04c1.21.18,1.96.57,2.56,1.24.55.6.93,1.59.93,2.74,0,.6-.19,1.09-.63,1.11-.43,0-.41-.42-.84-.51-.31-.06-1.26.01-1.77.07l-.09-.36c.55-.1,1.51-.3,1.92-.45.31-.12.36-.25.34-.64-.03-.39-.17-1.05-.61-1.68-.42-.58-1.02-.99-1.99-1.17l.18-.36Z"/>
          <path class="cls-1" d="m57.7,121.25l.09-.33c1.39.13,2.17.5,2.7.85.64.45.85.88.85,1.41,0,.38-.16.57-.48.57-.39,0-.49-.1-1.15-.09-.85.03-1.89.27-2.26.36-.24.06-.31.17-.31.32,0,.16.18.57.18.87.01.37-.15.76-.29,1.29-.15.69-.36,1.47-.36,2.2,0,.16.09.19.21.09,1.66-1.39,3.45-2.16,5-2.16,2.25,0,3.33,1.47,3.33,2.97,0,2.7-4,3.79-7.43,3.58l-.04-.37c1.06-.04,2.16-.22,2.85-.42,2.77-.75,3.58-1.96,3.58-3.06,0-1.33-1.05-2.17-2.34-2.17-1.68,0-3.46,1.32-4.63,2.65-.22.25-.4.72-.69.72-.18,0-.33-.11-.51-.32-.18-.19-.3-.49-.3-.69,0-.24.1-.58.15-.96.11-.9.38-2.2.5-2.94.1-.63.04-1.02.04-1.35s.13-.57.61-.69c.78-.21,2.23-.52,2.83-.75.22-.07.25-.22.01-.48-.39-.48-1.21-.84-2.14-1.11Z"/>
          <path class="cls-1" d="m66.64,132.33c.4-1.06.78-2.62.94-4.09l1.35.33c-.06.18-.23.33-.52.33-.34,1.3-.88,2.65-1.54,3.55l-.22-.12Zm3.31-5.65v6.71c0,.08-.33.31-.78.31h-.15v-6.8c-.46.12-.99.24-1.54.36-.07.18-.22.28-.36.31l-.39-1.09c.31-.02.79-.06,1.36-.11.91-1.36,1.87-3.19,2.43-4.58l1.41.6c-.07.17-.27.27-.58.22-.64,1.11-1.69,2.56-2.79,3.72.67-.06,1.44-.13,2.23-.22-.12-.49-.31-.97-.49-1.35l.19-.07c2.23,1.51,1.23,3.3.42,2.47.01-.22-.01-.46-.06-.7l-.9.22Zm.63-6.16c-.06.17-.22.28-.55.25-.46.78-1.03,1.56-1.59,2.16,1.17.91.58,2.02-.15,1.53-.17-.72-.84-1.57-1.42-2.08l.17-.12c.43.13.78.28,1.06.45.34-.78.73-1.8,1.02-2.74l1.47.55Zm0,7.54c2.4,1.72,1.42,3.64.6,2.8-.01-.85-.43-1.99-.78-2.73l.18-.08Zm.5,5.45c2.77-1.36,3.22-3.73,3.07-6.23l1.57.22c-.06.24-.22.36-.54.39-.08,2.35-.69,4.62-3.97,5.83l-.13-.21Zm2.14-7.19c0,.67-.2,1.2-.43,1.48-.25.27-.78.34-.97.03-.15-.29-.02-.61.27-.82.37-.31.75-1.12.72-1.78h.25c.06.24.11.45.13.64h5.87l.57-.58,1.08,1.03c-.11.1-.29.13-.55.15-.36.43-1,1.06-1.47,1.44l-.21-.12c.18-.38.43-.97.6-1.47h-5.86Zm-1.06-4.45h3.3v-1.83l1.44.17c-.03.18-.15.31-.46.39v1.27h2.07l.67-.87s.78.61,1.26,1.05c-.03.17-.18.24-.39.24h-3.61v1.72h1.66l.64-.79s.73.55,1.18,1c-.04.17-.18.24-.39.24h-6.74l-.12-.45h2.79v-1.72h-3.18l-.12-.42Zm8.18,10.53c.29.12.34.24.34.42,0,.39-.4.6-1.99.6h-.97c-.93,0-1.08-.25-1.08-.9v-5.24l1.36.15c-.02.2-.15.34-.43.39v4.47c0,.19.04.24.37.24h.76c.37,0,.63,0,.75-.01s.17-.03.21-.2c.09-.24.27-1.24.43-2.17h.19l.04,2.26Z"/>
          <path class="cls-1" d="m86.62,120.9l.18-.29c.36.08.63.15.93.31.52.29,1.08.91,1.08,1.27,0,.32-.25.43-.78.82-1,.81-2.98,2.64-3.61,3.27-.43.43-.52.6-.52.78,0,.2.18.39.51.64,1.54,1.23,2.85,2.2,3.91,3.55.42.54.73,1.12.73,1.56,0,.39-.19.64-.57.64-.24,0-.42-.17-.52-.36-.17-.3-.3-.67-.72-1.3-.7-1.06-1.78-2.14-3.6-3.69-.39-.31-.58-.63-.58-.96,0-.27.15-.54.39-.79.75-.88,2.97-3.04,3.66-3.88.25-.3.34-.45.34-.63,0-.25-.21-.54-.82-.96Z"/>
          <path class="cls-1" d="m92.48,132.54c.51-1.11.93-2.74,1.12-4.32l1.36.36c-.06.18-.22.31-.54.33-.37,1.41-.96,2.82-1.71,3.76l-.24-.13Zm4.39-7.69c2.76,1.57,1.87,3.55.96,2.76-.03-.34-.15-.75-.31-1.14-.4.11-.85.21-1.36.32v6.61c0,.09-.33.31-.79.31h-.15v-6.71c-.58.14-1.24.27-1.95.42-.07.18-.22.29-.36.31l-.39-1.12c.36-.02.9-.05,1.57-.11.96-1.38,2.01-3.27,2.61-4.67l1.39.61c-.09.17-.29.27-.6.22-.69,1.11-1.81,2.61-2.95,3.79.84-.08,1.83-.17,2.85-.27-.21-.45-.46-.88-.69-1.23l.18-.11Zm-.34-4.33c-.08.17-.22.27-.54.25-.5.79-1.11,1.65-1.71,2.26,1.17.9.64,1.93-.08,1.47-.21-.7-.99-1.59-1.63-2.08l.15-.13c.52.15.94.34,1.27.54.38-.78.78-1.86,1.09-2.86l1.44.55Zm.41,7.6c2.55,1.89,1.6,3.88.72,3.04-.06-.93-.52-2.16-.93-2.98l.21-.06Zm8.21,3.52s.84.63,1.32,1.11c-.03.17-.19.24-.39.24h-8.47l-.1-.45h3.82v-10.4h-2.97l-.12-.43h5.81l.7-.87s.78.63,1.26,1.08c-.04.15-.2.22-.4.22h-3.28v10.4h2.13l.69-.9Z"/>
          <path class="cls-1" d="m115.43,130.01c1.44,1.18,3.91,2.14,5.96,2.55l-.03.18c-.39.06-.72.36-.82.81-2.1-.67-4.32-1.93-5.6-3.54h-.08v3.48c0,.11-.42.32-.79.32h-.18v-3.61c-1.5,1.57-3.79,2.71-6.41,3.4l-.12-.25c2.16-.78,4.08-1.96,5.33-3.33h-5l-.12-.43h6.32v-1.47h-2.67v.46c0,.12-.42.34-.79.34h-.17v-4.22h-2.46l-.13-.43h2.59v-1.32l1.2.13v-1.15h-3.84l-.09-.45h3.93v-1.5l1.48.17c-.03.21-.15.34-.52.4v.93h3.82v-1.5l1.48.17c-.03.21-.17.34-.52.4v.93h2.05l.69-.87s.81.61,1.26,1.08c-.03.17-.16.24-.37.24h-3.63v.84s-.03.08-.09.11l1.45.15c-.03.21-.17.33-.52.39v.85h1.2l.66-.79s.72.58,1.2,1c-.04.15-.18.23-.39.23h-2.67v2.05c0,.13-.43.34-.78.34h-.17v-.66h-2.49v.46c0,.09-.42.3-.79.3h-.15v-2.5h-2.44v2.98h7.51l.67-.79s.73.55,1.21.99c-.04.17-.18.24-.39.24h-4.83c-.04.18-.18.31-.54.37v1.09h4.44l.7-.82s.79.58,1.27,1.02c-.04.17-.18.24-.38.24h-5.47Zm-4.21-5.75h2.44v-1.53l1.47.15c-.03.22-.15.34-.52.4v.97h2.49v-1.38c-.13.08-.38.15-.7.17h-.15v-1.12h-3.82v.91c0,.1-.4.24-.81.24h-.13l.27.03c-.03.18-.16.31-.52.38v.78Zm5.87.43h-2.49v1.29h2.49v-1.29Z"/>
          <path class="cls-1" d="m134.83,131.71s.88.66,1.42,1.15c-.04.17-.18.22-.41.22h-13.22l-.12-.43h4.81v-8.66h-4.14l-.13-.45h7.34c.6-1.03,1.24-2.47,1.62-3.54l1.59.45c-.08.18-.24.28-.58.28-.51.84-1.38,1.95-2.22,2.8h2.85l.75-.93s.85.64,1.39,1.14c-.04.17-.19.24-.4.24h-4.05v8.66h2.73l.76-.94Zm-10.47-6.25c2.79,3.25,1.9,5.99.88,4.95.03-1.51-.58-3.52-1.12-4.88l.24-.06Zm1.38-5.44c3.28,1.53,2.38,3.87,1.33,3.04-.13-.97-.87-2.19-1.51-2.94l.18-.1Zm2.56,12.63h2.07v-8.66h-2.07v8.66Zm3.82-1.69c.49-1.48,1.11-3.78,1.51-5.72l1.59.45c-.04.16-.22.3-.54.31-.63,1.75-1.47,3.72-2.31,5.08l-.25-.12Z"/>
          <path class="cls-1" d="m145.15,124.24c1.36,2.86,3.88,5.38,6.29,6.52l-.04.17c-.4.03-.79.34-.97.84-2.31-1.48-4.38-4.14-5.57-7.42v8.96c0,.15-.43.4-.81.4h-.19v-8.44c-1.38,2.68-3.58,5.09-6.37,6.73l-.2-.19c2.58-1.9,4.69-4.78,5.81-7.57h-5.32l-.13-.45h6.2v-3.82l1.53.18c-.04.21-.15.36-.52.42v3.22h4.09l.79-.96s.87.66,1.41,1.17c-.03.17-.18.24-.39.24h-5.6Z"/>
          <path class="cls-1" d="m156.63,121.42c.25-.11.57-.2.97-.2.61,0,1.72.52,1.72.9,0,.33-.3.49-.46.87-.15.36-.38.93-.66,1.59.4-.08.9-.13,1.24-.13,1.12,0,1.77.61,1.77,2.38s-.54,3.91-1.42,5.02c-.43.57-1.05.94-1.81.94-.5,0-.6-.21-.79-.64-.1-.22-.21-.41-1.05-1.12l.18-.24c.78.5,1.45.9,1.8.9.46,0,.81-.17,1.2-.78.5-.76,1.05-2.59,1.05-4.3,0-1.09-.25-1.56-1.09-1.56-.34,0-.84.09-1.35.22-.43,1-.94,2.14-1.42,3.15-.82,1.66-1.57,3.13-2.22,4.08-.22.36-.39.46-.61.46-.21,0-.45-.21-.45-.55,0-.25.04-.43.24-.69.82-1.06,1.48-2.08,2.34-3.7.36-.72.76-1.6,1.12-2.47-.55.18-1.06.36-1.36.48-.64.25-.85.42-1.23.42s-.94-.57-1.06-1.05c-.06-.24-.04-.58.03-.87l.3-.04c.17.4.27.88.7.88.48,0,1.83-.36,2.94-.6.45-1.15.78-2.13.78-2.41,0-.18-.04-.3-.24-.39-.22-.12-.78-.2-1.14-.22v-.31Zm5.75,3.04c1.21.18,1.96.57,2.56,1.24.55.6.93,1.59.93,2.74,0,.6-.2,1.09-.63,1.11-.43,0-.4-.42-.84-.51-.31-.06-1.26.01-1.77.07l-.09-.36c.55-.1,1.51-.3,1.92-.45.31-.12.36-.25.34-.64-.03-.39-.16-1.05-.61-1.68-.42-.58-1.02-.99-1.99-1.17l.18-.36Zm.61-2.59c.76.31,1.33.64,1.71,1,.38.34.52.6.52.88,0,.25-.15.41-.36.41-.24,0-.42-.34-.7-.72-.3-.38-.72-.85-1.38-1.32l.21-.25Zm1.35-.97c.76.28,1.35.57,1.71.88.4.33.55.61.55.93,0,.25-.12.38-.34.38-.24,0-.39-.34-.72-.72-.34-.37-.7-.73-1.39-1.2l.2-.27Z"/>
          <path class="cls-1" d="m179.91,121.42s.82.63,1.33,1.11c-.04.17-.17.24-.38.24h-7.6c-.38.69-.81,1.38-1.32,2.04l.28.12h5.48l.54-.64,1.33.99c-.12.13-.39.27-.72.33v6.68c0,.79-.15,1.29-1.57,1.42-.06-.31-.13-.57-.34-.72-.24-.17-.61-.3-1.3-.39v-.24s1.57.12,1.89.12c.28,0,.34-.1.34-.33v-2.08h-5.83v3.3c0,.09-.33.34-.79.34h-.17v-7.87c-.94,1.05-2.08,2.01-3.4,2.74l-.15-.18c2.01-1.44,3.55-3.52,4.62-5.63h-4.38l-.13-.43h4.72c.38-.81.67-1.62.9-2.4l1.56.51c-.06.18-.2.27-.6.24-.21.54-.45,1.09-.73,1.65h5.68l.73-.91Zm-7.85,3.96v1.89h5.83v-1.89h-5.83Zm5.83,4.24v-1.9h-5.83v1.9h5.83Z"/>
          <path class="cls-1" d="m195.56,128.06c-.1.1-.34.24-.64.3v4.94c-.01.11-.51.36-.85.36h-.15v-1.11h-6.19v.82c0,.08-.31.33-.81.33h-.17v-5.39c-1.26.67-2.65,1.24-4.18,1.69l-.13-.23c2.17-.82,4.18-1.99,5.84-3.39-.12.01-.27-.02-.42-.11-.28-.76-1.18-1.72-1.96-2.37-.93.75-1.95,1.41-3,1.89l-.15-.18c2.08-1.29,4.17-3.6,5.18-5.65l1.54.55c-.08.15-.2.21-.58.15-.22.34-.49.7-.79,1.06h3.78l.73-.67,1.12,1.09c-.1.13-.27.18-.67.19-1.2,2.04-2.95,3.88-5.25,5.32l.09.04h5.86l.57-.63,1.23.96Zm-7.82-5.89c-.46.52-.99,1.03-1.56,1.53,2.11.73,2.62,1.86,2.44,2.4,1.35-1.18,2.44-2.52,3.22-3.93h-4.11Zm6.17,9.95v-3.96h-6.19v3.96h6.19Z"/>
          <path class="cls-1" d="m197.78,123.26c.21.39.61.75.94.75.78,0,3.67-.87,6.14-1.44,1.72-.4,2.89-.61,3.4-.61.39,0,.82.06,1.06.17.33.15.45.31.45.52s-.18.39-.51.39c-.28,0-.73-.04-1.29-.04-.72,0-1.77.09-2.52.55-.67.41-2.17,1.8-2.17,4.79,0,1.63.67,2.31,1.27,2.68.97.58,2.29.49,2.91.49.36,0,.85.25.85.63s-.4.49-1.08.49c-.87,0-2.35-.06-3.37-.84-.94-.69-1.44-1.59-1.44-3.28s.55-3.75,2.25-5.08c.11-.09.09-.18-.07-.13-1.68.4-3.81,1.11-4.71,1.53-.3.13-.6.38-.91.38-.55,0-1.3-.66-1.44-1.17-.06-.24-.04-.46-.06-.69l.29-.09Zm9.2,1.81c.75.3,1.33.66,1.71,1,.36.34.51.6.51.9,0,.24-.13.39-.36.39s-.39-.34-.69-.73c-.33-.36-.73-.84-1.38-1.3l.21-.25Zm1.32-1c.75.29,1.35.57,1.69.87.4.33.55.61.55.93,0,.25-.12.39-.34.39-.24,0-.39-.34-.7-.72-.34-.37-.72-.73-1.39-1.2l.19-.27Z"/>
          <path class="cls-1" d="m13.61,163.53c2.89,1.3,2.11,3.18,1.2,2.49-.15-.64-.69-1.47-1.2-2.08v6.91c0,.07-.34.31-.82.31h-.15v-6.46c-.67,1.36-1.56,2.59-2.64,3.61l-.21-.19c1.26-1.6,2.16-3.75,2.67-5.86h-2.32l-.11-.42h2.61v-2.49c-.82.21-1.71.39-2.56.51l-.08-.25c1.72-.46,3.78-1.39,4.78-2.13l1.26.99c-.13.13-.4.15-.76.03-.46.2-1.03.41-1.66.6v2.74h.72l.64-.84s.7.6,1.14,1.02c-.03.17-.18.24-.38.24h-2.13v1.27Zm10.23-2.2c-.08.17-.27.25-.58.2-.85,1.11-1.93,2.2-2.91,2.92.58,2.5,1.65,4.34,3.61,5.68l-.03.17c-.48.08-.81.33-.96.88-2.17-1.78-3.04-4.72-3.39-8.68-.24,3.76-1.18,6.68-5.23,8.74l-.19-.27c4.84-2.91,4.55-7.27,4.55-13.43l1.48.17c-.03.21-.18.38-.53.42.08,2.29.24,4.27.58,5.96.72-.9,1.57-2.22,2.2-3.51l1.38.75Zm-6.76-.67c.38,1.71-.06,3-.52,3.55-.3.34-.85.51-1.08.2-.18-.25-.03-.61.24-.87.52-.5,1.08-1.72,1.11-2.89l.25.02Z"/>
          <path class="cls-1" d="m29.59,164.58c-.32.78-1,2.47-1.17,3.04-.15.46-.25.81-.25,1.08,0,.43.3.91.3,1.27,0,.28-.15.45-.43.45-.27,0-.51-.24-.7-.55-.41-.61-.87-1.96-.87-3.36,0-1.78.48-3.06.72-3.96.18-.72.36-1.24.38-1.74.01-.54-.34-1.03-.84-1.57l.24-.2c.3.13.51.25.76.45.31.25.97.94.97,1.57,0,.34-.21.62-.57,1.51-.39.84-.96,2.19-.96,3.67,0,.79.12,1.09.24,1.29.09.18.2.21.33.01.33-.52,1.17-2.4,1.5-3.16l.36.18Zm1.5,1.29c.09.36.22.93.43,1.3.51.88,1.3,1.41,3.15,1.41,1.62,0,2.19-.27,2.55-.27.4,0,.79.14.79.48,0,.6-1.39.78-3.01.78-2.34,0-3.61-.78-4.06-2.31-.14-.45-.2-.93-.2-1.33l.34-.06Zm.17-4.69c1.2-.66,2.53-.93,3.58-.93s1.6.1,2.08.31c.31.13.45.34.45.52,0,.19-.09.33-.4.37-.36.04-.73.08-1.23.29-.66.3-1.72.9-2.46,1.36l-.25-.27c.67-.48,1.74-1.26,2.05-1.53.18-.17.17-.27-.82-.27-.62,0-1.59.09-2.85.49l-.15-.36Z"/>
          <path class="cls-1" d="m41.35,158.76c.34.15.49.21.76.45.32.24,1,1,1,1.63,0,.33-.21.6-.58,1.5-.36.85-.97,2.4-.97,3.96,0,.79.12,1.21.28,1.51.09.18.22.21.34,0,.31-.49,1.14-2.5,1.48-3.27l.36.18c-.28.78-.93,2.53-1.12,3.07-.13.48-.24.79-.24,1.03,0,.46.21.93.21,1.29,0,.29-.15.46-.42.46s-.49-.24-.72-.57c-.4-.6-.87-1.99-.87-3.51,0-1.78.46-3.28.72-4.18.2-.72.38-1.24.39-1.74.02-.54-.34-1.02-.87-1.63l.24-.2Zm6.46.27c.31-.13.76-.29,1.09-.29.63,0,1.42.4,1.42.76,0,.3-.13.39-.24,1.05-.06.33-.09.75-.12,1.24.42-.12.75-.24.97-.33.63-.25.82-.41.96-.41.31.02.78.18.78.48s-.2.42-.69.6c-.42.13-1.17.34-2.04.52,0,1.54.13,3.09.22,4.24,1.21.33,2.01.91,2.47,1.35.3.27.48.55.48.84,0,.3-.13.48-.39.48-.22,0-.4-.18-.69-.45-.54-.52-1.11-.99-1.81-1.3.01.17.01.3.01.43,0,1.14-.7,1.95-2.55,1.95-1.33,0-2.4-.61-2.4-1.69,0-1.27,1.32-1.86,2.94-1.86.39,0,.75.03,1.08.07-.04-1.06-.13-2.62-.17-3.93-.57.08-1.14.13-1.69.13-.93,0-1.54-.21-2.35-1.36l.22-.21c.6.46,1.24.76,2.1.76.62,0,1.2-.06,1.72-.15-.01-.73,0-1.62,0-2.01,0-.34-.06-.43-.27-.49-.29-.08-.64-.12-1.05-.13l-.03-.31Zm1.54,8.47c-.46-.12-.97-.18-1.54-.18-.93,0-1.95.39-1.95,1.11,0,.67.67.96,1.57.96,1.63,0,1.92-.6,1.92-1.81v-.08Z"/>
          <path class="cls-1" d="m58.26,158.43c.31-.08.58-.12.94-.1.54.03,1.48.39,1.5.73,0,.25-.21.63-.39,1.2-.08.27-.17.64-.29,1.06.79-.27,1.42-.55,1.89-.79.22-.12.39-.21.51-.21.25,0,.64.15.64.42,0,.28-.17.43-.72.67-.34.15-1.51.57-2.59.84-.21.73-.46,1.54-.73,2.26-.7,2.02-1.66,4.44-2.31,5.48-.21.34-.36.48-.66.48-.25,0-.43-.27-.43-.61s.13-.46.36-.87c.76-1.14,1.6-2.64,2.34-4.73.2-.55.39-1.18.57-1.81-.54.1-1.17.18-1.72.18-.87,0-1.59-.33-2.08-1.47l.25-.2c.64.57,1.09.85,1.83.85s1.38-.11,1.95-.24c.2-.78.33-1.48.38-1.95.03-.33-.04-.46-.31-.6-.3-.11-.63-.2-.94-.25l.03-.34Zm2.64,8.38c.09.43.22.97.51,1.42.52.81,1.44,1.15,2.73,1.15,1.5,0,1.98-.28,2.41-.28.34,0,.73.16.73.51,0,.3-.39.46-.82.55-.46.1-1.14.2-2.01.2-1.74,0-3.12-.52-3.58-1.84-.25-.57-.32-1.14-.33-1.66l.36-.04Zm.85-3.51c.7-.29,1.72-.54,2.71-.54s1.66.2,2.02.36c.34.18.54.4.54.66,0,.27-.25.34-.61.37-.27.03-.5.08-.88.24-.46.17-1.17.52-1.68.78l-.19-.27c.51-.33,1.38-.9,1.57-1.09.12-.09.07-.16-.06-.21-.36-.14-.87-.18-1.32-.18-.66,0-1.35.09-2.01.24l-.09-.36Z"/>
          <path class="cls-1" d="m73.92,158.37l.18-.29c.36.08.63.15.93.31.52.29,1.08.91,1.08,1.27,0,.32-.25.43-.78.82-1,.81-2.98,2.64-3.61,3.27-.43.43-.52.6-.52.78,0,.2.18.39.51.64,1.54,1.23,2.85,2.2,3.91,3.55.42.54.73,1.12.73,1.56,0,.39-.19.64-.57.64-.24,0-.42-.17-.52-.36-.17-.3-.3-.67-.72-1.3-.7-1.06-1.78-2.14-3.6-3.69-.39-.31-.58-.63-.58-.96,0-.27.15-.54.39-.79.75-.88,2.97-3.04,3.66-3.88.25-.3.34-.45.34-.63,0-.25-.21-.54-.82-.96Z"/>
          <path class="cls-1" d="m83.71,158.91c.49-.25.93-.38,1.26-.38.55,0,1.15.18,1.23.45.21.63.4,1.36.82,2.22,1.66-.63,2.11-1.17,2.55-1.38.29-.12.72-.09.88.1.13.17.04.42-.17.6-.46.38-1.59.99-2.86,1.44.72,1.2,1.68,2.32,2.64,3.24.36.34.48.48.49.73.01.42-.21.99-.54.99s-.54-.22-.96-.46c-.88-.51-2.14-1-3.67-1-1.68,0-2.98.93-2.98,2.16,0,1.15,1.33,1.95,3.67,1.95,1.14,0,1.63-.16,2.16-.16.45,0,.78.18.78.49,0,.39-.72.67-2.59.67-2.5,0-4.78-.79-4.78-2.83,0-1.62,1.74-2.83,4.03-2.83,1.42,0,2.59.33,3.27.54.15.03.18.01.08-.11-.76-.87-1.56-1.99-2.29-3.15-.93.27-2.25.57-3.22.57-1.42.02-1.98-.51-2.8-1.66l.27-.24c.91.73,1.35,1.05,2.53,1.05.76,0,1.9-.21,2.79-.46-.38-.7-.69-1.41-1.03-1.9-.25-.39-.63-.36-1.48-.34l-.06-.28Z"/>
          <path class="cls-1" d="m97.44,158.85l.09-.3c.3-.04.76-.02,1.03.07.69.17,1.33.81,1.33,1.27,0,.3-.42.39-.79.85-.63.73-2.14,2.92-2.77,4.02-.07.12,0,.2.12.12.78-.46,1.48-.72,2.07-.72,1.23,0,1.83.63,1.84,1.83.01.7-.06,1.6-.06,2.29,0,.81.37,1.24,1.24,1.24,1.66,0,2.8-1.65,3.46-3.42l.33.11c-.64,3.3-2.46,4.29-3.97,4.29-1.26,0-2.04-.64-2.04-1.99-.01-.82.12-1.74.12-2.62,0-.66-.25-1.18-1.12-1.18-1.42,0-2.7,1.38-3.42,2.85-.45.96-.73,1.84-.94,2.38-.13.33-.28.51-.57.51-.27,0-.51-.27-.51-.69,0-.54.58-1.47,1.36-2.82,1.3-2.26,3.57-5.98,4.11-6.97.19-.37.15-.58-.04-.72-.2-.17-.6-.31-.87-.4Z"/>
          <path class="cls-1" d="m112.47,169.75c3.67-.64,5.44-2.53,5.44-5.24s-1.98-4.38-4.45-4.38c-.18,0-.36.01-.54.03.34.48.64,1,.64,1.59,0,.72-.17,1.56-.46,2.41-.63,1.8-2.37,4.71-3.9,4.71-1,0-2.05-1.59-2.05-3.43,0-1.51.72-3.07,1.99-4.21,1.23-1.09,2.77-1.6,4.38-1.6,3.09,0,5.47,2.02,5.47,5.12,0,2.49-1.56,5.03-6.46,5.35l-.06-.34Zm-.11-9.5c-1.05.21-2.07.73-2.83,1.48-.96.93-1.54,2.14-1.54,3.46,0,1.44.66,2.53,1.27,2.53.99,0,2.37-2.37,2.98-3.79.28-.72.54-1.63.54-2.31,0-.54-.17-.93-.42-1.38Z"/>
          <path class="cls-1" d="m123.32,169.87v.73c0,.08-.3.34-.78.34h-.15v-6.53c-.46.48-.97.93-1.51,1.32l-.16-.18c1.08-1.06,1.98-2.43,2.61-3.85h-2.22l-.11-.45h2.52c.22-.55.4-1.12.54-1.68h-1.14c-.39.55-.85,1.03-1.35,1.38l-.22-.15c.64-.79,1.2-2.04,1.51-3.36l1.41.46c-.06.18-.24.3-.55.28-.15.33-.31.64-.49.94h2.76l.64-.82s.73.57,1.23,1.03c-.04.15-.18.22-.4.22h-2.22c-.18.57-.39,1.14-.66,1.68h1.83l.64-.81s.72.57,1.18,1.02c-.04.17-.18.24-.39.24h-3.49c-.33.64-.73,1.26-1.18,1.83l.36.15h1.08c.13-.49.28-1.17.37-1.68l1.39.39c-.06.16-.24.3-.54.28-.22.31-.51.67-.82,1h1.29l.57-.67s.63.49,1.03.87c-.03.17-.17.24-.37.24h-1.93v1.45h.79l.51-.66s.58.48.94.84c-.04.16-.18.24-.38.24h-1.87v1.47h.79l.51-.64s.58.46.94.84c-.04.17-.18.24-.38.24h-1.87v1.53h.87l.61-.75s.69.55,1.11.96c-.04.17-.18.24-.39.24h-4.47Zm0-5.75v1.45h1.38v-1.45h-1.38Zm1.38,1.87h-1.38v1.47h1.38v-1.47Zm0,1.9h-1.38v1.53h1.38v-1.53Zm9.89,2.02c.27.12.3.24.3.43,0,.38-.33.6-1.71.6h-.82c-.84,0-.97-.25-.97-.87v-3.82h-.73c-.33,2.71-1.5,4.12-4.41,4.96l-.09-.24c2.46-1.06,3.25-2.41,3.48-4.72h-.18v.54c0,.07-.31.28-.79.28h-.15v-9l1.12.46h3.09l.51-.61,1.12.88c-.1.1-.28.21-.6.25v7.43c0,.08-.36.31-.81.31h-.15v-.55h-.5v3.58c0,.16.03.21.3.21h1.17c.1-.01.15-.04.19-.16.09-.23.24-1.06.39-1.86h.2l.04,1.89Zm-5.14-10.94v1.95h3.34v-1.95h-3.34Zm3.34,2.4h-3.34v1.98h3.34v-1.98Zm-3.34,4.45h3.34v-2.02h-3.34v2.02Z"/>
          <path class="cls-1" d="m149.41,169.69c.33.12.4.24.4.45,0,.46-.48.63-2.91.63h-1.65c-1.23,0-1.5-.22-1.5-1.05v-6.04h-2.08c-.31,3.96-1.56,6.19-5.75,7.52l-.11-.22c3.57-1.59,4.54-3.76,4.74-7.3h-4.48l-.12-.45h6.32v-5.75l1.54.17c-.03.21-.18.36-.54.42v5.17h4.24l.76-.94s.87.67,1.38,1.15c-.03.17-.17.24-.39.24h-4.53v5.81c0,.28.08.36.67.36h1.5c.69,0,1.21,0,1.44-.03.18-.01.24-.08.3-.24.12-.29.31-1.39.49-2.5h.21l.04,2.61Zm-11.88-11.31c3.76,2.16,2.89,4.75,1.77,3.81-.18-1.18-1.15-2.73-1.96-3.7l.2-.1Zm11.16.64c-.08.15-.29.25-.58.2-.91,1.24-2.04,2.49-3.04,3.28l-.19-.17c.7-.94,1.63-2.56,2.31-4.06l1.51.75Z"/>
          <path class="cls-1" d="m161.68,161.73c-.14.13-.32.18-.71.18-.63.85-1.41,1.63-2.32,2.34,1.81.94,4.03,1.59,6.19,1.93l-.03.18c-.4.04-.72.34-.85.79-.73-.17-1.44-.38-2.14-.61l.37.3c-.07.08-.28.19-.52.24v3.72c-.01.09-.51.33-.82.33h-.15v-.94h-5.63v.69c0,.08-.32.3-.79.3h-.15v-4.46c-.96.34-1.99.64-3.09.88l-.1-.25c2.41-.7,4.67-1.78,6.44-3.12-.72-.57-1.33-1.2-1.84-1.9-1,.96-2.25,1.86-3.63,2.47l-.17-.2c1.95-1.18,3.69-3.12,4.47-4.64l1.54.36c-.04.15-.22.24-.61.24-.19.25-.4.51-.64.78h3.43l.7-.6,1.06,1Zm-8.57-2.07c-.01,1.02-.43,1.72-.84,2.04-.36.28-.91.34-1.11.03-.13-.32.04-.63.33-.84.61-.36,1.21-1.36,1.21-2.43h.25c.07.27.12.54.13.78h4.18v-1.78l1.54.16c-.03.21-.18.36-.54.41v1.21h4.54l.61-.66,1.15,1.11c-.1.1-.27.13-.58.15-.42.55-1.23,1.32-1.84,1.77l-.17-.12c.25-.48.6-1.24.84-1.83h-9.72Zm7.75,6.52c-1.02-.41-1.96-.9-2.82-1.48-.93.64-1.96,1.2-3.12,1.68l.33.15h5.3l.3-.34Zm-.17,3.55v-2.79h-5.63v2.79h5.63Zm-4.62-7.96c-.09.1-.19.19-.3.3.55.64,1.27,1.21,2.1,1.72.75-.63,1.39-1.3,1.9-2.02h-3.7Z"/>
          <path class="cls-1" d="m170.08,158.9c.25-.11.57-.2.97-.2.61,0,1.72.52,1.72.9,0,.33-.3.49-.46.87-.15.36-.38.93-.66,1.59.4-.08.9-.13,1.24-.13,1.12,0,1.77.61,1.77,2.38s-.54,3.91-1.42,5.02c-.43.57-1.05.94-1.81.94-.5,0-.6-.21-.79-.64-.11-.22-.21-.41-1.05-1.12l.18-.24c.78.5,1.45.9,1.8.9.46,0,.81-.17,1.2-.78.5-.76,1.05-2.59,1.05-4.3,0-1.09-.25-1.56-1.09-1.56-.34,0-.84.09-1.35.22-.43,1-.94,2.14-1.42,3.15-.82,1.66-1.57,3.13-2.22,4.08-.22.36-.39.46-.61.46-.21,0-.45-.21-.45-.55,0-.25.04-.43.24-.69.82-1.06,1.48-2.08,2.34-3.7.36-.72.76-1.6,1.12-2.47-.55.18-1.06.36-1.36.48-.64.25-.85.42-1.23.42s-.94-.57-1.06-1.05c-.06-.24-.04-.58.03-.87l.3-.04c.17.4.27.88.7.88.48,0,1.83-.36,2.94-.6.45-1.15.78-2.13.78-2.41,0-.18-.04-.3-.24-.39-.22-.12-.78-.19-1.14-.22v-.31Zm5.75,3.04c1.21.18,1.96.57,2.56,1.24.55.6.93,1.59.93,2.74,0,.6-.2,1.09-.63,1.11-.43,0-.4-.42-.84-.51-.31-.06-1.26.01-1.77.07l-.09-.36c.55-.1,1.51-.3,1.92-.45.31-.12.36-.25.34-.64-.03-.39-.16-1.05-.61-1.68-.42-.58-1.02-.99-1.99-1.17l.18-.36Zm.61-2.59c.76.31,1.33.64,1.71,1,.38.34.52.6.52.88,0,.25-.15.4-.36.4-.24,0-.42-.34-.7-.72-.3-.38-.72-.85-1.38-1.32l.21-.25Zm1.35-.97c.76.28,1.35.57,1.71.88.4.33.55.61.55.93,0,.25-.12.38-.34.38-.24,0-.39-.34-.72-.72-.34-.37-.7-.73-1.39-1.2l.2-.27Z"/>
          <path class="cls-1" d="m185.59,159.53s.75.58,1.2,1.02c-.04.15-.18.23-.39.23h-5.33l-.12-.42h4l.64-.82Zm-.93,2.71l.57-.73s.69.54,1.09.94c-.04.17-.18.24-.38.24h-4.21l-.12-.45h3.04Zm-2.92,2.34l-.12-.42h2.98l.6-.76s.69.55,1.11.96c-.03.15-.18.22-.37.22h-4.2Zm.06-5.69l-.12-.43h2.95l.63-.81s.73.58,1.17,1c-.03.17-.18.24-.37.24h-4.26Zm4.29,11.22c-.01.1-.46.33-.78.33h-.13v-.81h-2.56v1.2c0,.09-.39.31-.79.31h-.13v-5.5l.99.43h2.35l.52-.57,1.17.9c-.11.1-.33.22-.63.28v3.42Zm-.91-.9v-2.68h-2.56v2.68h2.56Zm8.5-9.67s.79.61,1.24,1.08c-.04.15-.18.22-.38.22h-4.48c-.01.87-.03,1.69-.07,2.46h2.74l.57-.6,1.12.94c-.1.1-.3.19-.6.22-.13,3.85-.48,6.04-1.15,6.7-.39.38-.93.55-1.54.54,0-.29-.06-.54-.24-.69-.21-.17-.76-.3-1.29-.38v-.27c.58.04,1.54.13,1.86.13.27,0,.41-.03.55-.17.43-.4.72-2.55.87-5.99h-2.92c-.24,3.24-1.06,5.59-3.99,7.45l-.15-.2c2.98-2.68,3.25-5.74,3.18-10.16h-2.08l-.12-.43h3.15v-2.79l1.53.17c-.03.21-.18.36-.54.4v2.22h2.08l.66-.87Z"/>
          <path class="cls-1" d="m210.5,167.71c-.66.93-1.8,1.86-3.07,1.86-1.06,0-1.8-.64-1.8-1.96,0-1.66.63-3.4.63-5.02,0-.94-.27-1.44-1.02-1.44-1.27,0-3.03,1.35-4.53,2.98-.09,1.72.06,3.52.15,4.42.03.38.08.69.08,1.02,0,.51-.21,1.21-.63,1.21-.27,0-.42-.17-.5-.51-.07-.36-.12-.61-.25-.94-.13-.39-.67-1.29-1.11-1.95l-.97,1.36c-.18.25-.32.45-.54.45-.21,0-.39-.22-.39-.52,0-.27.04-.45.32-.75.61-.64,2.25-2.65,3.28-4.26.04-.43.07-.84.13-1.24-.51.27-1.03.57-1.41.78-.32.2-.46.54-.72.54-.43,0-1.08-.57-1.23-1.06-.06-.21-.08-.45-.06-.66l.27-.08c.22.45.45.71.72.71.38,0,1.92-.73,2.53-1.06.12-.96.22-1.74.24-2.17,0-.34-.08-.4-.34-.51-.2-.06-.46-.15-.79-.21l-.02-.3c.25-.09.57-.17.91-.17.61,0,1.38.66,1.38,1.09,0,.31-.18.45-.34,1.05-.08.22-.18.61-.3,1.11.24.16.54.45.54.6,0,.18-.17.3-.34.54-.17.18-.32.39-.48.63,1.42-1.29,3.19-2.65,4.72-2.65,1.03,0,1.68.63,1.68,2.02,0,1.17-.64,3.31-.64,4.84,0,.81.34,1.14,1.06,1.14.99,0,1.71-.36,2.58-1.15l.27.27Zm-10.44-2.67c-.41.63-.9,1.32-1.36,1.99.42.58.96,1.3,1.17,1.56.13.15.21.13.21-.1.01-.72-.06-2.1-.01-3.45Z"/>
          <path class="cls-1" d="m218.18,163.93c.81-.1,1.56-.27,2.16-.46.5-.16.76-.33.94-.33.31,0,.7.15.7.46,0,.22-.17.37-.43.48-.57.21-1.87.49-3.34.66.04.97.14,1.81.21,2.52,1.86.36,3.13,1.2,3.57,1.59.33.27.51.54.51.82s-.17.43-.41.43c-.27,0-.43-.15-.7-.41-.76-.7-1.77-1.29-2.91-1.63.01.21.03.4.03.6,0,1.27-1.05,2.01-2.71,2.01-1.47,0-2.55-.67-2.55-1.74,0-1.18,1.54-1.84,3.42-1.84.33,0,.64.01.94.04-.03-.6-.08-1.41-.11-2.32-.61.06-1.23.09-1.83.09-2.1,0-3.13-.97-1.53-2.56l.32.18c-.96,1.24-.33,1.6,1.17,1.6.6,0,1.23-.03,1.84-.11v-.6c0-.49,0-1.02.01-1.53-.75.08-1.53.13-2.25.13-1.39,0-2.28-.36-3.04-1.56l.25-.21c.73.61,1.24.97,2.65.97.76,0,1.6-.07,2.4-.18.03-.76.04-1.35.04-1.48,0-.3-.06-.38-.3-.46-.31-.09-.61-.12-1.09-.16l-.04-.32c.29-.13.64-.24,1.05-.24.64,0,1.57.42,1.57.81,0,.32-.19.43-.27.82-.04.25-.09.55-.13.91.97-.16,1.81-.37,2.28-.52.41-.13.66-.3.87-.3.36,0,.78.15.78.46,0,.25-.21.38-.49.48-.54.2-1.93.52-3.52.75-.03.5-.06,1.09-.06,1.8v.33Zm-.55,3.93c-.43-.08-.9-.12-1.36-.12-1.47,0-2.41.54-2.41,1.15,0,.52.54.96,1.54.96,1.81,0,2.22-.57,2.23-1.99Z"/>
          <path class="cls-1" d="m230.13,158.69c.27-.13.63-.31,1.02-.31.61,0,1.54.33,1.54.7,0,.34-.22.58-.25.96-.01.19-.01.49-.03.85,2.47-.27,3.43-.4,3.75-.4.52,0,1.3.29,1.3.76,0,.27-.13.39-.42.39-.48,0-1.62-.36-4.63-.1,0,.72.02,1.56.02,2.31.43.45.63,1.15.63,2.02,0,2.74-2.07,4.42-4.96,5.14l-.19-.37c1.83-.67,3.33-1.74,3.87-3.21-1.47.67-2.67-.48-2.67-2.01,0-1.09.73-2.11,1.96-2.11.22,0,.42.03.61.07-.01-.45-.04-1.09-.07-1.77-1.47.17-3.06.51-3.97.73-.67.16-.97.4-1.36.4-.49,0-1.2-.67-1.36-1.09-.1-.25-.13-.6-.15-.9l.28-.1c.33.49.61.97,1.12.97.55.01,3.64-.45,5.41-.64-.01-.54-.04-1.05-.08-1.42-.03-.3-.1-.39-.34-.46-.22-.06-.54-.08-.99-.1l-.03-.3Zm1.93,6.7c0-.97-.48-1.47-1.12-1.47-.75,0-1.23.66-1.23,1.42,0,.85.52,1.44,1.21,1.44.75,0,1.14-.36,1.14-1.39Z"/>
          <path class="cls-1" d="m237.05,169.15c0-1.15.96-2.1,2.11-2.1s2.1.94,2.1,2.1-.94,2.11-2.1,2.11-2.11-.96-2.11-2.11Zm.51,0c0,.88.7,1.6,1.6,1.6s1.59-.72,1.59-1.6-.7-1.59-1.59-1.59-1.6.7-1.6,1.59Z"/>
        </g>
      </g>
      <g>
        <rect class="cls-2" x="53.64" y="-53.64" width="56.61" height="163.89" transform="translate(53.64 110.25) rotate(-90)"/>
        <g>
          <path class="cls-1" d="m13.08,47.12V9.36h9.54c-.57.84-5.43,8.21-5.43,18.88s4.86,18.05,5.43,18.88h-9.54Z"/>
          <path class="cls-1" d="m41.35,26.23c-.38,0-.49,0-.49.11,0,.15.3.3.76.38.49.08.8.38.8.65,0,.23-.61.99-.68,1.14-.27.61-.57,3.57-.68,4.14-1.03,5.55-3.88,9.95-9.27,11.97-1.14.42-3.08.87-4.1.87-.34,0-.49-.11-.49-.27,0-.27.46-.38.91-.49,2.47-.53,5.51-2.51,7.22-4.6,1.79-2.24,2.7-4.71,3.31-8.93.15-.99.27-2.28.27-3,0-1.98-.8-1.98-1.48-1.98h-2.01c-3,0-4.94,0-6.27.08-.11.04-.68.11-.8.11s-.19-.11-.34-.27l-.72-.87c-.08-.11-.15-.19-.15-.23,0-.08.04-.11.11-.11.27,0,1.44.11,1.71.15,1.71.08,3.42.11,5.21.11h7.41c1.1,0,1.1-.46,1.1-2.09,0-1.22-.11-6.57-.11-7.68,0-1.71,0-1.86-.11-2.7-.04-.23-.3-1.22-.3-1.44s.19-.3.42-.3c.15,0,3.08.57,3.34.68.19.11.53.27.53.49,0,.3-.3.57-.53.76-.46.42-.57.65-.57,1.33,0,1.18-.11,6.42-.11,7.49,0,3.42,0,3.46,1.22,3.46h6.73c1.6,0,2.01,0,2.43-.65,1.1-1.75,1.25-1.94,1.67-1.94.53,0,4.14,2.7,4.14,3.08,0,.53-.76.53-2.05.53h-9.35c-1.44,0-1.75.72-1.75,2.2-.04,1.63-.04,8.36-.04,10.26,0,2.01,0,3,5.05,3,3.88,0,4.67-.76,5.13-1.98.61-1.63.68-2.13.84-3.42.04-.19.08-.42.15-.42.15,0,.3.53.38,1.06.04.23.34,2.55,1.48,3.27.3.19.46.3.46.61,0,1.18-1.44,2.55-2.89,2.96-1.22.38-2.58.46-4.64.46-8.21,0-8.43-1.94-8.43-5.17,0-2.7,0-8.09-.15-11.32-.08-1.29-.57-1.52-1.63-1.52h-2.58Zm-2.96-4.9c0,.68-.61,2.55-1.56,2.55-.57,0-.65-.19-1.06-1.52-1.14-3.42-2.09-4.71-3.42-6.5-.23-.3-.42-.68-.38-.72.23-.38,6.42,3.23,6.42,6.19Zm15.27-6.69c1.94,1.14,2.01,1.22,2.01,1.67s-.34.49-.99.61c-.65.11-6.42,6.84-7.37,6.84-.04,0-.11-.04-.11-.11,0-.11,1.37-2.17,1.56-2.47,2.09-3.46,2.93-5.81,3-6.42.08-.49.15-.8.34-.91.15-.04,1.29.65,1.56.8Z"/>
          <path class="cls-1" d="m74.49,13.88c.84,0,1.06-.11,1.37-.38.8-.8.87-.87,1.1-.87.15,0,2.77,1.52,2.77,2.24,0,.19-.04.23-.46.57-.53.46-.61.49-.61,4.33,0,1.63.23,9.69.23,11.51,0,.27,0,1.18-.27,1.71-.34.68-1.29,1.22-1.86,1.22-.68,0-.72-.34-.84-1.14-.11-.68-.49-.87-1.14-.87h-3.69c-.49,0-.87.08-1.06.49-.11.23-.11,2.36-.11,2.55,0,1.1-1.29,1.9-2.24,1.9-.61,0-.61-.3-.61-.57,0-.15.08-.87.08-1.06.19-4.48.3-14.86.3-15.73,0-1.03,0-3.95-.23-5.81-.04-.23-.15-.95-.15-1.14s.04-.38.23-.38c.04,0,2.55,1.1,2.7,1.18.61.27.76.27,1.33.27h3.15Zm.53,8.7c.34,0,1.14,0,1.14-1.03,0-.72,0-5.81-.11-6.12-.19-.57-.84-.57-1.1-.57h-3.76c-.42,0-1.06,0-1.22.8-.04.38-.04,4.98-.04,5.81,0,.57.11,1.1,1.14,1.1h3.95Zm.04,8.62c1.1,0,1.1-.61,1.1-1.44v-5.09c0-.95-.57-1.06-1.1-1.06h-4.03c-1.1,0-1.1.34-1.1,2.51v4.03c0,.99.68,1.06,1.1,1.06h4.03Zm11.28-.76c-.84,0-.87.23-1.1,1.98-.84,5.85-2.51,8.13-5.62,10.83-1.1.95-2.28,1.6-2.55,1.6-.08,0-.23,0-.23-.15,0-.04,1.6-1.82,1.9-2.2,3.88-4.86,4.41-9.38,4.41-18.39,0-5.58-.23-8.02-.38-9.61-.04-.27-.3-1.44-.3-1.71,0-.08.08-.11.15-.11s2.13.65,3.23.99c.38.11,1.06.15,1.14.15h5.32c.65,0,.99,0,1.37-.46.42-.49.84-.99,1.06-.99.34,0,3.15,1.9,3.15,2.55,0,.3-.11.42-.99,1.1-.19.15-.3.3-.42.65-.15.53-.15,3.72-.15,4.48,0,1.06.11,16.49.23,18.39.08.84.08,1.37.08,1.56,0,3.04-2.39,4.29-3.31,4.29-.23,0-.23-.11-.3-.57-.19-.91-1.18-1.6-1.79-1.86-.61-.27-1.18-.49-1.18-.61,0-.42,3.31-.04,3.61-.53.3-.46.3-1.25.3-1.82,0-1.33-.04-7.29-.04-8.51,0-.19,0-1.03-1.1-1.03h-6.5Zm.46-8.28c-1.14,0-1.14.65-1.14,1.29,0,.72-.11,4.18-.11,4.94,0,1.06.76,1.06,1.29,1.06h5.93c.49,0,.95-.11,1.1-.72v-5.51c0-1.06-.76-1.06-1.14-1.06h-5.93Zm-.04-7.33c-.95,0-1.14.49-1.14,1.1v3.99c0,.76.11,1.25,1.22,1.25h5.81c.84,0,1.22-.23,1.22-1.14v-3.95c0-.49,0-1.25-1.1-1.25h-6Z"/>
          <path class="cls-1" d="m111.05,32.68c-.87,0-3.5,0-4.83.08-.11.04-.68.11-.8.11s-.19-.11-.34-.27l-.72-.87c-.15-.15-.15-.19-.15-.23,0-.08.04-.11.11-.11.27,0,1.44.11,1.71.15,1.71.08,3.42.11,5.17.11h13.22c1.14,0,1.14-.15,1.14-3.91,0-2.17-.19-2.74-1.29-2.74h-14.74c-.87,0-3.5,0-4.83.11-.11,0-.68.08-.8.08s-.19-.08-.34-.23l-.72-.87q-.15-.19-.15-.27s.04-.08.11-.08c.27,0,1.44.11,1.71.11,1.71.08,3.42.15,5.17.15h7.86c1.03,0,1.03-.57,1.03-2.13,0-3.15-.08-3.38-1.14-3.38h-4.22c-.87,0-3.46,0-4.79.08-.15,0-.72.11-.84.11s-.19-.11-.3-.27l-.76-.87c-.15-.15-.15-.19-.15-.27,0-.04.08-.08.11-.08.3,0,1.44.11,1.71.15,1.75.08,3.42.11,5.21.11h4.03c1.03,0,1.03-.57,1.03-1.06,0-1.79-.19-3.53-.3-4.1-.04-.19-.38-.87-.38-1.03,0-.3.42-.34.65-.34.49,0,.72.08,2.77.61,1.22.34,1.41.42,1.41.91,0,.34-.15.46-.87.99-.23.19-.34.46-.34,1.1,0,.23,0,2.13.04,2.28.15.61.57.65,1.06.65h4.14c1.37,0,1.75-.04,2.17-.38.3-.27,1.29-2.01,1.67-2.01.19,0,1.71,1.1,2.55,1.75.76.57.99.76.99,1.1,0,.57-.19.57-2.01.57h-9.5c-.91,0-1.14.3-1.14,1.1,0,.53,0,3.61.08,3.88.15.53.72.53,1.06.53h7.41c1.52,0,1.94,0,2.43-.76.95-1.48,1.03-1.67,1.37-1.67.27,0,3.72,2.36,3.72,2.89s-.76.53-2.05.53h-7.49c-.19,0-.38,0-.38.19s.11.23,1.18.65c.34.15.8.3.8.76,0,.23-.3.46-.8.84-.3.23-.3.38-.3,1.71,0,2.01.04,2.51,1.06,2.51s1.37-.19,1.63-.42c.3-.27,1.33-1.98,1.71-1.98.23,0,3.57,2.32,3.57,2.85,0,.57-.72.57-2.01.57h-4.71c-.84,0-1.1.3-1.1,1.03,0,1.14.08,6.27.08,7.29,0,1.14,0,2.32-.8,3.12-1.06.99-2.58,1.41-3.04,1.41-.68,0-.76-.11-2.01-1.56-.3-.34-.72-.8-2.36-1.75-.3-.19-.76-.46-.76-.49,0-.11.15-.11.19-.11.72,0,3.88.23,4.52.23,1.25,0,1.25-.11,1.25-1.14s0-6.8-.08-7.29c-.11-.61-.49-.72-1.1-.72h-13.37Zm3.61,9.23c-.84,0-.95-.34-1.44-1.6-.76-1.94-1.86-3.91-2.43-4.6-.15-.27-.3-.42-.3-.49s.08-.08.11-.08c.08,0,.8.23,1.33.42,3.65,1.37,4.48,2.55,4.48,4.48,0,.34-.3,1.86-1.75,1.86Z"/>
          <path class="cls-1" d="m150.95,9.36v37.77h-9.54c.57-.84,5.43-8.21,5.43-18.88s-4.86-18.05-5.43-18.88h9.54Z"/>
        </g>
      </g>
    </g>
  </g>
</svg>