<?xml version="1.0" encoding="UTF-8"?>
<svg id="_レイヤー_2" data-name="レイヤー 2" xmlns="http://www.w3.org/2000/svg" viewBox="0 0 40.83 9.19">
  <defs>
    <style>
      .cls-1 {
        fill: #fff;
        stroke-width: 0px;
      }
    </style>
  </defs>
  <g id="_レイヤー_1-2" data-name="レイヤー 1">
    <g>
      <path class="cls-1" d="m10.19,8.92h-2.74c-.17,0-.25-.08-.25-.25s.08-.25.25-.25c.74,0,.87-.22.87-.68V.91l-3.04,7.86c-.11.26-.42.25-.51,0L1.7.66v7.07c0,.49.17.68.84.68.17,0,.25.08.25.25s-.08.25-.25.25H.26c-.17,0-.25-.08-.25-.25s.08-.25.25-.25c.67,0,.87-.17.87-.68V1.19c0-.46-.15-.68-.88-.68-.17,0-.25-.08-.25-.25s.08-.25.25-.25h2.03c.11,0,.18.05.22.16l2.71,7.31L8.02.16c.04-.11.12-.16.24-.16h1.94c.17,0,.25.08.25.25s-.08.25-.25.25c-.74,0-.94.28-.94.7v6.57c0,.41.16.65.94.65.17,0,.25.08.25.25s-.08.25-.25.25Z"/>
      <path class="cls-1" d="m19.26,8.74c-.04.12-.12.17-.24.17h-6.37c-.17,0-.25-.08-.25-.25s.08-.25.25-.25c.74,0,1.01-.21,1.01-.67V1.19c0-.43-.24-.67-1.03-.67-.17,0-.25-.08-.25-.25s.08-.25.25-.25h6.18c.12,0,.2.05.24.17l.63,1.69c.05.14.01.25-.13.32-.14.07-.25.03-.33-.11-.59-1.12-1.11-1.57-2.16-1.57h-1.54q-.95,0-.95.67v2.88h1.53c.74.01,1.07-.43,1.07-1.23,0-.17.08-.25.25-.25s.25.08.25.25v2.98c0,.17-.08.25-.25.25s-.25-.08-.25-.25c0-.91-.46-1.25-1.03-1.25h-1.57v3.17q0,.67.95.67h1.55c.99,0,1.78-.58,2.4-1.75.07-.12.2-.17.32-.12s.17.2.13.32l-.66,1.88Z"/>
      <path class="cls-1" d="m30.36.51c-.7,0-.88.17-.88.75v7.45c0,.16-.11.28-.22.32-.14.04-.33-.03-.42-.17L23.86.94v6.76c0,.58.17.72,1.19.72.17,0,.25.08.25.25s-.08.25-.25.25h-2.94c-.17,0-.25-.08-.25-.25s.08-.25.25-.25c.84,0,1.16-.18,1.16-.72V1.37c0-.75-.18-.86-1.2-.86-.17,0-.25-.08-.25-.25s.08-.25.25-.25h2.13c.07,0,.14.04.21.12l4.46,7.12V1.26c0-.58-.24-.75-1.04-.75-.14,0-.26-.11-.26-.25s.12-.25.26-.25h2.52c.17,0,.25.08.25.25s-.08.25-.25.25Z"/>
      <path class="cls-1" d="m40.58.5c-.62,0-.84.11-.84.75v4.87c0,1.95-1.2,3.07-2.86,3.07-2.07,0-3.33-.95-3.33-3.05V1.2c0-.51-.15-.7-.9-.7-.17,0-.25-.08-.25-.25s.08-.25.25-.25h2.78c.17,0,.25.08.25.25s-.08.25-.25.25c-.79,0-.9.2-.9.67v4.94c0,1.65.83,2.55,2.36,2.55,1.32,0,2.21-.99,2.21-2.54V1.25c0-.65-.2-.75-.9-.75-.17,0-.25-.08-.25-.25s.08-.25.25-.25h2.37c.17,0,.25.08.25.25s-.08.25-.25.25Z"/>
    </g>
  </g>
</svg>