<?xml version="1.0" encoding="UTF-8"?>
<svg id="_レイヤー_2" data-name="レイヤー 2" xmlns="http://www.w3.org/2000/svg" viewBox="0 0 271.31 455.1">
  <defs>
    <style>
      .cls-1 {
        fill: #353044;
      }

      .cls-1, .cls-2 {
        stroke-width: 0px;
      }

      .cls-2 {
        fill: #fff;
      }
    </style>
  </defs>
  <g id="_レイヤー_1-2" data-name="レイヤー 1">
    <g>
      <g>
        <rect class="cls-2" x="109.68" width="36" height="455.1"/>
        <rect class="cls-2" x="54.51" width="36" height="320.89"/>
        <rect class="cls-2" width="36" height="368.38"/>
        <g>
          <path class="cls-1" d="m124.37,25.91c-.18.22-.35.29-.84.18-1.32,1.45-3.79,3.24-6.27,4.31l-.24-.31c2.13-1.39,4.36-3.59,5.43-5.24l1.91,1.06Zm10.69-13.09s1.32,1.01,2.16,1.74c-.07.24-.31.35-.62.35h-19.05l-.2-.64h9.09v-3.06l2.27.24c-.04.31-.26.53-.79.59v2.22h5.96l1.19-1.45Zm-7.13,9.99v6.51c0,1.14-.33,1.91-2.51,2.11-.04-.44-.2-.79-.53-1.01-.35-.24-1.03-.42-2.18-.55v-.35s2.64.2,3.17.2c.46,0,.57-.13.57-.44v-6.47h-4.07v.79c0,.13-.64.48-1.23.48h-.22v-7.42l1.58.7h9.26l.79-.92,1.85,1.41c-.15.18-.55.35-.97.44v5.11c-.02.15-.75.48-1.25.48h-.22v-1.08h-4.05Zm4.05-.64v-4.18h-9.59v4.18h9.59Zm-1.67,2.95c7.17,2.46,6.65,6.05,4.84,5.17-.9-1.56-3.34-3.7-5.06-4.95l.22-.22Z"/>
          <path class="cls-1" d="m124.9,35.39s.75.57,1.39,1.14c.48-.86.92-1.74,1.28-2.57l1.98.95c-.15.26-.37.35-.92.24-.86,1.67-2.02,3.45-3.48,5.17h1.32l.99-1.25s1.14.88,1.83,1.56c-.07.24-.26.35-.57.35h-4.14c-.79.86-1.65,1.72-2.57,2.51h3.48l.81-.86,1.72,1.34c-.13.15-.51.35-.92.44v7.99c-.02.13-.73.46-1.17.46h-.22v-1.52h-4.77v1.39c0,.13-.44.48-1.12.48h-.22v-7.88c-.81.55-1.67,1.06-2.57,1.52l-.22-.31c.97-.59,1.91-1.28,2.79-2.02v-1.63l1.25.53c.84-.77,1.61-1.61,2.31-2.44h-5.92l-.18-.66h4.31v-3.06h-3.45l-.18-.66h3.63v-3.23l2.2.24c-.04.31-.26.53-.81.59v2.4h1.23l.92-1.21Zm-3.72,8.76l-.26.22v2.66h4.77v-2.88h-4.51Zm4.51,6.54v-2.99h-4.77v2.99h4.77Zm-2-10.36c.81-.99,1.52-2.02,2.16-3.06h-3.1v3.06h.95Zm13.95-4.62c-.18.2-.48.24-1.01.24-.77,1.47-2.24,4.2-3.23,5.63,2.6,1.83,3.56,3.81,3.56,5.57,0,2.16-.86,3.19-3.19,3.32,0-.48-.11-.95-.29-1.12-.2-.15-.75-.29-1.34-.33v-.35h2.07c.26,0,.4-.02.62-.13.44-.24.66-.75.66-1.65,0-1.67-.7-3.48-2.64-5.28.64-1.43,1.61-4.18,2.22-6.03h-3.83v17.29c0,.13-.46.53-1.19.53h-.2v-19.32l1.65.86h3.52l.92-.9,1.69,1.67Z"/>
          <path class="cls-1" d="m127.04,60.37c-.13.24-.33.37-.84.31-.46.99-1.1,2.13-1.89,3.26l1.01.4c-.09.2-.29.33-.68.37v10.21c-.02.11-.59.46-1.12.46h-.26v-10.01c-.77.97-1.65,1.87-2.6,2.64l-.22-.22c-.31,2.55-1.08,5.19-2.93,7.26l-.31-.2c1.87-3.39,2-7.55,2-11.38v-6.14l1.69.73h6.16v-2.84l2.2.24c-.04.31-.26.53-.81.59v2h5.83l1.08-1.36s1.21.97,1.94,1.65c-.04.24-.26.35-.57.35h-16.08v4.78c0,1.3-.02,2.73-.2,4.22,1.98-2.27,3.65-5.74,4.38-8.19l2.22.86Zm8.6,1.89s1.1.95,1.74,1.61c-.07.24-.24.35-.55.35h-2.79v9.04c0,1.19-.24,1.91-2.27,2.13-.07-.46-.2-.81-.51-1.03-.35-.26-.95-.44-1.94-.57v-.35s2.35.18,2.79.18.53-.11.53-.46v-8.93h-6.34l-.18-.62h6.51v-3.96l2.18.24c-.07.29-.26.48-.79.57v3.15h.64l.97-1.34Zm-8.49,3.34c4.6,2.33,3.08,5.74,1.61,4.4-.04-1.41-.99-3.15-1.87-4.25l.26-.15Z"/>
          <path class="cls-1" d="m135.42,90.07c-.18.22-.37.26-.84.11-1.03.73-2.66,1.74-4.22,2.53,1.89,1.39,4.31,2.31,7.06,2.82l-.02.24c-.59.09-1.08.55-1.28,1.19-4.84-1.32-8.12-3.87-9.66-8.49h-3.19v6.07c1.56-.35,3.3-.77,5.06-1.19l.09.35c-2.07.81-4.86,1.87-8.71,3.17-.11.26-.29.44-.48.53l-1.01-1.78c.79-.13,2.07-.4,3.61-.75v-6.4h-4.51l-.15-.66h4.66v-9.95l1.92.81h8.29l1.03-1.28s1.19.92,1.94,1.56c-.07.24-.29.35-.59.35h-11.13v2.38h7.88l.97-1.21s1.1.86,1.8,1.5c-.07.22-.29.33-.57.33h-10.08v2.44h7.88l.97-1.19s1.1.84,1.8,1.47c-.07.24-.29.35-.57.35h-10.08v2.42h11.07l1.06-1.25s1.19.88,1.94,1.56c-.04.24-.24.35-.55.35h-9.88c.7,1.58,1.72,2.86,3.01,3.92,1.34-1.14,2.86-2.64,3.67-3.61l1.83,1.3Z"/>
          <path class="cls-1" d="m136.85,101.26c-.15.15-.51.35-.97.44v15.62c0,1.14-.29,1.89-2.55,2.11-.09-.44-.24-.79-.62-.97-.42-.24-1.1-.44-2.35-.59v-.33s2.88.2,3.45.2c.51,0,.66-.18.66-.57v-15.75h-14.41v17.43c0,.2-.53.57-1.14.57h-.26v-19.38l1.54.73h14.06l.77-.9,1.83,1.41Zm-13.18,13.38v1.41c0,.18-.57.46-1.03.46h-.26v-7.53l2,.2c-.04.26-.22.46-.7.53v4.29h2.75v-6.84h-5.48l-.15-.66h7.35c.64-1.36,1.34-3.26,1.76-4.62l2.22.66c-.11.26-.37.46-.84.42-.62,1.03-1.58,2.42-2.57,3.54h2.46l.99-1.21s1.14.86,1.83,1.52c-.07.24-.29.35-.57.35h-5.63v6.84h2.9v-5.02l2,.2c-.04.26-.24.46-.7.53v5.96c0,.15-.57.46-1.06.46h-.24v-1.5h-7.02Zm-.31-12.67c3.94,2.27,2.51,5.17,1.19,3.94-.07-1.21-.81-2.82-1.47-3.81l.29-.13Z"/>
          <path class="cls-1" d="m124.37,135.91c-.18.22-.35.29-.84.18-1.32,1.45-3.79,3.24-6.27,4.31l-.24-.31c2.13-1.39,4.36-3.59,5.43-5.24l1.91,1.06Zm10.69-13.09s1.32,1.01,2.16,1.74c-.07.24-.31.35-.62.35h-19.05l-.2-.64h9.09v-3.06l2.27.24c-.04.31-.26.53-.79.59v2.22h5.96l1.19-1.45Zm-7.13,9.99v6.51c0,1.14-.33,1.91-2.51,2.11-.04-.44-.2-.79-.53-1.01-.35-.24-1.03-.42-2.18-.55v-.35s2.64.2,3.17.2c.46,0,.57-.13.57-.44v-6.47h-4.07v.79c0,.13-.64.48-1.23.48h-.22v-7.42l1.58.7h9.26l.79-.92,1.85,1.41c-.15.18-.55.35-.97.44v5.11c-.02.15-.75.48-1.25.48h-.22v-1.08h-4.05Zm4.05-.64v-4.18h-9.59v4.18h9.59Zm-1.67,2.95c7.17,2.46,6.65,6.05,4.84,5.17-.9-1.56-3.34-3.7-5.06-4.95l.22-.22Z"/>
          <path class="cls-1" d="m135.24,145.09s1.28.99,2.07,1.69c-.07.24-.29.35-.59.35h-9.04l.99.11c-.04.29-.22.48-.68.57v2.57h4.97l.73-.88,1.87,1.39c-.13.18-.48.37-.95.44v7.48c0,1.1-.26,1.85-2.4,2.02-.09-.42-.22-.77-.51-.99-.35-.24-.97-.46-2.02-.57v-.33s2.38.15,2.93.15c.44,0,.57-.13.57-.44v-7.61h-5.19v11.55c0,.22-.68.62-1.21.62h-.29v-12.17h-5.13v9.4c0,.15-.57.48-1.19.48h-.24v-11.24l1.56.7h5v-3.26h-9.07l-.18-.66h9.24v-3.28l2.27.24c-.04.31-.26.53-.77.62v2.42h6.12l1.14-1.39Z"/>
          <path class="cls-1" d="m123.91,174.02c-.44,1.14-1.43,3.56-1.67,4.38-.2.68-.35,1.17-.35,1.56,0,.62.44,1.32.44,1.83,0,.44-.24.68-.66.68-.37,0-.73-.33-1.03-.81-.57-.88-1.25-2.79-1.25-4.82,0-2.57.7-4.4,1.03-5.7.26-1.03.53-1.78.55-2.51,0-.79-.51-1.5-1.21-2.29l.35-.26c.42.18.75.35,1.1.64.46.4,1.41,1.39,1.41,2.29,0,.48-.26.88-.81,2.16-.53,1.25-1.36,3.17-1.36,5.3,0,1.12.15,1.56.33,1.83.13.26.29.31.48,0,.46-.73,1.67-3.41,2.18-4.49l.48.22Zm2.16,1.87c.13.53.33,1.32.64,1.87.73,1.3,1.85,2.02,4.51,2.02,2.31,0,3.12-.4,3.67-.4s1.14.22,1.14.73c0,.88-1.98,1.14-4.33,1.14-3.39,0-5.21-1.14-5.85-3.34-.2-.66-.26-1.36-.26-1.96l.48-.07Zm.24-6.73c1.72-.97,3.65-1.34,5.15-1.34s2.31.13,3.01.44c.46.2.66.51.66.79,0,.26-.15.46-.62.51-.51.09-1.06.13-1.78.44-.92.44-2.46,1.3-3.54,1.96l-.33-.4c.95-.7,2.46-1.8,2.91-2.18.26-.24.26-.4-1.17-.4-.88,0-2.29.13-4.09.7l-.2-.53Z"/>
          <path class="cls-1" d="m128.6,190.89c.77.2,1.43.46,1.87.9.2.26.26.48.2.79,3.28.37,5.1,2.77,5.1,5.21,0,4.09-4.29,5.96-9.92,6.1l-.11-.46c5.3-.73,8.54-2.68,8.54-6.03,0-2.07-1.45-3.83-3.87-4.18-.75,1.69-2.35,3.94-4.09,5.79.29.62.51,1.1.51,1.54s-.29.59-.66.59c-.4,0-.73-.42-.99-1.06-1.56,1.32-3.12,2.05-4.42,2.05-.97,0-1.54-.57-1.54-1.69,0-2.84,2.84-5.41,5.35-6.69.09-1.01.24-2.11.4-3.1-.64.09-1.34.13-1.98.13-1.41,0-2.18-.42-3.08-1.87l.35-.33c1.1.9,1.8,1.08,2.9,1.08.66,0,1.34-.04,1.98-.13.15-.95.26-1.69.26-2.07,0-.35-.09-.46-.42-.57-.4-.13-.81-.2-1.25-.26v-.44c.4-.09.86-.2,1.1-.2,1.25,0,2.35.73,2.35,1.14,0,.46-.42.53-.57,1.28-.09.26-.15.59-.24.95,2.95-.59,4.47-1.61,4.84-1.61.75,0,1.17.26,1.17.64,0,.26-.13.46-.51.64-.9.4-3.43,1.12-5.77,1.5-.2.86-.37,1.83-.46,2.73,1.08-.42,2.4-.7,3.83-.73.07-.55-.29-.84-1.08-1.28l.22-.35Zm-3.78,8.08c-.24-1.08-.35-2.38-.35-3.52,0-.26,0-.53.02-.79-2.46,1.52-4.07,3.81-4.07,5.28,0,.59.2.84.73.84,1.08,0,2.49-.81,3.67-1.8Zm1.06-1.01c1.39-1.45,2.79-3.39,3.39-4.8-1.34.04-2.49.35-3.72.92-.02.4-.04.77-.04,1.1,0,1.17.15,2.05.37,2.77Z"/>
          <path class="cls-1" d="m122.96,208.49c.29.59.57,1.28,1.14,1.28.86,0,3.56-.7,4.55-1.01.48-.13.53-.35.84-.35.66,0,1.87.92,1.87,1.52,0,.42-.51.44-1.28,1.08-1.1.95-3.94,3.7-4.93,4.75-.15.15-.07.33.13.24.97-.37,2.25-.77,3.7-.77,2.79,0,5.21,1.85,5.15,4.84-.07,2.71-2.46,4.93-6.56,4.93-2.42,0-4.09-.97-4.09-2.53,0-1.17,1.06-2.05,2.44-2.05,1.56,0,3.17.99,3.52,3.1,2.16-.62,3.21-2.13,3.26-3.81.07-1.87-1.36-3.74-4-3.74-3.1,0-5.26,1.94-7.11,4.27-.31.4-.48.53-.81.53-.29-.02-.59-.33-.57-.9.02-.37.2-.68.7-1.21,3.37-3.46,7.26-7.2,8.16-8.67.22-.29.09-.4-.18-.33-.68.13-2.53.79-3.45,1.17-.42.18-.73.51-1.08.51-.86,0-1.63-.95-1.8-1.56-.09-.37-.07-.81,0-1.23l.4-.04Zm5.19,15.27c-.29-1.67-1.32-2.53-2.53-2.53-.79,0-1.36.44-1.36,1.14,0,.75.92,1.43,2.99,1.43.33,0,.62-.02.9-.04Z"/>
          <path class="cls-1" d="m128.75,228.09c.48-.18.95-.35,1.36-.35,1.06,0,2.33.84,2.33,1.43,0,.35-.4.48-.44,1.25-.02.64-.07,1.52-.11,2.49,1.67-.31,2.97-.53,3.45-.53.9,0,1.67.33,1.67,1.01,0,.44-.33.57-.92.57-.84,0-1.65-.15-3.15,0-.33,0-.7.07-1.1.11-.04,1.54-.2,3.39-.42,4.36-.22.99-.7,1.61-1.5,1.61-.31,0-.51-.07-.73-.48-.33-.66-1.28-1.03-2.13-1.39l.15-.48c.95.29,2,.57,2.38.57.33,0,.55-.09.68-.55.2-.66.31-2.22.35-3.43-2.11.4-4.55.97-6.07,1.39-.04,1.85-.09,3.89-.04,4.88.04,2.29.51,2.57,3.39,2.57,2.66,0,4.29-.53,4.99-.53s1.32.26,1.32.79c0,.42-.26.59-.95.77-.86.2-2.75.33-4.97.33-3.12,0-4.84-.66-4.93-3.1-.07-1.21-.04-3.3-.07-5.35-2.6.81-3.46,1.39-4.05,1.39s-1.41-.75-1.76-1.54c-.11-.29-.11-.7-.09-1.1l.31-.13c.35.55.9,1.19,1.43,1.19.46,0,2.71-.57,4.16-.92.02-1.5,0-2.84-.04-3.46-.04-.64-.18-.75-.53-.88-.33-.13-.84-.18-1.25-.22l-.02-.46c.42-.13.92-.26,1.45-.26.84,0,2.22.7,2.22,1.28,0,.4-.35.48-.44,1.34-.04.51-.07,1.34-.11,2.33,1.43-.35,4.14-.99,6.07-1.41.02-1.3.04-3.01-.02-3.85-.02-.35-.2-.53-.59-.64-.33-.09-.75-.11-1.28-.15l-.02-.44Z"/>
          <path class="cls-1" d="m119.99,252.34c0-1.17-.2-1.74-1.72-2.82l.2-.31c.53.07.97.13,1.39.31.79.37,1.91,1.36,1.91,2.24,0,.97-.75,2.31-.75,4.55,0,2.71,1.25,4.09,2.16,4.58.31.15.55.13.75-.18.66-1.01,1.41-2.6,2.02-3.92l.57.24c-.51,1.43-1.19,3.23-1.32,3.92-.2.97.18,1.08.18,1.54,0,.62-.62.95-1.52.57-1.67-.75-3.89-2.6-3.98-6.71-.04-1.56.11-3.04.11-4.03Zm10.01-.57l.2-.51c2.05.35,3.1,1.12,4.09,2.13,1.21,1.28,1.87,3.39,1.87,4.84,0,.86-.29,1.25-.86,1.25-.35,0-.64-.26-.73-.77-.15-.92-.31-2.77-1.21-4.29-.75-1.3-1.91-2.09-3.37-2.66Z"/>
          <path class="cls-1" d="m136.47,272.47c-.07.31-.24.53-.81.62v13.14c0,.18-.62.51-1.19.51h-.29v-2.29h-13.93v2.11c0,.2-.62.55-1.17.55h-.29v-14.79l2.24.24c-.04.31-.22.53-.79.59v10.63h6.16v-16.24l2.27.26c-.04.31-.24.51-.77.59v15.38h6.27v-11.55l2.29.24Z"/>
          <path class="cls-1" d="m117.29,293.94c4.67.57,3.78,3.72,2.22,2.84-.35-.95-1.47-2.05-2.4-2.64l.18-.2Zm6.38-1.08c-.95,2.77-2.77,8.01-3.08,9.07-.18.7-.33,1.39-.33,1.94.02.97.66,1.98.57,3.76-.04.95-.46,1.52-1.21,1.52-.42,0-.64-.4-.7-1.08.29-2.24.18-3.96-.31-4.27-.29-.22-.59-.29-1.08-.33v-.48h.97c.26,0,.35-.02.55-.44q.37-.79,4.2-9.79l.42.11Zm-4.4-3.67c4.82.7,3.94,3.96,2.31,3.08-.35-1.01-1.52-2.22-2.49-2.86l.18-.22Zm17.21,8.1s.95.95,1.47,1.61c-.07.24-.26.33-.57.33h-2.05v4.51c-.02.15-.73.42-1.19.42h-.2v-1.21h-3.87v4.07c0,1.12-.24,1.96-2.33,2.16-.02-.44-.18-.84-.46-1.03-.37-.24-.97-.44-2.02-.57v-.33s2.42.18,2.9.18c.42,0,.53-.13.53-.46v-4h-5.3l-.2-.64h5.5v-3.08h-6.38l-.18-.62h6.56v-2.93h-4.07c-.53.53-1.08.99-1.61,1.39l-.29-.24c1.63-1.8,3.43-4.8,4.53-7.85l2.2.7c-.09.26-.37.46-.86.44-.2.4-.42.77-.62,1.14h3.54l.9-.92,1.65,1.54c-.15.13-.42.15-.84.2-.68.81-1.67,2.11-2.64,2.97h3.12l.79-.9,1.78,1.39c-.15.18-.53.35-.97.44v2.64h.31l.84-1.32Zm-6.42-2.25c.53-.88,1.1-2.18,1.47-3.12h-3.94c-.73,1.14-1.54,2.2-2.38,3.12h4.84Zm.02,3.56h3.87v-2.93h-3.87v2.93Zm3.87.62h-3.87v3.08h3.87v-3.08Z"/>
          <path class="cls-1" d="m135.29,328s1.3.99,2.07,1.72c-.07.24-.24.35-.57.35h-19.43l-.18-.64h9.31v-10.1h-7.81l-.2-.66h8.01v-7.64l2.27.26c-.04.31-.24.53-.77.62v6.75h4.95l1.1-1.39s1.32.97,2.07,1.69c-.04.24-.26.35-.59.35h-7.53v10.1h6.16l1.14-1.43Z"/>
          <path class="cls-1" d="m124.2,346.89c-.15.22-.33.33-.84.22-1.23,1.76-3.5,3.89-6.1,5.15l-.22-.26c2.16-1.56,4.16-4.14,5.1-6.09l2.05.99Zm11-4.6s1.19.88,1.96,1.56c-.04.24-.26.35-.57.35h-8.62v6.84c0,1.14-.29,1.89-2.33,2.09-.04-.42-.18-.79-.48-.99-.33-.24-.9-.42-1.96-.53v-.33s2.35.15,2.82.15c.4,0,.51-.13.51-.42v-6.82h-8.89l-.2-.66h16.68l1.1-1.25Zm2.11-5.43c-.13.18-.4.22-.84.24-.59.73-1.63,1.76-2.46,2.35l-.29-.18c.31-.64.73-1.65,1.01-2.44h-14.41c0,1.41-.59,2.33-1.21,2.77-.53.4-1.36.44-1.61-.07-.22-.44.09-.92.53-1.19.92-.53,1.72-1.89,1.58-3.41l.4-.02c.13.44.22.86.26,1.25h6.23v-3.23l2.27.24c-.04.31-.26.53-.79.59v2.4h6.71l.92-.95,1.69,1.63Zm-5.52,1.74s1.19.86,1.89,1.5c-.07.24-.26.35-.57.35h-11.86l-.18-.66h9.73l.99-1.19Zm-1.03,7.55c7.15,2.66,6.36,7,4.49,5.83-.62-1.91-2.9-4.29-4.75-5.63l.26-.2Z"/>
          <path class="cls-1" d="m126.42,371.12c5.3-.95,7.83-3.65,7.83-7.59s-2.84-6.29-6.43-6.29c-.24,0-.51.02-.77.04.53.7.95,1.47.95,2.31,0,1.03-.22,2.25-.66,3.5-.9,2.57-3.41,6.78-5.63,6.78-1.45,0-2.95-2.31-2.95-4.99,0-2.16,1.03-4.42,2.88-6.05,1.76-1.58,3.98-2.31,6.29-2.31,4.47,0,7.9,2.93,7.9,7.39,0,3.61-2.29,7.24-9.33,7.72l-.09-.51Zm-.18-13.71c-1.5.33-2.93,1.06-4.03,2.16-1.39,1.34-2.22,3.08-2.22,4.95,0,2.09.95,3.63,1.8,3.63,1.45,0,3.41-3.37,4.29-5.41.42-1.03.77-2.35.77-3.34,0-.77-.24-1.36-.62-1.98Z"/>
          <path class="cls-1" d="m117.09,392.99c.64-1.63,1.17-4,1.41-6.25l1.98.46c-.07.26-.31.46-.77.48-.51,2.02-1.28,4.11-2.27,5.5l-.35-.2Zm5.7-11.13c3.78,2.29,2.42,5.06,1.17,3.89-.04-.48-.18-1.06-.37-1.61-.48.11-.99.24-1.56.37v9.81c0,.11-.46.46-1.14.46h-.2v-9.99c-.73.15-1.54.31-2.42.48-.11.29-.33.4-.53.44l-.53-1.63c.48,0,1.19-.04,2.07-.09,1.3-2,2.73-4.71,3.56-6.69l2.07.88c-.13.24-.4.4-.86.33-.99,1.58-2.55,3.74-4.14,5.43,1.06-.07,2.27-.15,3.5-.26-.26-.64-.59-1.25-.88-1.74l.26-.11Zm.02-6.45c-.09.26-.33.42-.79.4-.68,1.12-1.54,2.29-2.4,3.17,1.74,1.39.88,2.99-.22,2.22-.2-1.01-1.19-2.31-2.02-3.06l.22-.18c.64.2,1.14.44,1.56.68.53-1.12,1.08-2.62,1.5-4.03l2.16.79Zm.15,11.11c3.34,2.57,1.87,5.26.7,4.05.02-1.28-.51-2.9-.99-3.94l.29-.11Zm3.78,1.69c.26,2.05-.31,3.7-.88,4.4-.37.46-1.17.68-1.45.29-.26-.37-.04-.86.31-1.21.66-.62,1.47-2.16,1.63-3.52l.4.04Zm3.56-12.48c-.11.22-.35.4-.81.33-1.12,2.02-2.64,3.67-4.25,4.71l-.29-.26c1.25-1.25,2.53-3.37,3.28-5.63l2.07.86Zm1.85,5.26c4.91,2.18,3.76,5.5,2.29,4.38-.09-.55-.35-1.17-.68-1.76-1.65.33-3.78.79-6.58,1.28-.13.26-.35.4-.57.44l-.59-1.83c.48,0,1.21-.02,2.07-.04.64-1.54,1.32-3.5,1.72-4.97l2.16.48c-.07.26-.31.46-.79.48-.57,1.17-1.47,2.68-2.4,3.96,1.36-.04,3.04-.13,4.75-.22-.48-.77-1.06-1.5-1.61-2.05l.24-.15Zm2,11.86c.42.15.51.33.51.59,0,.55-.57.84-3.26.84h-1.8c-1.45,0-1.69-.33-1.69-1.25v-5.68l1.94.24c-.04.26-.26.46-.64.53v4.6c0,.26.07.33.68.33h2.99c.2-.02.26-.07.35-.26.13-.33.37-1.47.55-2.64h.31l.07,2.71Zm-4.97-7.11c4.62,1.45,3.67,4.6,2.27,3.63-.26-1.19-1.47-2.64-2.51-3.41l.24-.22Zm8.1-6.14c-.55.11-1.01.53-1.19,1.25-1.85-1.21-3.39-3.26-4.27-5.88l.33-.18c1.06,2.09,3.21,3.78,5.17,4.55l-.04.24Zm-3.26,7.81c4.75,2.75,3.43,6.18,1.98,4.91-.15-1.54-1.28-3.52-2.24-4.73l.26-.18Z"/>
          <path class="cls-1" d="m128.47,402.47c2,3.87,5.68,7.28,9.11,8.87l-.04.22c-.62.07-1.19.51-1.45,1.21-3.34-2.05-6.36-5.72-8.12-10.3v9.02h2l1.03-1.39s1.17.97,1.91,1.67c-.07.24-.29.35-.59.35h-4.36v4.11c0,.22-.62.55-1.19.55h-.29v-4.66h-4.64l-.18-.64h4.82v-7.75c-1.98,3.76-5.13,7-9.2,9.22l-.22-.33c3.63-2.51,6.62-6.36,8.25-10.17h-7.81l-.2-.66h9.17v-5.19l2.29.26c-.07.33-.24.55-.81.64v4.29h6.07l1.14-1.43s1.28.99,2.05,1.74c-.04.24-.26.35-.57.35h-8.18Z"/>
          <path class="cls-1" d="m136.47,424.09c-.07.31-.24.53-.81.62v13.14c0,.18-.62.51-1.19.51h-.29v-2.29h-13.93v2.11c0,.2-.62.55-1.17.55h-.29v-14.79l2.24.24c-.04.31-.22.53-.79.59v10.63h6.16v-16.24l2.27.26c-.04.31-.24.51-.77.59v15.38h6.27v-11.55l2.29.24Z"/>
          <path class="cls-1" d="m131.68,440.75c2.6.79,3.94,1.89,4.69,2.93.37.57.51.99.51,1.45,0,.64-.37,1.01-.9,1.01-.46,0-.75-.29-1.06-.92-.66-1.43-1.56-2.75-3.5-4.09l.26-.38Z"/>
          <path class="cls-1" d="m80.31,28.25s1.3.97,2.09,1.72c-.07.24-.26.35-.57.35h-19.45l-.18-.66h3.39v-11.16l2.29.24c-.07.31-.26.53-.79.64v10.28h4.6v-15.78h-8.45l-.2-.64h15.36l1.12-1.41s1.3.97,2.11,1.69c-.07.24-.29.35-.59.35h-7.86v7h4.22l1.12-1.39s1.25.97,2.02,1.69c-.07.22-.26.33-.57.33h-6.8v8.14h5.98l1.14-1.41Z"/>
          <path class="cls-1" d="m69.95,33.88l1.65,1.25c-.13.15-.44.33-.81.4v6.93c-.02.13-.73.46-1.19.46h-.2v-1.21h-4.53v11.09c0,.2-.51.57-1.17.57h-.26v-19.43l1.52.73h4.25l.75-.79Zm-5.08,1.45v2.51h4.53v-2.51h-4.53Zm4.53,5.76v-2.62h-4.53v2.62h4.53Zm12.63-5.94c-.15.18-.53.37-.97.46v15.58c0,1.17-.26,1.94-2.57,2.2-.07-.48-.24-.86-.62-1.08-.42-.26-1.08-.46-2.31-.62v-.35s2.88.22,3.43.22c.48,0,.64-.15.64-.55v-9.31h-4.73v.64c0,.13-.59.46-1.19.46h-.22v-8.8l1.5.66h4.42l.75-.92,1.87,1.41Zm-7.13.18v2.51h4.73v-2.51h-4.73Zm4.73,5.76v-2.62h-4.73v2.62h4.73Z"/>
          <path class="cls-1" d="m68.23,56.14c.35-.13.81-.29,1.41-.29.9,0,2.51.77,2.51,1.3s-.44.73-.68,1.28c-.22.51-.55,1.32-.92,2.27.57-.11,1.25-.2,1.78-.2,1.58,0,2.55.9,2.55,3.45s-.81,5.63-2.07,7.24c-.64.79-1.52,1.34-2.62,1.34-.73,0-.86-.29-1.14-.92-.15-.35-.33-.59-1.52-1.63l.24-.35c1.14.73,2.11,1.28,2.62,1.28.66,0,1.17-.22,1.69-1.12.73-1.1,1.52-3.74,1.52-6.18,0-1.54-.37-2.22-1.56-2.22-.48,0-1.21.13-1.94.31-.59,1.45-1.34,3.1-2.02,4.53-1.19,2.38-2.29,4.51-3.19,5.88-.33.53-.59.68-.9.68s-.68-.31-.68-.84c0-.35.09-.62.37-.99,1.19-1.52,2.13-3.01,3.37-5.32.51-1.01,1.1-2.29,1.58-3.52-.79.26-1.5.53-1.94.7-.92.35-1.25.59-1.76.59-.57,0-1.39-.84-1.56-1.52-.07-.35-.04-.88.07-1.25l.42-.09c.26.59.4,1.28,1.03,1.28.68,0,2.6-.51,4.2-.84.64-1.67,1.12-3.08,1.12-3.48,0-.26-.07-.46-.35-.59-.31-.15-1.12-.24-1.63-.31v-.46Zm8.27,4.38c1.74.24,2.84.81,3.72,1.78.81.86,1.34,2.29,1.34,3.96,0,.88-.26,1.61-.95,1.61-.59,0-.55-.59-1.21-.73-.44-.09-1.78,0-2.53.09l-.11-.51c.79-.18,2.13-.44,2.71-.64.48-.18.55-.4.53-.95-.04-.57-.24-1.52-.88-2.4-.62-.86-1.45-1.45-2.86-1.72l.24-.51Z"/>
          <path class="cls-1" d="m68.89,76.09l.15-.44c2,.15,3.12.66,3.89,1.19.95.66,1.25,1.3,1.25,2.05,0,.55-.24.84-.7.84-.57,0-.73-.15-1.69-.13-1.19.04-2.71.37-3.26.51-.33.09-.42.22-.42.44,0,.24.24.84.26,1.28.02.53-.22,1.1-.4,1.85-.24.97-.55,2.09-.53,3.15,0,.24.11.26.29.13,2.38-1.98,4.95-3.1,7.22-3.1,3.23,0,4.8,2.11,4.8,4.29,0,3.89-5.79,5.48-10.74,5.15l-.07-.51c1.54-.09,3.12-.35,4.11-.64,3.98-1.1,5.13-2.82,5.13-4.42,0-1.89-1.47-3.12-3.32-3.12-2.42,0-5,1.91-6.65,3.85-.33.37-.59,1.06-1.01,1.06-.26,0-.51-.15-.77-.48-.24-.29-.42-.7-.42-.99,0-.37.15-.84.22-1.41.13-1.25.53-3.15.7-4.22.13-.88.07-1.43.07-1.91s.18-.84.88-1.01c1.1-.29,3.21-.75,4.07-1.06.31-.13.35-.33.02-.68-.55-.7-1.76-1.21-3.1-1.63Z"/>
          <path class="cls-1" d="m62.02,114.11c.59-1.56,1.14-3.85,1.39-6.01l1.98.48c-.09.26-.33.48-.77.48-.51,1.92-1.3,3.89-2.27,5.21l-.33-.18Zm4.86-8.29v9.86c0,.11-.48.46-1.14.46h-.22v-9.99c-.68.18-1.45.35-2.27.53-.11.26-.33.42-.53.46l-.57-1.61c.46-.02,1.17-.09,2-.15,1.34-2,2.75-4.69,3.56-6.73l2.07.88c-.11.24-.4.4-.86.33-.95,1.63-2.49,3.76-4.09,5.46.99-.09,2.11-.2,3.28-.33-.18-.73-.46-1.43-.73-1.98l.29-.11c3.28,2.22,1.8,4.84.62,3.63.02-.33-.02-.68-.09-1.03l-1.32.33Zm.92-9.04c-.09.24-.33.42-.81.37-.68,1.14-1.52,2.29-2.33,3.17,1.72,1.34.86,2.97-.22,2.24-.24-1.06-1.23-2.31-2.09-3.06l.24-.18c.64.2,1.14.42,1.56.66.51-1.14,1.08-2.64,1.5-4.03l2.16.81Zm0,11.07c3.52,2.53,2.09,5.35.88,4.11-.02-1.25-.64-2.93-1.14-4l.26-.11Zm.73,8.01c4.07-2,4.73-5.48,4.51-9.15l2.31.33c-.09.35-.33.53-.79.57-.11,3.45-1.01,6.78-5.83,8.56l-.2-.31Zm3.15-10.56c0,.99-.29,1.76-.64,2.18-.37.4-1.14.51-1.43.04-.22-.42-.02-.9.4-1.21.55-.46,1.1-1.65,1.06-2.62l.37.02c.09.33.15.64.2.92h8.62l.84-.86,1.58,1.52c-.15.15-.42.2-.81.22-.53.64-1.47,1.56-2.16,2.11l-.31-.18c.26-.55.64-1.43.88-2.16h-8.6Zm-1.56-6.54h4.84v-2.68l2.11.24c-.04.26-.22.46-.68.57v1.87h3.04l.99-1.28s1.14.9,1.85,1.54c-.04.24-.26.35-.57.35h-5.3v2.53h2.44l.95-1.17s1.08.81,1.74,1.47c-.07.24-.26.35-.57.35h-9.9l-.18-.66h4.09v-2.53h-4.67l-.18-.62Zm12.01,15.47c.42.18.51.35.51.62,0,.57-.59.88-2.93.88h-1.43c-1.36,0-1.58-.37-1.58-1.32v-7.7l2,.22c-.02.29-.22.51-.64.57v6.56c0,.29.07.35.55.35h1.12c.55,0,.92,0,1.1-.02.18-.02.24-.04.31-.29.13-.35.4-1.83.64-3.19h.29l.07,3.32Z"/>
          <path class="cls-1" d="m72.45,118.82l.26-.42c.48.11.92.22,1.32.46.79.42,1.58,1.32,1.58,1.87,0,.44-.37.62-1.12,1.19-1.45,1.17-4.29,3.76-5.17,4.66-.64.64-.79.88-.79,1.12,0,.29.26.57.75.92,2.22,1.78,4.11,3.17,5.65,5.1.59.77,1.06,1.61,1.06,2.24,0,.57-.29.97-.86.97-.35,0-.62-.26-.77-.55-.24-.42-.46-.97-1.03-1.87-1.01-1.54-2.57-3.08-5.19-5.28-.55-.48-.81-.92-.81-1.41,0-.37.2-.77.55-1.14,1.08-1.3,4.27-4.4,5.26-5.59.37-.44.51-.64.51-.9,0-.35-.31-.79-1.19-1.39Z"/>
          <path class="cls-1" d="m62.11,157.61c.75-1.63,1.36-4.03,1.65-6.34l2,.53c-.09.26-.33.46-.79.48-.55,2.07-1.41,4.14-2.51,5.52l-.35-.2Zm6.45-11.29c4.05,2.31,2.75,5.21,1.41,4.05-.04-.51-.22-1.1-.46-1.67-.59.15-1.25.31-2,.46v9.7c0,.13-.48.46-1.17.46h-.22v-9.86c-.86.2-1.83.4-2.86.62-.11.26-.33.42-.53.46l-.57-1.65c.53-.02,1.32-.07,2.31-.15,1.41-2.02,2.95-4.8,3.83-6.86l2.05.9c-.13.24-.42.4-.88.33-1.01,1.63-2.66,3.83-4.33,5.57,1.23-.11,2.68-.24,4.18-.4-.31-.66-.68-1.3-1.01-1.8l.26-.15Zm-.51-6.36c-.11.24-.33.4-.79.37-.73,1.17-1.63,2.42-2.51,3.32,1.72,1.32.95,2.84-.11,2.16-.31-1.03-1.45-2.33-2.4-3.06l.22-.2c.77.22,1.39.51,1.87.79.55-1.14,1.14-2.73,1.61-4.2l2.11.81Zm.59,11.16c3.74,2.77,2.35,5.7,1.06,4.47-.09-1.36-.77-3.17-1.36-4.38l.31-.09Zm12.06,5.17s1.23.92,1.94,1.63c-.04.24-.29.35-.57.35h-12.43l-.15-.66h5.61v-15.27h-4.36l-.18-.64h8.54l1.03-1.28s1.14.92,1.85,1.58c-.07.22-.29.33-.59.33h-4.82v15.27h3.12l1.01-1.32Z"/>
          <path class="cls-1" d="m73.8,175.89c2.11,1.74,5.74,3.15,8.76,3.74l-.04.26c-.57.09-1.06.53-1.21,1.19-3.08-.99-6.34-2.84-8.23-5.19h-.11v5.1c0,.15-.62.46-1.17.46h-.26v-5.3c-2.2,2.31-5.57,3.98-9.42,5l-.18-.37c3.17-1.14,5.99-2.88,7.83-4.88h-7.35l-.18-.64h9.29v-2.16h-3.92v.68c0,.18-.62.51-1.17.51h-.24v-6.21h-3.61l-.2-.64h3.81v-1.94l1.76.2v-1.69h-5.63l-.13-.66h5.76v-2.2l2.18.24c-.04.31-.22.51-.77.59v1.36h5.61v-2.2l2.18.24c-.04.31-.24.51-.77.59v1.36h3.01l1.01-1.28s1.19.9,1.85,1.58c-.04.24-.24.35-.55.35h-5.32v1.23s-.04.11-.13.15l2.13.22c-.04.31-.24.48-.77.57v1.25h1.76l.97-1.17s1.06.86,1.76,1.47c-.07.22-.26.33-.57.33h-3.92v3.01c0,.2-.64.51-1.14.51h-.24v-.97h-3.65v.68c0,.13-.62.44-1.17.44h-.22v-3.67h-3.59v4.38h11.02l.99-1.17s1.08.81,1.78,1.45c-.07.24-.26.35-.57.35h-7.08c-.07.26-.26.46-.79.55v1.61h6.51l1.03-1.21s1.17.86,1.87,1.5c-.07.24-.26.35-.55.35h-8.03Zm-6.18-8.45h3.59v-2.25l2.16.22c-.04.33-.22.51-.77.59v1.43h3.65v-2.02c-.2.11-.55.22-1.03.24h-.22v-1.65h-5.61v1.34c0,.15-.59.35-1.19.35h-.2l.4.04c-.04.26-.24.46-.77.55v1.14Zm8.62.64h-3.65v1.89h3.65v-1.89Z"/>
          <path class="cls-1" d="m80.26,200.4s1.3.97,2.09,1.69c-.07.24-.26.33-.59.33h-19.41l-.18-.64h7.06v-12.72h-6.07l-.2-.66h10.78c.88-1.52,1.83-3.63,2.38-5.19l2.33.66c-.11.26-.35.42-.86.42-.75,1.23-2.02,2.86-3.26,4.12h4.18l1.1-1.36s1.25.95,2.05,1.67c-.07.24-.29.35-.59.35h-5.94v12.72h4l1.12-1.39Zm-15.38-9.17c4.09,4.77,2.79,8.8,1.3,7.26.04-2.22-.86-5.17-1.65-7.17l.35-.09Zm2.02-7.99c4.82,2.24,3.5,5.68,1.96,4.47-.2-1.43-1.28-3.21-2.22-4.31l.26-.15Zm3.76,18.55h3.04v-12.72h-3.04v12.72Zm5.61-2.49c.73-2.18,1.63-5.54,2.22-8.41l2.33.66c-.07.24-.33.44-.79.46-.92,2.57-2.16,5.46-3.39,7.46l-.37-.18Z"/>
          <path class="cls-1" d="m73.4,211.42c2,4.2,5.7,7.9,9.24,9.57l-.07.24c-.59.04-1.17.51-1.43,1.23-3.39-2.18-6.42-6.07-8.18-10.89v13.16c0,.22-.64.59-1.19.59h-.29v-12.39c-2.02,3.94-5.26,7.48-9.35,9.88l-.29-.29c3.79-2.79,6.89-7.02,8.54-11.11h-7.81l-.2-.66h9.11v-5.61l2.24.26c-.07.31-.22.53-.77.62v4.73h6.01l1.17-1.41s1.28.97,2.07,1.72c-.04.24-.26.35-.57.35h-8.23Z"/>
          <path class="cls-1" d="m67.9,228.53c.37-.13.81-.29,1.43-.29.88,0,2.49.75,2.49,1.3,0,.48-.44.73-.68,1.28-.22.51-.53,1.32-.92,2.27.57-.11,1.28-.2,1.78-.2,1.61,0,2.55.9,2.55,3.46s-.79,5.61-2.07,7.24c-.64.79-1.52,1.34-2.62,1.34-.73,0-.86-.29-1.14-.92-.15-.35-.31-.59-1.5-1.63l.22-.35c1.14.73,2.13,1.28,2.62,1.28.66,0,1.17-.24,1.69-1.12.75-1.1,1.52-3.74,1.52-6.18,0-1.56-.37-2.22-1.54-2.22-.51,0-1.21.13-1.96.31-.59,1.45-1.32,3.1-2.02,4.53-1.19,2.38-2.29,4.51-3.19,5.88-.33.53-.57.66-.9.66-.31,0-.66-.29-.66-.81,0-.35.09-.62.35-.99,1.19-1.52,2.13-3.01,3.37-5.33.53-1.01,1.1-2.29,1.61-3.52-.81.26-1.52.53-1.96.7-.92.35-1.23.59-1.76.59s-1.39-.84-1.54-1.52c-.07-.35-.04-.88.04-1.25l.42-.09c.26.59.42,1.28,1.03,1.28.7,0,2.62-.51,4.2-.86.66-1.65,1.12-3.06,1.12-3.45,0-.26-.07-.46-.33-.59-.33-.15-1.12-.26-1.65-.33v-.44Zm8.27,4.38c1.76.24,2.86.81,3.72,1.78.81.86,1.36,2.29,1.36,3.94,0,.9-.29,1.63-.95,1.63-.62,0-.57-.59-1.21-.73-.46-.09-1.8,0-2.55.09l-.11-.51c.79-.18,2.13-.46,2.73-.64.46-.18.53-.4.51-.95-.04-.57-.24-1.52-.88-2.4-.59-.86-1.45-1.45-2.84-1.72l.22-.51Zm.92-3.74c1.1.46,1.92.92,2.44,1.45.55.48.77.86.77,1.28,0,.35-.22.57-.53.57-.35,0-.59-.46-1.01-1.01-.44-.55-1.03-1.23-1.98-1.89l.31-.4Zm1.94-1.36c1.1.37,1.94.79,2.46,1.23.57.46.81.9.81,1.34,0,.37-.2.57-.53.57-.35,0-.55-.53-1.03-1.03-.46-.55-1.01-1.06-2-1.76l.29-.35Z"/>
          <path class="cls-1" d="m80.33,249.7s1.21.92,1.96,1.63c-.07.24-.24.35-.55.35h-11.16c-.55,1.01-1.19,2.02-1.94,2.99l.42.18h8.05l.79-.95,1.96,1.45c-.18.2-.57.4-1.06.48v9.81c0,1.17-.22,1.89-2.31,2.09-.09-.46-.2-.84-.51-1.06-.35-.24-.9-.44-1.91-.57v-.35s2.31.18,2.77.18c.42,0,.51-.15.51-.48v-3.06h-8.56v4.84c0,.13-.48.51-1.17.51h-.24v-11.55c-1.39,1.54-3.06,2.95-4.99,4.03l-.22-.26c2.95-2.11,5.21-5.17,6.78-8.27h-6.42l-.2-.64h6.93c.55-1.19.99-2.38,1.32-3.52l2.29.75c-.09.26-.29.4-.88.35-.31.79-.66,1.61-1.08,2.42h8.34l1.08-1.34Zm-11.53,5.81v2.77h8.56v-2.77h-8.56Zm8.56,6.23v-2.79h-8.56v2.79h8.56Z"/>
          <path class="cls-1" d="m81.3,281.45c-.15.15-.51.35-.95.44v7.26c-.02.15-.75.53-1.25.53h-.22v-1.63h-9.09v1.21c0,.11-.46.48-1.19.48h-.24v-7.92c-1.85.99-3.89,1.83-6.14,2.49l-.2-.33c3.19-1.21,6.14-2.93,8.58-4.97-.18.02-.4-.02-.62-.15-.42-1.12-1.74-2.53-2.88-3.48-1.36,1.1-2.86,2.07-4.4,2.77l-.22-.26c3.06-1.89,6.12-5.28,7.61-8.3l2.27.81c-.11.22-.29.31-.86.22-.33.51-.73,1.03-1.17,1.56h5.54l1.08-.99,1.65,1.61c-.15.2-.4.26-.99.29-1.76,2.99-4.33,5.7-7.7,7.81l.13.07h8.6l.84-.92,1.8,1.41Zm-11.49-8.65c-.68.77-1.45,1.52-2.29,2.24,3.1,1.08,3.85,2.73,3.59,3.52,1.98-1.74,3.59-3.7,4.73-5.76h-6.03Zm9.07,14.61v-5.81h-9.09v5.81h9.09Z"/>
          <path class="cls-1" d="m63.08,294.75c.29.55.88,1.08,1.36,1.08,1.12,0,5.24-1.21,8.8-2.05,2.49-.59,4.18-.9,4.93-.9.55,0,1.17.09,1.52.24.48.22.66.46.66.77s-.24.59-.73.59c-.42,0-1.08-.09-1.87-.09-1.03,0-2.53.15-3.61.81-.97.57-3.1,2.6-3.1,6.87,0,2.35.95,3.32,1.8,3.85,1.43.84,3.32.7,4.18.7.53,0,1.25.4,1.25.95s-.59.7-1.56.7c-1.28,0-3.39-.09-4.86-1.19-1.34-.99-2.07-2.29-2.07-4.75s.84-5.41,3.26-7.3c.15-.13.13-.26-.13-.2-2.4.59-5.46,1.61-6.76,2.22-.42.2-.88.55-1.32.55-.79,0-1.89-.97-2.09-1.74-.09-.33-.07-.66-.07-.99l.4-.13Zm13.25,2.62c1.08.46,1.94.95,2.49,1.47.51.46.73.84.73,1.25,0,.37-.22.59-.53.59s-.55-.51-.99-1.03c-.46-.55-1.03-1.23-1.98-1.89l.29-.4Zm1.89-1.43c1.1.42,1.96.81,2.46,1.25.59.48.79.86.79,1.34,0,.37-.15.55-.48.55-.35,0-.59-.48-1.03-1.03-.51-.53-1.01-1.06-1.98-1.72l.24-.4Z"/>
          <path class="cls-1" d="m12.48,20.13c4.25,1.92,3.1,4.67,1.76,3.65-.22-.95-1.01-2.16-1.76-3.06v10.14c0,.11-.51.46-1.21.46h-.22v-9.48c-.99,2-2.29,3.81-3.87,5.3l-.31-.29c1.85-2.35,3.17-5.5,3.92-8.6h-3.41l-.15-.62h3.83v-3.65c-1.21.31-2.51.57-3.76.75l-.11-.37c2.53-.68,5.54-2.05,7.02-3.12l1.85,1.45c-.2.2-.59.22-1.12.04-.68.29-1.52.59-2.44.88v4.03h1.06l.95-1.23s1.03.88,1.67,1.5c-.04.24-.26.35-.55.35h-3.12v1.87Zm15.03-3.23c-.11.24-.4.37-.86.29-1.25,1.63-2.84,3.23-4.27,4.29.86,3.67,2.42,6.38,5.3,8.34l-.04.24c-.7.11-1.19.48-1.41,1.3-3.19-2.62-4.47-6.93-4.97-12.74-.35,5.52-1.74,9.81-7.68,12.83l-.29-.4c7.11-4.27,6.69-10.67,6.69-19.71l2.18.24c-.04.31-.26.55-.77.62.11,3.37.35,6.27.86,8.76,1.06-1.32,2.31-3.26,3.23-5.15l2.02,1.1Zm-9.92-.99c.55,2.51-.09,4.4-.77,5.21-.44.51-1.25.75-1.58.29-.26-.37-.04-.9.35-1.28.77-.73,1.58-2.53,1.63-4.25l.37.02Z"/>
          <path class="cls-1" d="m13.91,42.02c-.44,1.14-1.43,3.56-1.67,4.38-.2.68-.35,1.17-.35,1.56,0,.62.44,1.32.44,1.83,0,.44-.24.68-.66.68-.37,0-.73-.33-1.03-.81-.57-.88-1.25-2.79-1.25-4.82,0-2.57.7-4.4,1.03-5.7.26-1.03.53-1.78.55-2.51,0-.79-.51-1.5-1.21-2.29l.35-.26c.42.18.75.35,1.1.64.46.4,1.41,1.39,1.41,2.29,0,.48-.26.88-.81,2.16-.53,1.25-1.36,3.17-1.36,5.3,0,1.12.15,1.56.33,1.83.13.26.29.31.48,0,.46-.73,1.67-3.41,2.18-4.49l.48.22Zm2.16,1.87c.13.53.33,1.32.64,1.87.73,1.3,1.85,2.02,4.51,2.02,2.31,0,3.12-.4,3.67-.4s1.14.22,1.14.73c0,.88-1.98,1.14-4.33,1.14-3.39,0-5.21-1.14-5.85-3.34-.2-.66-.26-1.36-.26-1.96l.48-.07Zm.24-6.73c1.72-.97,3.65-1.34,5.15-1.34s2.31.13,3.01.44c.46.2.66.51.66.79,0,.26-.15.46-.62.51-.51.09-1.06.13-1.78.44-.92.44-2.46,1.3-3.54,1.96l-.33-.4c.95-.7,2.46-1.8,2.91-2.18.26-.24.26-.4-1.17-.4-.88,0-2.29.13-4.09.7l-.2-.53Z"/>
          <path class="cls-1" d="m9.64,54.23c.51.22.73.31,1.12.64.46.35,1.47,1.45,1.47,2.38,0,.48-.33.88-.86,2.16-.53,1.23-1.41,3.45-1.41,5.7,0,1.12.18,1.72.4,2.16.13.26.33.31.51,0,.46-.73,1.63-3.59,2.13-4.69l.51.24c-.4,1.14-1.3,3.63-1.58,4.42-.22.68-.35,1.14-.35,1.5,0,.66.31,1.32.31,1.87,0,.4-.22.66-.62.66s-.75-.33-1.03-.81c-.62-.86-1.28-2.86-1.28-5.04,0-2.57.66-4.73,1.03-6.03.26-1.03.53-1.8.55-2.51.02-.79-.48-1.5-1.25-2.35l.35-.29Zm9.26.42c.46-.2,1.12-.44,1.61-.44.95,0,2.09.62,2.09,1.1s-.2.59-.35,1.52c-.09.46-.13,1.1-.18,1.78.57-.15,1.03-.33,1.34-.48.92-.33,1.23-.57,1.43-.57.46.02,1.14.29,1.14.7,0,.44-.31.62-1.01.88-.62.2-1.69.51-2.93.75,0,2.24.2,4.42.33,6.07,1.74.48,2.91,1.34,3.54,1.94.44.42.68.84.68,1.23,0,.44-.18.7-.55.7-.35,0-.59-.26-1.01-.66-.77-.73-1.61-1.41-2.57-1.85.02.22.02.44.02.59,0,1.67-1.03,2.84-3.7,2.84-1.91,0-3.46-.88-3.46-2.46,0-1.85,1.89-2.68,4.25-2.68.53,0,1.06.02,1.52.09-.07-1.52-.18-3.76-.22-5.61-.81.13-1.65.18-2.42.18-1.34,0-2.22-.26-3.39-1.96l.33-.31c.86.66,1.78,1.12,2.99,1.12.9,0,1.74-.09,2.49-.22,0-1.08.02-2.33.02-2.88,0-.51-.11-.64-.42-.73-.42-.11-.92-.2-1.52-.22l-.07-.42Zm2.25,12.17c-.66-.15-1.39-.24-2.22-.24-1.32,0-2.77.55-2.77,1.58,0,.95.97,1.39,2.24,1.39,2.35,0,2.75-.88,2.75-2.62v-.11Z"/>
          <path class="cls-1" d="m15.43,79.05c1.12-.37,2.02-.77,2.68-1.12.33-.2.57-.31.75-.31.37,0,.97.22.97.62,0,.42-.26.64-1.1.97-.48.24-2.16.86-3.72,1.23-.31,1.03-.66,2.18-1.03,3.21-1.01,2.93-2.4,6.4-3.32,7.92-.31.51-.51.7-.97.7-.37,0-.64-.42-.64-.92,0-.46.2-.68.55-1.28,1.08-1.63,2.27-3.78,3.34-6.78.29-.79.55-1.69.79-2.57-.77.13-1.67.24-2.42.24-1.3,0-2.31-.46-3.04-2.13l.37-.26c.92.79,1.58,1.19,2.62,1.21,1.01,0,2-.15,2.79-.35.29-1.1.48-2.11.53-2.77.04-.51-.04-.68-.44-.86-.42-.18-.9-.31-1.36-.4l.04-.51c.46-.09.84-.15,1.39-.13.77.04,2.16.55,2.18,1.06,0,.37-.31.9-.57,1.76l-.4,1.47Zm1.23,7.9c.11.64.31,1.41.73,2.05.75,1.17,2.07,1.67,3.89,1.67,2.18,0,2.88-.42,3.48-.42.53,0,1.1.24,1.1.77,0,.42-.55.66-1.21.81-.66.13-1.61.29-2.88.29-2.55,0-4.51-.79-5.17-2.71-.35-.81-.44-1.63-.46-2.4l.53-.07Zm1.19-5c1.03-.44,2.51-.81,3.94-.81s2.42.26,2.93.53c.51.26.77.62.77.95,0,.42-.35.53-.9.57-.4.02-.73.11-1.3.33-.64.24-1.67.75-2.4,1.1l-.29-.37c.73-.48,1.98-1.3,2.27-1.58.18-.13.09-.22-.09-.29-.55-.2-1.28-.26-1.89-.26-.95,0-1.96.13-2.9.33l-.13-.48Z"/>
          <path class="cls-1" d="m17.45,96.22l.26-.42c.48.11.92.22,1.32.46.79.42,1.58,1.32,1.58,1.87,0,.44-.37.62-1.12,1.19-1.45,1.17-4.29,3.76-5.17,4.66-.64.64-.79.88-.79,1.12,0,.29.26.57.75.92,2.22,1.78,4.11,3.17,5.65,5.1.59.77,1.06,1.61,1.06,2.24,0,.57-.29.97-.86.97-.35,0-.62-.26-.77-.55-.24-.42-.46-.97-1.03-1.87-1.01-1.54-2.57-3.08-5.19-5.28-.55-.48-.81-.92-.81-1.41,0-.37.2-.77.55-1.14,1.08-1.3,4.27-4.4,5.26-5.59.37-.44.51-.64.51-.9,0-.35-.31-.79-1.19-1.39Z"/>
          <path class="cls-1" d="m13.91,117.67c.7-.37,1.34-.57,1.83-.57.81,0,1.69.26,1.8.68.29.92.55,1.94,1.14,3.12,2.4-.86,3.06-1.65,3.67-1.94.42-.18,1.03-.13,1.28.13.2.26.09.64-.24.9-.66.53-2.29,1.41-4.09,2.07,1.03,1.72,2.42,3.34,3.81,4.62.51.51.68.73.7,1.08,0,.62-.33,1.45-.79,1.45s-.79-.33-1.39-.68c-1.28-.75-3.08-1.45-5.3-1.45-2.4,0-4.27,1.34-4.27,3.1,0,1.65,1.91,2.77,5.26,2.77,1.63,0,2.38-.22,3.1-.22.66,0,1.14.26,1.14.7,0,.59-1.01,1.01-3.74,1.01-3.61,0-6.89-1.17-6.89-4.09,0-2.33,2.53-4.07,5.81-4.07,2.05,0,3.72.44,4.69.75.22.07.26.02.11-.15-1.08-1.25-2.24-2.84-3.28-4.51-1.34.4-3.21.84-4.64.86-2.07,0-2.86-.77-4.03-2.42l.37-.35c1.32,1.03,1.96,1.5,3.63,1.5,1.12,0,2.75-.31,4.03-.7-.55-.99-.99-1.98-1.47-2.68-.37-.55-.92-.53-2.16-.51l-.09-.4Z"/>
          <path class="cls-1" d="m15.14,138.11l.15-.42c.42-.07,1.1-.04,1.47.09,1.03.24,1.98,1.17,1.98,1.87,0,.42-.62.57-1.14,1.23-.9,1.03-3.08,4.16-3.98,5.74-.13.18-.02.29.15.18,1.12-.68,2.11-1.01,2.97-1.01,1.76,0,2.62.88,2.66,2.62.02.99-.09,2.27-.09,3.28,0,1.19.55,1.78,1.76,1.78,2.4,0,4.07-2.38,5.02-4.91l.46.15c-.92,4.75-3.52,6.18-5.72,6.18-1.85,0-2.97-.92-2.97-2.86,0-1.21.2-2.51.2-3.76,0-.97-.35-1.72-1.61-1.72-2.02,0-3.87,1.98-4.88,4.07-.66,1.39-1.06,2.66-1.34,3.43-.2.48-.44.75-.88.75-.37,0-.75-.37-.75-1.01,0-.77.86-2.13,1.98-4.07,1.87-3.23,5.1-8.58,5.9-10.01.29-.51.22-.81-.07-1.03-.29-.22-.86-.44-1.28-.57Z"/>
          <path class="cls-1" d="m16.42,173.91c5.3-.95,7.83-3.65,7.83-7.59s-2.84-6.29-6.43-6.29c-.24,0-.51.02-.77.04.53.7.95,1.47.95,2.31,0,1.03-.22,2.25-.66,3.5-.9,2.57-3.41,6.78-5.63,6.78-1.45,0-2.95-2.31-2.95-4.99,0-2.16,1.03-4.42,2.88-6.05,1.76-1.58,3.98-2.31,6.29-2.31,4.47,0,7.9,2.93,7.9,7.39,0,3.61-2.29,7.24-9.33,7.72l-.09-.51Zm-.18-13.71c-1.5.33-2.93,1.06-4.03,2.16-1.39,1.34-2.22,3.08-2.22,4.95,0,2.09.95,3.63,1.8,3.63,1.45,0,3.41-3.37,4.29-5.41.42-1.03.77-2.35.77-3.34,0-.77-.24-1.36-.62-1.98Z"/>
          <path class="cls-1" d="m10.63,195.62v1.08c0,.11-.44.51-1.14.51h-.22v-9.59c-.68.7-1.43,1.36-2.22,1.94l-.24-.26c1.58-1.56,2.9-3.56,3.83-5.65h-3.26l-.15-.66h3.7c.33-.81.59-1.65.79-2.46h-1.67c-.57.81-1.25,1.52-1.98,2.02l-.33-.22c.95-1.17,1.76-2.99,2.22-4.93l2.07.68c-.09.26-.35.44-.81.42-.22.48-.46.95-.73,1.39h4.05l.95-1.21s1.08.84,1.8,1.52c-.07.22-.26.33-.59.33h-3.26c-.26.84-.57,1.67-.97,2.46h2.68l.95-1.19s1.06.84,1.74,1.5c-.07.24-.26.35-.57.35h-5.13c-.48.95-1.08,1.85-1.74,2.68l.53.22h1.58c.2-.73.42-1.72.55-2.46l2.05.57c-.09.24-.35.44-.79.42-.33.46-.75.99-1.21,1.47h1.89l.84-.99s.92.73,1.52,1.28c-.04.24-.24.35-.55.35h-2.84v2.13h1.17l.75-.97s.86.7,1.39,1.23c-.07.24-.26.35-.55.35h-2.75v2.16h1.17l.75-.95s.86.68,1.39,1.23c-.07.24-.26.35-.55.35h-2.75v2.24h1.28l.9-1.1s1.01.81,1.63,1.41c-.07.24-.26.35-.57.35h-6.56Zm0-8.45v2.13h2.02v-2.13h-2.02Zm2.02,2.75h-2.02v2.16h2.02v-2.16Zm0,2.79h-2.02v2.24h2.02v-2.24Zm14.52,2.97c.4.18.44.35.44.64,0,.55-.48.88-2.51.88h-1.21c-1.23,0-1.43-.37-1.43-1.28v-5.61h-1.08c-.48,3.98-2.2,6.05-6.47,7.28l-.13-.35c3.61-1.56,4.77-3.54,5.1-6.93h-.26v.79c0,.11-.46.42-1.17.42h-.22v-13.22l1.65.68h4.53l.75-.9,1.65,1.3c-.15.15-.42.31-.88.37v10.91c0,.11-.53.46-1.19.46h-.22v-.81h-.73v5.26c0,.24.04.31.44.31h1.72c.15-.02.22-.07.29-.24.13-.33.35-1.56.57-2.73h.29l.07,2.77Zm-7.55-16.06v2.86h4.91v-2.86h-4.91Zm4.91,3.52h-4.91v2.9h4.91v-2.9Zm-4.91,6.54h4.91v-2.97h-4.91v2.97Z"/>
          <path class="cls-1" d="m26.94,217.36c.48.18.59.35.59.66,0,.68-.7.92-4.27.92h-2.42c-1.8,0-2.2-.33-2.2-1.54v-8.87h-3.06c-.46,5.81-2.29,9.09-8.45,11.04l-.15-.33c5.24-2.33,6.67-5.52,6.95-10.71h-6.58l-.18-.66h9.29v-8.45l2.27.24c-.04.31-.26.53-.79.62v7.59h6.23l1.12-1.39s1.28.99,2.02,1.69c-.04.24-.24.35-.57.35h-6.65v8.54c0,.42.11.53.99.53h2.2c1.01,0,1.78,0,2.11-.04.26-.02.35-.11.44-.35.18-.42.46-2.05.73-3.67h.31l.07,3.83Zm-17.45-16.61c5.52,3.17,4.25,6.97,2.6,5.59-.26-1.74-1.69-4-2.88-5.44l.29-.15Zm16.39.95c-.11.22-.42.37-.86.29-1.34,1.83-2.99,3.65-4.47,4.82l-.29-.24c1.03-1.39,2.4-3.76,3.39-5.96l2.22,1.1Z"/>
          <path class="cls-1" d="m22.93,227.68c-.2.2-.46.26-1.03.26-.92,1.25-2.07,2.4-3.41,3.43,2.66,1.39,5.92,2.33,9.09,2.84l-.04.26c-.59.07-1.06.51-1.25,1.17-1.08-.24-2.11-.55-3.15-.9l.55.44c-.11.11-.42.29-.77.35v5.46c-.02.13-.75.48-1.21.48h-.22v-1.39h-8.27v1.01c0,.11-.46.44-1.17.44h-.22v-6.56c-1.41.51-2.93.95-4.53,1.3l-.15-.37c3.54-1.03,6.87-2.62,9.46-4.58-1.06-.84-1.96-1.76-2.71-2.79-1.47,1.41-3.3,2.73-5.32,3.63l-.24-.29c2.86-1.74,5.41-4.58,6.56-6.82l2.27.53c-.07.22-.33.35-.9.35-.29.37-.59.75-.95,1.14h5.04l1.03-.88,1.56,1.47Zm-12.59-3.04c-.02,1.5-.64,2.53-1.23,2.99-.53.42-1.34.51-1.63.04-.2-.46.07-.92.48-1.23.9-.53,1.78-2,1.78-3.56h.38c.11.4.18.79.2,1.14h6.14v-2.62l2.27.24c-.04.31-.26.53-.79.59v1.78h6.67l.9-.97,1.69,1.63c-.15.15-.4.2-.86.22-.62.81-1.8,1.94-2.71,2.6l-.24-.18c.37-.7.88-1.83,1.23-2.68h-14.28Zm11.38,9.57c-1.5-.59-2.88-1.32-4.14-2.18-1.36.95-2.88,1.76-4.58,2.46l.48.22h7.79l.44-.51Zm-.24,5.21v-4.09h-8.27v4.09h8.27Zm-6.78-11.68c-.13.15-.29.29-.44.44.81.95,1.87,1.78,3.08,2.53,1.1-.92,2.05-1.91,2.79-2.97h-5.43Z"/>
          <path class="cls-1" d="m12.9,244.77c.37-.13.81-.29,1.43-.29.88,0,2.49.75,2.49,1.3,0,.48-.44.73-.68,1.28-.22.51-.53,1.32-.92,2.27.57-.11,1.28-.2,1.78-.2,1.61,0,2.55.9,2.55,3.46s-.79,5.61-2.07,7.24c-.64.79-1.52,1.34-2.62,1.34-.73,0-.86-.29-1.14-.92-.15-.35-.31-.59-1.5-1.63l.22-.35c1.14.73,2.13,1.28,2.62,1.28.66,0,1.17-.24,1.69-1.12.75-1.1,1.52-3.74,1.52-6.18,0-1.56-.37-2.22-1.54-2.22-.51,0-1.21.13-1.96.31-.59,1.45-1.32,3.1-2.02,4.53-1.19,2.38-2.29,4.51-3.19,5.88-.33.53-.57.66-.9.66-.31,0-.66-.29-.66-.81,0-.35.09-.62.35-.99,1.19-1.52,2.13-3.01,3.37-5.33.53-1.01,1.1-2.29,1.61-3.52-.81.26-1.52.53-1.96.7-.92.35-1.23.59-1.76.59s-1.39-.84-1.54-1.52c-.07-.35-.04-.88.04-1.25l.42-.09c.26.59.42,1.28,1.03,1.28.7,0,2.62-.51,4.2-.86.66-1.65,1.12-3.06,1.12-3.45,0-.26-.07-.46-.33-.59-.33-.15-1.12-.26-1.65-.33v-.44Zm8.27,4.38c1.76.24,2.86.81,3.72,1.78.81.86,1.36,2.29,1.36,3.94,0,.9-.29,1.63-.95,1.63-.62,0-.57-.59-1.21-.73-.46-.09-1.8,0-2.55.09l-.11-.51c.79-.18,2.13-.46,2.73-.64.46-.18.53-.4.51-.95-.04-.57-.24-1.52-.88-2.4-.59-.86-1.45-1.45-2.84-1.72l.22-.51Zm.92-3.74c1.1.46,1.92.92,2.44,1.45.55.48.77.86.77,1.28,0,.35-.22.57-.53.57-.35,0-.59-.46-1.01-1.01-.44-.55-1.03-1.23-1.98-1.89l.31-.4Zm1.94-1.36c1.1.38,1.94.79,2.46,1.23.57.46.81.9.81,1.34,0,.37-.2.57-.53.57-.35,0-.55-.53-1.03-1.03-.46-.55-1.01-1.06-2-1.76l.29-.35Z"/>
          <path class="cls-1" d="m13.93,266.86s1.1.86,1.76,1.5c-.07.22-.26.33-.57.33h-7.83l-.18-.62h5.88l.95-1.21Zm-1.36,3.98l.84-1.08s1.01.79,1.61,1.39c-.07.24-.26.35-.55.35h-6.18l-.18-.66h4.47Zm-4.29,3.43l-.18-.62h4.38l.88-1.12s1.01.81,1.63,1.41c-.04.22-.26.33-.55.33h-6.16Zm.09-8.36l-.18-.64h4.33l.92-1.19s1.08.86,1.72,1.47c-.04.24-.26.35-.55.35h-6.25Zm6.29,16.48c-.02.15-.68.48-1.14.48h-.2v-1.19h-3.76v1.76c0,.13-.57.46-1.17.46h-.2v-8.08l1.45.64h3.45l.77-.84,1.72,1.32c-.15.15-.48.33-.92.42v5.02Zm-1.34-1.32v-3.94h-3.76v3.94h3.76Zm12.48-14.19s1.17.9,1.83,1.58c-.07.22-.26.33-.55.33h-6.58c-.02,1.28-.04,2.49-.11,3.61h4.03l.84-.88,1.65,1.39c-.15.15-.44.29-.88.33-.2,5.65-.7,8.87-1.69,9.83-.57.55-1.36.81-2.27.79,0-.42-.09-.79-.35-1.01-.31-.24-1.12-.44-1.89-.55l.02-.4c.84.07,2.24.2,2.71.2.4,0,.59-.04.81-.24.64-.59,1.06-3.74,1.28-8.8h-4.29c-.35,4.75-1.56,8.21-5.85,10.94l-.22-.29c4.38-3.94,4.78-8.43,4.67-14.92h-3.06l-.18-.64h4.62v-4.09l2.25.24c-.04.31-.26.53-.79.59v3.26h3.06l.97-1.28Z"/>
          <path class="cls-1" d="m27.82,299.77c-.95,1.39-2.58,2.75-4.45,2.75-1.52,0-2.57-.97-2.57-2.88,0-2.4.9-4.88.9-7.19,0-1.36-.4-2.09-1.47-2.09-1.83,0-4.31,1.91-6.47,4.29-.15,2.46.07,5.06.2,6.34.04.57.11,1.01.11,1.52,0,.73-.33,1.76-.9,1.76-.42,0-.66-.26-.75-.75-.09-.53-.18-.9-.37-1.39-.18-.57-.92-1.83-1.56-2.77l-1.36,1.96c-.26.35-.48.64-.81.64-.31,0-.57-.33-.57-.75s.09-.68.46-1.12c.9-.92,3.21-3.81,4.71-6.09.07-.62.13-1.19.2-1.76-.73.37-1.47.79-2,1.1-.46.29-.68.77-1.03.77-.66,0-1.58-.81-1.8-1.52-.09-.33-.11-.68-.09-.97l.4-.13c.33.66.64,1.03,1.03,1.03.57,0,2.75-1.06,3.65-1.54.18-1.36.31-2.49.33-3.1,0-.48-.09-.59-.48-.73-.29-.11-.68-.22-1.17-.33v-.42c.4-.13.81-.24,1.32-.24.9,0,2.02.97,2.02,1.58,0,.46-.26.66-.51,1.52-.11.33-.24.88-.42,1.58.35.22.77.64.77.86,0,.24-.24.42-.51.77-.2.24-.42.53-.66.86,2-1.85,4.58-3.76,6.75-3.76,1.5,0,2.44.92,2.44,2.93,0,1.69-.95,4.73-.95,6.93,0,1.17.51,1.65,1.54,1.65,1.41,0,2.46-.53,3.72-1.67l.35.37Zm-15.05-3.74c-.57.88-1.3,1.89-1.96,2.84.59.84,1.36,1.83,1.67,2.2.2.22.31.2.31-.15.02-1.03-.09-2.97-.02-4.88Z"/>
          <path class="cls-1" d="m18.4,315.74c1.12-.15,2.18-.37,3.04-.66.73-.24,1.12-.48,1.36-.48.48,0,1.06.22,1.06.7,0,.31-.24.55-.66.7-.81.31-2.66.7-4.75.95.07,1.39.18,2.57.29,3.59,2.66.51,4.47,1.69,5.1,2.27.46.4.75.79.75,1.21s-.26.66-.59.66c-.4,0-.64-.24-1.03-.59-1.08-1.03-2.51-1.87-4.11-2.35,0,.31.02.59.02.88,0,1.8-1.52,2.88-3.92,2.88-2.13,0-3.67-.99-3.67-2.53,0-1.72,2.22-2.66,4.91-2.66.48,0,.92.02,1.36.07-.04-.84-.11-2-.15-3.3-.88.09-1.76.13-2.64.13-3.01,0-4.49-1.45-2.2-3.72l.46.26c-1.36,1.78-.46,2.29,1.69,2.29.88,0,1.76-.04,2.64-.15v-.86c0-.7,0-1.45.02-2.16-1.08.11-2.18.2-3.21.2-2,0-3.28-.55-4.4-2.29l.4-.29c1.06.86,1.76,1.41,3.78,1.41,1.1,0,2.31-.11,3.46-.26.04-1.1.07-1.94.07-2.13,0-.44-.09-.55-.44-.66-.44-.13-.9-.2-1.58-.26l-.04-.46c.4-.18.92-.33,1.5-.33.95,0,2.31.59,2.31,1.17,0,.46-.31.64-.4,1.19-.07.35-.13.79-.2,1.3,1.36-.24,2.57-.53,3.26-.75.57-.2.95-.44,1.25-.44.51,0,1.14.24,1.14.7,0,.37-.31.55-.73.68-.77.29-2.77.75-5.04,1.08-.07.73-.09,1.61-.09,2.64v.4Zm-.84,5.68c-.64-.11-1.3-.18-1.96-.18-2.11,0-3.48.77-3.48,1.65,0,.75.77,1.36,2.2,1.36,2.6,0,3.21-.79,3.23-2.84Z"/>
          <path class="cls-1" d="m16.09,329.25c.42-.22.92-.46,1.52-.46.88,0,2.24.48,2.24,1.01s-.35.84-.37,1.39c-.02.26-.04.7-.04,1.21,3.56-.37,4.91-.57,5.35-.57.77,0,1.92.42,1.92,1.12,0,.4-.22.55-.62.55-.73,0-2.35-.51-6.67-.15,0,1.03.02,2.24.02,3.32.62.66.9,1.67.9,2.93,0,3.96-2.99,6.38-7.17,7.39l-.26-.53c2.62-.97,4.78-2.51,5.57-4.62-2.11.99-3.85-.7-3.85-2.88,0-1.58,1.06-3.06,2.84-3.06.33,0,.59.04.88.11-.02-.66-.07-1.58-.11-2.55-2.11.24-4.38.75-5.7,1.06-.97.26-1.36.59-1.96.59-.73,0-1.74-.97-1.98-1.58-.15-.35-.2-.86-.22-1.3l.42-.15c.48.73.9,1.39,1.63,1.39.81.02,5.24-.64,7.77-.92-.04-.77-.09-1.5-.13-2.05-.02-.42-.13-.55-.46-.64-.33-.09-.81-.13-1.43-.15l-.07-.44Zm2.79,9.64c0-1.39-.68-2.11-1.61-2.11-1.08,0-1.76.95-1.76,2.05,0,1.23.75,2.05,1.74,2.05,1.08,0,1.63-.51,1.63-1.98Z"/>
          <path class="cls-1" d="m21.17,351.18c0-1.67,1.39-3.01,3.06-3.01s3.01,1.34,3.01,3.01-1.36,3.04-3.01,3.04-3.06-1.39-3.06-3.04Zm.75,0c0,1.28,1.01,2.31,2.31,2.31s2.27-1.03,2.27-2.31-1.01-2.29-2.27-2.29-2.31,1.01-2.31,2.29Z"/>
        </g>
      </g>
      <g>
        <rect class="cls-2" x="175.58" width="95.73" height="277.14"/>
        <g>
          <path class="cls-1" d="m190.72,20.3h64.61v16.32c-1.43-.97-14.04-9.29-32.31-9.29s-30.88,8.32-32.31,9.29v-16.32Z"/>
          <path class="cls-1" d="m218.48,69.76c-.65,0-.84,0-.84.2,0,.26.52.52,1.3.65.84.13,1.37.65,1.37,1.1,0,.39-1.04,1.69-1.17,1.95-.46,1.04-.98,6.11-1.17,7.09-1.75,9.49-6.63,17.03-15.86,20.48-1.95.71-5.26,1.5-7.02,1.5-.58,0-.84-.2-.84-.46,0-.46.78-.65,1.56-.85,4.22-.91,9.42-4.29,12.35-7.87,3.06-3.83,4.62-8.06,5.66-15.28.26-1.69.46-3.9.46-5.13,0-3.38-1.36-3.38-2.54-3.38h-3.44c-5.14,0-8.45,0-10.73.13-.2.06-1.17.19-1.37.19s-.33-.19-.58-.46l-1.24-1.5c-.13-.19-.26-.32-.26-.39,0-.13.07-.2.2-.2.46,0,2.47.2,2.92.26,2.92.13,5.85.19,8.91.19h12.68c1.88,0,1.88-.78,1.88-3.58,0-2.08-.2-11.25-.2-13.13,0-2.93,0-3.19-.19-4.62-.07-.39-.52-2.08-.52-2.47s.33-.52.71-.52c.26,0,5.27.97,5.72,1.17.33.2.91.46.91.84,0,.52-.52.98-.91,1.3-.78.71-.98,1.1-.98,2.27,0,2.02-.19,10.99-.19,12.81,0,5.85,0,5.92,2.08,5.92h11.5c2.73,0,3.45,0,4.16-1.1,1.89-2.99,2.15-3.32,2.86-3.32.91,0,7.08,4.62,7.08,5.27,0,.91-1.3.91-3.51.91h-15.99c-2.47,0-2.99,1.24-2.99,3.77-.07,2.79-.07,14.3-.07,17.55,0,3.45,0,5.13,8.65,5.13,6.63,0,8-1.3,8.78-3.38,1.04-2.79,1.17-3.64,1.43-5.85.07-.33.13-.72.26-.72.26,0,.52.91.65,1.82.07.39.58,4.36,2.54,5.59.52.33.78.52.78,1.04,0,2.02-2.47,4.36-4.94,5.07-2.08.65-4.42.78-7.93.78-14.04,0-14.43-3.32-14.43-8.84,0-4.62,0-13.85-.26-19.37-.13-2.21-.97-2.6-2.79-2.6h-4.42Zm-5.07-8.38c0,1.17-1.04,4.36-2.67,4.36-.98,0-1.11-.33-1.82-2.6-1.95-5.85-3.58-8.06-5.85-11.12-.39-.52-.72-1.17-.65-1.24.39-.65,10.99,5.53,10.99,10.6Zm26.13-11.44c3.32,1.95,3.45,2.08,3.45,2.86s-.58.84-1.69,1.04c-1.1.19-10.99,11.7-12.61,11.7-.06,0-.2-.07-.2-.2,0-.2,2.34-3.71,2.67-4.22,3.57-5.92,5-9.95,5.13-10.99.13-.85.26-1.37.58-1.56.26-.07,2.21,1.11,2.67,1.37Z"/>
          <path class="cls-1" d="m210.16,113.64c1.43,0,1.82-.2,2.34-.65,1.37-1.37,1.5-1.5,1.88-1.5.26,0,4.75,2.6,4.75,3.83,0,.33-.07.39-.78.98-.91.78-1.04.84-1.04,7.41,0,2.79.39,16.58.39,19.7,0,.46,0,2.02-.46,2.93-.58,1.17-2.21,2.08-3.18,2.08-1.17,0-1.24-.59-1.43-1.95-.19-1.17-.84-1.5-1.95-1.5h-6.3c-.85,0-1.5.13-1.82.84-.2.39-.2,4.03-.2,4.36,0,1.88-2.21,3.25-3.83,3.25-1.04,0-1.04-.52-1.04-.98,0-.26.13-1.49.13-1.82.33-7.67.52-25.42.52-26.91,0-1.75,0-6.76-.39-9.95-.06-.39-.26-1.62-.26-1.95s.07-.65.39-.65c.06,0,4.35,1.89,4.62,2.02,1.04.46,1.3.46,2.27.46h5.4Zm.91,14.88c.58,0,1.95,0,1.95-1.75,0-1.23,0-9.95-.2-10.46-.33-.98-1.43-.98-1.88-.98h-6.44c-.71,0-1.82,0-2.08,1.37-.07.65-.07,8.52-.07,9.95,0,.98.2,1.88,1.95,1.88h6.76Zm.06,14.76c1.89,0,1.89-1.04,1.89-2.47v-8.71c0-1.62-.98-1.82-1.89-1.82h-6.89c-1.89,0-1.89.58-1.89,4.29v6.89c0,1.69,1.17,1.82,1.89,1.82h6.89Zm19.31-1.3c-1.43,0-1.5.39-1.88,3.38-1.43,10.01-4.29,13.91-9.62,18.53-1.88,1.63-3.9,2.73-4.36,2.73-.13,0-.39,0-.39-.26,0-.07,2.73-3.12,3.25-3.77,6.63-8.32,7.54-16.06,7.54-31.46,0-9.56-.39-13.72-.65-16.45-.06-.46-.52-2.47-.52-2.93,0-.13.13-.19.26-.19s3.64,1.1,5.53,1.69c.65.2,1.82.26,1.95.26h9.1c1.1,0,1.69,0,2.34-.78.71-.85,1.43-1.69,1.82-1.69.58,0,5.39,3.25,5.39,4.36,0,.52-.19.71-1.69,1.88-.33.26-.52.52-.71,1.11-.26.91-.26,6.37-.26,7.67,0,1.82.2,28.21.39,31.46.13,1.43.13,2.34.13,2.67,0,5.2-4.1,7.35-5.66,7.35-.39,0-.39-.2-.52-.98-.32-1.56-2.01-2.73-3.05-3.18s-2.02-.84-2.02-1.04c0-.71,5.66-.07,6.18-.91.52-.78.52-2.14.52-3.12,0-2.28-.06-12.48-.06-14.56,0-.33,0-1.75-1.88-1.75h-11.12Zm.78-14.17c-1.95,0-1.95,1.11-1.95,2.21,0,1.24-.19,7.15-.19,8.45,0,1.82,1.3,1.82,2.21,1.82h10.14c.85,0,1.62-.19,1.89-1.23v-9.43c0-1.82-1.3-1.82-1.95-1.82h-10.14Zm-.06-12.54c-1.62,0-1.95.84-1.95,1.88v6.83c0,1.3.19,2.15,2.08,2.15h9.95c1.43,0,2.08-.39,2.08-1.95v-6.76c0-.84,0-2.14-1.89-2.14h-10.27Z"/>
          <path class="cls-1" d="m207.69,210.82c-1.49,0-5.98,0-8.25.13-.2.07-1.17.2-1.37.2s-.33-.2-.58-.46l-1.23-1.5c-.26-.26-.26-.33-.26-.39,0-.13.07-.2.2-.2.46,0,2.47.2,2.92.26,2.93.13,5.85.2,8.84.2h22.62c1.95,0,1.95-.26,1.95-6.7,0-3.71-.32-4.68-2.21-4.68h-25.22c-1.5,0-5.98,0-8.25.2-.2,0-1.17.13-1.37.13s-.33-.13-.58-.39l-1.24-1.5q-.26-.33-.26-.46c0-.07.06-.13.19-.13.46,0,2.47.2,2.93.2,2.92.13,5.85.26,8.84.26h13.46c1.75,0,1.75-.98,1.75-3.64,0-5.39-.13-5.79-1.95-5.79h-7.21c-1.5,0-5.92,0-8.19.13-.26,0-1.24.2-1.43.2s-.33-.2-.52-.46l-1.3-1.5c-.26-.26-.26-.33-.26-.46,0-.06.13-.13.2-.13.52,0,2.47.2,2.92.26,2.99.13,5.85.2,8.91.2h6.89c1.75,0,1.75-.97,1.75-1.82,0-3.05-.33-6.04-.52-7.02-.07-.33-.65-1.5-.65-1.76,0-.52.71-.58,1.11-.58.84,0,1.23.13,4.75,1.04,2.08.58,2.41.72,2.41,1.56,0,.58-.26.78-1.5,1.69-.39.33-.58.78-.58,1.89,0,.39,0,3.64.06,3.9.26,1.04.97,1.1,1.82,1.1h7.08c2.34,0,2.99-.07,3.71-.65.52-.45,2.21-3.44,2.86-3.44.33,0,2.92,1.88,4.36,2.99,1.3.97,1.69,1.3,1.69,1.88,0,.97-.33.97-3.45.97h-16.25c-1.56,0-1.95.52-1.95,1.89,0,.91,0,6.17.13,6.63.26.91,1.24.91,1.82.91h12.68c2.6,0,3.31,0,4.16-1.3,1.62-2.54,1.75-2.86,2.34-2.86.46,0,6.37,4.03,6.37,4.94s-1.3.91-3.51.91h-12.8c-.33,0-.65,0-.65.33s.2.39,2.02,1.11c.58.26,1.36.52,1.36,1.3,0,.39-.52.78-1.36,1.43-.52.39-.52.65-.52,2.93,0,3.45.07,4.29,1.82,4.29s2.34-.33,2.79-.71c.52-.46,2.28-3.38,2.92-3.38.39,0,6.11,3.97,6.11,4.88,0,.97-1.24.97-3.45.97h-8.06c-1.43,0-1.89.52-1.89,1.75,0,1.95.13,10.73.13,12.48,0,1.95,0,3.97-1.36,5.33-1.82,1.69-4.42,2.41-5.2,2.41-1.17,0-1.3-.2-3.45-2.67-.52-.58-1.24-1.37-4.03-2.99-.52-.33-1.3-.78-1.3-.84,0-.2.26-.2.32-.2,1.24,0,6.63.39,7.74.39,2.15,0,2.15-.2,2.15-1.95s0-11.64-.13-12.48c-.2-1.04-.84-1.24-1.89-1.24h-22.88Zm6.18,15.8c-1.43,0-1.62-.58-2.47-2.73-1.3-3.32-3.19-6.7-4.16-7.87-.26-.46-.52-.71-.52-.84s.13-.13.2-.13c.13,0,1.37.39,2.27.71,6.24,2.34,7.67,4.35,7.67,7.67,0,.58-.52,3.19-2.99,3.19Z"/>
          <path class="cls-1" d="m255.33,256.12h-64.61v-16.32c1.43.98,14.04,9.3,32.31,9.3s30.88-8.32,32.31-9.3v16.32Z"/>
        </g>
      </g>
    </g>
  </g>
</svg>